<svg xmlns="http://www.w3.org/2000/svg" xmlns:xlink="http://www.w3.org/1999/xlink" width="1080" zoomAndPan="magnify" viewBox="0 0 810 809.999993" height="1080" preserveAspectRatio="xMidYMid meet" version="1.2"><defs><clipPath id="117dd55a18"><path d="M 9.796875 9.046875 L 803.296875 9.046875 L 803.296875 802.546875 L 9.796875 802.546875 Z M 9.796875 9.046875 "/></clipPath></defs><g id="bab9aba624"><g clip-rule="nonzero" clip-path="url(#117dd55a18)"><path style=" stroke:none;fill-rule:nonzero;fill:#000000;fill-opacity:1;" d="M 406.546875 9.046875 C 400.054688 9.046875 393.566406 9.207031 387.082031 9.527344 C 380.59375 9.84375 374.121094 10.324219 367.660156 10.957031 C 361.199219 11.59375 354.757812 12.390625 348.332031 13.34375 C 341.910156 14.296875 335.515625 15.40625 329.144531 16.671875 C 322.777344 17.9375 316.445312 19.359375 310.144531 20.9375 C 303.847656 22.515625 297.589844 24.246094 291.378906 26.132812 C 285.164062 28.015625 279 30.054688 272.886719 32.242188 C 266.773438 34.429688 260.71875 36.765625 254.71875 39.25 C 248.71875 41.734375 242.785156 44.363281 236.914062 47.140625 C 231.046875 49.917969 225.25 52.835938 219.523438 55.894531 C 213.796875 58.957031 208.148438 62.15625 202.578125 65.496094 C 197.007812 68.832031 191.523438 72.304688 186.125 75.914062 C 180.726562 79.519531 175.421875 83.257812 170.203125 87.125 C 164.988281 90.992188 159.871094 94.988281 154.851562 99.105469 C 149.832031 103.226562 144.917969 107.464844 140.105469 111.824219 C 135.296875 116.1875 130.59375 120.664062 126.003906 125.253906 C 121.414062 129.84375 116.9375 134.546875 112.574219 139.355469 C 108.214844 144.167969 103.976562 149.082031 99.855469 154.101562 C 95.738281 159.121094 91.742188 164.238281 87.875 169.453125 C 84.007812 174.671875 80.269531 179.976562 76.664062 185.375 C 73.054688 190.773438 69.582031 196.257812 66.246094 201.828125 C 62.90625 207.398438 59.707031 213.046875 56.644531 218.773438 C 53.585938 224.5 50.667969 230.296875 47.890625 236.164062 C 45.113281 242.035156 42.484375 247.96875 40 253.96875 C 37.515625 259.96875 35.179688 266.023438 32.992188 272.136719 C 30.804688 278.25 28.765625 284.414062 26.882812 290.628906 C 24.996094 296.839844 23.265625 303.097656 21.6875 309.394531 C 20.109375 315.695312 18.6875 322.027344 17.421875 328.394531 C 16.15625 334.765625 15.046875 341.160156 14.09375 347.582031 C 13.140625 354.007812 12.34375 360.449219 11.707031 366.910156 C 11.074219 373.371094 10.59375 379.84375 10.277344 386.332031 C 9.957031 392.816406 9.796875 399.304688 9.796875 405.796875 C 9.796875 412.292969 9.957031 418.78125 10.277344 425.265625 C 10.59375 431.75 11.074219 438.226562 11.707031 444.6875 C 12.34375 451.148438 13.140625 457.589844 14.09375 464.015625 C 15.046875 470.4375 16.15625 476.832031 17.421875 483.199219 C 18.6875 489.570312 20.109375 495.902344 21.6875 502.199219 C 23.265625 508.5 24.996094 514.753906 26.882812 520.96875 C 28.765625 527.183594 30.804688 533.347656 32.992188 539.460938 C 35.179688 545.574219 37.515625 551.628906 40 557.628906 C 42.484375 563.625 45.113281 569.5625 47.890625 575.429688 C 50.667969 581.300781 53.585938 587.097656 56.644531 592.824219 C 59.707031 598.550781 62.90625 604.199219 66.246094 609.769531 C 69.582031 615.339844 73.054688 620.820312 76.664062 626.222656 C 80.269531 631.621094 84.007812 636.925781 87.875 642.140625 C 91.742188 647.355469 95.738281 652.476562 99.855469 657.492188 C 103.976562 662.511719 108.214844 667.429688 112.574219 672.238281 C 116.9375 677.050781 121.414062 681.75 126.003906 686.34375 C 130.59375 690.933594 135.296875 695.410156 140.105469 699.769531 C 144.917969 704.132812 149.832031 708.371094 154.851562 712.492188 C 159.871094 716.609375 164.988281 720.601562 170.203125 724.472656 C 175.421875 728.339844 180.726562 732.078125 186.125 735.683594 C 191.523438 739.292969 197.007812 742.765625 202.578125 746.101562 C 208.148438 749.441406 213.796875 752.640625 219.523438 755.699219 C 225.25 758.761719 231.046875 761.679688 236.914062 764.457031 C 242.785156 767.230469 248.71875 769.863281 254.71875 772.347656 C 260.71875 774.832031 266.773438 777.167969 272.886719 779.355469 C 279 781.542969 285.164062 783.578125 291.378906 785.464844 C 297.589844 787.347656 303.847656 789.082031 310.144531 790.660156 C 316.445312 792.234375 322.777344 793.65625 329.144531 794.925781 C 335.515625 796.191406 341.910156 797.300781 348.332031 798.253906 C 354.757812 799.207031 361.199219 800 367.660156 800.636719 C 374.121094 801.273438 380.59375 801.75 387.082031 802.070312 C 393.566406 802.390625 400.054688 802.546875 406.546875 802.546875 C 413.042969 802.546875 419.53125 802.390625 426.015625 802.070312 C 432.5 801.75 438.976562 801.273438 445.4375 800.636719 C 451.898438 800 458.339844 799.207031 464.761719 798.253906 C 471.1875 797.300781 477.582031 796.191406 483.949219 794.925781 C 490.320312 793.65625 496.652344 792.234375 502.949219 790.65625 C 509.25 789.082031 515.503906 787.347656 521.71875 785.464844 C 527.933594 783.578125 534.097656 781.542969 540.210938 779.355469 C 546.324219 777.167969 552.378906 774.832031 558.378906 772.347656 C 564.375 769.863281 570.3125 767.230469 576.179688 764.457031 C 582.050781 761.679688 587.847656 758.761719 593.574219 755.699219 C 599.300781 752.640625 604.949219 749.441406 610.519531 746.101562 C 616.085938 742.765625 621.570312 739.292969 626.972656 735.683594 C 632.371094 732.078125 637.675781 728.339844 642.890625 724.472656 C 648.105469 720.601562 653.226562 716.609375 658.242188 712.492188 C 663.261719 708.371094 668.179688 704.132812 672.988281 699.769531 C 677.800781 695.410156 682.5 690.933594 687.09375 686.34375 C 691.683594 681.75 696.160156 677.050781 700.519531 672.238281 C 704.882812 667.429688 709.121094 662.511719 713.242188 657.492188 C 717.359375 652.476562 721.351562 647.355469 725.222656 642.140625 C 729.089844 636.925781 732.828125 631.621094 736.433594 626.222656 C 740.042969 620.820312 743.515625 615.339844 746.851562 609.769531 C 750.191406 604.199219 753.390625 598.550781 756.449219 592.824219 C 759.511719 587.097656 762.429688 581.300781 765.207031 575.429688 C 767.980469 569.5625 770.613281 563.625 773.097656 557.628906 C 775.582031 551.628906 777.917969 545.574219 780.105469 539.460938 C 782.292969 533.347656 784.328125 527.183594 786.214844 520.96875 C 788.097656 514.753906 789.832031 508.5 791.410156 502.199219 C 792.984375 495.902344 794.40625 489.570312 795.675781 483.199219 C 796.941406 476.832031 798.050781 470.4375 799.003906 464.015625 C 799.957031 457.589844 800.75 451.148438 801.386719 444.6875 C 802.023438 438.226562 802.5 431.75 802.820312 425.265625 C 803.140625 418.78125 803.296875 412.292969 803.296875 405.796875 C 803.296875 399.304688 803.136719 392.816406 802.816406 386.332031 C 802.5 379.847656 802.019531 373.375 801.382812 366.910156 C 800.746094 360.449219 799.949219 354.007812 798.996094 347.585938 C 798.042969 341.164062 796.933594 334.769531 795.667969 328.398438 C 794.398438 322.03125 792.976562 315.699219 791.398438 309.402344 C 789.820312 303.101562 788.089844 296.847656 786.203125 290.632812 C 784.316406 284.421875 782.28125 278.257812 780.09375 272.144531 C 777.90625 266.03125 775.570312 259.976562 773.085938 253.976562 C 770.597656 247.976562 767.96875 242.042969 765.191406 236.175781 C 762.414062 230.304688 759.496094 224.507812 756.4375 218.78125 C 753.375 213.054688 750.175781 207.40625 746.835938 201.839844 C 743.5 196.269531 740.027344 190.785156 736.417969 185.386719 C 732.8125 179.988281 729.074219 174.683594 725.207031 169.46875 C 721.335938 164.253906 717.34375 159.136719 713.226562 154.117188 C 709.105469 149.097656 704.867188 144.183594 700.503906 139.371094 C 696.144531 134.558594 691.667969 129.859375 687.078125 125.269531 C 682.488281 120.675781 677.785156 116.203125 672.976562 111.839844 C 668.164062 107.480469 663.25 103.242188 658.230469 99.121094 C 653.210938 95.003906 648.09375 91.007812 642.878906 87.140625 C 637.664062 83.273438 632.359375 79.535156 626.960938 75.929688 C 621.558594 72.320312 616.078125 68.847656 610.507812 65.507812 C 604.9375 62.171875 599.292969 58.972656 593.566406 55.910156 C 587.839844 52.851562 582.042969 49.929688 576.171875 47.15625 C 570.300781 44.378906 564.367188 41.746094 558.371094 39.261719 C 552.371094 36.777344 546.316406 34.441406 540.203125 32.253906 C 534.089844 30.066406 527.925781 28.027344 521.714844 26.144531 C 515.5 24.257812 509.246094 22.527344 502.945312 20.949219 C 496.648438 19.371094 490.316406 17.949219 483.945312 16.679688 C 477.578125 15.414062 471.183594 14.300781 464.761719 13.347656 C 458.339844 12.394531 451.898438 11.601562 445.433594 10.964844 C 438.972656 10.328125 432.5 9.847656 426.015625 9.527344 C 419.53125 9.210938 413.042969 9.050781 406.546875 9.046875 Z M 223.796875 210.027344 L 589.300781 210.027344 C 591.230469 210.027344 593.160156 210.109375 595.082031 210.28125 C 597.003906 210.453125 598.917969 210.707031 600.816406 211.046875 C 602.71875 211.386719 604.601562 211.8125 606.464844 212.320312 C 608.328125 212.828125 610.164062 213.414062 611.972656 214.085938 C 613.785156 214.757812 615.5625 215.507812 617.304688 216.335938 C 619.050781 217.164062 620.753906 218.070312 622.417969 219.046875 C 624.078125 220.027344 625.695312 221.082031 627.265625 222.203125 C 628.835938 223.328125 630.355469 224.519531 631.816406 225.777344 C 633.28125 227.035156 634.6875 228.359375 636.035156 229.742188 C 637.378906 231.125 638.664062 232.566406 639.882812 234.0625 C 641.101562 235.5625 642.25 237.109375 643.332031 238.707031 C 644.414062 240.308594 645.421875 241.953125 646.355469 243.640625 C 647.292969 245.332031 648.148438 247.058594 648.929688 248.824219 C 649.710938 250.589844 650.414062 252.386719 651.035156 254.214844 C 651.65625 256.042969 652.195312 257.894531 652.652344 259.769531 C 653.109375 261.648438 653.484375 263.539062 653.773438 265.449219 C 648.566406 268.300781 447.710938 384.101562 434.445312 391.664062 C 432.328125 392.863281 430.140625 393.921875 427.886719 394.835938 C 425.628906 395.753906 423.324219 396.523438 420.972656 397.144531 C 418.617188 397.761719 416.234375 398.230469 413.820312 398.542969 C 411.40625 398.855469 408.984375 399.011719 406.546875 399.011719 C 404.113281 399.011719 401.691406 398.855469 399.277344 398.542969 C 396.863281 398.230469 394.480469 397.761719 392.125 397.144531 C 389.769531 396.523438 387.464844 395.753906 385.210938 394.835938 C 382.957031 393.921875 380.769531 392.863281 378.652344 391.664062 C 365.632812 384.226562 164.28125 269.539062 159.324219 266.441406 C 159.582031 264.507812 159.925781 262.589844 160.359375 260.691406 C 160.789062 258.789062 161.304688 256.910156 161.90625 255.054688 C 162.507812 253.199219 163.1875 251.375 163.953125 249.582031 C 164.714844 247.789062 165.558594 246.035156 166.480469 244.316406 C 167.402344 242.597656 168.402344 240.925781 169.472656 239.296875 C 170.546875 237.667969 171.6875 236.09375 172.902344 234.566406 C 174.117188 233.042969 175.398438 231.574219 176.742188 230.164062 C 178.089844 228.753906 179.496094 227.40625 180.960938 226.125 C 182.429688 224.839844 183.953125 223.625 185.527344 222.476562 C 187.105469 221.328125 188.730469 220.257812 190.402344 219.253906 C 192.074219 218.253906 193.789062 217.332031 195.546875 216.484375 C 197.300781 215.636719 199.09375 214.871094 200.917969 214.183594 C 202.742188 213.5 204.59375 212.898438 206.472656 212.378906 C 208.351562 211.859375 210.25 211.425781 212.167969 211.074219 C 214.085938 210.726562 216.015625 210.464844 217.957031 210.289062 C 219.898438 210.113281 221.847656 210.027344 223.796875 210.027344 Z M 654.515625 536.355469 C 654.515625 537.421875 654.488281 538.488281 654.433594 539.554688 C 654.382812 540.617188 654.300781 541.683594 654.195312 542.742188 C 654.089844 543.804688 653.957031 544.863281 653.800781 545.917969 C 653.644531 546.972656 653.460938 548.023438 653.25 549.070312 C 653.042969 550.117188 652.808594 551.15625 652.546875 552.191406 C 652.285156 553.226562 652 554.253906 651.691406 555.277344 C 651.378906 556.296875 651.046875 557.308594 650.683594 558.3125 C 650.324219 559.316406 649.941406 560.3125 649.53125 561.296875 C 649.121094 562.285156 648.691406 563.257812 648.234375 564.222656 C 647.777344 565.1875 647.296875 566.140625 646.792969 567.082031 C 646.289062 568.019531 645.761719 568.949219 645.214844 569.863281 C 644.664062 570.777344 644.09375 571.679688 643.5 572.566406 C 642.910156 573.453125 642.292969 574.324219 641.660156 575.183594 C 641.023438 576.039062 640.367188 576.878906 639.691406 577.703125 C 639.011719 578.53125 638.316406 579.335938 637.597656 580.128906 C 636.882812 580.917969 636.148438 581.691406 635.390625 582.445312 C 634.636719 583.199219 633.867188 583.933594 633.074219 584.652344 C 632.285156 585.367188 631.476562 586.066406 630.652344 586.742188 C 629.828125 587.417969 628.988281 588.074219 628.128906 588.710938 C 627.273438 589.347656 626.402344 589.960938 625.515625 590.554688 C 624.628906 591.148438 623.726562 591.71875 622.8125 592.265625 C 621.898438 592.816406 620.96875 593.34375 620.027344 593.84375 C 619.085938 594.347656 618.136719 594.828125 617.171875 595.285156 C 616.207031 595.742188 615.230469 596.175781 614.246094 596.585938 C 613.261719 596.992188 612.265625 597.378906 611.261719 597.738281 C 610.257812 598.097656 609.246094 598.433594 608.222656 598.742188 C 607.203125 599.054688 606.175781 599.339844 605.140625 599.597656 C 604.105469 599.859375 603.066406 600.09375 602.019531 600.304688 C 600.972656 600.511719 599.921875 600.695312 598.867188 600.851562 C 597.8125 601.011719 596.753906 601.144531 595.691406 601.25 C 594.628906 601.355469 593.566406 601.433594 592.5 601.488281 C 591.433594 601.539062 590.367188 601.570312 589.300781 601.570312 L 223.796875 601.570312 C 222.726562 601.570312 221.664062 601.539062 220.597656 601.488281 C 219.53125 601.433594 218.46875 601.355469 217.40625 601.25 C 216.34375 601.144531 215.285156 601.011719 214.230469 600.851562 C 213.175781 600.695312 212.125 600.511719 211.078125 600.304688 C 210.03125 600.09375 208.992188 599.859375 207.957031 599.601562 C 206.921875 599.339844 205.894531 599.054688 204.875 598.742188 C 203.851562 598.433594 202.839844 598.097656 201.835938 597.738281 C 200.832031 597.378906 199.835938 596.992188 198.851562 596.585938 C 197.867188 596.175781 196.890625 595.742188 195.925781 595.285156 C 194.960938 594.828125 194.007812 594.347656 193.070312 593.84375 C 192.128906 593.34375 191.199219 592.816406 190.285156 592.265625 C 189.371094 591.71875 188.46875 591.148438 187.582031 590.554688 C 186.695312 589.960938 185.824219 589.347656 184.964844 588.710938 C 184.109375 588.074219 183.269531 587.417969 182.445312 586.742188 C 181.621094 586.066406 180.8125 585.367188 180.023438 584.652344 C 179.230469 583.933594 178.457031 583.199219 177.703125 582.445312 C 176.949219 581.691406 176.214844 580.917969 175.496094 580.128906 C 174.78125 579.335938 174.085938 578.53125 173.40625 577.703125 C 172.730469 576.878906 172.074219 576.039062 171.4375 575.183594 C 170.800781 574.324219 170.1875 573.453125 169.59375 572.566406 C 169 571.679688 168.429688 570.777344 167.882812 569.863281 C 167.332031 568.949219 166.808594 568.019531 166.304688 567.082031 C 165.800781 566.140625 165.320312 565.1875 164.863281 564.222656 C 164.40625 563.257812 163.972656 562.285156 163.566406 561.296875 C 163.15625 560.3125 162.773438 559.316406 162.410156 558.3125 C 162.050781 557.308594 161.714844 556.296875 161.40625 555.277344 C 161.09375 554.253906 160.808594 553.226562 160.550781 552.191406 C 160.289062 551.15625 160.054688 550.117188 159.847656 549.070312 C 159.636719 548.023438 159.453125 546.972656 159.296875 545.917969 C 159.136719 544.863281 159.007812 543.804688 158.902344 542.742188 C 158.796875 541.683594 158.714844 540.617188 158.660156 539.554688 C 158.609375 538.488281 158.582031 537.421875 158.578125 536.355469 L 158.578125 296.070312 L 365.882812 414.351562 C 368.972656 416.113281 372.160156 417.667969 375.453125 419.011719 C 378.742188 420.359375 382.105469 421.488281 385.542969 422.398438 C 388.980469 423.308594 392.460938 423.992188 395.988281 424.453125 C 399.515625 424.910156 403.054688 425.140625 406.609375 425.140625 C 410.164062 425.140625 413.707031 424.910156 417.234375 424.453125 C 420.757812 423.992188 424.238281 423.308594 427.675781 422.398438 C 431.113281 421.488281 434.476562 420.359375 437.769531 419.011719 C 441.058594 417.667969 444.25 416.113281 447.339844 414.351562 L 654.515625 295.082031 Z M 654.515625 536.355469 "/><path style=" stroke:none;fill-rule:nonzero;fill:#ffffff;fill-opacity:1;" d="M 406.519531 9.046875 C 400.027344 9.046875 393.539062 9.207031 387.054688 9.527344 C 380.566406 9.84375 374.09375 10.324219 367.632812 10.957031 C 361.171875 11.59375 354.730469 12.390625 348.308594 13.34375 C 341.886719 14.296875 335.492188 15.40625 329.121094 16.671875 C 322.753906 17.9375 316.421875 19.359375 310.125 20.9375 C 303.824219 22.515625 297.570312 24.246094 291.355469 26.132812 C 285.144531 28.015625 278.980469 30.050781 272.867188 32.238281 C 266.753906 34.425781 260.699219 36.761719 254.699219 39.246094 C 248.703125 41.730469 242.769531 44.363281 236.898438 47.136719 C 231.03125 49.914062 225.230469 52.832031 219.507812 55.894531 C 213.78125 58.953125 208.132812 62.152344 202.5625 65.492188 C 196.996094 68.828125 191.511719 72.300781 186.113281 75.90625 C 180.714844 79.515625 175.40625 83.253906 170.191406 87.121094 C 164.976562 90.988281 159.859375 94.980469 154.84375 99.101562 C 149.824219 103.21875 144.910156 107.457031 140.097656 111.820312 C 135.285156 116.179688 130.585938 120.652344 125.996094 125.246094 C 121.402344 129.835938 116.929688 134.535156 112.570312 139.347656 C 108.207031 144.160156 103.96875 149.074219 99.851562 154.09375 C 95.730469 159.109375 91.738281 164.226562 87.871094 169.441406 C 84.003906 174.65625 80.265625 179.964844 76.65625 185.363281 C 73.050781 190.761719 69.578125 196.246094 66.242188 201.8125 C 62.902344 207.382812 59.703125 213.03125 56.644531 218.757812 C 53.582031 224.480469 50.664062 230.28125 47.886719 236.148438 C 45.113281 242.019531 42.480469 247.953125 39.996094 253.949219 C 37.511719 259.949219 35.175781 266.003906 32.988281 272.117188 C 30.800781 278.230469 28.765625 284.394531 26.882812 290.605469 C 24.996094 296.820312 23.265625 303.074219 21.6875 309.375 C 20.109375 315.671875 18.6875 322.003906 17.421875 328.371094 C 16.15625 334.742188 15.046875 341.136719 14.09375 347.558594 C 13.140625 353.980469 12.34375 360.421875 11.707031 366.882812 C 11.074219 373.34375 10.59375 379.816406 10.277344 386.304688 C 9.957031 392.789062 9.796875 399.277344 9.796875 405.769531 C 9.796875 412.261719 9.957031 418.75 10.277344 425.234375 C 10.59375 431.71875 11.074219 438.191406 11.707031 444.65625 C 12.34375 451.117188 13.140625 457.558594 14.09375 463.980469 C 15.046875 470.402344 16.15625 476.796875 17.421875 483.164062 C 18.6875 489.535156 20.109375 495.867188 21.6875 502.164062 C 23.265625 508.460938 24.996094 514.71875 26.882812 520.929688 C 28.765625 527.144531 30.800781 533.308594 32.988281 539.421875 C 35.175781 545.535156 37.511719 551.589844 39.996094 557.585938 C 42.480469 563.585938 45.113281 569.519531 47.886719 575.390625 C 50.664062 581.257812 53.582031 587.054688 56.644531 592.78125 C 59.703125 598.507812 62.902344 604.15625 66.242188 609.722656 C 69.578125 615.292969 73.050781 620.777344 76.65625 626.175781 C 80.265625 631.574219 84.003906 636.878906 87.871094 642.09375 C 91.738281 647.308594 95.730469 652.425781 99.851562 657.445312 C 103.96875 662.464844 108.207031 667.378906 112.570312 672.191406 C 116.929688 677 121.402344 681.703125 125.996094 686.292969 C 130.585938 690.882812 135.285156 695.359375 140.097656 699.71875 C 144.910156 704.078125 149.824219 708.320312 154.84375 712.4375 C 159.859375 716.558594 164.976562 720.550781 170.191406 724.417969 C 175.40625 728.285156 180.714844 732.023438 186.113281 735.628906 C 191.511719 739.238281 196.996094 742.710938 202.5625 746.046875 C 208.132812 749.386719 213.78125 752.585938 219.507812 755.644531 C 225.230469 758.707031 231.03125 761.625 236.898438 764.398438 C 242.769531 767.175781 248.703125 769.804688 254.699219 772.292969 C 260.699219 774.777344 266.753906 777.113281 272.867188 779.300781 C 278.980469 781.488281 285.144531 783.523438 291.355469 785.40625 C 297.570312 787.292969 303.824219 789.023438 310.125 790.601562 C 316.421875 792.179688 322.753906 793.601562 329.121094 794.867188 C 335.492188 796.132812 341.886719 797.242188 348.308594 798.195312 C 354.730469 799.148438 361.171875 799.941406 367.632812 800.578125 C 374.09375 801.214844 380.566406 801.691406 387.054688 802.011719 C 393.539062 802.332031 400.027344 802.488281 406.519531 802.488281 C 413.011719 802.488281 419.5 802.332031 425.984375 802.011719 C 432.46875 801.691406 438.941406 801.214844 445.40625 800.578125 C 451.867188 799.941406 458.308594 799.148438 464.730469 798.195312 C 471.152344 797.242188 477.546875 796.132812 483.914062 794.867188 C 490.285156 793.601562 496.617188 792.179688 502.914062 790.601562 C 509.210938 789.023438 515.46875 787.292969 521.679688 785.40625 C 527.894531 783.523438 534.058594 781.484375 540.171875 779.300781 C 546.285156 777.113281 552.339844 774.777344 558.335938 772.292969 C 564.335938 769.804688 570.269531 767.175781 576.140625 764.398438 C 582.007812 761.625 587.804688 758.707031 593.53125 755.644531 C 599.257812 752.585938 604.90625 749.386719 610.472656 746.046875 C 616.042969 742.710938 621.527344 739.238281 626.925781 735.628906 C 632.324219 732.023438 637.628906 728.285156 642.84375 724.417969 C 648.058594 720.550781 653.175781 716.558594 658.195312 712.4375 C 663.214844 708.320312 668.128906 704.078125 672.941406 699.71875 C 677.75 695.359375 682.453125 690.882812 687.042969 686.292969 C 691.632812 681.703125 696.109375 677 700.46875 672.191406 C 704.828125 667.378906 709.070312 662.464844 713.1875 657.445312 C 717.308594 652.425781 721.300781 647.308594 725.167969 642.09375 C 729.035156 636.878906 732.773438 631.574219 736.378906 626.175781 C 739.988281 620.777344 743.460938 615.292969 746.796875 609.722656 C 750.136719 604.15625 753.335938 598.507812 756.394531 592.78125 C 759.457031 587.054688 762.375 581.257812 765.148438 575.390625 C 767.925781 569.519531 770.554688 563.585938 773.042969 557.585938 C 775.527344 551.589844 777.863281 545.535156 780.050781 539.421875 C 782.238281 533.308594 784.273438 527.144531 786.15625 520.929688 C 788.042969 514.71875 789.773438 508.460938 791.351562 502.164062 C 792.929688 495.867188 794.351562 489.535156 795.617188 483.164062 C 796.882812 476.796875 797.992188 470.402344 798.945312 463.980469 C 799.898438 457.558594 800.691406 451.117188 801.328125 444.65625 C 801.964844 438.191406 802.441406 431.71875 802.761719 425.234375 C 803.082031 418.75 803.238281 412.261719 803.238281 405.769531 C 803.238281 399.277344 803.078125 392.789062 802.757812 386.304688 C 802.441406 379.820312 801.960938 373.347656 801.324219 366.886719 C 800.6875 360.425781 799.894531 353.984375 798.9375 347.5625 C 797.984375 341.136719 796.875 334.742188 795.609375 328.375 C 794.339844 322.007812 792.917969 315.675781 791.339844 309.378906 C 789.761719 303.082031 788.03125 296.824219 786.144531 290.613281 C 784.261719 284.398438 782.222656 278.238281 780.035156 272.125 C 777.847656 266.011719 775.511719 259.957031 773.027344 253.957031 C 770.542969 247.960938 767.914062 242.027344 765.136719 236.15625 C 762.359375 230.289062 759.441406 224.492188 756.378906 218.765625 C 753.320312 213.039062 750.121094 207.394531 746.78125 201.824219 C 743.445312 196.257812 739.972656 190.773438 736.363281 185.375 C 732.757812 179.976562 729.019531 174.671875 725.152344 169.457031 C 721.285156 164.242188 717.292969 159.125 713.171875 154.105469 C 709.054688 149.085938 704.816406 144.171875 700.453125 139.363281 C 696.09375 134.550781 691.621094 129.851562 687.027344 125.257812 C 682.4375 120.667969 677.738281 116.195312 672.925781 111.832031 C 668.117188 107.472656 663.203125 103.234375 658.183594 99.113281 C 653.164062 94.996094 648.046875 91.003906 642.832031 87.136719 C 637.617188 83.269531 632.3125 79.53125 626.914062 75.921875 C 621.515625 72.316406 616.03125 68.84375 610.464844 65.503906 C 604.894531 62.167969 599.246094 58.96875 593.523438 55.90625 C 587.796875 52.847656 582 49.929688 576.128906 47.152344 C 570.261719 44.375 564.328125 41.746094 558.328125 39.261719 C 552.332031 36.773438 546.277344 34.4375 540.164062 32.25 C 534.050781 30.0625 527.886719 28.027344 521.675781 26.140625 C 515.460938 24.257812 509.207031 22.527344 502.910156 20.949219 C 496.613281 19.371094 490.28125 17.945312 483.910156 16.679688 C 477.542969 15.414062 471.148438 14.300781 464.726562 13.347656 C 458.304688 12.394531 451.863281 11.601562 445.402344 10.964844 C 438.941406 10.324219 432.46875 9.847656 425.984375 9.527344 C 419.5 9.210938 413.011719 9.050781 406.519531 9.046875 Z M 223.78125 210.011719 L 589.257812 210.011719 C 591.1875 210.011719 593.117188 210.097656 595.039062 210.265625 C 596.960938 210.4375 598.875 210.691406 600.773438 211.03125 C 602.675781 211.371094 604.554688 211.796875 606.417969 212.304688 C 608.28125 212.8125 610.117188 213.402344 611.929688 214.070312 C 613.738281 214.742188 615.515625 215.492188 617.261719 216.320312 C 619.003906 217.148438 620.707031 218.054688 622.371094 219.035156 C 624.035156 220.011719 625.652344 221.066406 627.222656 222.1875 C 628.789062 223.3125 630.308594 224.503906 631.773438 225.761719 C 633.234375 227.019531 634.640625 228.339844 635.988281 229.726562 C 637.335938 231.109375 638.617188 232.550781 639.835938 234.046875 C 641.054688 235.542969 642.203125 237.09375 643.285156 238.691406 C 644.367188 240.292969 645.375 241.9375 646.308594 243.625 C 647.242188 245.3125 648.101562 247.042969 648.882812 248.808594 C 649.664062 250.574219 650.367188 252.367188 650.988281 254.195312 C 651.609375 256.023438 652.148438 257.875 652.605469 259.753906 C 653.0625 261.628906 653.4375 263.519531 653.726562 265.429688 C 648.519531 268.28125 447.679688 384.074219 434.414062 391.636719 C 432.296875 392.835938 430.109375 393.890625 427.855469 394.808594 C 425.597656 395.726562 423.296875 396.496094 420.941406 397.113281 C 418.589844 397.734375 416.203125 398.199219 413.789062 398.511719 C 411.375 398.824219 408.953125 398.980469 406.519531 398.980469 C 404.085938 398.980469 401.660156 398.824219 399.246094 398.511719 C 396.832031 398.199219 394.449219 397.734375 392.097656 397.113281 C 389.742188 396.496094 387.4375 395.726562 385.183594 394.808594 C 382.929688 393.890625 380.742188 392.835938 378.625 391.636719 C 365.605469 384.199219 164.273438 269.519531 159.3125 266.421875 C 159.570312 264.488281 159.917969 262.574219 160.347656 260.671875 C 160.777344 258.769531 161.292969 256.890625 161.894531 255.039062 C 162.496094 253.183594 163.175781 251.359375 163.941406 249.566406 C 164.707031 247.773438 165.546875 246.015625 166.46875 244.300781 C 167.390625 242.582031 168.390625 240.910156 169.460938 239.28125 C 170.535156 237.652344 171.675781 236.074219 172.890625 234.550781 C 174.105469 233.027344 175.382812 231.558594 176.730469 230.148438 C 178.078125 228.738281 179.484375 227.390625 180.949219 226.105469 C 182.417969 224.824219 183.9375 223.609375 185.515625 222.460938 C 187.089844 221.3125 188.714844 220.242188 190.390625 219.238281 C 192.0625 218.238281 193.777344 217.316406 195.53125 216.46875 C 197.289062 215.621094 199.078125 214.855469 200.902344 214.167969 C 202.726562 213.484375 204.578125 212.882812 206.457031 212.363281 C 208.335938 211.84375 210.234375 211.410156 212.152344 211.0625 C 214.070312 210.710938 216 210.449219 217.941406 210.273438 C 219.886719 210.101562 221.832031 210.011719 223.78125 210.011719 Z M 654.46875 536.316406 C 654.46875 537.382812 654.441406 538.449219 654.386719 539.511719 C 654.332031 540.578125 654.253906 541.644531 654.148438 542.703125 C 654.042969 543.765625 653.910156 544.824219 653.753906 545.878906 C 653.597656 546.933594 653.414062 547.984375 653.203125 549.03125 C 652.996094 550.078125 652.757812 551.117188 652.5 552.152344 C 652.238281 553.1875 651.953125 554.214844 651.644531 555.234375 C 651.332031 556.257812 650.996094 557.269531 650.636719 558.273438 C 650.277344 559.277344 649.894531 560.273438 649.484375 561.257812 C 649.074219 562.242188 648.644531 563.21875 648.1875 564.183594 C 647.730469 565.144531 647.25 566.097656 646.746094 567.039062 C 646.242188 567.980469 645.714844 568.90625 645.167969 569.824219 C 644.617188 570.738281 644.046875 571.636719 643.453125 572.527344 C 642.863281 573.414062 642.246094 574.285156 641.613281 575.140625 C 640.976562 575.996094 640.320312 576.839844 639.644531 577.664062 C 638.964844 578.488281 638.269531 579.296875 637.554688 580.085938 C 636.835938 580.875 636.101562 581.648438 635.347656 582.402344 C 634.59375 583.15625 633.820312 583.894531 633.027344 584.609375 C 632.238281 585.324219 631.429688 586.023438 630.605469 586.699219 C 629.78125 587.375 628.941406 588.03125 628.085938 588.667969 C 627.226562 589.304688 626.355469 589.917969 625.46875 590.511719 C 624.582031 591.105469 623.679688 591.675781 622.765625 592.222656 C 621.851562 592.773438 620.921875 593.300781 619.984375 593.800781 C 619.042969 594.304688 618.089844 594.785156 617.125 595.242188 C 616.160156 595.699219 615.1875 596.132812 614.203125 596.539062 C 613.214844 596.949219 612.222656 597.335938 611.21875 597.695312 C 610.210938 598.054688 609.199219 598.390625 608.179688 598.699219 C 607.160156 599.011719 606.132812 599.296875 605.097656 599.554688 C 604.0625 599.816406 603.019531 600.050781 601.976562 600.261719 C 600.929688 600.46875 599.878906 600.652344 598.824219 600.808594 C 597.769531 600.96875 596.710938 601.097656 595.648438 601.203125 C 594.585938 601.308594 593.523438 601.390625 592.457031 601.445312 C 591.390625 601.496094 590.324219 601.523438 589.257812 601.527344 L 223.78125 601.527344 C 222.710938 601.523438 221.648438 601.496094 220.582031 601.445312 C 219.515625 601.390625 218.453125 601.308594 217.390625 601.203125 C 216.328125 601.097656 215.269531 600.96875 214.214844 600.808594 C 213.160156 600.652344 212.109375 600.46875 211.0625 600.261719 C 210.015625 600.050781 208.976562 599.816406 207.941406 599.554688 C 206.90625 599.296875 205.878906 599.011719 204.859375 598.699219 C 203.839844 598.390625 202.824219 598.054688 201.820312 597.695312 C 200.816406 597.335938 199.820312 596.949219 198.835938 596.539062 C 197.851562 596.132812 196.875 595.699219 195.914062 595.242188 C 194.949219 594.785156 193.996094 594.304688 193.054688 593.800781 C 192.113281 593.300781 191.1875 592.773438 190.273438 592.222656 C 189.355469 591.675781 188.457031 591.105469 187.570312 590.511719 C 186.683594 589.917969 185.808594 589.304688 184.953125 588.667969 C 184.097656 588.03125 183.257812 587.375 182.429688 586.699219 C 181.605469 586.023438 180.800781 585.324219 180.007812 584.609375 C 179.21875 583.894531 178.445312 583.15625 177.691406 582.402344 C 176.9375 581.648438 176.203125 580.875 175.484375 580.085938 C 174.769531 579.296875 174.070312 578.488281 173.394531 577.664062 C 172.71875 576.839844 172.0625 575.996094 171.425781 575.140625 C 170.789062 574.285156 170.175781 573.414062 169.582031 572.527344 C 168.988281 571.636719 168.417969 570.738281 167.871094 569.824219 C 167.320312 568.90625 166.796875 567.980469 166.292969 567.039062 C 165.789062 566.097656 165.308594 565.144531 164.851562 564.183594 C 164.394531 563.21875 163.960938 562.242188 163.554688 561.257812 C 163.144531 560.273438 162.761719 559.277344 162.398438 558.273438 C 162.039062 557.269531 161.703125 556.257812 161.394531 555.234375 C 161.085938 554.214844 160.796875 553.1875 160.539062 552.152344 C 160.277344 551.117188 160.042969 550.078125 159.835938 549.03125 C 159.625 547.984375 159.441406 546.933594 159.285156 545.878906 C 159.128906 544.824219 158.996094 543.765625 158.890625 542.703125 C 158.785156 541.644531 158.703125 540.578125 158.652344 539.511719 C 158.597656 538.449219 158.570312 537.382812 158.570312 536.316406 L 158.570312 296.050781 L 365.855469 414.324219 C 368.945312 416.082031 372.132812 417.636719 375.425781 418.980469 C 378.714844 420.328125 382.078125 421.457031 385.515625 422.367188 C 388.953125 423.277344 392.433594 423.960938 395.960938 424.421875 C 399.484375 424.878906 403.027344 425.109375 406.582031 425.109375 C 410.136719 425.109375 413.675781 424.878906 417.203125 424.421875 C 420.726562 423.960938 424.210938 423.277344 427.644531 422.367188 C 431.082031 421.457031 434.445312 420.328125 437.738281 418.980469 C 441.027344 417.636719 444.21875 416.082031 447.308594 414.324219 L 654.46875 295.058594 Z M 654.46875 536.316406 "/></g></g></svg>