<svg xmlns="http://www.w3.org/2000/svg" xmlns:xlink="http://www.w3.org/1999/xlink" width="1080" zoomAndPan="magnify" viewBox="0 0 810 809.999993" height="1080" preserveAspectRatio="xMidYMid meet" version="1.2"><defs><clipPath id="5074d1ce87"><path d="M 9.796875 9.046875 L 803.296875 9.046875 L 803.296875 802.546875 L 9.796875 802.546875 Z M 9.796875 9.046875 "/></clipPath><clipPath id="4c5c4f520c"><path d="M 11.296875 11.296875 L 804.796875 11.296875 L 804.796875 804.796875 L 11.296875 804.796875 Z M 11.296875 11.296875 "/></clipPath></defs><g id="c39cedf0c5"><g clip-rule="nonzero" clip-path="url(#5074d1ce87)"><path style=" stroke:none;fill-rule:nonzero;fill:#000000;fill-opacity:1;" d="M 406.546875 9.046875 C 400.054688 9.046875 393.566406 9.207031 387.082031 9.527344 C 380.59375 9.84375 374.121094 10.324219 367.660156 10.957031 C 361.199219 11.59375 354.757812 12.390625 348.332031 13.34375 C 341.910156 14.296875 335.515625 15.40625 329.144531 16.671875 C 322.777344 17.9375 316.445312 19.359375 310.144531 20.9375 C 303.847656 22.515625 297.589844 24.246094 291.378906 26.132812 C 285.164062 28.015625 279 30.054688 272.886719 32.242188 C 266.773438 34.429688 260.71875 36.765625 254.71875 39.25 C 248.71875 41.734375 242.785156 44.363281 236.914062 47.140625 C 231.046875 49.917969 225.25 52.835938 219.523438 55.894531 C 213.796875 58.957031 208.148438 62.15625 202.578125 65.496094 C 197.007812 68.832031 191.523438 72.304688 186.125 75.914062 C 180.726562 79.519531 175.421875 83.257812 170.203125 87.125 C 164.988281 90.992188 159.871094 94.988281 154.851562 99.105469 C 149.832031 103.226562 144.917969 107.464844 140.105469 111.824219 C 135.296875 116.1875 130.59375 120.664062 126.003906 125.253906 C 121.414062 129.84375 116.9375 134.546875 112.574219 139.355469 C 108.214844 144.167969 103.976562 149.082031 99.855469 154.101562 C 95.738281 159.121094 91.742188 164.238281 87.875 169.453125 C 84.007812 174.671875 80.269531 179.976562 76.664062 185.375 C 73.054688 190.773438 69.582031 196.257812 66.246094 201.828125 C 62.90625 207.398438 59.707031 213.046875 56.644531 218.773438 C 53.585938 224.5 50.667969 230.296875 47.890625 236.164062 C 45.113281 242.035156 42.484375 247.96875 40 253.96875 C 37.515625 259.96875 35.179688 266.023438 32.992188 272.136719 C 30.804688 278.25 28.765625 284.414062 26.882812 290.628906 C 24.996094 296.839844 23.265625 303.097656 21.6875 309.394531 C 20.109375 315.695312 18.6875 322.027344 17.421875 328.394531 C 16.15625 334.765625 15.046875 341.160156 14.09375 347.582031 C 13.140625 354.007812 12.34375 360.449219 11.707031 366.910156 C 11.074219 373.371094 10.59375 379.84375 10.277344 386.332031 C 9.957031 392.816406 9.796875 399.304688 9.796875 405.796875 C 9.796875 412.292969 9.957031 418.78125 10.277344 425.265625 C 10.59375 431.75 11.074219 438.226562 11.707031 444.6875 C 12.34375 451.148438 13.140625 457.589844 14.09375 464.015625 C 15.046875 470.4375 16.15625 476.832031 17.421875 483.199219 C 18.6875 489.570312 20.109375 495.902344 21.6875 502.199219 C 23.265625 508.5 24.996094 514.753906 26.882812 520.96875 C 28.765625 527.183594 30.804688 533.347656 32.992188 539.460938 C 35.179688 545.574219 37.515625 551.628906 40 557.628906 C 42.484375 563.625 45.113281 569.5625 47.890625 575.429688 C 50.667969 581.300781 53.585938 587.097656 56.644531 592.824219 C 59.707031 598.550781 62.90625 604.199219 66.246094 609.769531 C 69.582031 615.339844 73.054688 620.820312 76.664062 626.222656 C 80.269531 631.621094 84.007812 636.925781 87.875 642.140625 C 91.742188 647.355469 95.738281 652.476562 99.855469 657.492188 C 103.976562 662.511719 108.214844 667.429688 112.574219 672.238281 C 116.9375 677.050781 121.414062 681.75 126.003906 686.34375 C 130.59375 690.933594 135.296875 695.410156 140.105469 699.769531 C 144.917969 704.132812 149.832031 708.371094 154.851562 712.492188 C 159.871094 716.609375 164.988281 720.601562 170.203125 724.472656 C 175.421875 728.339844 180.726562 732.078125 186.125 735.683594 C 191.523438 739.292969 197.007812 742.765625 202.578125 746.101562 C 208.148438 749.441406 213.796875 752.640625 219.523438 755.699219 C 225.25 758.761719 231.046875 761.679688 236.914062 764.457031 C 242.785156 767.230469 248.71875 769.863281 254.71875 772.347656 C 260.71875 774.832031 266.773438 777.167969 272.886719 779.355469 C 279 781.542969 285.164062 783.578125 291.378906 785.464844 C 297.589844 787.347656 303.847656 789.082031 310.144531 790.660156 C 316.445312 792.234375 322.777344 793.65625 329.144531 794.925781 C 335.515625 796.191406 341.910156 797.300781 348.332031 798.253906 C 354.757812 799.207031 361.199219 800 367.660156 800.636719 C 374.121094 801.273438 380.59375 801.75 387.082031 802.070312 C 393.566406 802.390625 400.054688 802.546875 406.546875 802.546875 C 413.042969 802.546875 419.53125 802.390625 426.015625 802.070312 C 432.5 801.75 438.976562 801.273438 445.4375 800.636719 C 451.898438 800 458.339844 799.207031 464.761719 798.253906 C 471.1875 797.300781 477.582031 796.191406 483.949219 794.925781 C 490.320312 793.65625 496.652344 792.234375 502.949219 790.65625 C 509.25 789.082031 515.503906 787.347656 521.71875 785.464844 C 527.933594 783.578125 534.097656 781.542969 540.210938 779.355469 C 546.324219 777.167969 552.378906 774.832031 558.378906 772.347656 C 564.375 769.863281 570.3125 767.230469 576.179688 764.457031 C 582.050781 761.679688 587.847656 758.761719 593.574219 755.699219 C 599.300781 752.640625 604.949219 749.441406 610.519531 746.101562 C 616.085938 742.765625 621.570312 739.292969 626.972656 735.683594 C 632.371094 732.078125 637.675781 728.339844 642.890625 724.472656 C 648.105469 720.601562 653.226562 716.609375 658.242188 712.492188 C 663.261719 708.371094 668.179688 704.132812 672.988281 699.769531 C 677.800781 695.410156 682.5 690.933594 687.09375 686.34375 C 691.683594 681.75 696.160156 677.050781 700.519531 672.238281 C 704.882812 667.429688 709.121094 662.511719 713.242188 657.492188 C 717.359375 652.476562 721.351562 647.355469 725.222656 642.140625 C 729.089844 636.925781 732.828125 631.621094 736.433594 626.222656 C 740.042969 620.820312 743.515625 615.339844 746.851562 609.769531 C 750.191406 604.199219 753.390625 598.550781 756.449219 592.824219 C 759.511719 587.097656 762.429688 581.300781 765.207031 575.429688 C 767.980469 569.5625 770.613281 563.625 773.097656 557.628906 C 775.582031 551.628906 777.917969 545.574219 780.105469 539.460938 C 782.292969 533.347656 784.328125 527.183594 786.214844 520.96875 C 788.097656 514.753906 789.832031 508.5 791.410156 502.199219 C 792.984375 495.902344 794.40625 489.570312 795.675781 483.199219 C 796.941406 476.832031 798.050781 470.4375 799.003906 464.015625 C 799.957031 457.589844 800.75 451.148438 801.386719 444.6875 C 802.023438 438.226562 802.5 431.75 802.820312 425.265625 C 803.140625 418.78125 803.296875 412.292969 803.296875 405.796875 C 803.296875 399.304688 803.136719 392.816406 802.816406 386.332031 C 802.5 379.847656 802.019531 373.375 801.382812 366.910156 C 800.746094 360.449219 799.949219 354.007812 798.996094 347.585938 C 798.042969 341.164062 796.933594 334.769531 795.667969 328.398438 C 794.398438 322.03125 792.976562 315.699219 791.398438 309.402344 C 789.820312 303.101562 788.089844 296.847656 786.203125 290.632812 C 784.316406 284.421875 782.28125 278.257812 780.09375 272.144531 C 777.90625 266.03125 775.570312 259.976562 773.085938 253.976562 C 770.597656 247.976562 767.96875 242.042969 765.191406 236.175781 C 762.414062 230.304688 759.496094 224.507812 756.4375 218.78125 C 753.375 213.054688 750.175781 207.40625 746.835938 201.839844 C 743.5 196.269531 740.027344 190.785156 736.417969 185.386719 C 732.8125 179.988281 729.074219 174.683594 725.207031 169.46875 C 721.335938 164.253906 717.34375 159.136719 713.226562 154.117188 C 709.105469 149.097656 704.867188 144.183594 700.503906 139.371094 C 696.144531 134.558594 691.667969 129.859375 687.078125 125.269531 C 682.488281 120.675781 677.785156 116.203125 672.976562 111.839844 C 668.164062 107.480469 663.25 103.242188 658.230469 99.121094 C 653.210938 95.003906 648.09375 91.007812 642.878906 87.140625 C 637.664062 83.273438 632.359375 79.535156 626.960938 75.929688 C 621.558594 72.320312 616.078125 68.847656 610.507812 65.507812 C 604.9375 62.171875 599.292969 58.972656 593.566406 55.910156 C 587.839844 52.851562 582.042969 49.929688 576.171875 47.15625 C 570.300781 44.378906 564.367188 41.746094 558.371094 39.261719 C 552.371094 36.777344 546.316406 34.441406 540.203125 32.253906 C 534.089844 30.066406 527.925781 28.027344 521.714844 26.144531 C 515.5 24.257812 509.246094 22.527344 502.945312 20.949219 C 496.648438 19.371094 490.316406 17.949219 483.945312 16.679688 C 477.578125 15.414062 471.183594 14.300781 464.761719 13.347656 C 458.339844 12.394531 451.898438 11.601562 445.433594 10.964844 C 438.972656 10.328125 432.5 9.847656 426.015625 9.527344 C 419.53125 9.210938 413.042969 9.050781 406.546875 9.046875 Z M 223.796875 210.027344 L 589.300781 210.027344 C 591.230469 210.027344 593.160156 210.109375 595.082031 210.28125 C 597.003906 210.453125 598.917969 210.707031 600.816406 211.046875 C 602.71875 211.386719 604.601562 211.8125 606.464844 212.320312 C 608.328125 212.828125 610.164062 213.414062 611.972656 214.085938 C 613.785156 214.757812 615.5625 215.507812 617.304688 216.335938 C 619.050781 217.164062 620.753906 218.070312 622.417969 219.046875 C 624.078125 220.027344 625.695312 221.082031 627.265625 222.203125 C 628.835938 223.328125 630.355469 224.519531 631.816406 225.777344 C 633.28125 227.035156 634.6875 228.359375 636.035156 229.742188 C 637.378906 231.125 638.664062 232.566406 639.882812 234.0625 C 641.101562 235.5625 642.25 237.109375 643.332031 238.707031 C 644.414062 240.308594 645.421875 241.953125 646.355469 243.640625 C 647.292969 245.332031 648.148438 247.058594 648.929688 248.824219 C 649.710938 250.589844 650.414062 252.386719 651.035156 254.214844 C 651.65625 256.042969 652.195312 257.894531 652.652344 259.769531 C 653.109375 261.648438 653.484375 263.539062 653.773438 265.449219 C 648.566406 268.300781 447.710938 384.101562 434.445312 391.664062 C 432.328125 392.863281 430.140625 393.921875 427.886719 394.835938 C 425.628906 395.753906 423.324219 396.523438 420.972656 397.144531 C 418.617188 397.761719 416.234375 398.230469 413.820312 398.542969 C 411.40625 398.855469 408.984375 399.011719 406.546875 399.011719 C 404.113281 399.011719 401.691406 398.855469 399.277344 398.542969 C 396.863281 398.230469 394.480469 397.761719 392.125 397.144531 C 389.769531 396.523438 387.464844 395.753906 385.210938 394.835938 C 382.957031 393.921875 380.769531 392.863281 378.652344 391.664062 C 365.632812 384.226562 164.28125 269.539062 159.324219 266.441406 C 159.582031 264.507812 159.925781 262.589844 160.359375 260.691406 C 160.789062 258.789062 161.304688 256.910156 161.90625 255.054688 C 162.507812 253.199219 163.1875 251.375 163.953125 249.582031 C 164.714844 247.789062 165.558594 246.035156 166.480469 244.316406 C 167.402344 242.597656 168.402344 240.925781 169.472656 239.296875 C 170.546875 237.667969 171.6875 236.09375 172.902344 234.566406 C 174.117188 233.042969 175.398438 231.574219 176.742188 230.164062 C 178.089844 228.753906 179.496094 227.40625 180.960938 226.125 C 182.429688 224.839844 183.953125 223.625 185.527344 222.476562 C 187.105469 221.328125 188.730469 220.257812 190.402344 219.253906 C 192.074219 218.253906 193.789062 217.332031 195.546875 216.484375 C 197.300781 215.636719 199.09375 214.871094 200.917969 214.183594 C 202.742188 213.5 204.59375 212.898438 206.472656 212.378906 C 208.351562 211.859375 210.25 211.425781 212.167969 211.074219 C 214.085938 210.726562 216.015625 210.464844 217.957031 210.289062 C 219.898438 210.113281 221.847656 210.027344 223.796875 210.027344 Z M 654.515625 536.355469 C 654.515625 537.421875 654.488281 538.488281 654.433594 539.554688 C 654.382812 540.617188 654.300781 541.683594 654.195312 542.742188 C 654.089844 543.804688 653.957031 544.863281 653.800781 545.917969 C 653.644531 546.972656 653.460938 548.023438 653.25 549.070312 C 653.042969 550.117188 652.808594 551.15625 652.546875 552.191406 C 652.285156 553.226562 652 554.253906 651.691406 555.277344 C 651.378906 556.296875 651.046875 557.308594 650.683594 558.3125 C 650.324219 559.316406 649.941406 560.3125 649.53125 561.296875 C 649.121094 562.285156 648.691406 563.257812 648.234375 564.222656 C 647.777344 565.1875 647.296875 566.140625 646.792969 567.082031 C 646.289062 568.019531 645.761719 568.949219 645.214844 569.863281 C 644.664062 570.777344 644.09375 571.679688 643.5 572.566406 C 642.910156 573.453125 642.292969 574.324219 641.660156 575.183594 C 641.023438 576.039062 640.367188 576.878906 639.691406 577.703125 C 639.011719 578.53125 638.316406 579.335938 637.597656 580.128906 C 636.882812 580.917969 636.148438 581.691406 635.390625 582.445312 C 634.636719 583.199219 633.867188 583.933594 633.074219 584.652344 C 632.285156 585.367188 631.476562 586.066406 630.652344 586.742188 C 629.828125 587.417969 628.988281 588.074219 628.128906 588.710938 C 627.273438 589.347656 626.402344 589.960938 625.515625 590.554688 C 624.628906 591.148438 623.726562 591.71875 622.8125 592.265625 C 621.898438 592.816406 620.96875 593.34375 620.027344 593.84375 C 619.085938 594.347656 618.136719 594.828125 617.171875 595.285156 C 616.207031 595.742188 615.230469 596.175781 614.246094 596.585938 C 613.261719 596.992188 612.265625 597.378906 611.261719 597.738281 C 610.257812 598.097656 609.246094 598.433594 608.222656 598.742188 C 607.203125 599.054688 606.175781 599.339844 605.140625 599.597656 C 604.105469 599.859375 603.066406 600.09375 602.019531 600.304688 C 600.972656 600.511719 599.921875 600.695312 598.867188 600.851562 C 597.8125 601.011719 596.753906 601.144531 595.691406 601.25 C 594.628906 601.355469 593.566406 601.433594 592.5 601.488281 C 591.433594 601.539062 590.367188 601.570312 589.300781 601.570312 L 223.796875 601.570312 C 222.726562 601.570312 221.664062 601.539062 220.597656 601.488281 C 219.53125 601.433594 218.46875 601.355469 217.40625 601.25 C 216.34375 601.144531 215.285156 601.011719 214.230469 600.851562 C 213.175781 600.695312 212.125 600.511719 211.078125 600.304688 C 210.03125 600.09375 208.992188 599.859375 207.957031 599.601562 C 206.921875 599.339844 205.894531 599.054688 204.875 598.742188 C 203.851562 598.433594 202.839844 598.097656 201.835938 597.738281 C 200.832031 597.378906 199.835938 596.992188 198.851562 596.585938 C 197.867188 596.175781 196.890625 595.742188 195.925781 595.285156 C 194.960938 594.828125 194.007812 594.347656 193.070312 593.84375 C 192.128906 593.34375 191.199219 592.816406 190.285156 592.265625 C 189.371094 591.71875 188.46875 591.148438 187.582031 590.554688 C 186.695312 589.960938 185.824219 589.347656 184.964844 588.710938 C 184.109375 588.074219 183.269531 587.417969 182.445312 586.742188 C 181.621094 586.066406 180.8125 585.367188 180.023438 584.652344 C 179.230469 583.933594 178.457031 583.199219 177.703125 582.445312 C 176.949219 581.691406 176.214844 580.917969 175.496094 580.128906 C 174.78125 579.335938 174.085938 578.53125 173.40625 577.703125 C 172.730469 576.878906 172.074219 576.039062 171.4375 575.183594 C 170.800781 574.324219 170.1875 573.453125 169.59375 572.566406 C 169 571.679688 168.429688 570.777344 167.882812 569.863281 C 167.332031 568.949219 166.808594 568.019531 166.304688 567.082031 C 165.800781 566.140625 165.320312 565.1875 164.863281 564.222656 C 164.40625 563.257812 163.972656 562.285156 163.566406 561.296875 C 163.15625 560.3125 162.773438 559.316406 162.410156 558.3125 C 162.050781 557.308594 161.714844 556.296875 161.40625 555.277344 C 161.09375 554.253906 160.808594 553.226562 160.550781 552.191406 C 160.289062 551.15625 160.054688 550.117188 159.847656 549.070312 C 159.636719 548.023438 159.453125 546.972656 159.296875 545.917969 C 159.136719 544.863281 159.007812 543.804688 158.902344 542.742188 C 158.796875 541.683594 158.714844 540.617188 158.660156 539.554688 C 158.609375 538.488281 158.582031 537.421875 158.578125 536.355469 L 158.578125 296.070312 L 365.882812 414.351562 C 368.972656 416.113281 372.160156 417.667969 375.453125 419.011719 C 378.742188 420.359375 382.105469 421.488281 385.542969 422.398438 C 388.980469 423.308594 392.460938 423.992188 395.988281 424.453125 C 399.515625 424.910156 403.054688 425.140625 406.609375 425.140625 C 410.164062 425.140625 413.707031 424.910156 417.234375 424.453125 C 420.757812 423.992188 424.238281 423.308594 427.675781 422.398438 C 431.113281 421.488281 434.476562 420.359375 437.769531 419.011719 C 441.058594 417.667969 444.25 416.113281 447.339844 414.351562 L 654.515625 295.082031 Z M 654.515625 536.355469 "/></g><g clip-rule="nonzero" clip-path="url(#4c5c4f520c)"><path style=" stroke:none;fill-rule:nonzero;fill:#000000;fill-opacity:1;" d="M 408.046875 11.296875 C 401.554688 11.296875 395.066406 11.457031 388.582031 11.777344 C 382.09375 12.09375 375.621094 12.574219 369.160156 13.207031 C 362.699219 13.84375 356.257812 14.640625 349.832031 15.59375 C 343.410156 16.546875 337.015625 17.65625 330.644531 18.921875 C 324.277344 20.1875 317.945312 21.609375 311.644531 23.1875 C 305.347656 24.765625 299.089844 26.496094 292.878906 28.382812 C 286.664062 30.265625 280.5 32.304688 274.386719 34.492188 C 268.273438 36.679688 262.21875 39.015625 256.21875 41.5 C 250.21875 43.984375 244.285156 46.613281 238.414062 49.390625 C 232.546875 52.167969 226.75 55.085938 221.023438 58.144531 C 215.296875 61.207031 209.648438 64.40625 204.078125 67.746094 C 198.507812 71.082031 193.023438 74.554688 187.625 78.164062 C 182.226562 81.769531 176.921875 85.507812 171.703125 89.375 C 166.488281 93.242188 161.371094 97.238281 156.351562 101.355469 C 151.332031 105.476562 146.417969 109.714844 141.605469 114.074219 C 136.796875 118.4375 132.09375 122.914062 127.503906 127.503906 C 122.914062 132.09375 118.4375 136.796875 114.074219 141.605469 C 109.714844 146.417969 105.476562 151.332031 101.355469 156.351562 C 97.238281 161.371094 93.242188 166.488281 89.375 171.703125 C 85.507812 176.921875 81.769531 182.226562 78.164062 187.625 C 74.554688 193.023438 71.082031 198.507812 67.746094 204.078125 C 64.40625 209.648438 61.207031 215.296875 58.144531 221.023438 C 55.085938 226.75 52.167969 232.546875 49.390625 238.414062 C 46.613281 244.285156 43.984375 250.21875 41.5 256.21875 C 39.015625 262.21875 36.679688 268.273438 34.492188 274.386719 C 32.304688 280.5 30.265625 286.664062 28.382812 292.878906 C 26.496094 299.089844 24.765625 305.347656 23.1875 311.644531 C 21.609375 317.945312 20.1875 324.277344 18.921875 330.644531 C 17.65625 337.015625 16.546875 343.410156 15.59375 349.832031 C 14.640625 356.257812 13.84375 362.699219 13.207031 369.160156 C 12.574219 375.621094 12.09375 382.09375 11.777344 388.582031 C 11.457031 395.066406 11.296875 401.554688 11.296875 408.046875 C 11.296875 414.542969 11.457031 421.03125 11.777344 427.515625 C 12.09375 434 12.574219 440.476562 13.207031 446.9375 C 13.84375 453.398438 14.640625 459.839844 15.59375 466.265625 C 16.546875 472.6875 17.65625 479.082031 18.921875 485.449219 C 20.1875 491.820312 21.609375 498.152344 23.1875 504.449219 C 24.765625 510.75 26.496094 517.003906 28.382812 523.21875 C 30.265625 529.433594 32.304688 535.597656 34.492188 541.710938 C 36.679688 547.824219 39.015625 553.878906 41.5 559.878906 C 43.984375 565.875 46.613281 571.8125 49.390625 577.679688 C 52.167969 583.550781 55.085938 589.347656 58.144531 595.074219 C 61.207031 600.800781 64.40625 606.449219 67.746094 612.019531 C 71.082031 617.589844 74.554688 623.070312 78.164062 628.472656 C 81.769531 633.871094 85.507812 639.175781 89.375 644.390625 C 93.242188 649.605469 97.238281 654.726562 101.355469 659.742188 C 105.476562 664.761719 109.714844 669.679688 114.074219 674.488281 C 118.4375 679.300781 122.914062 684 127.503906 688.59375 C 132.09375 693.183594 136.796875 697.660156 141.605469 702.019531 C 146.417969 706.382812 151.332031 710.621094 156.351562 714.742188 C 161.371094 718.859375 166.488281 722.851562 171.703125 726.722656 C 176.921875 730.589844 182.226562 734.328125 187.625 737.933594 C 193.023438 741.542969 198.507812 745.015625 204.078125 748.351562 C 209.648438 751.691406 215.296875 754.890625 221.023438 757.949219 C 226.75 761.011719 232.546875 763.929688 238.414062 766.707031 C 244.285156 769.480469 250.21875 772.113281 256.21875 774.597656 C 262.21875 777.082031 268.273438 779.417969 274.386719 781.605469 C 280.5 783.792969 286.664062 785.828125 292.878906 787.714844 C 299.089844 789.597656 305.347656 791.332031 311.644531 792.910156 C 317.945312 794.484375 324.277344 795.90625 330.644531 797.175781 C 337.015625 798.441406 343.410156 799.550781 349.832031 800.503906 C 356.257812 801.457031 362.699219 802.25 369.160156 802.886719 C 375.621094 803.523438 382.09375 804 388.582031 804.320312 C 395.066406 804.640625 401.554688 804.796875 408.046875 804.796875 C 414.542969 804.796875 421.03125 804.640625 427.515625 804.320312 C 434 804 440.476562 803.523438 446.9375 802.886719 C 453.398438 802.25 459.839844 801.457031 466.261719 800.503906 C 472.6875 799.550781 479.082031 798.441406 485.449219 797.175781 C 491.820312 795.90625 498.152344 794.484375 504.449219 792.90625 C 510.75 791.332031 517.003906 789.597656 523.21875 787.714844 C 529.433594 785.828125 535.597656 783.792969 541.710938 781.605469 C 547.824219 779.417969 553.878906 777.082031 559.878906 774.597656 C 565.875 772.113281 571.8125 769.480469 577.679688 766.707031 C 583.550781 763.929688 589.347656 761.011719 595.074219 757.949219 C 600.800781 754.890625 606.449219 751.691406 612.019531 748.351562 C 617.585938 745.015625 623.070312 741.542969 628.472656 737.933594 C 633.871094 734.328125 639.175781 730.589844 644.390625 726.722656 C 649.605469 722.851562 654.726562 718.859375 659.742188 714.738281 C 664.761719 710.621094 669.679688 706.382812 674.488281 702.019531 C 679.300781 697.660156 684 693.183594 688.59375 688.59375 C 693.183594 684 697.660156 679.300781 702.019531 674.488281 C 706.382812 669.679688 710.621094 664.761719 714.742188 659.742188 C 718.859375 654.726562 722.851562 649.605469 726.722656 644.390625 C 730.589844 639.175781 734.328125 633.871094 737.933594 628.472656 C 741.542969 623.070312 745.015625 617.589844 748.351562 612.019531 C 751.691406 606.449219 754.890625 600.800781 757.949219 595.074219 C 761.011719 589.347656 763.929688 583.550781 766.707031 577.679688 C 769.480469 571.8125 772.113281 565.875 774.597656 559.878906 C 777.082031 553.878906 779.417969 547.824219 781.605469 541.710938 C 783.792969 535.597656 785.828125 529.433594 787.714844 523.21875 C 789.597656 517.003906 791.332031 510.75 792.910156 504.449219 C 794.484375 498.152344 795.90625 491.820312 797.175781 485.449219 C 798.441406 479.082031 799.550781 472.6875 800.503906 466.265625 C 801.457031 459.839844 802.25 453.398438 802.886719 446.9375 C 803.523438 440.476562 804 434 804.320312 427.515625 C 804.640625 421.03125 804.796875 414.542969 804.796875 408.046875 C 804.796875 401.554688 804.636719 395.066406 804.316406 388.582031 C 804 382.097656 803.519531 375.625 802.882812 369.160156 C 802.246094 362.699219 801.449219 356.257812 800.496094 349.835938 C 799.542969 343.414062 798.433594 337.019531 797.167969 330.648438 C 795.898438 324.28125 794.476562 317.949219 792.898438 311.652344 C 791.320312 305.351562 789.589844 299.097656 787.703125 292.882812 C 785.816406 286.671875 783.78125 280.507812 781.59375 274.394531 C 779.40625 268.28125 777.070312 262.226562 774.585938 256.226562 C 772.097656 250.226562 769.46875 244.292969 766.691406 238.425781 C 763.914062 232.554688 760.996094 226.757812 757.9375 221.03125 C 754.875 215.304688 751.675781 209.65625 748.335938 204.089844 C 745 198.519531 741.527344 193.035156 737.917969 187.636719 C 734.3125 182.238281 730.574219 176.933594 726.707031 171.71875 C 722.835938 166.503906 718.84375 161.386719 714.726562 156.367188 C 710.605469 151.347656 706.367188 146.433594 702.003906 141.621094 C 697.644531 136.808594 693.167969 132.109375 688.578125 127.519531 C 683.988281 122.925781 679.285156 118.453125 674.476562 114.089844 C 669.664062 109.730469 664.75 105.492188 659.730469 101.371094 C 654.710938 97.253906 649.59375 93.257812 644.378906 89.390625 C 639.164062 85.523438 633.859375 81.785156 628.460938 78.179688 C 623.058594 74.570312 617.578125 71.097656 612.007812 67.757812 C 606.4375 64.421875 600.792969 61.222656 595.066406 58.160156 C 589.339844 55.101562 583.542969 52.179688 577.671875 49.40625 C 571.800781 46.628906 565.867188 43.996094 559.871094 41.511719 C 553.871094 39.027344 547.816406 36.691406 541.703125 34.503906 C 535.589844 32.316406 529.425781 30.277344 523.214844 28.394531 C 517 26.507812 510.746094 24.777344 504.445312 23.199219 C 498.148438 21.621094 491.816406 20.199219 485.445312 18.929688 C 479.078125 17.664062 472.683594 16.550781 466.261719 15.597656 C 459.839844 14.644531 453.398438 13.851562 446.933594 13.214844 C 440.472656 12.578125 434 12.097656 427.515625 11.777344 C 421.03125 11.460938 414.542969 11.300781 408.046875 11.296875 Z M 225.296875 212.277344 L 590.800781 212.277344 C 592.730469 212.277344 594.660156 212.359375 596.582031 212.53125 C 598.503906 212.703125 600.417969 212.957031 602.316406 213.296875 C 604.21875 213.636719 606.101562 214.0625 607.964844 214.570312 C 609.828125 215.078125 611.664062 215.664062 613.472656 216.335938 C 615.285156 217.007812 617.0625 217.757812 618.804688 218.585938 C 620.550781 219.414062 622.253906 220.320312 623.917969 221.296875 C 625.578125 222.277344 627.195312 223.332031 628.765625 224.453125 C 630.335938 225.578125 631.855469 226.769531 633.316406 228.027344 C 634.78125 229.285156 636.1875 230.609375 637.535156 231.992188 C 638.878906 233.375 640.164062 234.816406 641.382812 236.3125 C 642.601562 237.8125 643.75 239.359375 644.832031 240.957031 C 645.914062 242.558594 646.921875 244.203125 647.855469 245.890625 C 648.792969 247.582031 649.648438 249.308594 650.429688 251.074219 C 651.210938 252.839844 651.914062 254.636719 652.535156 256.464844 C 653.15625 258.292969 653.695312 260.144531 654.152344 262.019531 C 654.609375 263.898438 654.984375 265.789062 655.273438 267.699219 C 650.066406 270.550781 449.210938 386.351562 435.945312 393.914062 C 433.828125 395.113281 431.640625 396.171875 429.386719 397.085938 C 427.128906 398.003906 424.824219 398.773438 422.472656 399.394531 C 420.117188 400.011719 417.734375 400.480469 415.320312 400.792969 C 412.90625 401.105469 410.484375 401.261719 408.046875 401.261719 C 405.613281 401.261719 403.191406 401.105469 400.777344 400.792969 C 398.363281 400.480469 395.980469 400.011719 393.625 399.394531 C 391.269531 398.773438 388.964844 398.003906 386.710938 397.085938 C 384.457031 396.171875 382.269531 395.113281 380.152344 393.914062 C 367.132812 386.476562 165.78125 271.789062 160.824219 268.691406 C 161.082031 266.757812 161.425781 264.839844 161.859375 262.941406 C 162.289062 261.039062 162.804688 259.160156 163.40625 257.304688 C 164.007812 255.449219 164.6875 253.625 165.453125 251.832031 C 166.214844 250.039062 167.058594 248.285156 167.980469 246.566406 C 168.902344 244.847656 169.902344 243.175781 170.972656 241.546875 C 172.046875 239.917969 173.1875 238.34375 174.402344 236.816406 C 175.617188 235.292969 176.898438 233.824219 178.242188 232.414062 C 179.589844 231.003906 180.996094 229.65625 182.460938 228.375 C 183.929688 227.089844 185.453125 225.875 187.027344 224.726562 C 188.605469 223.578125 190.230469 222.507812 191.902344 221.503906 C 193.574219 220.503906 195.289062 219.582031 197.046875 218.734375 C 198.800781 217.886719 200.59375 217.121094 202.417969 216.433594 C 204.242188 215.75 206.09375 215.148438 207.972656 214.628906 C 209.851562 214.109375 211.75 213.675781 213.667969 213.324219 C 215.585938 212.976562 217.515625 212.714844 219.457031 212.539062 C 221.398438 212.363281 223.347656 212.277344 225.296875 212.277344 Z M 656.015625 538.605469 C 656.015625 539.671875 655.988281 540.738281 655.933594 541.804688 C 655.882812 542.867188 655.800781 543.933594 655.695312 544.992188 C 655.589844 546.054688 655.457031 547.113281 655.300781 548.167969 C 655.144531 549.222656 654.960938 550.273438 654.75 551.320312 C 654.542969 552.367188 654.308594 553.40625 654.046875 554.441406 C 653.785156 555.476562 653.5 556.503906 653.191406 557.527344 C 652.878906 558.546875 652.546875 559.558594 652.183594 560.5625 C 651.824219 561.566406 651.441406 562.5625 651.03125 563.546875 C 650.621094 564.535156 650.191406 565.507812 649.734375 566.472656 C 649.277344 567.4375 648.796875 568.390625 648.292969 569.332031 C 647.789062 570.269531 647.261719 571.199219 646.714844 572.113281 C 646.164062 573.027344 645.59375 573.929688 645 574.816406 C 644.410156 575.703125 643.792969 576.574219 643.160156 577.433594 C 642.523438 578.289062 641.867188 579.128906 641.191406 579.953125 C 640.511719 580.78125 639.816406 581.585938 639.097656 582.378906 C 638.382812 583.167969 637.648438 583.941406 636.890625 584.695312 C 636.136719 585.449219 635.367188 586.183594 634.574219 586.902344 C 633.785156 587.617188 632.976562 588.316406 632.152344 588.992188 C 631.328125 589.667969 630.488281 590.324219 629.628906 590.960938 C 628.773438 591.597656 627.902344 592.210938 627.015625 592.804688 C 626.128906 593.398438 625.226562 593.96875 624.3125 594.515625 C 623.398438 595.066406 622.46875 595.59375 621.527344 596.09375 C 620.585938 596.597656 619.636719 597.078125 618.671875 597.535156 C 617.707031 597.992188 616.730469 598.425781 615.746094 598.835938 C 614.761719 599.242188 613.765625 599.628906 612.761719 599.988281 C 611.757812 600.347656 610.746094 600.683594 609.722656 600.992188 C 608.703125 601.304688 607.675781 601.589844 606.640625 601.847656 C 605.605469 602.109375 604.566406 602.34375 603.519531 602.554688 C 602.472656 602.761719 601.421875 602.945312 600.367188 603.101562 C 599.3125 603.261719 598.253906 603.394531 597.191406 603.5 C 596.128906 603.605469 595.066406 603.683594 594 603.738281 C 592.933594 603.789062 591.867188 603.820312 590.800781 603.820312 L 225.296875 603.820312 C 224.226562 603.820312 223.164062 603.789062 222.097656 603.738281 C 221.03125 603.683594 219.96875 603.605469 218.90625 603.5 C 217.84375 603.394531 216.785156 603.261719 215.730469 603.101562 C 214.675781 602.945312 213.625 602.761719 212.578125 602.554688 C 211.53125 602.34375 210.492188 602.109375 209.457031 601.851562 C 208.421875 601.589844 207.394531 601.304688 206.375 600.992188 C 205.351562 600.683594 204.339844 600.347656 203.335938 599.988281 C 202.332031 599.628906 201.335938 599.242188 200.351562 598.835938 C 199.367188 598.425781 198.390625 597.992188 197.425781 597.535156 C 196.460938 597.078125 195.507812 596.597656 194.570312 596.09375 C 193.628906 595.59375 192.699219 595.066406 191.785156 594.515625 C 190.871094 593.96875 189.96875 593.398438 189.082031 592.804688 C 188.195312 592.210938 187.324219 591.597656 186.464844 590.960938 C 185.609375 590.324219 184.769531 589.667969 183.945312 588.992188 C 183.121094 588.316406 182.3125 587.617188 181.523438 586.902344 C 180.730469 586.183594 179.957031 585.449219 179.203125 584.695312 C 178.449219 583.941406 177.714844 583.167969 176.996094 582.378906 C 176.28125 581.585938 175.585938 580.78125 174.90625 579.953125 C 174.230469 579.128906 173.574219 578.289062 172.9375 577.433594 C 172.300781 576.574219 171.6875 575.703125 171.09375 574.816406 C 170.5 573.929688 169.929688 573.027344 169.382812 572.113281 C 168.832031 571.199219 168.308594 570.269531 167.804688 569.332031 C 167.300781 568.390625 166.820312 567.4375 166.363281 566.472656 C 165.90625 565.507812 165.472656 564.535156 165.066406 563.546875 C 164.65625 562.5625 164.273438 561.566406 163.910156 560.5625 C 163.550781 559.558594 163.214844 558.546875 162.90625 557.527344 C 162.59375 556.503906 162.308594 555.476562 162.050781 554.441406 C 161.789062 553.40625 161.554688 552.367188 161.347656 551.320312 C 161.136719 550.273438 160.953125 549.222656 160.796875 548.167969 C 160.636719 547.113281 160.507812 546.054688 160.402344 544.992188 C 160.296875 543.933594 160.214844 542.867188 160.160156 541.804688 C 160.109375 540.738281 160.082031 539.671875 160.078125 538.605469 L 160.078125 298.320312 L 367.382812 416.601562 C 370.472656 418.363281 373.660156 419.917969 376.953125 421.261719 C 380.242188 422.609375 383.605469 423.738281 387.042969 424.648438 C 390.480469 425.558594 393.960938 426.242188 397.488281 426.703125 C 401.015625 427.160156 404.554688 427.390625 408.109375 427.390625 C 411.664062 427.390625 415.207031 427.160156 418.734375 426.703125 C 422.257812 426.242188 425.738281 425.558594 429.175781 424.648438 C 432.613281 423.738281 435.976562 422.609375 439.269531 421.261719 C 442.558594 419.917969 445.75 418.363281 448.839844 416.601562 L 656.015625 297.332031 Z M 656.015625 538.605469 "/></g></g></svg>