<svg xmlns="http://www.w3.org/2000/svg" xmlns:xlink="http://www.w3.org/1999/xlink" width="1080" zoomAndPan="magnify" viewBox="0 0 810 809.999993" height="1080" preserveAspectRatio="xMidYMid meet" version="1.2"><defs><clipPath id="454907df60"><path d="M 6.957031 6.957031 L 804.207031 6.957031 L 804.207031 804.207031 L 6.957031 804.207031 Z M 6.957031 6.957031 "/></clipPath><clipPath id="670a0f39e1"><path d="M 10.910156 6.207031 L 808.160156 6.207031 L 808.160156 803.457031 L 10.910156 803.457031 Z M 10.910156 6.207031 "/></clipPath></defs><g id="722ed3f17b"><g clip-rule="nonzero" clip-path="url(#454907df60)"><path style=" stroke:none;fill-rule:evenodd;fill:#000000;fill-opacity:1;" d="M 656.105469 338.847656 C 660.386719 339.203125 663.597656 340.628906 667.167969 343.484375 C 668.59375 344.199219 669.664062 345.269531 670.734375 346.339844 L 706.421875 330.28125 L 404.867188 195.027344 L 103.667969 330.28125 L 404.867188 465.535156 L 596.148438 379.886719 L 399.871094 357.046875 C 395.945312 356.332031 392.019531 354.90625 388.449219 352.40625 C 384.882812 349.910156 382.382812 346.695312 380.957031 342.769531 C 379.171875 338.488281 378.816406 335.277344 379.171875 330.636719 C 379.886719 326.355469 381.3125 322.429688 383.453125 319.21875 C 386.308594 315.648438 389.164062 313.152344 393.445312 311.367188 C 397.371094 309.582031 400.941406 309.226562 405.582031 309.582031 Z M 658.960938 362.398438 L 658.960938 362.042969 C 658.960938 360.613281 658.960938 358.832031 658.246094 357.402344 C 657.53125 355.261719 656.460938 354.191406 654.675781 352.765625 C 652.890625 351.335938 651.464844 350.980469 649.679688 350.980469 L 406.652344 323.855469 C 404.867188 323.855469 403.082031 323.855469 401.296875 324.929688 C 399.515625 325.285156 398.085938 326.710938 397.371094 328.140625 C 395.945312 329.925781 395.589844 331.351562 395.230469 333.136719 C 395.230469 335.277344 395.230469 336.703125 395.945312 338.488281 C 396.660156 340.273438 397.730469 341.699219 399.15625 342.769531 C 400.941406 343.84375 402.367188 344.554688 404.152344 344.914062 L 637.902344 370.964844 L 637.902344 466.605469 L 629.339844 484.09375 C 628.269531 485.875 628.269531 487.304688 628.269531 488.730469 C 628.269531 490.871094 628.269531 491.585938 629.339844 493.371094 L 639.332031 514.78125 C 639.6875 514.78125 639.6875 514.78125 640.042969 515.140625 C 641.117188 517.28125 642.1875 517.996094 643.96875 519.421875 C 645.398438 520.136719 647.539062 520.492188 648.964844 520.492188 C 650.75 520.492188 652.535156 520.136719 654.320312 519.421875 C 655.746094 517.996094 657.175781 517.28125 658.246094 515.140625 L 658.246094 514.78125 L 668.953125 493.726562 C 670.023438 491.945312 670.378906 490.871094 670.378906 488.730469 C 670.378906 487.304688 670.023438 485.875 668.953125 484.09375 L 658.960938 464.109375 Z M 402.011719 489.089844 L 240.347656 415.574219 L 240.347656 512.640625 C 239.992188 514.070312 239.992188 515.855469 239.992188 517.28125 C 239.992188 561.535156 311.367188 595.792969 404.152344 595.792969 C 497.652344 595.792969 569.027344 561.535156 569.027344 517.28125 C 569.027344 515.855469 569.027344 514.070312 568.671875 512.640625 L 568.671875 416.644531 L 408.078125 489.089844 C 407.007812 489.445312 406.292969 489.800781 405.222656 489.800781 C 404.152344 489.800781 403.4375 489.445312 402.011719 489.089844 Z M 405.582031 6.957031 C 631.835938 6.957031 804.207031 179.324219 804.207031 405.582031 C 804.207031 631.835938 631.835938 804.207031 405.582031 804.207031 C 179.324219 804.207031 6.957031 631.835938 6.957031 405.582031 C 6.957031 179.324219 179.324219 6.957031 405.582031 6.957031 Z M 405.582031 6.957031 "/></g><g clip-rule="nonzero" clip-path="url(#670a0f39e1)"><path style=" stroke:none;fill-rule:evenodd;fill:#000000;fill-opacity:1;" d="M 660.058594 338.097656 C 664.34375 338.453125 667.554688 339.878906 671.121094 342.734375 C 672.550781 343.449219 673.621094 344.519531 674.691406 345.589844 L 710.378906 329.53125 L 408.824219 194.277344 L 107.625 329.53125 L 408.824219 464.785156 L 600.105469 379.136719 L 403.828125 356.296875 C 399.902344 355.582031 395.976562 354.15625 392.40625 351.65625 C 388.835938 349.160156 386.339844 345.945312 384.914062 342.019531 C 383.128906 337.738281 382.769531 334.527344 383.128906 329.886719 C 383.839844 325.605469 385.269531 321.679688 387.410156 318.46875 C 390.265625 314.898438 393.121094 312.402344 397.402344 310.617188 C 401.328125 308.832031 404.898438 308.476562 409.535156 308.832031 Z M 662.914062 361.648438 L 662.914062 361.292969 C 662.914062 359.863281 662.914062 358.082031 662.199219 356.652344 C 661.488281 354.511719 660.417969 353.441406 658.632812 352.015625 C 656.847656 350.585938 655.421875 350.230469 653.636719 350.230469 L 410.605469 323.105469 C 408.824219 323.105469 407.039062 323.105469 405.253906 324.179688 C 403.46875 324.535156 402.042969 325.960938 401.328125 327.390625 C 399.902344 329.175781 399.542969 330.601562 399.1875 332.386719 C 399.1875 334.527344 399.1875 335.953125 399.902344 337.738281 C 400.613281 339.523438 401.683594 340.949219 403.113281 342.019531 C 404.898438 343.09375 406.324219 343.804688 408.109375 344.164062 L 641.859375 370.214844 L 641.859375 465.855469 L 633.292969 483.34375 C 632.222656 485.125 632.222656 486.554688 632.222656 487.980469 C 632.222656 490.121094 632.222656 490.835938 633.292969 492.621094 L 643.285156 514.03125 C 643.644531 514.03125 643.644531 514.03125 644 514.390625 C 645.070312 516.53125 646.140625 517.246094 647.925781 518.671875 C 649.355469 519.386719 651.496094 519.742188 652.921875 519.742188 C 654.707031 519.742188 656.492188 519.386719 658.273438 518.671875 C 659.703125 517.246094 661.128906 516.53125 662.199219 514.390625 L 662.199219 514.03125 L 672.90625 492.976562 C 673.976562 491.195312 674.335938 490.121094 674.335938 487.980469 C 674.335938 486.554688 673.976562 485.125 672.90625 483.34375 L 662.914062 463.359375 Z M 405.96875 488.339844 L 244.304688 414.824219 L 244.304688 511.890625 C 243.949219 513.320312 243.949219 515.105469 243.949219 516.53125 C 243.949219 560.785156 315.324219 595.042969 408.109375 595.042969 C 501.609375 595.042969 572.984375 560.785156 572.984375 516.53125 C 572.984375 515.105469 572.984375 513.320312 572.625 511.890625 L 572.625 415.894531 L 412.035156 488.339844 C 410.964844 488.695312 410.25 489.050781 409.179688 489.050781 C 408.109375 489.050781 407.394531 488.695312 405.96875 488.339844 Z M 409.535156 6.207031 C 635.792969 6.207031 808.160156 178.574219 808.160156 404.832031 C 808.160156 631.085938 635.792969 803.457031 409.535156 803.457031 C 183.28125 803.457031 10.910156 631.085938 10.910156 404.832031 C 10.910156 178.574219 183.28125 6.207031 409.535156 6.207031 Z M 409.535156 6.207031 "/></g></g></svg>