<svg xmlns="http://www.w3.org/2000/svg" xmlns:xlink="http://www.w3.org/1999/xlink" width="1080" zoomAndPan="magnify" viewBox="0 0 810 809.999993" height="1080" preserveAspectRatio="xMidYMid meet" version="1.2"><defs><clipPath id="a5feb0ce02"><path d="M 5.660156 6.410156 L 804.410156 6.410156 L 804.410156 805.160156 L 5.660156 805.160156 Z M 5.660156 6.410156 "/></clipPath><clipPath id="c2a94df45d"><path d="M 5.660156 6.824219 L 804.410156 6.824219 L 804.410156 805.574219 L 5.660156 805.574219 Z M 5.660156 6.824219 "/></clipPath></defs><g id="7c86d5bca8"><g clip-rule="nonzero" clip-path="url(#a5feb0ce02)"><path style=" stroke:none;fill-rule:evenodd;fill:#000000;fill-opacity:1;" d="M 656.03125 338.925781 C 660.320312 339.285156 663.539062 340.714844 667.113281 343.574219 C 668.546875 344.289062 669.617188 345.363281 670.691406 346.433594 L 706.445312 330.34375 L 404.320312 194.835938 L 102.554688 330.34375 L 404.320312 465.851562 L 595.964844 380.042969 L 399.316406 357.160156 C 395.382812 356.445312 391.449219 355.015625 387.875 352.511719 C 384.300781 350.007812 381.796875 346.792969 380.367188 342.859375 C 378.578125 338.566406 378.21875 335.351562 378.578125 330.703125 C 379.292969 326.410156 380.722656 322.480469 382.867188 319.261719 C 385.730469 315.6875 388.589844 313.183594 392.878906 311.394531 C 396.8125 309.605469 400.386719 309.25 405.035156 309.605469 Z M 658.890625 362.523438 L 658.890625 362.167969 C 658.890625 360.734375 658.890625 358.949219 658.175781 357.519531 C 657.460938 355.371094 656.390625 354.300781 654.601562 352.871094 C 652.8125 351.441406 651.382812 351.082031 649.59375 351.082031 L 406.109375 323.910156 C 404.320312 323.910156 402.535156 323.910156 400.746094 324.980469 C 398.957031 325.339844 397.527344 326.769531 396.8125 328.199219 C 395.382812 329.988281 395.023438 331.417969 394.667969 333.207031 C 394.667969 335.351562 394.667969 336.78125 395.382812 338.566406 C 396.097656 340.355469 397.171875 341.785156 398.601562 342.859375 C 400.386719 343.929688 401.820312 344.648438 403.605469 345.003906 L 637.796875 371.105469 L 637.796875 466.925781 L 629.214844 484.445312 C 628.144531 486.234375 628.144531 487.664062 628.144531 489.09375 C 628.144531 491.238281 628.144531 491.953125 629.214844 493.742188 L 639.226562 515.195312 C 639.585938 515.195312 639.585938 515.195312 639.941406 515.550781 C 641.015625 517.695312 642.085938 518.414062 643.875 519.84375 C 645.304688 520.558594 647.449219 520.914062 648.878906 520.914062 C 650.667969 520.914062 652.457031 520.558594 654.242188 519.84375 C 655.671875 518.414062 657.105469 517.695312 658.175781 515.550781 L 658.175781 515.195312 L 668.902344 494.097656 C 669.976562 492.3125 670.332031 491.238281 670.332031 489.09375 C 670.332031 487.664062 669.976562 486.234375 668.902344 484.445312 L 658.890625 464.421875 Z M 401.460938 489.453125 L 239.492188 415.796875 L 239.492188 513.050781 C 239.136719 514.480469 239.136719 516.265625 239.136719 517.695312 C 239.136719 562.03125 310.644531 596.355469 403.605469 596.355469 C 497.28125 596.355469 568.789062 562.03125 568.789062 517.695312 C 568.789062 516.265625 568.789062 514.480469 568.433594 513.050781 L 568.433594 416.871094 L 407.539062 489.453125 C 406.464844 489.808594 405.75 490.167969 404.679688 490.167969 C 403.605469 490.167969 402.890625 489.808594 401.460938 489.453125 Z M 405.035156 6.410156 C 631.71875 6.410156 804.410156 179.105469 804.410156 405.785156 C 804.410156 632.46875 631.71875 805.160156 405.035156 805.160156 C 178.355469 805.160156 5.660156 632.46875 5.660156 405.785156 C 5.660156 179.105469 178.355469 6.410156 405.035156 6.410156 Z M 405.035156 6.410156 "/></g><g clip-rule="nonzero" clip-path="url(#c2a94df45d)"><path style=" stroke:none;fill-rule:evenodd;fill:#ffffff;fill-opacity:1;" d="M 655.964844 339.304688 C 660.253906 339.660156 663.472656 341.089844 667.046875 343.949219 C 668.476562 344.664062 669.550781 345.738281 670.621094 346.8125 L 706.371094 330.722656 L 404.28125 195.226562 L 102.546875 330.722656 L 404.28125 466.21875 L 595.902344 380.417969 L 399.273438 357.535156 C 395.34375 356.820312 391.410156 355.390625 387.835938 352.886719 C 384.261719 350.386719 381.757812 347.167969 380.328125 343.234375 C 378.539062 338.945312 378.183594 335.726562 378.539062 331.082031 C 379.253906 326.789062 380.683594 322.859375 382.828125 319.640625 C 385.691406 316.066406 388.550781 313.5625 392.839844 311.773438 C 396.773438 309.988281 400.347656 309.628906 404.996094 309.988281 Z M 658.824219 362.898438 L 658.824219 362.539062 C 658.824219 361.109375 658.824219 359.324219 658.109375 357.894531 C 657.394531 355.75 656.320312 354.675781 654.535156 353.246094 C 652.746094 351.816406 651.316406 351.457031 649.527344 351.457031 L 406.066406 324.289062 C 404.28125 324.289062 402.492188 324.289062 400.707031 325.359375 C 398.917969 325.71875 397.488281 327.148438 396.773438 328.578125 C 395.34375 330.367188 394.984375 331.796875 394.628906 333.582031 C 394.628906 335.726562 394.628906 337.15625 395.34375 338.945312 C 396.058594 340.734375 397.128906 342.164062 398.558594 343.234375 C 400.347656 344.308594 401.777344 345.023438 403.566406 345.378906 L 637.730469 371.480469 L 637.730469 467.289062 L 629.152344 484.808594 C 628.078125 486.59375 628.078125 488.027344 628.078125 489.457031 C 628.078125 491.601562 628.078125 492.316406 629.152344 494.101562 L 639.160156 515.554688 C 639.519531 515.554688 639.519531 515.554688 639.875 515.910156 C 640.949219 518.054688 642.023438 518.769531 643.808594 520.199219 C 645.238281 520.914062 647.382812 521.273438 648.8125 521.273438 C 650.601562 521.273438 652.390625 520.914062 654.175781 520.199219 C 655.605469 518.769531 657.035156 518.054688 658.109375 515.910156 L 658.109375 515.554688 L 668.835938 494.460938 C 669.90625 492.671875 670.265625 491.601562 670.265625 489.457031 C 670.265625 488.027344 669.90625 486.59375 668.835938 484.808594 L 658.824219 464.789062 Z M 401.421875 489.8125 L 239.46875 416.167969 L 239.46875 513.410156 C 239.113281 514.839844 239.113281 516.625 239.113281 518.054688 C 239.113281 562.386719 310.613281 596.707031 403.566406 596.707031 C 497.230469 596.707031 568.734375 562.386719 568.734375 518.054688 C 568.734375 516.625 568.734375 514.839844 568.375 513.410156 L 568.375 417.238281 L 407.496094 489.8125 C 406.425781 490.171875 405.710938 490.527344 404.636719 490.527344 C 403.566406 490.527344 402.851562 490.171875 401.421875 489.8125 Z M 404.996094 6.824219 C 631.652344 6.824219 804.328125 179.496094 804.328125 406.15625 C 804.328125 632.816406 631.652344 805.492188 404.996094 805.492188 C 178.335938 805.492188 5.660156 632.816406 5.660156 406.15625 C 5.660156 179.496094 178.335938 6.824219 404.996094 6.824219 Z M 404.996094 6.824219 "/></g></g></svg>