<svg xmlns="http://www.w3.org/2000/svg" xmlns:xlink="http://www.w3.org/1999/xlink" width="1080" zoomAndPan="magnify" viewBox="0 0 810 809.999993" height="1080" preserveAspectRatio="xMidYMid meet" version="1.2"><defs><clipPath id="6d7431f092"><path d="M 0 47.585938 L 810 47.585938 L 810 729.335938 L 0 729.335938 Z M 0 47.585938 "/></clipPath><clipPath id="779fe51a2c"><path d="M 0.75 47.585938 L 810 47.585938 L 810 729 L 0.75 729 Z M 0.75 47.585938 "/></clipPath></defs><g id="1ee7d8d7f8"><path style=" stroke:none;fill-rule:nonzero;fill:#000000;fill-opacity:1;" d="M 695.476562 88.125 L 114.523438 88.125 C 110.972656 88.125 108.09375 91.003906 108.09375 94.558594 L 108.09375 493.1875 C 108.09375 496.738281 110.972656 499.617188 114.523438 499.617188 L 695.476562 499.617188 C 699.023438 499.617188 701.902344 496.738281 701.902344 493.1875 L 701.902344 94.558594 C 701.90625 91.003906 699.027344 88.125 695.476562 88.125 Z M 689.046875 100.988281 L 689.046875 223.253906 L 120.953125 223.253906 L 120.953125 100.988281 Z M 120.953125 486.753906 L 120.953125 236.117188 L 689.046875 236.117188 L 689.046875 486.753906 Z M 120.953125 486.753906 "/><g clip-rule="nonzero" clip-path="url(#6d7431f092)"><path style=" stroke:none;fill-rule:nonzero;fill:#000000;fill-opacity:1;" d="M 809.988281 682.367188 L 735.679688 552.265625 L 735.679688 80.785156 C 735.679688 62.480469 720.796875 47.585938 702.5 47.585938 L 107.5 47.585938 C 89.203125 47.585938 74.320312 62.480469 74.320312 80.785156 L 74.320312 552.269531 L 0.0117188 682.367188 L 0.0117188 722.90625 C 0.0117188 726.457031 2.890625 729.335938 6.4375 729.335938 L 803.5625 729.335938 C 807.109375 729.335938 809.988281 726.457031 809.988281 722.90625 Z M 792.410156 675.9375 L 497.054688 675.9375 L 482.300781 641.503906 L 722.496094 641.503906 C 724.722656 641.503906 726.792969 640.347656 727.964844 638.453125 C 729.136719 636.558594 729.242188 634.1875 728.246094 632.195312 L 692.367188 560.425781 L 725.546875 560.425781 Z M 118.171875 588.101562 L 132.007812 560.425781 L 165.675781 560.425781 L 154.148438 588.101562 Z M 148.789062 600.964844 L 137.257812 628.640625 L 97.90625 628.640625 L 111.742188 600.964844 Z M 162.71875 600.964844 L 200.179688 600.964844 L 190.957031 628.640625 L 151.1875 628.640625 Z M 168.078125 588.101562 L 179.605469 560.425781 L 213.6875 560.425781 L 204.464844 588.101562 Z M 213.730469 600.964844 L 251.527344 600.964844 L 244.613281 628.640625 L 204.507812 628.640625 Z M 218.015625 588.101562 L 227.242188 560.425781 L 261.660156 560.425781 L 254.746094 588.101562 Z M 264.78125 600.964844 L 298.8125 600.964844 L 291.898438 628.640625 L 257.863281 628.640625 Z M 267.996094 588.101562 L 274.910156 560.425781 L 308.945312 560.425781 L 302.03125 588.101562 Z M 312.066406 600.964844 L 350.125 600.964844 L 345.511719 628.640625 L 305.148438 628.640625 Z M 315.28125 588.101562 L 322.199219 560.425781 L 356.878906 560.425781 L 352.265625 588.101562 Z M 468.3125 641.503906 L 483.066406 675.9375 L 326.933594 675.9375 L 341.6875 641.503906 Z M 398.570312 600.964844 L 398.570312 628.640625 L 358.546875 628.640625 L 363.160156 600.964844 Z M 365.300781 588.101562 L 369.914062 560.425781 L 398.570312 560.425781 L 398.570312 588.101562 Z M 446.84375 600.964844 L 451.453125 628.640625 L 411.429688 628.640625 L 411.429688 600.964844 Z M 411.429688 588.101562 L 411.429688 560.425781 L 440.085938 560.425781 L 444.699219 588.101562 Z M 655.851562 588.101562 L 644.324219 560.425781 L 677.992188 560.425781 L 691.828125 588.101562 Z M 698.257812 600.964844 L 712.09375 628.640625 L 672.742188 628.640625 L 661.210938 600.964844 Z M 647.28125 600.964844 L 658.8125 628.640625 L 619.046875 628.640625 L 609.824219 600.964844 Z M 605.535156 588.101562 L 596.3125 560.425781 L 630.394531 560.425781 L 641.921875 588.101562 Z M 605.492188 628.640625 L 565.386719 628.640625 L 558.472656 600.964844 L 596.269531 600.964844 Z M 555.253906 588.101562 L 548.339844 560.425781 L 582.757812 560.425781 L 591.984375 588.101562 Z M 552.136719 628.640625 L 518.101562 628.640625 L 511.1875 600.964844 L 545.21875 600.964844 Z M 507.96875 588.101562 L 501.054688 560.425781 L 535.089844 560.425781 L 542.003906 588.101562 Z M 504.851562 628.640625 L 464.488281 628.640625 L 459.875 600.964844 L 497.933594 600.964844 Z M 457.730469 588.101562 L 453.121094 560.425781 L 487.800781 560.425781 L 494.714844 588.101562 Z M 87.175781 80.785156 C 87.175781 69.574219 96.292969 60.449219 107.5 60.449219 L 702.5 60.449219 C 713.707031 60.449219 722.824219 69.574219 722.824219 80.785156 L 722.824219 547.5625 L 87.175781 547.5625 Z M 84.453125 560.425781 L 117.632812 560.425781 L 81.753906 632.195312 C 80.757812 634.1875 80.863281 636.558594 82.035156 638.453125 C 83.207031 640.351562 85.277344 641.503906 87.503906 641.503906 L 327.699219 641.503906 L 312.945312 675.9375 L 17.589844 675.9375 Z M 797.132812 716.472656 L 12.867188 716.472656 L 12.867188 688.800781 L 797.132812 688.800781 Z M 797.132812 716.472656 "/></g><path style=" stroke:none;fill-rule:nonzero;fill:#000000;fill-opacity:1;" d="M 175.320312 290.167969 L 249.628906 290.167969 C 253.179688 290.167969 256.058594 287.289062 256.058594 283.738281 C 256.058594 280.1875 253.179688 277.308594 249.628906 277.308594 L 175.320312 277.308594 C 171.769531 277.308594 168.894531 280.1875 168.894531 283.738281 C 168.894531 287.289062 171.769531 290.167969 175.320312 290.167969 Z M 175.320312 290.167969 "/><path style=" stroke:none;fill-rule:nonzero;fill:#000000;fill-opacity:1;" d="M 290.160156 290.167969 L 654.945312 290.167969 C 658.496094 290.167969 661.371094 287.289062 661.371094 283.738281 C 661.371094 280.1875 658.496094 277.308594 654.945312 277.308594 L 290.160156 277.308594 C 286.609375 277.308594 283.730469 280.1875 283.730469 283.738281 C 283.730469 287.289062 286.609375 290.167969 290.160156 290.167969 Z M 290.160156 290.167969 "/><path style=" stroke:none;fill-rule:nonzero;fill:#000000;fill-opacity:1;" d="M 661.699219 331.359375 L 148.300781 331.359375 C 144.75 331.359375 141.871094 334.238281 141.871094 337.789062 C 141.871094 341.339844 144.75 344.222656 148.300781 344.222656 L 661.699219 344.222656 C 665.25 344.222656 668.128906 341.339844 668.128906 337.789062 C 668.128906 334.238281 665.25 331.359375 661.699219 331.359375 Z M 661.699219 331.359375 "/><path style=" stroke:none;fill-rule:nonzero;fill:#000000;fill-opacity:1;" d="M 269.894531 392.164062 L 148.300781 392.164062 C 144.75 392.164062 141.871094 395.046875 141.871094 398.597656 C 141.871094 402.148438 144.75 405.027344 148.300781 405.027344 L 269.894531 405.027344 C 273.445312 405.027344 276.324219 402.148438 276.324219 398.597656 C 276.324219 395.046875 273.445312 392.164062 269.894531 392.164062 Z M 269.894531 392.164062 "/><path style=" stroke:none;fill-rule:nonzero;fill:#000000;fill-opacity:1;" d="M 303.671875 365.140625 C 300.121094 365.140625 297.242188 368.019531 297.242188 371.570312 L 297.242188 425.621094 C 297.242188 429.175781 300.121094 432.054688 303.671875 432.054688 C 307.222656 432.054688 310.097656 429.175781 310.097656 425.621094 L 310.097656 371.570312 C 310.097656 368.019531 307.222656 365.140625 303.671875 365.140625 Z M 303.671875 365.140625 "/><path style=" stroke:none;fill-rule:nonzero;fill:#000000;fill-opacity:1;" d="M 141.546875 183.136719 C 137.996094 183.136719 135.117188 186.019531 135.117188 189.570312 C 135.117188 193.121094 137.996094 196 141.546875 196 L 174.476562 196 C 178.027344 196 180.90625 193.121094 180.90625 189.570312 C 180.90625 186.019531 178.027344 183.136719 174.476562 183.136719 L 164.4375 183.136719 L 164.4375 141.105469 L 174.476562 141.105469 C 178.027344 141.105469 180.90625 138.226562 180.90625 134.675781 C 180.90625 131.121094 178.027344 128.242188 174.476562 128.242188 L 141.546875 128.242188 C 137.996094 128.242188 135.117188 131.121094 135.117188 134.675781 C 135.117188 138.226562 137.996094 141.105469 141.546875 141.105469 L 151.582031 141.105469 L 151.582031 183.140625 L 141.546875 183.140625 Z M 141.546875 183.136719 "/><path style=" stroke:none;fill-rule:nonzero;fill:#000000;fill-opacity:1;" d="M 196.429688 196 C 199.980469 196 202.859375 193.121094 202.859375 189.570312 L 202.859375 157.886719 L 223.851562 192.878906 C 225.035156 194.851562 227.148438 196.003906 229.363281 196.003906 C 229.933594 196.003906 230.507812 195.925781 231.078125 195.769531 C 233.863281 194.996094 235.792969 192.460938 235.792969 189.570312 L 235.792969 134.675781 C 235.792969 131.121094 232.914062 128.242188 229.363281 128.242188 C 225.8125 128.242188 222.933594 131.121094 222.933594 134.675781 L 222.933594 166.359375 L 201.941406 131.363281 C 200.457031 128.886719 197.503906 127.703125 194.714844 128.476562 C 191.929688 129.246094 190.003906 131.785156 190.003906 134.675781 L 190.003906 189.570312 C 190.003906 193.121094 192.878906 196 196.429688 196 Z M 196.429688 196 "/><path style=" stroke:none;fill-rule:nonzero;fill:#000000;fill-opacity:1;" d="M 251.316406 141.105469 L 261.355469 141.105469 L 261.355469 189.570312 C 261.355469 193.125 264.234375 196.003906 267.785156 196.003906 C 271.335938 196.003906 274.210938 193.125 274.210938 189.570312 L 274.210938 141.105469 L 284.25 141.105469 C 287.800781 141.105469 290.679688 138.226562 290.679688 134.675781 C 290.679688 131.121094 287.800781 128.242188 284.25 128.242188 L 251.320312 128.242188 C 247.769531 128.242188 244.890625 131.121094 244.890625 134.675781 C 244.890625 138.226562 247.769531 141.105469 251.316406 141.105469 Z M 251.316406 141.105469 "/><path style=" stroke:none;fill-rule:nonzero;fill:#000000;fill-opacity:1;" d="M 306.203125 196 L 339.136719 196 C 342.6875 196 345.566406 193.121094 345.566406 189.570312 C 345.566406 186.019531 342.6875 183.136719 339.136719 183.136719 L 312.632812 183.136719 L 312.632812 168.554688 L 339.136719 168.554688 C 342.6875 168.554688 345.566406 165.671875 345.566406 162.121094 C 345.566406 158.570312 342.6875 155.691406 339.136719 155.691406 L 312.632812 155.691406 L 312.632812 141.105469 L 339.136719 141.105469 C 342.6875 141.105469 345.566406 138.226562 345.566406 134.671875 C 345.566406 131.121094 342.6875 128.242188 339.136719 128.242188 L 306.203125 128.242188 C 302.652344 128.242188 299.773438 131.121094 299.773438 134.671875 L 299.773438 189.570312 C 299.773438 193.121094 302.652344 196 306.203125 196 Z M 306.203125 196 "/><path style=" stroke:none;fill-rule:nonzero;fill:#000000;fill-opacity:1;" d="M 415.976562 196 C 419.527344 196 422.40625 193.121094 422.40625 189.570312 L 422.40625 157.886719 L 443.398438 192.878906 C 444.582031 194.851562 446.695312 196.003906 448.910156 196.003906 C 449.480469 196.003906 450.054688 195.925781 450.628906 195.769531 C 453.414062 194.996094 455.339844 192.460938 455.339844 189.570312 L 455.339844 134.675781 C 455.339844 131.121094 452.460938 128.242188 448.910156 128.242188 C 445.359375 128.242188 442.480469 131.121094 442.480469 134.675781 L 442.480469 166.359375 L 421.488281 131.363281 C 420.003906 128.886719 417.046875 127.703125 414.261719 128.476562 C 411.476562 129.246094 409.546875 131.785156 409.546875 134.675781 L 409.546875 189.570312 C 409.550781 193.121094 412.429688 196 415.976562 196 Z M 415.976562 196 "/><path style=" stroke:none;fill-rule:nonzero;fill:#000000;fill-opacity:1;" d="M 525.75 196 C 529.300781 196 532.179688 193.121094 532.179688 189.570312 L 532.179688 168.554688 L 552.253906 168.554688 L 552.253906 189.570312 C 552.253906 193.121094 555.132812 196 558.683594 196 C 562.230469 196 565.109375 193.121094 565.109375 189.570312 L 565.109375 134.675781 C 565.109375 131.121094 562.230469 128.242188 558.683594 128.242188 C 555.132812 128.242188 552.253906 131.121094 552.253906 134.675781 L 552.253906 155.691406 L 532.179688 155.691406 L 532.179688 134.675781 C 532.179688 131.121094 529.300781 128.242188 525.75 128.242188 C 522.199219 128.242188 519.324219 131.121094 519.324219 134.675781 L 519.324219 189.570312 C 519.324219 193.121094 522.199219 196 525.75 196 Z M 525.75 196 "/><path style=" stroke:none;fill-rule:nonzero;fill:#000000;fill-opacity:1;" d="M 580.636719 183.136719 C 577.085938 183.136719 574.207031 186.019531 574.207031 189.570312 C 574.207031 193.121094 577.085938 196 580.636719 196 L 613.570312 196 C 617.121094 196 619.996094 193.121094 619.996094 189.570312 C 619.996094 186.019531 617.121094 183.136719 613.570312 183.136719 L 603.53125 183.136719 L 603.53125 141.105469 L 613.570312 141.105469 C 617.121094 141.105469 619.996094 138.226562 619.996094 134.675781 C 619.996094 131.121094 617.121094 128.242188 613.570312 128.242188 L 580.636719 128.242188 C 577.085938 128.242188 574.207031 131.121094 574.207031 134.675781 C 574.207031 138.226562 577.085938 141.105469 580.636719 141.105469 L 590.675781 141.105469 L 590.675781 183.140625 L 580.636719 183.140625 Z M 580.636719 183.136719 "/><path style=" stroke:none;fill-rule:nonzero;fill:#000000;fill-opacity:1;" d="M 635.523438 196 C 639.074219 196 641.953125 193.121094 641.953125 189.570312 L 641.953125 168.554688 L 654.734375 168.554688 C 665.84375 168.554688 674.882812 159.511719 674.882812 148.394531 C 674.882812 137.28125 665.84375 128.242188 654.734375 128.242188 L 635.523438 128.242188 C 631.972656 128.242188 629.09375 131.121094 629.09375 134.671875 L 629.09375 189.570312 C 629.09375 193.121094 631.972656 196 635.523438 196 Z M 641.953125 141.105469 L 654.734375 141.105469 C 658.753906 141.105469 662.027344 144.378906 662.027344 148.398438 C 662.027344 152.417969 658.753906 155.691406 654.734375 155.691406 L 641.953125 155.691406 Z M 641.953125 141.105469 "/><path style=" stroke:none;fill-rule:nonzero;fill:#000000;fill-opacity:1;" d="M 361.089844 196 C 364.640625 196 367.519531 193.121094 367.519531 189.570312 L 367.519531 168.554688 L 373.917969 168.554688 L 388.511719 192.878906 C 389.714844 194.890625 391.847656 196 394.03125 196 C 395.15625 196 396.296875 195.707031 397.332031 195.082031 C 400.375 193.253906 401.363281 189.304688 399.535156 186.257812 L 387.992188 167.019531 C 395.296875 163.988281 400.453125 156.785156 400.453125 148.394531 C 400.453125 137.28125 391.410156 128.242188 380.300781 128.242188 L 361.089844 128.242188 C 357.539062 128.242188 354.664062 131.121094 354.664062 134.671875 L 354.664062 189.570312 C 354.664062 193.121094 357.539062 196 361.089844 196 Z M 367.519531 141.105469 L 380.300781 141.105469 C 384.324219 141.105469 387.59375 144.378906 387.59375 148.398438 C 387.59375 152.417969 384.324219 155.691406 380.300781 155.691406 L 367.519531 155.691406 Z M 367.519531 141.105469 "/><path style=" stroke:none;fill-rule:nonzero;fill:#000000;fill-opacity:1;" d="M 492.390625 181.691406 C 491.023438 182.429688 489.535156 182.894531 487.972656 183.0625 C 483.332031 183.566406 478.695312 181.515625 476.144531 177.832031 C 474.121094 174.914062 470.121094 174.191406 467.199219 176.214844 C 464.285156 178.238281 463.558594 182.246094 465.582031 185.164062 C 470.265625 191.921875 478.3125 195.996094 486.632812 195.996094 C 487.539062 195.996094 488.453125 195.949219 489.363281 195.847656 C 492.59375 195.5 495.675781 194.539062 498.515625 192.996094 C 506.59375 188.621094 510.988281 180.027344 509.460938 171.617188 C 509.132812 169.8125 508.535156 168.097656 507.679688 166.507812 C 503.667969 159.066406 495.507812 157.40625 488.949219 156.074219 C 485.875 155.445312 482.972656 154.855469 480.867188 153.84375 C 479.683594 153.273438 478.707031 152.335938 478.292969 151.613281 C 478.078125 151.214844 477.933594 150.796875 477.847656 150.324219 C 477.316406 147.394531 479.09375 144.273438 482.269531 142.550781 C 483.636719 141.808594 485.121094 141.347656 486.683594 141.175781 C 491.320312 140.679688 495.964844 142.726562 498.511719 146.40625 C 500.539062 149.324219 504.539062 150.050781 507.457031 148.027344 C 510.375 146.003906 511.101562 141.996094 509.078125 139.078125 C 503.882812 131.578125 494.546875 127.378906 485.296875 128.390625 C 482.066406 128.742188 478.984375 129.703125 476.144531 131.242188 C 468.070312 135.621094 463.671875 144.210938 465.195312 152.625 C 465.523438 154.425781 466.125 156.144531 466.980469 157.730469 C 466.992188 157.753906 467 157.773438 467.011719 157.792969 C 468.726562 160.941406 471.742188 163.722656 475.289062 165.433594 C 478.835938 167.144531 482.675781 167.925781 486.386719 168.679688 C 490.921875 169.601562 495.203125 170.472656 496.359375 172.613281 C 496.574219 173.015625 496.722656 173.441406 496.808594 173.917969 C 497.34375 176.847656 495.566406 179.96875 492.390625 181.691406 Z M 492.390625 181.691406 "/><path style=" stroke:none;fill-rule:nonzero;fill:#ffffff;fill-opacity:1;" d="M 696.226562 88.105469 L 115.273438 88.105469 C 111.722656 88.105469 108.84375 90.984375 108.84375 94.535156 L 108.84375 492.964844 C 108.84375 496.515625 111.722656 499.394531 115.273438 499.394531 L 696.226562 499.394531 C 699.773438 499.394531 702.652344 496.515625 702.652344 492.964844 L 702.652344 94.535156 C 702.65625 90.984375 699.777344 88.105469 696.226562 88.105469 Z M 689.796875 100.960938 L 689.796875 223.167969 L 121.703125 223.167969 L 121.703125 100.960938 Z M 121.703125 486.535156 L 121.703125 236.023438 L 689.796875 236.023438 L 689.796875 486.535156 Z M 121.703125 486.535156 "/><g clip-rule="nonzero" clip-path="url(#779fe51a2c)"><path style=" stroke:none;fill-rule:nonzero;fill:#ffffff;fill-opacity:1;" d="M 810.738281 682.050781 L 736.429688 552.015625 L 736.429688 80.769531 C 736.429688 62.472656 721.546875 47.585938 703.25 47.585938 L 108.25 47.585938 C 89.953125 47.585938 75.070312 62.472656 75.070312 80.769531 L 75.070312 552.015625 L 0.761719 682.050781 L 0.761719 722.570312 C 0.761719 726.121094 3.640625 728.996094 7.1875 728.996094 L 804.3125 728.996094 C 807.859375 728.996094 810.738281 726.121094 810.738281 722.570312 Z M 793.160156 675.621094 L 497.804688 675.621094 L 483.050781 641.207031 L 723.246094 641.207031 C 725.472656 641.207031 727.542969 640.050781 728.714844 638.15625 C 729.886719 636.261719 729.992188 633.894531 728.996094 631.902344 L 693.117188 560.171875 L 726.296875 560.171875 Z M 118.921875 587.832031 L 132.757812 560.171875 L 166.425781 560.171875 L 154.898438 587.832031 Z M 149.539062 600.691406 L 138.007812 628.351562 L 98.65625 628.351562 L 112.492188 600.691406 Z M 163.46875 600.691406 L 200.929688 600.691406 L 191.707031 628.351562 L 151.9375 628.351562 Z M 168.828125 587.832031 L 180.355469 560.171875 L 214.4375 560.171875 L 205.214844 587.832031 Z M 214.480469 600.691406 L 252.277344 600.691406 L 245.363281 628.351562 L 205.257812 628.351562 Z M 218.765625 587.832031 L 227.992188 560.171875 L 262.410156 560.171875 L 255.496094 587.832031 Z M 265.53125 600.691406 L 299.5625 600.691406 L 292.648438 628.351562 L 258.613281 628.351562 Z M 268.746094 587.832031 L 275.660156 560.171875 L 309.695312 560.171875 L 302.78125 587.832031 Z M 312.816406 600.691406 L 350.875 600.691406 L 346.261719 628.351562 L 305.898438 628.351562 Z M 316.03125 587.832031 L 322.949219 560.171875 L 357.628906 560.171875 L 353.015625 587.832031 Z M 469.0625 641.207031 L 483.816406 675.625 L 327.683594 675.625 L 342.4375 641.207031 Z M 399.320312 600.691406 L 399.320312 628.351562 L 359.296875 628.351562 L 363.910156 600.691406 Z M 366.050781 587.832031 L 370.664062 560.171875 L 399.320312 560.171875 L 399.320312 587.832031 Z M 447.59375 600.691406 L 452.203125 628.351562 L 412.179688 628.351562 L 412.179688 600.691406 Z M 412.179688 587.832031 L 412.179688 560.171875 L 440.835938 560.171875 L 445.449219 587.832031 Z M 656.601562 587.832031 L 645.074219 560.171875 L 678.742188 560.171875 L 692.578125 587.832031 Z M 699.007812 600.691406 L 712.84375 628.351562 L 673.492188 628.351562 L 661.960938 600.691406 Z M 648.03125 600.691406 L 659.5625 628.351562 L 619.796875 628.351562 L 610.574219 600.691406 Z M 606.285156 587.832031 L 597.0625 560.171875 L 631.144531 560.171875 L 642.671875 587.832031 Z M 606.242188 628.351562 L 566.136719 628.351562 L 559.222656 600.691406 L 597.019531 600.691406 Z M 556.003906 587.832031 L 549.089844 560.171875 L 583.507812 560.171875 L 592.734375 587.832031 Z M 552.886719 628.351562 L 518.851562 628.351562 L 511.9375 600.691406 L 545.96875 600.691406 Z M 508.71875 587.832031 L 501.804688 560.171875 L 535.839844 560.171875 L 542.753906 587.832031 Z M 505.601562 628.351562 L 465.238281 628.351562 L 460.625 600.691406 L 498.683594 600.691406 Z M 458.480469 587.832031 L 453.871094 560.171875 L 488.550781 560.171875 L 495.464844 587.832031 Z M 87.925781 80.769531 C 87.925781 69.5625 97.042969 60.445312 108.25 60.445312 L 703.25 60.445312 C 714.457031 60.445312 723.574219 69.5625 723.574219 80.769531 L 723.574219 547.316406 L 87.925781 547.316406 Z M 85.203125 560.171875 L 118.382812 560.171875 L 82.503906 631.902344 C 81.507812 633.894531 81.613281 636.261719 82.785156 638.15625 C 83.957031 640.054688 86.027344 641.207031 88.253906 641.207031 L 328.449219 641.207031 L 313.695312 675.621094 L 18.339844 675.621094 Z M 797.882812 716.140625 L 13.617188 716.140625 L 13.617188 688.480469 L 797.882812 688.480469 Z M 797.882812 716.140625 "/></g><path style=" stroke:none;fill-rule:nonzero;fill:#ffffff;fill-opacity:1;" d="M 176.070312 290.050781 L 250.378906 290.050781 C 253.929688 290.050781 256.808594 287.171875 256.808594 283.621094 C 256.808594 280.070312 253.929688 277.191406 250.378906 277.191406 L 176.070312 277.191406 C 172.519531 277.191406 169.644531 280.070312 169.644531 283.621094 C 169.644531 287.171875 172.519531 290.050781 176.070312 290.050781 Z M 176.070312 290.050781 "/><path style=" stroke:none;fill-rule:nonzero;fill:#ffffff;fill-opacity:1;" d="M 290.910156 290.050781 L 655.695312 290.050781 C 659.246094 290.050781 662.121094 287.171875 662.121094 283.621094 C 662.121094 280.070312 659.246094 277.191406 655.695312 277.191406 L 290.910156 277.191406 C 287.359375 277.191406 284.480469 280.070312 284.480469 283.621094 C 284.480469 287.171875 287.359375 290.050781 290.910156 290.050781 Z M 290.910156 290.050781 "/><path style=" stroke:none;fill-rule:nonzero;fill:#ffffff;fill-opacity:1;" d="M 662.449219 331.214844 L 149.050781 331.214844 C 145.5 331.214844 142.621094 334.09375 142.621094 337.644531 C 142.621094 341.195312 145.5 344.074219 149.050781 344.074219 L 662.449219 344.074219 C 666 344.074219 668.878906 341.195312 668.878906 337.644531 C 668.878906 334.09375 666 331.214844 662.449219 331.214844 Z M 662.449219 331.214844 "/><path style=" stroke:none;fill-rule:nonzero;fill:#ffffff;fill-opacity:1;" d="M 270.644531 391.992188 L 149.050781 391.992188 C 145.5 391.992188 142.621094 394.871094 142.621094 398.421875 C 142.621094 401.972656 145.5 404.851562 149.050781 404.851562 L 270.644531 404.851562 C 274.195312 404.851562 277.074219 401.972656 277.074219 398.421875 C 277.074219 394.871094 274.195312 391.992188 270.644531 391.992188 Z M 270.644531 391.992188 "/><path style=" stroke:none;fill-rule:nonzero;fill:#ffffff;fill-opacity:1;" d="M 304.421875 364.980469 C 300.871094 364.980469 297.992188 367.859375 297.992188 371.410156 L 297.992188 425.433594 C 297.992188 428.984375 300.871094 431.863281 304.421875 431.863281 C 307.972656 431.863281 310.847656 428.984375 310.847656 425.433594 L 310.847656 371.410156 C 310.847656 367.859375 307.972656 364.980469 304.421875 364.980469 Z M 304.421875 364.980469 "/><path style=" stroke:none;fill-rule:nonzero;fill:#ffffff;fill-opacity:1;" d="M 142.296875 183.070312 C 138.746094 183.070312 135.867188 185.949219 135.867188 189.5 C 135.867188 193.050781 138.746094 195.925781 142.296875 195.925781 L 175.226562 195.925781 C 178.777344 195.925781 181.65625 193.050781 181.65625 189.5 C 181.65625 185.949219 178.777344 183.070312 175.226562 183.070312 L 165.1875 183.070312 L 165.1875 141.058594 L 175.226562 141.058594 C 178.777344 141.058594 181.65625 138.179688 181.65625 134.632812 C 181.65625 131.082031 178.777344 128.203125 175.226562 128.203125 L 142.296875 128.203125 C 138.746094 128.203125 135.867188 131.082031 135.867188 134.632812 C 135.867188 138.179688 138.746094 141.058594 142.296875 141.058594 L 152.332031 141.058594 L 152.332031 183.074219 L 142.296875 183.074219 Z M 142.296875 183.070312 "/><path style=" stroke:none;fill-rule:nonzero;fill:#ffffff;fill-opacity:1;" d="M 197.179688 195.925781 C 200.730469 195.925781 203.609375 193.050781 203.609375 189.5 L 203.609375 157.832031 L 224.601562 192.808594 C 225.785156 194.777344 227.898438 195.929688 230.113281 195.929688 C 230.683594 195.929688 231.257812 195.855469 231.828125 195.695312 C 234.613281 194.921875 236.542969 192.390625 236.542969 189.5 L 236.542969 134.632812 C 236.542969 131.082031 233.664062 128.203125 230.113281 128.203125 C 226.5625 128.203125 223.683594 131.082031 223.683594 134.632812 L 223.683594 166.300781 L 202.691406 131.320312 C 201.207031 128.84375 198.253906 127.664062 195.464844 128.4375 C 192.679688 129.207031 190.753906 131.742188 190.753906 134.632812 L 190.753906 189.5 C 190.753906 193.050781 193.628906 195.925781 197.179688 195.925781 Z M 197.179688 195.925781 "/><path style=" stroke:none;fill-rule:nonzero;fill:#ffffff;fill-opacity:1;" d="M 252.066406 141.058594 L 262.105469 141.058594 L 262.105469 189.5 C 262.105469 193.050781 264.984375 195.929688 268.535156 195.929688 C 272.085938 195.929688 274.960938 193.050781 274.960938 189.5 L 274.960938 141.058594 L 285 141.058594 C 288.550781 141.058594 291.429688 138.179688 291.429688 134.632812 C 291.429688 131.082031 288.550781 128.203125 285 128.203125 L 252.070312 128.203125 C 248.519531 128.203125 245.640625 131.082031 245.640625 134.632812 C 245.640625 138.179688 248.519531 141.058594 252.066406 141.058594 Z M 252.066406 141.058594 "/><path style=" stroke:none;fill-rule:nonzero;fill:#ffffff;fill-opacity:1;" d="M 306.953125 195.925781 L 339.886719 195.925781 C 343.4375 195.925781 346.316406 193.050781 346.316406 189.5 C 346.316406 185.949219 343.4375 183.070312 339.886719 183.070312 L 313.382812 183.070312 L 313.382812 168.492188 L 339.886719 168.492188 C 343.4375 168.492188 346.316406 165.613281 346.316406 162.0625 C 346.316406 158.515625 343.4375 155.636719 339.886719 155.636719 L 313.382812 155.636719 L 313.382812 141.058594 L 339.886719 141.058594 C 343.4375 141.058594 346.316406 138.179688 346.316406 134.628906 C 346.316406 131.078125 343.4375 128.203125 339.886719 128.203125 L 306.953125 128.203125 C 303.402344 128.203125 300.523438 131.078125 300.523438 134.628906 L 300.523438 189.5 C 300.523438 193.050781 303.402344 195.925781 306.953125 195.925781 Z M 306.953125 195.925781 "/><path style=" stroke:none;fill-rule:nonzero;fill:#ffffff;fill-opacity:1;" d="M 416.726562 195.925781 C 420.277344 195.925781 423.15625 193.050781 423.15625 189.5 L 423.15625 157.832031 L 444.148438 192.808594 C 445.332031 194.777344 447.445312 195.929688 449.660156 195.929688 C 450.230469 195.929688 450.804688 195.855469 451.378906 195.695312 C 454.164062 194.921875 456.089844 192.390625 456.089844 189.5 L 456.089844 134.632812 C 456.089844 131.082031 453.210938 128.203125 449.660156 128.203125 C 446.109375 128.203125 443.230469 131.082031 443.230469 134.632812 L 443.230469 166.300781 L 422.238281 131.320312 C 420.753906 128.84375 417.796875 127.664062 415.011719 128.4375 C 412.226562 129.207031 410.296875 131.742188 410.296875 134.632812 L 410.296875 189.5 C 410.300781 193.050781 413.179688 195.925781 416.726562 195.925781 Z M 416.726562 195.925781 "/><path style=" stroke:none;fill-rule:nonzero;fill:#ffffff;fill-opacity:1;" d="M 526.5 195.925781 C 530.050781 195.925781 532.929688 193.050781 532.929688 189.5 L 532.929688 168.492188 L 553.003906 168.492188 L 553.003906 189.5 C 553.003906 193.050781 555.882812 195.925781 559.433594 195.925781 C 562.980469 195.925781 565.859375 193.050781 565.859375 189.5 L 565.859375 134.632812 C 565.859375 131.082031 562.980469 128.203125 559.433594 128.203125 C 555.882812 128.203125 553.003906 131.082031 553.003906 134.632812 L 553.003906 155.636719 L 532.929688 155.636719 L 532.929688 134.632812 C 532.929688 131.082031 530.050781 128.203125 526.5 128.203125 C 522.949219 128.203125 520.074219 131.082031 520.074219 134.632812 L 520.074219 189.5 C 520.074219 193.050781 522.949219 195.925781 526.5 195.925781 Z M 526.5 195.925781 "/><path style=" stroke:none;fill-rule:nonzero;fill:#ffffff;fill-opacity:1;" d="M 581.386719 183.070312 C 577.835938 183.070312 574.957031 185.949219 574.957031 189.5 C 574.957031 193.050781 577.835938 195.925781 581.386719 195.925781 L 614.320312 195.925781 C 617.871094 195.925781 620.746094 193.050781 620.746094 189.5 C 620.746094 185.949219 617.871094 183.070312 614.320312 183.070312 L 604.28125 183.070312 L 604.28125 141.058594 L 614.320312 141.058594 C 617.871094 141.058594 620.746094 138.179688 620.746094 134.632812 C 620.746094 131.082031 617.871094 128.203125 614.320312 128.203125 L 581.386719 128.203125 C 577.835938 128.203125 574.957031 131.082031 574.957031 134.632812 C 574.957031 138.179688 577.835938 141.058594 581.386719 141.058594 L 591.425781 141.058594 L 591.425781 183.074219 L 581.386719 183.074219 Z M 581.386719 183.070312 "/><path style=" stroke:none;fill-rule:nonzero;fill:#ffffff;fill-opacity:1;" d="M 636.273438 195.925781 C 639.824219 195.925781 642.703125 193.050781 642.703125 189.5 L 642.703125 168.492188 L 655.484375 168.492188 C 666.59375 168.492188 675.632812 159.453125 675.632812 148.347656 C 675.632812 137.238281 666.59375 128.203125 655.484375 128.203125 L 636.273438 128.203125 C 632.722656 128.203125 629.84375 131.078125 629.84375 134.628906 L 629.84375 189.5 C 629.84375 193.050781 632.722656 195.925781 636.273438 195.925781 Z M 642.703125 141.058594 L 655.484375 141.058594 C 659.503906 141.058594 662.777344 144.328125 662.777344 148.347656 C 662.777344 152.367188 659.503906 155.636719 655.484375 155.636719 L 642.703125 155.636719 Z M 642.703125 141.058594 "/><path style=" stroke:none;fill-rule:nonzero;fill:#ffffff;fill-opacity:1;" d="M 361.839844 195.925781 C 365.390625 195.925781 368.269531 193.050781 368.269531 189.5 L 368.269531 168.492188 L 374.667969 168.492188 L 389.261719 192.804688 C 390.464844 194.816406 392.597656 195.925781 394.78125 195.925781 C 395.90625 195.925781 397.046875 195.632812 398.082031 195.011719 C 401.125 193.183594 402.113281 189.234375 400.285156 186.191406 L 388.742188 166.960938 C 396.046875 163.929688 401.203125 156.730469 401.203125 148.347656 C 401.203125 137.238281 392.160156 128.203125 381.050781 128.203125 L 361.839844 128.203125 C 358.289062 128.203125 355.414062 131.078125 355.414062 134.628906 L 355.414062 189.5 C 355.414062 193.050781 358.289062 195.925781 361.839844 195.925781 Z M 368.269531 141.058594 L 381.050781 141.058594 C 385.074219 141.058594 388.34375 144.328125 388.34375 148.347656 C 388.34375 152.367188 385.074219 155.636719 381.050781 155.636719 L 368.269531 155.636719 Z M 368.269531 141.058594 "/><path style=" stroke:none;fill-rule:nonzero;fill:#ffffff;fill-opacity:1;" d="M 493.140625 181.621094 C 491.773438 182.363281 490.285156 182.828125 488.722656 182.996094 C 484.082031 183.5 479.445312 181.449219 476.894531 177.769531 C 474.871094 174.851562 470.871094 174.128906 467.949219 176.148438 C 465.035156 178.171875 464.308594 182.175781 466.332031 185.09375 C 471.015625 191.851562 479.0625 195.921875 487.382812 195.921875 C 488.289062 195.921875 489.203125 195.875 490.113281 195.773438 C 493.34375 195.425781 496.425781 194.464844 499.265625 192.925781 C 507.34375 188.550781 511.738281 179.960938 510.210938 171.554688 C 509.882812 169.753906 509.285156 168.035156 508.429688 166.449219 C 504.417969 159.011719 496.257812 157.351562 489.699219 156.019531 C 486.625 155.394531 483.722656 154.804688 481.617188 153.789062 C 480.433594 153.21875 479.457031 152.285156 479.042969 151.5625 C 478.828125 151.164062 478.683594 150.742188 478.597656 150.273438 C 478.066406 147.347656 479.84375 144.222656 483.019531 142.503906 C 484.386719 141.761719 485.871094 141.300781 487.433594 141.128906 C 492.070312 140.632812 496.714844 142.679688 499.261719 146.355469 C 501.289062 149.273438 505.289062 150 508.207031 147.976562 C 511.125 145.953125 511.851562 141.949219 509.828125 139.03125 C 504.632812 131.539062 495.296875 127.339844 486.046875 128.351562 C 482.816406 128.699219 479.734375 129.660156 476.894531 131.203125 C 468.820312 135.578125 464.421875 144.164062 465.945312 152.570312 C 466.273438 154.371094 466.875 156.089844 467.730469 157.675781 C 467.742188 157.699219 467.75 157.71875 467.761719 157.738281 C 469.476562 160.886719 472.492188 163.667969 476.039062 165.375 C 479.585938 167.082031 483.425781 167.863281 487.136719 168.617188 C 491.671875 169.539062 495.953125 170.410156 497.109375 172.550781 C 497.324219 172.953125 497.472656 173.378906 497.558594 173.855469 C 498.09375 176.78125 496.316406 179.902344 493.140625 181.621094 Z M 493.140625 181.621094 "/></g></svg>