<svg xmlns="http://www.w3.org/2000/svg" xmlns:xlink="http://www.w3.org/1999/xlink" width="1080" zoomAndPan="magnify" viewBox="0 0 810 809.999993" height="1080" preserveAspectRatio="xMidYMid meet" version="1.2"><defs><clipPath id="a4e0be726a"><path d="M 0 47.585938 L 810 47.585938 L 810 729.335938 L 0 729.335938 Z M 0 47.585938 "/></clipPath><clipPath id="b776a7d5b9"><path d="M 2.25 46.835938 L 810 46.835938 L 810 728.585938 L 2.25 728.585938 Z M 2.25 46.835938 "/></clipPath></defs><g id="145859a726"><path style=" stroke:none;fill-rule:nonzero;fill:#000000;fill-opacity:1;" d="M 695.476562 88.125 L 114.523438 88.125 C 110.972656 88.125 108.09375 91.003906 108.09375 94.558594 L 108.09375 493.1875 C 108.09375 496.738281 110.972656 499.617188 114.523438 499.617188 L 695.476562 499.617188 C 699.023438 499.617188 701.902344 496.738281 701.902344 493.1875 L 701.902344 94.558594 C 701.90625 91.003906 699.027344 88.125 695.476562 88.125 Z M 689.046875 100.988281 L 689.046875 223.253906 L 120.953125 223.253906 L 120.953125 100.988281 Z M 120.953125 486.753906 L 120.953125 236.117188 L 689.046875 236.117188 L 689.046875 486.753906 Z M 120.953125 486.753906 "/><g clip-rule="nonzero" clip-path="url(#a4e0be726a)"><path style=" stroke:none;fill-rule:nonzero;fill:#000000;fill-opacity:1;" d="M 809.988281 682.367188 L 735.679688 552.265625 L 735.679688 80.785156 C 735.679688 62.480469 720.796875 47.585938 702.5 47.585938 L 107.5 47.585938 C 89.203125 47.585938 74.320312 62.480469 74.320312 80.785156 L 74.320312 552.269531 L 0.0117188 682.367188 L 0.0117188 722.90625 C 0.0117188 726.457031 2.890625 729.335938 6.4375 729.335938 L 803.5625 729.335938 C 807.109375 729.335938 809.988281 726.457031 809.988281 722.90625 Z M 792.410156 675.9375 L 497.054688 675.9375 L 482.300781 641.503906 L 722.496094 641.503906 C 724.722656 641.503906 726.792969 640.347656 727.964844 638.453125 C 729.136719 636.558594 729.242188 634.1875 728.246094 632.195312 L 692.367188 560.425781 L 725.546875 560.425781 Z M 118.171875 588.101562 L 132.007812 560.425781 L 165.675781 560.425781 L 154.148438 588.101562 Z M 148.789062 600.964844 L 137.257812 628.640625 L 97.90625 628.640625 L 111.742188 600.964844 Z M 162.71875 600.964844 L 200.179688 600.964844 L 190.957031 628.640625 L 151.1875 628.640625 Z M 168.078125 588.101562 L 179.605469 560.425781 L 213.6875 560.425781 L 204.464844 588.101562 Z M 213.730469 600.964844 L 251.527344 600.964844 L 244.613281 628.640625 L 204.507812 628.640625 Z M 218.015625 588.101562 L 227.242188 560.425781 L 261.660156 560.425781 L 254.746094 588.101562 Z M 264.78125 600.964844 L 298.8125 600.964844 L 291.898438 628.640625 L 257.863281 628.640625 Z M 267.996094 588.101562 L 274.910156 560.425781 L 308.945312 560.425781 L 302.03125 588.101562 Z M 312.066406 600.964844 L 350.125 600.964844 L 345.511719 628.640625 L 305.148438 628.640625 Z M 315.28125 588.101562 L 322.199219 560.425781 L 356.878906 560.425781 L 352.265625 588.101562 Z M 468.3125 641.503906 L 483.066406 675.9375 L 326.933594 675.9375 L 341.6875 641.503906 Z M 398.570312 600.964844 L 398.570312 628.640625 L 358.546875 628.640625 L 363.160156 600.964844 Z M 365.300781 588.101562 L 369.914062 560.425781 L 398.570312 560.425781 L 398.570312 588.101562 Z M 446.84375 600.964844 L 451.453125 628.640625 L 411.429688 628.640625 L 411.429688 600.964844 Z M 411.429688 588.101562 L 411.429688 560.425781 L 440.085938 560.425781 L 444.699219 588.101562 Z M 655.851562 588.101562 L 644.324219 560.425781 L 677.992188 560.425781 L 691.828125 588.101562 Z M 698.257812 600.964844 L 712.09375 628.640625 L 672.742188 628.640625 L 661.210938 600.964844 Z M 647.28125 600.964844 L 658.8125 628.640625 L 619.046875 628.640625 L 609.824219 600.964844 Z M 605.535156 588.101562 L 596.3125 560.425781 L 630.394531 560.425781 L 641.921875 588.101562 Z M 605.492188 628.640625 L 565.386719 628.640625 L 558.472656 600.964844 L 596.269531 600.964844 Z M 555.253906 588.101562 L 548.339844 560.425781 L 582.757812 560.425781 L 591.984375 588.101562 Z M 552.136719 628.640625 L 518.101562 628.640625 L 511.1875 600.964844 L 545.21875 600.964844 Z M 507.96875 588.101562 L 501.054688 560.425781 L 535.089844 560.425781 L 542.003906 588.101562 Z M 504.851562 628.640625 L 464.488281 628.640625 L 459.875 600.964844 L 497.933594 600.964844 Z M 457.730469 588.101562 L 453.121094 560.425781 L 487.800781 560.425781 L 494.714844 588.101562 Z M 87.175781 80.785156 C 87.175781 69.574219 96.292969 60.449219 107.5 60.449219 L 702.5 60.449219 C 713.707031 60.449219 722.824219 69.574219 722.824219 80.785156 L 722.824219 547.5625 L 87.175781 547.5625 Z M 84.453125 560.425781 L 117.632812 560.425781 L 81.753906 632.195312 C 80.757812 634.1875 80.863281 636.558594 82.035156 638.453125 C 83.207031 640.351562 85.277344 641.503906 87.503906 641.503906 L 327.699219 641.503906 L 312.945312 675.9375 L 17.589844 675.9375 Z M 797.132812 716.472656 L 12.867188 716.472656 L 12.867188 688.800781 L 797.132812 688.800781 Z M 797.132812 716.472656 "/></g><path style=" stroke:none;fill-rule:nonzero;fill:#000000;fill-opacity:1;" d="M 175.320312 290.167969 L 249.628906 290.167969 C 253.179688 290.167969 256.058594 287.289062 256.058594 283.738281 C 256.058594 280.1875 253.179688 277.308594 249.628906 277.308594 L 175.320312 277.308594 C 171.769531 277.308594 168.894531 280.1875 168.894531 283.738281 C 168.894531 287.289062 171.769531 290.167969 175.320312 290.167969 Z M 175.320312 290.167969 "/><path style=" stroke:none;fill-rule:nonzero;fill:#000000;fill-opacity:1;" d="M 290.160156 290.167969 L 654.945312 290.167969 C 658.496094 290.167969 661.371094 287.289062 661.371094 283.738281 C 661.371094 280.1875 658.496094 277.308594 654.945312 277.308594 L 290.160156 277.308594 C 286.609375 277.308594 283.730469 280.1875 283.730469 283.738281 C 283.730469 287.289062 286.609375 290.167969 290.160156 290.167969 Z M 290.160156 290.167969 "/><path style=" stroke:none;fill-rule:nonzero;fill:#000000;fill-opacity:1;" d="M 661.699219 331.359375 L 148.300781 331.359375 C 144.75 331.359375 141.871094 334.238281 141.871094 337.789062 C 141.871094 341.339844 144.75 344.222656 148.300781 344.222656 L 661.699219 344.222656 C 665.25 344.222656 668.128906 341.339844 668.128906 337.789062 C 668.128906 334.238281 665.25 331.359375 661.699219 331.359375 Z M 661.699219 331.359375 "/><path style=" stroke:none;fill-rule:nonzero;fill:#000000;fill-opacity:1;" d="M 269.894531 392.164062 L 148.300781 392.164062 C 144.75 392.164062 141.871094 395.046875 141.871094 398.597656 C 141.871094 402.148438 144.75 405.027344 148.300781 405.027344 L 269.894531 405.027344 C 273.445312 405.027344 276.324219 402.148438 276.324219 398.597656 C 276.324219 395.046875 273.445312 392.164062 269.894531 392.164062 Z M 269.894531 392.164062 "/><path style=" stroke:none;fill-rule:nonzero;fill:#000000;fill-opacity:1;" d="M 303.671875 365.140625 C 300.121094 365.140625 297.242188 368.019531 297.242188 371.570312 L 297.242188 425.621094 C 297.242188 429.175781 300.121094 432.054688 303.671875 432.054688 C 307.222656 432.054688 310.097656 429.175781 310.097656 425.621094 L 310.097656 371.570312 C 310.097656 368.019531 307.222656 365.140625 303.671875 365.140625 Z M 303.671875 365.140625 "/><path style=" stroke:none;fill-rule:nonzero;fill:#000000;fill-opacity:1;" d="M 141.546875 183.136719 C 137.996094 183.136719 135.117188 186.019531 135.117188 189.570312 C 135.117188 193.121094 137.996094 196 141.546875 196 L 174.476562 196 C 178.027344 196 180.90625 193.121094 180.90625 189.570312 C 180.90625 186.019531 178.027344 183.136719 174.476562 183.136719 L 164.4375 183.136719 L 164.4375 141.105469 L 174.476562 141.105469 C 178.027344 141.105469 180.90625 138.226562 180.90625 134.675781 C 180.90625 131.121094 178.027344 128.242188 174.476562 128.242188 L 141.546875 128.242188 C 137.996094 128.242188 135.117188 131.121094 135.117188 134.675781 C 135.117188 138.226562 137.996094 141.105469 141.546875 141.105469 L 151.582031 141.105469 L 151.582031 183.140625 L 141.546875 183.140625 Z M 141.546875 183.136719 "/><path style=" stroke:none;fill-rule:nonzero;fill:#000000;fill-opacity:1;" d="M 196.429688 196 C 199.980469 196 202.859375 193.121094 202.859375 189.570312 L 202.859375 157.886719 L 223.851562 192.878906 C 225.035156 194.851562 227.148438 196.003906 229.363281 196.003906 C 229.933594 196.003906 230.507812 195.925781 231.078125 195.769531 C 233.863281 194.996094 235.792969 192.460938 235.792969 189.570312 L 235.792969 134.675781 C 235.792969 131.121094 232.914062 128.242188 229.363281 128.242188 C 225.8125 128.242188 222.933594 131.121094 222.933594 134.675781 L 222.933594 166.359375 L 201.941406 131.363281 C 200.457031 128.886719 197.503906 127.703125 194.714844 128.476562 C 191.929688 129.246094 190.003906 131.785156 190.003906 134.675781 L 190.003906 189.570312 C 190.003906 193.121094 192.878906 196 196.429688 196 Z M 196.429688 196 "/><path style=" stroke:none;fill-rule:nonzero;fill:#000000;fill-opacity:1;" d="M 251.316406 141.105469 L 261.355469 141.105469 L 261.355469 189.570312 C 261.355469 193.125 264.234375 196.003906 267.785156 196.003906 C 271.335938 196.003906 274.210938 193.125 274.210938 189.570312 L 274.210938 141.105469 L 284.25 141.105469 C 287.800781 141.105469 290.679688 138.226562 290.679688 134.675781 C 290.679688 131.121094 287.800781 128.242188 284.25 128.242188 L 251.320312 128.242188 C 247.769531 128.242188 244.890625 131.121094 244.890625 134.675781 C 244.890625 138.226562 247.769531 141.105469 251.316406 141.105469 Z M 251.316406 141.105469 "/><path style=" stroke:none;fill-rule:nonzero;fill:#000000;fill-opacity:1;" d="M 306.203125 196 L 339.136719 196 C 342.6875 196 345.566406 193.121094 345.566406 189.570312 C 345.566406 186.019531 342.6875 183.136719 339.136719 183.136719 L 312.632812 183.136719 L 312.632812 168.554688 L 339.136719 168.554688 C 342.6875 168.554688 345.566406 165.671875 345.566406 162.121094 C 345.566406 158.570312 342.6875 155.691406 339.136719 155.691406 L 312.632812 155.691406 L 312.632812 141.105469 L 339.136719 141.105469 C 342.6875 141.105469 345.566406 138.226562 345.566406 134.671875 C 345.566406 131.121094 342.6875 128.242188 339.136719 128.242188 L 306.203125 128.242188 C 302.652344 128.242188 299.773438 131.121094 299.773438 134.671875 L 299.773438 189.570312 C 299.773438 193.121094 302.652344 196 306.203125 196 Z M 306.203125 196 "/><path style=" stroke:none;fill-rule:nonzero;fill:#000000;fill-opacity:1;" d="M 415.976562 196 C 419.527344 196 422.40625 193.121094 422.40625 189.570312 L 422.40625 157.886719 L 443.398438 192.878906 C 444.582031 194.851562 446.695312 196.003906 448.910156 196.003906 C 449.480469 196.003906 450.054688 195.925781 450.628906 195.769531 C 453.414062 194.996094 455.339844 192.460938 455.339844 189.570312 L 455.339844 134.675781 C 455.339844 131.121094 452.460938 128.242188 448.910156 128.242188 C 445.359375 128.242188 442.480469 131.121094 442.480469 134.675781 L 442.480469 166.359375 L 421.488281 131.363281 C 420.003906 128.886719 417.046875 127.703125 414.261719 128.476562 C 411.476562 129.246094 409.546875 131.785156 409.546875 134.675781 L 409.546875 189.570312 C 409.550781 193.121094 412.429688 196 415.976562 196 Z M 415.976562 196 "/><path style=" stroke:none;fill-rule:nonzero;fill:#000000;fill-opacity:1;" d="M 525.75 196 C 529.300781 196 532.179688 193.121094 532.179688 189.570312 L 532.179688 168.554688 L 552.253906 168.554688 L 552.253906 189.570312 C 552.253906 193.121094 555.132812 196 558.683594 196 C 562.230469 196 565.109375 193.121094 565.109375 189.570312 L 565.109375 134.675781 C 565.109375 131.121094 562.230469 128.242188 558.683594 128.242188 C 555.132812 128.242188 552.253906 131.121094 552.253906 134.675781 L 552.253906 155.691406 L 532.179688 155.691406 L 532.179688 134.675781 C 532.179688 131.121094 529.300781 128.242188 525.75 128.242188 C 522.199219 128.242188 519.324219 131.121094 519.324219 134.675781 L 519.324219 189.570312 C 519.324219 193.121094 522.199219 196 525.75 196 Z M 525.75 196 "/><path style=" stroke:none;fill-rule:nonzero;fill:#000000;fill-opacity:1;" d="M 580.636719 183.136719 C 577.085938 183.136719 574.207031 186.019531 574.207031 189.570312 C 574.207031 193.121094 577.085938 196 580.636719 196 L 613.570312 196 C 617.121094 196 619.996094 193.121094 619.996094 189.570312 C 619.996094 186.019531 617.121094 183.136719 613.570312 183.136719 L 603.53125 183.136719 L 603.53125 141.105469 L 613.570312 141.105469 C 617.121094 141.105469 619.996094 138.226562 619.996094 134.675781 C 619.996094 131.121094 617.121094 128.242188 613.570312 128.242188 L 580.636719 128.242188 C 577.085938 128.242188 574.207031 131.121094 574.207031 134.675781 C 574.207031 138.226562 577.085938 141.105469 580.636719 141.105469 L 590.675781 141.105469 L 590.675781 183.140625 L 580.636719 183.140625 Z M 580.636719 183.136719 "/><path style=" stroke:none;fill-rule:nonzero;fill:#000000;fill-opacity:1;" d="M 635.523438 196 C 639.074219 196 641.953125 193.121094 641.953125 189.570312 L 641.953125 168.554688 L 654.734375 168.554688 C 665.84375 168.554688 674.882812 159.511719 674.882812 148.394531 C 674.882812 137.28125 665.84375 128.242188 654.734375 128.242188 L 635.523438 128.242188 C 631.972656 128.242188 629.09375 131.121094 629.09375 134.671875 L 629.09375 189.570312 C 629.09375 193.121094 631.972656 196 635.523438 196 Z M 641.953125 141.105469 L 654.734375 141.105469 C 658.753906 141.105469 662.027344 144.378906 662.027344 148.398438 C 662.027344 152.417969 658.753906 155.691406 654.734375 155.691406 L 641.953125 155.691406 Z M 641.953125 141.105469 "/><path style=" stroke:none;fill-rule:nonzero;fill:#000000;fill-opacity:1;" d="M 361.089844 196 C 364.640625 196 367.519531 193.121094 367.519531 189.570312 L 367.519531 168.554688 L 373.917969 168.554688 L 388.511719 192.878906 C 389.714844 194.890625 391.847656 196 394.03125 196 C 395.15625 196 396.296875 195.707031 397.332031 195.082031 C 400.375 193.253906 401.363281 189.304688 399.535156 186.257812 L 387.992188 167.019531 C 395.296875 163.988281 400.453125 156.785156 400.453125 148.394531 C 400.453125 137.28125 391.410156 128.242188 380.300781 128.242188 L 361.089844 128.242188 C 357.539062 128.242188 354.664062 131.121094 354.664062 134.671875 L 354.664062 189.570312 C 354.664062 193.121094 357.539062 196 361.089844 196 Z M 367.519531 141.105469 L 380.300781 141.105469 C 384.324219 141.105469 387.59375 144.378906 387.59375 148.398438 C 387.59375 152.417969 384.324219 155.691406 380.300781 155.691406 L 367.519531 155.691406 Z M 367.519531 141.105469 "/><path style=" stroke:none;fill-rule:nonzero;fill:#000000;fill-opacity:1;" d="M 492.390625 181.691406 C 491.023438 182.429688 489.535156 182.894531 487.972656 183.0625 C 483.332031 183.566406 478.695312 181.515625 476.144531 177.832031 C 474.121094 174.914062 470.121094 174.191406 467.199219 176.214844 C 464.285156 178.238281 463.558594 182.246094 465.582031 185.164062 C 470.265625 191.921875 478.3125 195.996094 486.632812 195.996094 C 487.539062 195.996094 488.453125 195.949219 489.363281 195.847656 C 492.59375 195.5 495.675781 194.539062 498.515625 192.996094 C 506.59375 188.621094 510.988281 180.027344 509.460938 171.617188 C 509.132812 169.8125 508.535156 168.097656 507.679688 166.507812 C 503.667969 159.066406 495.507812 157.40625 488.949219 156.074219 C 485.875 155.445312 482.972656 154.855469 480.867188 153.84375 C 479.683594 153.273438 478.707031 152.335938 478.292969 151.613281 C 478.078125 151.214844 477.933594 150.796875 477.847656 150.324219 C 477.316406 147.394531 479.09375 144.273438 482.269531 142.550781 C 483.636719 141.808594 485.121094 141.347656 486.683594 141.175781 C 491.320312 140.679688 495.964844 142.726562 498.511719 146.40625 C 500.539062 149.324219 504.539062 150.050781 507.457031 148.027344 C 510.375 146.003906 511.101562 141.996094 509.078125 139.078125 C 503.882812 131.578125 494.546875 127.378906 485.296875 128.390625 C 482.066406 128.742188 478.984375 129.703125 476.144531 131.242188 C 468.070312 135.621094 463.671875 144.210938 465.195312 152.625 C 465.523438 154.425781 466.125 156.144531 466.980469 157.730469 C 466.992188 157.753906 467 157.773438 467.011719 157.792969 C 468.726562 160.941406 471.742188 163.722656 475.289062 165.433594 C 478.835938 167.144531 482.675781 167.925781 486.386719 168.679688 C 490.921875 169.601562 495.203125 170.472656 496.359375 172.613281 C 496.574219 173.015625 496.722656 173.441406 496.808594 173.917969 C 497.34375 176.847656 495.566406 179.96875 492.390625 181.691406 Z M 492.390625 181.691406 "/><path style=" stroke:none;fill-rule:nonzero;fill:#000000;fill-opacity:1;" d="M 697.726562 87.375 L 116.773438 87.375 C 113.222656 87.375 110.34375 90.253906 110.34375 93.808594 L 110.34375 492.4375 C 110.34375 495.988281 113.222656 498.867188 116.773438 498.867188 L 697.726562 498.867188 C 701.273438 498.867188 704.152344 495.988281 704.152344 492.4375 L 704.152344 93.808594 C 704.15625 90.253906 701.277344 87.375 697.726562 87.375 Z M 691.296875 100.238281 L 691.296875 222.503906 L 123.203125 222.503906 L 123.203125 100.238281 Z M 123.203125 486.003906 L 123.203125 235.367188 L 691.296875 235.367188 L 691.296875 486.003906 Z M 123.203125 486.003906 "/><g clip-rule="nonzero" clip-path="url(#b776a7d5b9)"><path style=" stroke:none;fill-rule:nonzero;fill:#000000;fill-opacity:1;" d="M 812.238281 681.617188 L 737.929688 551.515625 L 737.929688 80.035156 C 737.929688 61.730469 723.046875 46.835938 704.75 46.835938 L 109.75 46.835938 C 91.453125 46.835938 76.570312 61.730469 76.570312 80.035156 L 76.570312 551.519531 L 2.261719 681.617188 L 2.261719 722.15625 C 2.261719 725.707031 5.140625 728.585938 8.6875 728.585938 L 805.8125 728.585938 C 809.359375 728.585938 812.238281 725.707031 812.238281 722.15625 Z M 794.660156 675.1875 L 499.304688 675.1875 L 484.550781 640.753906 L 724.746094 640.753906 C 726.972656 640.753906 729.042969 639.597656 730.214844 637.703125 C 731.386719 635.808594 731.492188 633.4375 730.496094 631.445312 L 694.617188 559.675781 L 727.796875 559.675781 Z M 120.421875 587.351562 L 134.257812 559.675781 L 167.925781 559.675781 L 156.398438 587.351562 Z M 151.039062 600.214844 L 139.507812 627.890625 L 100.15625 627.890625 L 113.992188 600.214844 Z M 164.96875 600.214844 L 202.429688 600.214844 L 193.207031 627.890625 L 153.4375 627.890625 Z M 170.328125 587.351562 L 181.855469 559.675781 L 215.9375 559.675781 L 206.714844 587.351562 Z M 215.980469 600.214844 L 253.777344 600.214844 L 246.863281 627.890625 L 206.757812 627.890625 Z M 220.265625 587.351562 L 229.492188 559.675781 L 263.910156 559.675781 L 256.996094 587.351562 Z M 267.03125 600.214844 L 301.0625 600.214844 L 294.148438 627.890625 L 260.113281 627.890625 Z M 270.246094 587.351562 L 277.160156 559.675781 L 311.195312 559.675781 L 304.28125 587.351562 Z M 314.316406 600.214844 L 352.375 600.214844 L 347.761719 627.890625 L 307.398438 627.890625 Z M 317.53125 587.351562 L 324.449219 559.675781 L 359.128906 559.675781 L 354.515625 587.351562 Z M 470.5625 640.753906 L 485.316406 675.1875 L 329.183594 675.1875 L 343.9375 640.753906 Z M 400.820312 600.214844 L 400.820312 627.890625 L 360.796875 627.890625 L 365.410156 600.214844 Z M 367.550781 587.351562 L 372.164062 559.675781 L 400.820312 559.675781 L 400.820312 587.351562 Z M 449.09375 600.214844 L 453.703125 627.890625 L 413.679688 627.890625 L 413.679688 600.214844 Z M 413.679688 587.351562 L 413.679688 559.675781 L 442.335938 559.675781 L 446.949219 587.351562 Z M 658.101562 587.351562 L 646.574219 559.675781 L 680.242188 559.675781 L 694.078125 587.351562 Z M 700.507812 600.214844 L 714.34375 627.890625 L 674.992188 627.890625 L 663.460938 600.214844 Z M 649.53125 600.214844 L 661.0625 627.890625 L 621.296875 627.890625 L 612.074219 600.214844 Z M 607.785156 587.351562 L 598.5625 559.675781 L 632.644531 559.675781 L 644.171875 587.351562 Z M 607.742188 627.890625 L 567.636719 627.890625 L 560.722656 600.214844 L 598.519531 600.214844 Z M 557.503906 587.351562 L 550.589844 559.675781 L 585.007812 559.675781 L 594.234375 587.351562 Z M 554.386719 627.890625 L 520.351562 627.890625 L 513.4375 600.214844 L 547.46875 600.214844 Z M 510.21875 587.351562 L 503.304688 559.675781 L 537.339844 559.675781 L 544.253906 587.351562 Z M 507.101562 627.890625 L 466.738281 627.890625 L 462.125 600.214844 L 500.183594 600.214844 Z M 459.980469 587.351562 L 455.371094 559.675781 L 490.050781 559.675781 L 496.964844 587.351562 Z M 89.425781 80.035156 C 89.425781 68.824219 98.542969 59.699219 109.75 59.699219 L 704.75 59.699219 C 715.957031 59.699219 725.074219 68.824219 725.074219 80.035156 L 725.074219 546.8125 L 89.425781 546.8125 Z M 86.703125 559.675781 L 119.882812 559.675781 L 84.003906 631.445312 C 83.007812 633.4375 83.113281 635.808594 84.285156 637.703125 C 85.457031 639.601562 87.527344 640.753906 89.753906 640.753906 L 329.949219 640.753906 L 315.195312 675.1875 L 19.839844 675.1875 Z M 799.382812 715.722656 L 15.117188 715.722656 L 15.117188 688.050781 L 799.382812 688.050781 Z M 799.382812 715.722656 "/></g><path style=" stroke:none;fill-rule:nonzero;fill:#000000;fill-opacity:1;" d="M 177.570312 289.417969 L 251.878906 289.417969 C 255.429688 289.417969 258.308594 286.539062 258.308594 282.988281 C 258.308594 279.4375 255.429688 276.558594 251.878906 276.558594 L 177.570312 276.558594 C 174.019531 276.558594 171.144531 279.4375 171.144531 282.988281 C 171.144531 286.539062 174.019531 289.417969 177.570312 289.417969 Z M 177.570312 289.417969 "/><path style=" stroke:none;fill-rule:nonzero;fill:#000000;fill-opacity:1;" d="M 292.410156 289.417969 L 657.195312 289.417969 C 660.746094 289.417969 663.621094 286.539062 663.621094 282.988281 C 663.621094 279.4375 660.746094 276.558594 657.195312 276.558594 L 292.410156 276.558594 C 288.859375 276.558594 285.980469 279.4375 285.980469 282.988281 C 285.980469 286.539062 288.859375 289.417969 292.410156 289.417969 Z M 292.410156 289.417969 "/><path style=" stroke:none;fill-rule:nonzero;fill:#000000;fill-opacity:1;" d="M 663.949219 330.609375 L 150.550781 330.609375 C 147 330.609375 144.121094 333.488281 144.121094 337.039062 C 144.121094 340.589844 147 343.472656 150.550781 343.472656 L 663.949219 343.472656 C 667.5 343.472656 670.378906 340.589844 670.378906 337.039062 C 670.378906 333.488281 667.5 330.609375 663.949219 330.609375 Z M 663.949219 330.609375 "/><path style=" stroke:none;fill-rule:nonzero;fill:#000000;fill-opacity:1;" d="M 272.144531 391.414062 L 150.550781 391.414062 C 147 391.414062 144.121094 394.296875 144.121094 397.847656 C 144.121094 401.398438 147 404.277344 150.550781 404.277344 L 272.144531 404.277344 C 275.695312 404.277344 278.574219 401.398438 278.574219 397.847656 C 278.574219 394.296875 275.695312 391.414062 272.144531 391.414062 Z M 272.144531 391.414062 "/><path style=" stroke:none;fill-rule:nonzero;fill:#000000;fill-opacity:1;" d="M 305.921875 364.390625 C 302.371094 364.390625 299.492188 367.269531 299.492188 370.820312 L 299.492188 424.871094 C 299.492188 428.425781 302.371094 431.304688 305.921875 431.304688 C 309.472656 431.304688 312.347656 428.425781 312.347656 424.871094 L 312.347656 370.820312 C 312.347656 367.269531 309.472656 364.390625 305.921875 364.390625 Z M 305.921875 364.390625 "/><path style=" stroke:none;fill-rule:nonzero;fill:#000000;fill-opacity:1;" d="M 143.796875 182.386719 C 140.246094 182.386719 137.367188 185.269531 137.367188 188.820312 C 137.367188 192.371094 140.246094 195.25 143.796875 195.25 L 176.726562 195.25 C 180.277344 195.25 183.15625 192.371094 183.15625 188.820312 C 183.15625 185.269531 180.277344 182.386719 176.726562 182.386719 L 166.6875 182.386719 L 166.6875 140.355469 L 176.726562 140.355469 C 180.277344 140.355469 183.15625 137.476562 183.15625 133.925781 C 183.15625 130.371094 180.277344 127.492188 176.726562 127.492188 L 143.796875 127.492188 C 140.246094 127.492188 137.367188 130.371094 137.367188 133.925781 C 137.367188 137.476562 140.246094 140.355469 143.796875 140.355469 L 153.832031 140.355469 L 153.832031 182.390625 L 143.796875 182.390625 Z M 143.796875 182.386719 "/><path style=" stroke:none;fill-rule:nonzero;fill:#000000;fill-opacity:1;" d="M 198.679688 195.25 C 202.230469 195.25 205.109375 192.371094 205.109375 188.820312 L 205.109375 157.136719 L 226.101562 192.128906 C 227.285156 194.101562 229.398438 195.253906 231.613281 195.253906 C 232.183594 195.253906 232.757812 195.175781 233.328125 195.019531 C 236.113281 194.246094 238.042969 191.710938 238.042969 188.820312 L 238.042969 133.925781 C 238.042969 130.371094 235.164062 127.492188 231.613281 127.492188 C 228.0625 127.492188 225.183594 130.371094 225.183594 133.925781 L 225.183594 165.609375 L 204.191406 130.613281 C 202.707031 128.136719 199.753906 126.953125 196.964844 127.726562 C 194.179688 128.496094 192.253906 131.035156 192.253906 133.925781 L 192.253906 188.820312 C 192.253906 192.371094 195.128906 195.25 198.679688 195.25 Z M 198.679688 195.25 "/><path style=" stroke:none;fill-rule:nonzero;fill:#000000;fill-opacity:1;" d="M 253.566406 140.355469 L 263.605469 140.355469 L 263.605469 188.820312 C 263.605469 192.375 266.484375 195.253906 270.035156 195.253906 C 273.585938 195.253906 276.460938 192.375 276.460938 188.820312 L 276.460938 140.355469 L 286.5 140.355469 C 290.050781 140.355469 292.929688 137.476562 292.929688 133.925781 C 292.929688 130.371094 290.050781 127.492188 286.5 127.492188 L 253.570312 127.492188 C 250.019531 127.492188 247.140625 130.371094 247.140625 133.925781 C 247.140625 137.476562 250.019531 140.355469 253.566406 140.355469 Z M 253.566406 140.355469 "/><path style=" stroke:none;fill-rule:nonzero;fill:#000000;fill-opacity:1;" d="M 308.453125 195.25 L 341.386719 195.25 C 344.9375 195.25 347.816406 192.371094 347.816406 188.820312 C 347.816406 185.269531 344.9375 182.386719 341.386719 182.386719 L 314.882812 182.386719 L 314.882812 167.804688 L 341.386719 167.804688 C 344.9375 167.804688 347.816406 164.921875 347.816406 161.371094 C 347.816406 157.820312 344.9375 154.941406 341.386719 154.941406 L 314.882812 154.941406 L 314.882812 140.355469 L 341.386719 140.355469 C 344.9375 140.355469 347.816406 137.476562 347.816406 133.921875 C 347.816406 130.371094 344.9375 127.492188 341.386719 127.492188 L 308.453125 127.492188 C 304.902344 127.492188 302.023438 130.371094 302.023438 133.921875 L 302.023438 188.820312 C 302.023438 192.371094 304.902344 195.25 308.453125 195.25 Z M 308.453125 195.25 "/><path style=" stroke:none;fill-rule:nonzero;fill:#000000;fill-opacity:1;" d="M 418.226562 195.25 C 421.777344 195.25 424.65625 192.371094 424.65625 188.820312 L 424.65625 157.136719 L 445.648438 192.128906 C 446.832031 194.101562 448.945312 195.253906 451.160156 195.253906 C 451.730469 195.253906 452.304688 195.175781 452.878906 195.019531 C 455.664062 194.246094 457.589844 191.710938 457.589844 188.820312 L 457.589844 133.925781 C 457.589844 130.371094 454.710938 127.492188 451.160156 127.492188 C 447.609375 127.492188 444.730469 130.371094 444.730469 133.925781 L 444.730469 165.609375 L 423.738281 130.613281 C 422.253906 128.136719 419.296875 126.953125 416.511719 127.726562 C 413.726562 128.496094 411.796875 131.035156 411.796875 133.925781 L 411.796875 188.820312 C 411.800781 192.371094 414.679688 195.25 418.226562 195.25 Z M 418.226562 195.25 "/><path style=" stroke:none;fill-rule:nonzero;fill:#000000;fill-opacity:1;" d="M 528 195.25 C 531.550781 195.25 534.429688 192.371094 534.429688 188.820312 L 534.429688 167.804688 L 554.503906 167.804688 L 554.503906 188.820312 C 554.503906 192.371094 557.382812 195.25 560.933594 195.25 C 564.480469 195.25 567.359375 192.371094 567.359375 188.820312 L 567.359375 133.925781 C 567.359375 130.371094 564.480469 127.492188 560.933594 127.492188 C 557.382812 127.492188 554.503906 130.371094 554.503906 133.925781 L 554.503906 154.941406 L 534.429688 154.941406 L 534.429688 133.925781 C 534.429688 130.371094 531.550781 127.492188 528 127.492188 C 524.449219 127.492188 521.574219 130.371094 521.574219 133.925781 L 521.574219 188.820312 C 521.574219 192.371094 524.449219 195.25 528 195.25 Z M 528 195.25 "/><path style=" stroke:none;fill-rule:nonzero;fill:#000000;fill-opacity:1;" d="M 582.886719 182.386719 C 579.335938 182.386719 576.457031 185.269531 576.457031 188.820312 C 576.457031 192.371094 579.335938 195.25 582.886719 195.25 L 615.820312 195.25 C 619.371094 195.25 622.246094 192.371094 622.246094 188.820312 C 622.246094 185.269531 619.371094 182.386719 615.820312 182.386719 L 605.78125 182.386719 L 605.78125 140.355469 L 615.820312 140.355469 C 619.371094 140.355469 622.246094 137.476562 622.246094 133.925781 C 622.246094 130.371094 619.371094 127.492188 615.820312 127.492188 L 582.886719 127.492188 C 579.335938 127.492188 576.457031 130.371094 576.457031 133.925781 C 576.457031 137.476562 579.335938 140.355469 582.886719 140.355469 L 592.925781 140.355469 L 592.925781 182.390625 L 582.886719 182.390625 Z M 582.886719 182.386719 "/><path style=" stroke:none;fill-rule:nonzero;fill:#000000;fill-opacity:1;" d="M 637.773438 195.25 C 641.324219 195.25 644.203125 192.371094 644.203125 188.820312 L 644.203125 167.804688 L 656.984375 167.804688 C 668.09375 167.804688 677.132812 158.761719 677.132812 147.644531 C 677.132812 136.53125 668.09375 127.492188 656.984375 127.492188 L 637.773438 127.492188 C 634.222656 127.492188 631.34375 130.371094 631.34375 133.921875 L 631.34375 188.820312 C 631.34375 192.371094 634.222656 195.25 637.773438 195.25 Z M 644.203125 140.355469 L 656.984375 140.355469 C 661.003906 140.355469 664.277344 143.628906 664.277344 147.648438 C 664.277344 151.667969 661.003906 154.941406 656.984375 154.941406 L 644.203125 154.941406 Z M 644.203125 140.355469 "/><path style=" stroke:none;fill-rule:nonzero;fill:#000000;fill-opacity:1;" d="M 363.339844 195.25 C 366.890625 195.25 369.769531 192.371094 369.769531 188.820312 L 369.769531 167.804688 L 376.167969 167.804688 L 390.761719 192.128906 C 391.964844 194.140625 394.097656 195.25 396.28125 195.25 C 397.40625 195.25 398.546875 194.957031 399.582031 194.332031 C 402.625 192.503906 403.613281 188.554688 401.785156 185.507812 L 390.242188 166.269531 C 397.546875 163.238281 402.703125 156.035156 402.703125 147.644531 C 402.703125 136.53125 393.660156 127.492188 382.550781 127.492188 L 363.339844 127.492188 C 359.789062 127.492188 356.914062 130.371094 356.914062 133.921875 L 356.914062 188.820312 C 356.914062 192.371094 359.789062 195.25 363.339844 195.25 Z M 369.769531 140.355469 L 382.550781 140.355469 C 386.574219 140.355469 389.84375 143.628906 389.84375 147.648438 C 389.84375 151.667969 386.574219 154.941406 382.550781 154.941406 L 369.769531 154.941406 Z M 369.769531 140.355469 "/><path style=" stroke:none;fill-rule:nonzero;fill:#000000;fill-opacity:1;" d="M 494.640625 180.941406 C 493.273438 181.679688 491.785156 182.144531 490.222656 182.3125 C 485.582031 182.816406 480.945312 180.765625 478.394531 177.082031 C 476.371094 174.164062 472.371094 173.441406 469.449219 175.464844 C 466.535156 177.488281 465.808594 181.496094 467.832031 184.414062 C 472.515625 191.171875 480.5625 195.246094 488.882812 195.246094 C 489.789062 195.246094 490.703125 195.199219 491.613281 195.097656 C 494.84375 194.75 497.925781 193.789062 500.765625 192.246094 C 508.84375 187.871094 513.238281 179.277344 511.710938 170.867188 C 511.382812 169.0625 510.785156 167.347656 509.929688 165.757812 C 505.917969 158.316406 497.757812 156.65625 491.199219 155.324219 C 488.125 154.695312 485.222656 154.105469 483.117188 153.09375 C 481.933594 152.523438 480.957031 151.585938 480.542969 150.863281 C 480.328125 150.464844 480.183594 150.046875 480.097656 149.574219 C 479.566406 146.644531 481.34375 143.523438 484.519531 141.800781 C 485.886719 141.058594 487.371094 140.597656 488.933594 140.425781 C 493.570312 139.929688 498.214844 141.976562 500.761719 145.65625 C 502.789062 148.574219 506.789062 149.300781 509.707031 147.277344 C 512.625 145.253906 513.351562 141.246094 511.328125 138.328125 C 506.132812 130.828125 496.796875 126.628906 487.546875 127.640625 C 484.316406 127.992188 481.234375 128.953125 478.394531 130.492188 C 470.320312 134.871094 465.921875 143.460938 467.445312 151.875 C 467.773438 153.675781 468.375 155.394531 469.230469 156.980469 C 469.242188 157.003906 469.25 157.023438 469.261719 157.042969 C 470.976562 160.191406 473.992188 162.972656 477.539062 164.683594 C 481.085938 166.394531 484.925781 167.175781 488.636719 167.929688 C 493.171875 168.851562 497.453125 169.722656 498.609375 171.863281 C 498.824219 172.265625 498.972656 172.691406 499.058594 173.167969 C 499.59375 176.097656 497.816406 179.21875 494.640625 180.941406 Z M 494.640625 180.941406 "/></g></svg>