<svg xmlns="http://www.w3.org/2000/svg" xmlns:xlink="http://www.w3.org/1999/xlink" width="1080" zoomAndPan="magnify" viewBox="0 0 810 809.999993" height="1080" preserveAspectRatio="xMidYMid meet" version="1.0"><defs><clipPath id="4571d1570d"><path d="M 20.550781 22.355469 L 792.449219 22.355469 L 792.449219 794.25 L 20.550781 794.25 Z M 20.550781 22.355469 " clip-rule="nonzero"/></clipPath><clipPath id="0036a8de1b"><path d="M 406.5 22.355469 C 193.347656 22.355469 20.550781 195.148438 20.550781 408.300781 C 20.550781 621.457031 193.347656 794.25 406.5 794.25 C 619.652344 794.25 792.449219 621.457031 792.449219 408.300781 C 792.449219 195.148438 619.652344 22.355469 406.5 22.355469 Z M 406.5 22.355469 " clip-rule="nonzero"/></clipPath><clipPath id="85798a4b4c"><path d="M 0.550781 0.355469 L 772.449219 0.355469 L 772.449219 772.25 L 0.550781 772.25 Z M 0.550781 0.355469 " clip-rule="nonzero"/></clipPath><clipPath id="922c4ce146"><path d="M 386.5 0.355469 C 173.347656 0.355469 0.550781 173.148438 0.550781 386.300781 C 0.550781 599.457031 173.347656 772.25 386.5 772.25 C 599.652344 772.25 772.449219 599.457031 772.449219 386.300781 C 772.449219 173.148438 599.652344 0.355469 386.5 0.355469 Z M 386.5 0.355469 " clip-rule="nonzero"/></clipPath><clipPath id="dd2456e18b"><rect x="0" width="773" y="0" height="773"/></clipPath><clipPath id="e39419b099"><path d="M 124 46.820312 L 686 46.820312 L 686 769.820312 L 124 769.820312 Z M 124 46.820312 " clip-rule="nonzero"/></clipPath></defs><g clip-path="url(#4571d1570d)"><g clip-path="url(#0036a8de1b)"><g transform="matrix(1, 0, 0, 1, 20, 22)"><g clip-path="url(#dd2456e18b)"><g clip-path="url(#85798a4b4c)"><g clip-path="url(#922c4ce146)"><path fill="#000000" d="M 0.550781 0.355469 L 772.449219 0.355469 L 772.449219 772.25 L 0.550781 772.25 Z M 0.550781 0.355469 " fill-opacity="1" fill-rule="nonzero"/></g></g></g></g></g></g><g clip-path="url(#e39419b099)"><path fill="#ffffff" d="M 359.085938 465.898438 C 372.410156 452.535156 380.691406 434.089844 380.691406 413.683594 C 380.691406 404.503906 378.984375 395.75 375.953125 387.640625 C 377.492188 389.730469 379.371094 391.609375 381.546875 393.230469 C 389.019531 398.652344 398.667969 399.507812 406.90625 395.707031 L 406.90625 429.566406 C 406.90625 431.402344 406.4375 432.511719 405.199219 433.792969 L 373.476562 465.898438 Z M 404.085938 165.496094 C 293.125 165.496094 203.207031 255.457031 203.207031 366.375 C 203.207031 403.476562 213.242188 438.1875 230.746094 468.03125 C 236.640625 466.621094 242.789062 465.898438 249.0625 465.898438 L 254.441406 465.898438 C 241.078125 452.535156 232.839844 434.089844 232.839844 413.683594 C 232.839844 372.867188 265.929688 339.777344 306.746094 339.777344 C 334.839844 339.777344 359.304688 355.449219 371.8125 378.542969 C 370.957031 374.871094 370.957031 370.988281 371.855469 367.144531 L 382.273438 322.699219 L 347.6875 292.855469 C 340.003906 286.195312 337.101562 275.695312 340.214844 266.042969 C 343.375 256.351562 351.871094 249.605469 362.035156 248.753906 L 407.546875 244.953125 L 425.222656 202.855469 C 429.191406 193.460938 438.199219 187.441406 448.402344 187.441406 C 458.609375 187.441406 467.617188 193.460938 471.585938 202.855469 L 489.261719 244.953125 L 534.773438 248.753906 C 544.9375 249.605469 553.429688 256.351562 556.589844 266.042969 C 559.707031 275.695312 556.804688 286.195312 549.117188 292.855469 L 514.535156 322.699219 L 524.953125 367.144531 C 527.300781 377.050781 523.5 387.253906 515.261719 393.234375 C 507.019531 399.210938 496.132812 399.636719 487.46875 394.386719 L 483.027344 391.695312 L 483.027344 452.449219 C 483.027344 462.910156 479.398438 472.386719 472.484375 480.199219 L 407.585938 552.996094 L 407.585938 625.621094 C 407.585938 627.667969 407.332031 629.675781 406.816406 631.554688 L 481.234375 631.554688 C 498.910156 631.554688 513.339844 617.121094 513.339844 599.449219 L 513.339844 568.878906 C 513.339844 512.734375 544.167969 519.824219 573.027344 475.164062 C 593.222656 443.78125 604.964844 406.46875 604.964844 366.378906 C 604.964844 255.457031 515.003906 165.5 404.085938 165.5 Z M 329.328125 698.5 L 478.84375 698.5 L 478.84375 649.398438 L 329.328125 649.398438 Z M 329.328125 721.167969 C 329.328125 747.898438 353.578125 769.800781 383.167969 769.800781 L 425.007812 769.800781 C 454.597656 769.800781 478.847656 747.898438 478.847656 721.167969 L 478.847656 716.34375 L 329.328125 716.34375 Z M 267.550781 147.777344 C 270.027344 152.046875 275.492188 153.5 279.71875 151.023438 C 283.988281 148.589844 285.441406 143.125 282.964844 138.855469 L 256.238281 92.53125 C 253.761719 88.261719 248.296875 86.808594 244.070312 89.285156 C 239.796875 91.71875 238.347656 97.183594 240.824219 101.453125 Z M 183.738281 230.351562 L 137.417969 203.625 C 133.148438 201.148438 127.722656 202.597656 125.246094 206.867188 C 122.773438 211.09375 124.222656 216.558594 128.492188 219.035156 L 174.816406 245.761719 C 179.085938 248.238281 184.550781 246.789062 186.984375 242.519531 C 189.460938 238.292969 188.007812 232.828125 183.738281 230.351562 Z M 684.59375 209.730469 C 682.117188 205.503906 676.652344 204.050781 672.421875 206.527344 L 626.058594 233.253906 C 621.832031 235.730469 620.378906 241.195312 622.8125 245.421875 C 625.289062 249.691406 630.753906 251.144531 634.980469 248.667969 L 681.347656 221.898438 C 685.617188 219.464844 687.066406 214 684.59375 209.730469 Z M 531.316406 152.6875 C 535.585938 155.164062 541.007812 153.714844 543.484375 149.445312 L 570.253906 103.121094 C 572.730469 98.851562 571.28125 93.429688 567.011719 90.953125 C 562.742188 88.472656 557.320312 89.925781 554.84375 94.195312 L 528.074219 140.519531 C 525.640625 144.789062 527.089844 150.253906 531.316406 152.6875 Z M 405.753906 118.191406 C 410.664062 118.191406 414.675781 114.175781 414.675781 109.269531 L 414.675781 55.730469 C 414.675781 50.820312 410.660156 46.804688 405.753906 46.804688 C 400.84375 46.804688 396.828125 50.820312 396.828125 55.730469 L 396.828125 109.265625 C 396.828125 114.175781 400.84375 118.191406 405.753906 118.191406 Z M 389.230469 371.199219 C 388.546875 374.148438 389.613281 377.007812 392.046875 378.800781 C 394.480469 380.550781 397.554688 380.679688 400.117188 379.097656 L 444.605469 352.15625 C 446.992188 350.707031 449.8125 350.707031 452.203125 352.15625 L 496.691406 379.097656 C 499.253906 380.679688 502.328125 380.550781 504.761719 378.800781 C 507.195312 377.007812 508.261719 374.148438 507.578125 371.199219 L 495.710938 320.523438 C 495.070312 317.832031 495.921875 315.1875 498.058594 313.351562 L 537.421875 279.320312 C 539.726562 277.359375 540.539062 274.410156 539.601562 271.550781 C 538.703125 268.691406 536.269531 266.8125 533.28125 266.558594 L 481.40625 262.203125 C 478.632812 261.945312 476.367188 260.324219 475.300781 257.761719 L 455.148438 209.773438 C 453.953125 207 451.394531 205.289062 448.402344 205.289062 C 445.414062 205.289062 442.855469 207 441.65625 209.773438 L 421.503906 257.761719 C 420.4375 260.324219 418.175781 261.945312 415.402344 262.203125 L 363.527344 266.558594 C 360.539062 266.8125 358.105469 268.691406 357.207031 271.550781 C 356.269531 274.410156 357.078125 277.359375 359.386719 279.320312 L 398.75 313.351562 C 400.882812 315.1875 401.738281 317.832031 401.097656 320.523438 Z M 308.40625 603.460938 L 229.464844 603.460938 C 224.511719 603.460938 220.542969 599.445312 220.542969 594.535156 L 220.542969 551.160156 C 220.542969 546.25 224.511719 542.234375 229.464844 542.234375 C 234.375 542.234375 238.386719 546.25 238.386719 551.160156 L 238.386719 585.570312 L 308.40625 585.570312 C 317.160156 585.570312 325.144531 589.199219 330.949219 594.960938 C 336.714844 600.726562 340.300781 608.710938 340.300781 617.503906 C 340.300781 622.542969 339.148438 627.324219 337.011719 631.550781 L 383.761719 631.550781 C 387.050781 631.550781 389.742188 628.90625 389.742188 625.617188 L 389.742188 546.207031 L 459.121094 468.332031 C 463.175781 463.761719 465.183594 458.554688 465.183594 452.449219 L 465.183594 380.890625 L 448.402344 370.730469 L 424.75 385.03125 L 424.75 429.5625 C 424.75 436.09375 422.445312 441.691406 417.875 446.300781 L 380.945312 483.742188 L 330.394531 483.742188 C 322.964844 486.261719 315.023438 487.628906 306.742188 487.628906 C 298.5 487.628906 290.515625 486.261719 283.132812 483.742188 L 249.058594 483.742188 C 214.347656 483.742188 185.914062 512.179688 185.914062 546.933594 L 185.914062 625.617188 C 185.914062 628.90625 188.5625 631.550781 191.847656 631.550781 L 308.40625 631.550781 C 312.25 631.550781 315.75 629.972656 318.3125 627.453125 C 320.871094 624.890625 322.453125 621.347656 322.453125 617.503906 C 322.453125 613.664062 320.871094 610.121094 318.3125 607.601562 C 315.75 605.039062 312.25 603.457031 308.40625 603.457031 Z M 306.742188 357.625 C 275.875 357.625 250.683594 382.816406 250.683594 413.683594 C 250.683594 444.550781 275.875 469.78125 306.742188 469.78125 C 337.613281 469.78125 362.84375 444.59375 362.84375 413.683594 C 362.84375 382.773438 337.65625 357.625 306.742188 357.625 Z M 306.742188 357.625 " fill-opacity="1" fill-rule="evenodd"/></g></svg>