<svg xmlns="http://www.w3.org/2000/svg" xmlns:xlink="http://www.w3.org/1999/xlink" width="1080" zoomAndPan="magnify" viewBox="0 0 810 809.999993" height="1080" preserveAspectRatio="xMidYMid meet" version="1.0"><defs><clipPath id="59b9ff67d2"><path d="M 20.550781 22.355469 L 792.449219 22.355469 L 792.449219 794.25 L 20.550781 794.25 Z M 20.550781 22.355469 " clip-rule="nonzero"/></clipPath><clipPath id="960196c0c6"><path d="M 406.5 22.355469 C 193.347656 22.355469 20.550781 195.148438 20.550781 408.300781 C 20.550781 621.457031 193.347656 794.25 406.5 794.25 C 619.652344 794.25 792.449219 621.457031 792.449219 408.300781 C 792.449219 195.148438 619.652344 22.355469 406.5 22.355469 Z M 406.5 22.355469 " clip-rule="nonzero"/></clipPath><clipPath id="997da9fcdc"><path d="M 0.550781 0.355469 L 772.449219 0.355469 L 772.449219 772.25 L 0.550781 772.25 Z M 0.550781 0.355469 " clip-rule="nonzero"/></clipPath><clipPath id="9d710f4f1f"><path d="M 386.5 0.355469 C 173.347656 0.355469 0.550781 173.148438 0.550781 386.300781 C 0.550781 599.457031 173.347656 772.25 386.5 772.25 C 599.652344 772.25 772.449219 599.457031 772.449219 386.300781 C 772.449219 173.148438 599.652344 0.355469 386.5 0.355469 Z M 386.5 0.355469 " clip-rule="nonzero"/></clipPath><clipPath id="4b9e3cd9dc"><rect x="0" width="773" y="0" height="773"/></clipPath><clipPath id="6c84fd4618"><path d="M 124 46.820312 L 686 46.820312 L 686 769.820312 L 124 769.820312 Z M 124 46.820312 " clip-rule="nonzero"/></clipPath></defs><g clip-path="url(#59b9ff67d2)"><g clip-path="url(#960196c0c6)"><g transform="matrix(1, 0, 0, 1, 20, 22)"><g clip-path="url(#4b9e3cd9dc)"><g clip-path="url(#997da9fcdc)"><g clip-path="url(#9d710f4f1f)"><path fill="#ffffff" d="M 0.550781 0.355469 L 772.449219 0.355469 L 772.449219 772.25 L 0.550781 772.25 Z M 0.550781 0.355469 " fill-opacity="1" fill-rule="nonzero"/></g></g></g></g></g></g><g clip-path="url(#6c84fd4618)"><path fill="#000000" d="M 359.0625 465.917969 C 372.382812 452.554688 380.664062 434.109375 380.664062 413.703125 C 380.664062 404.519531 378.957031 395.769531 375.925781 387.65625 C 377.464844 389.746094 379.34375 391.625 381.519531 393.25 C 388.992188 398.671875 398.636719 399.523438 406.878906 395.722656 L 406.878906 429.582031 C 406.878906 431.417969 406.40625 432.53125 405.167969 433.8125 L 373.453125 465.917969 Z M 404.058594 165.503906 C 293.105469 165.503906 203.199219 255.464844 203.199219 366.390625 C 203.199219 403.496094 213.234375 438.207031 230.738281 468.054688 C 236.628906 466.644531 242.777344 465.917969 249.050781 465.917969 L 254.429688 465.917969 C 241.066406 452.554688 232.828125 434.109375 232.828125 413.703125 C 232.828125 372.882812 265.914062 339.792969 306.726562 339.792969 C 334.816406 339.792969 359.277344 355.460938 371.785156 378.5625 C 370.933594 374.886719 370.933594 371.003906 371.828125 367.160156 L 382.246094 322.714844 L 347.664062 292.867188 C 339.980469 286.207031 337.078125 275.703125 340.195312 266.054688 C 343.355469 256.363281 351.847656 249.617188 362.007812 248.761719 L 407.515625 244.960938 L 425.1875 202.863281 C 429.160156 193.46875 438.167969 187.449219 448.371094 187.449219 C 458.574219 187.449219 467.582031 193.46875 471.550781 202.863281 L 489.222656 244.960938 L 534.730469 248.761719 C 544.890625 249.617188 553.386719 256.363281 556.546875 266.054688 C 559.660156 275.703125 556.761719 286.207031 549.074219 292.867188 L 514.496094 322.714844 L 524.910156 367.160156 C 527.261719 377.066406 523.460938 387.269531 515.222656 393.25 C 506.980469 399.226562 496.097656 399.652344 487.429688 394.402344 L 482.992188 391.710938 L 482.992188 452.46875 C 482.992188 462.929688 479.363281 472.410156 472.445312 480.222656 L 407.558594 553.019531 L 407.558594 625.648438 C 407.558594 627.699219 407.300781 629.703125 406.789062 631.582031 L 481.199219 631.582031 C 498.871094 631.582031 513.300781 617.152344 513.300781 599.476562 L 513.300781 568.902344 C 513.300781 512.757812 544.121094 519.84375 572.980469 475.183594 C 593.171875 443.800781 604.914062 406.488281 604.914062 366.394531 C 604.914062 255.46875 514.964844 165.503906 404.054688 165.503906 Z M 329.308594 698.53125 L 478.808594 698.53125 L 478.808594 649.429688 L 329.308594 649.429688 Z M 329.308594 721.203125 C 329.308594 747.929688 353.554688 769.835938 383.140625 769.835938 L 424.976562 769.835938 C 454.5625 769.835938 478.808594 747.929688 478.808594 721.203125 L 478.808594 716.378906 L 329.308594 716.378906 Z M 267.535156 147.785156 C 270.011719 152.050781 275.472656 153.503906 279.703125 151.027344 C 283.972656 148.59375 285.421875 143.128906 282.949219 138.859375 L 256.222656 92.53125 C 253.746094 88.261719 248.285156 86.8125 244.054688 89.289062 C 239.785156 91.722656 238.335938 97.1875 240.8125 101.457031 Z M 183.734375 230.359375 L 137.414062 203.628906 C 133.144531 201.15625 127.722656 202.605469 125.246094 206.875 C 122.773438 211.101562 124.222656 216.566406 128.492188 219.042969 L 174.808594 245.773438 C 179.082031 248.25 184.542969 246.796875 186.976562 242.527344 C 189.453125 238.300781 188 232.835938 183.734375 230.359375 Z M 684.535156 209.738281 C 682.058594 205.511719 676.59375 204.058594 672.367188 206.535156 L 626.003906 233.261719 C 621.78125 235.738281 620.328125 241.203125 622.761719 245.433594 C 625.238281 249.699219 630.699219 251.152344 634.929688 248.675781 L 681.289062 221.90625 C 685.558594 219.472656 687.007812 214.007812 684.535156 209.738281 Z M 531.273438 152.695312 C 535.542969 155.171875 540.964844 153.71875 543.441406 149.449219 L 570.207031 103.125 C 572.683594 98.855469 571.234375 93.429688 566.964844 90.953125 C 562.695312 88.476562 557.273438 89.929688 554.796875 94.199219 L 528.03125 140.523438 C 525.597656 144.792969 527.050781 150.261719 531.273438 152.695312 Z M 405.722656 118.195312 C 410.632812 118.195312 414.644531 114.179688 414.644531 109.273438 L 414.644531 55.730469 C 414.644531 50.820312 410.628906 46.804688 405.722656 46.804688 C 400.816406 46.804688 396.800781 50.820312 396.800781 55.730469 L 396.800781 109.269531 C 396.800781 114.179688 400.8125 118.191406 405.722656 118.191406 Z M 389.203125 371.214844 C 388.519531 374.164062 389.585938 377.023438 392.019531 378.816406 C 394.453125 380.566406 397.527344 380.695312 400.085938 379.113281 L 444.570312 352.171875 C 446.960938 350.722656 449.777344 350.722656 452.167969 352.171875 L 496.652344 379.113281 C 499.214844 380.695312 502.289062 380.566406 504.722656 378.816406 C 507.15625 377.023438 508.222656 374.164062 507.539062 371.214844 L 495.671875 320.535156 C 495.03125 317.84375 495.886719 315.199219 498.019531 313.363281 L 537.378906 279.332031 C 539.683594 277.371094 540.496094 274.421875 539.554688 271.5625 C 538.660156 268.703125 536.226562 266.824219 533.238281 266.566406 L 481.371094 262.214844 C 478.59375 261.957031 476.332031 260.332031 475.265625 257.773438 L 455.117188 209.78125 C 453.917969 207.007812 451.359375 205.296875 448.371094 205.296875 C 445.378906 205.296875 442.820312 207.007812 441.625 209.78125 L 421.472656 257.773438 C 420.40625 260.335938 418.144531 261.957031 415.371094 262.214844 L 363.5 266.566406 C 360.511719 266.824219 358.078125 268.703125 357.183594 271.5625 C 356.242188 274.421875 357.054688 277.371094 359.359375 279.332031 L 398.722656 313.363281 C 400.855469 315.199219 401.707031 317.84375 401.070312 320.535156 Z M 308.386719 603.488281 L 229.453125 603.488281 C 224.5 603.488281 220.53125 599.472656 220.53125 594.5625 L 220.53125 551.183594 C 220.53125 546.273438 224.5 542.261719 229.453125 542.261719 C 234.363281 542.261719 238.375 546.273438 238.375 551.183594 L 238.375 585.597656 L 308.386719 585.597656 C 317.140625 585.597656 325.125 589.226562 330.929688 594.988281 C 336.691406 600.753906 340.277344 608.738281 340.277344 617.535156 C 340.277344 622.570312 339.125 627.355469 336.992188 631.582031 L 383.734375 631.582031 C 387.023438 631.582031 389.714844 628.933594 389.714844 625.644531 L 389.714844 546.230469 L 459.085938 468.351562 C 463.140625 463.78125 465.148438 458.574219 465.148438 452.46875 L 465.148438 380.90625 L 448.371094 370.746094 L 424.71875 385.050781 L 424.71875 429.582031 C 424.71875 436.113281 422.414062 441.707031 417.847656 446.320312 L 380.917969 483.765625 L 330.375 483.765625 C 322.945312 486.285156 315.003906 487.652344 306.722656 487.652344 C 298.484375 487.652344 290.5 486.285156 283.113281 483.765625 L 249.046875 483.765625 C 214.339844 483.765625 185.910156 512.203125 185.910156 546.957031 L 185.910156 625.644531 C 185.910156 628.933594 188.554688 631.582031 191.84375 631.582031 L 308.386719 631.582031 C 312.230469 631.582031 315.730469 630 318.289062 627.480469 C 320.851562 624.921875 322.433594 621.375 322.433594 617.535156 C 322.433594 613.691406 320.851562 610.148438 318.289062 607.628906 C 315.730469 605.066406 312.230469 603.484375 308.386719 603.484375 Z M 306.722656 357.640625 C 275.859375 357.640625 250.671875 382.832031 250.671875 413.699219 C 250.671875 444.570312 275.859375 469.804688 306.722656 469.804688 C 337.589844 469.804688 362.820312 444.609375 362.820312 413.699219 C 362.820312 382.789062 337.632812 357.640625 306.722656 357.640625 Z M 306.722656 357.640625 " fill-opacity="1" fill-rule="evenodd"/></g></svg>