<svg xmlns="http://www.w3.org/2000/svg" xmlns:xlink="http://www.w3.org/1999/xlink" width="1080" zoomAndPan="magnify" viewBox="0 0 810 809.999993" height="1080" preserveAspectRatio="xMidYMid meet" version="1.2"><defs><clipPath id="2e1075f0a7"><path d="M 7.621094 8.492188 L 802.621094 8.492188 L 802.621094 803.492188 L 7.621094 803.492188 Z M 7.621094 8.492188 "/></clipPath><clipPath id="900c4a8911"><path d="M 0 9.242188 L 792 9.242188 L 792 804.242188 L 0 804.242188 Z M 0 9.242188 "/></clipPath></defs><g id="37a66c508c"><path style=" stroke:none;fill-rule:nonzero;fill:#000000;fill-opacity:1;" d="M 461.765625 519.402344 L 461.765625 623.125 L 348.476562 623.125 L 348.476562 519.402344 C 348.476562 518.402344 348.523438 517.402344 348.621094 516.40625 C 348.71875 515.410156 348.867188 514.421875 349.0625 513.441406 C 349.253906 512.457031 349.496094 511.488281 349.789062 510.53125 C 350.078125 509.574219 350.414062 508.632812 350.796875 507.707031 C 351.179688 506.78125 351.605469 505.878906 352.078125 504.996094 C 352.550781 504.113281 353.0625 503.253906 353.621094 502.421875 C 354.175781 501.589844 354.773438 500.785156 355.40625 500.011719 C 356.042969 499.238281 356.714844 498.496094 357.421875 497.789062 C 358.128906 497.082031 358.871094 496.410156 359.644531 495.773438 C 360.417969 495.140625 361.21875 494.542969 362.054688 493.988281 C 362.886719 493.433594 363.742188 492.917969 364.625 492.449219 C 365.507812 491.976562 366.414062 491.546875 367.335938 491.167969 C 368.261719 490.785156 369.203125 490.445312 370.160156 490.15625 C 371.121094 489.867188 372.089844 489.625 373.070312 489.429688 C 374.054688 489.234375 375.042969 489.089844 376.039062 488.992188 C 377.035156 488.894531 378.035156 488.84375 379.035156 488.847656 L 431.332031 488.847656 C 432.328125 488.847656 433.324219 488.898438 434.320312 489 C 435.3125 489.101562 436.300781 489.25 437.277344 489.445312 C 438.257812 489.644531 439.222656 489.886719 440.179688 490.179688 C 441.132812 490.472656 442.074219 490.808594 442.996094 491.195312 C 443.917969 491.578125 444.816406 492.007812 445.695312 492.480469 C 446.578125 492.953125 447.429688 493.46875 448.261719 494.023438 C 449.089844 494.582031 449.890625 495.175781 450.660156 495.8125 C 451.429688 496.445312 452.167969 497.117188 452.871094 497.824219 C 453.578125 498.535156 454.246094 499.273438 454.878906 500.046875 C 455.507812 500.820312 456.101562 501.621094 456.65625 502.453125 C 457.207031 503.285156 457.71875 504.140625 458.1875 505.023438 C 458.660156 505.90625 459.082031 506.808594 459.464844 507.730469 C 459.84375 508.652344 460.179688 509.59375 460.464844 510.550781 C 460.753906 511.507812 460.996094 512.472656 461.1875 513.453125 C 461.382812 514.433594 461.527344 515.421875 461.621094 516.414062 C 461.71875 517.410156 461.765625 518.40625 461.765625 519.402344 Z M 461.765625 519.402344 "/><path style=" stroke:none;fill-rule:nonzero;fill:#000000;fill-opacity:1;" d="M 429.21875 196.558594 L 619.027344 332.082031 L 596.167969 332.082031 C 595.3125 332.082031 594.464844 332.164062 593.625 332.332031 C 592.785156 332.5 591.96875 332.746094 591.175781 333.074219 C 590.386719 333.402344 589.636719 333.804688 588.921875 334.277344 C 588.210938 334.753906 587.550781 335.296875 586.945312 335.902344 C 586.339844 336.507812 585.800781 337.164062 585.324219 337.878906 C 584.847656 338.589844 584.445312 339.34375 584.117188 340.132812 C 583.792969 340.925781 583.542969 341.738281 583.375 342.578125 C 583.210938 343.421875 583.125 344.269531 583.125 345.125 L 583.125 581.636719 C 583.125 582.996094 583.058594 584.351562 582.925781 585.703125 C 582.792969 587.054688 582.59375 588.398438 582.332031 589.730469 C 582.066406 591.066406 581.734375 592.382812 581.339844 593.679688 C 580.945312 594.980469 580.488281 596.261719 579.96875 597.515625 C 579.449219 598.769531 578.871094 599.996094 578.230469 601.195312 C 577.589844 602.394531 576.890625 603.558594 576.136719 604.6875 C 575.382812 605.820312 574.574219 606.910156 573.710938 607.960938 C 572.847656 609.007812 571.9375 610.015625 570.976562 610.976562 C 570.015625 611.9375 569.011719 612.847656 567.960938 613.710938 C 566.910156 614.574219 565.820312 615.382812 564.6875 616.136719 C 563.558594 616.890625 562.394531 617.589844 561.195312 618.230469 C 559.996094 618.871094 558.769531 619.449219 557.515625 619.96875 C 556.261719 620.488281 554.980469 620.945312 553.679688 621.339844 C 552.382812 621.734375 551.066406 622.066406 549.730469 622.328125 C 548.398438 622.59375 547.054688 622.792969 545.703125 622.925781 C 544.351562 623.058594 542.996094 623.125 541.636719 623.125 L 487.976562 623.125 L 487.976562 519.402344 C 487.972656 517.546875 487.882812 515.695312 487.699219 513.847656 C 487.515625 512 487.242188 510.167969 486.882812 508.347656 C 486.519531 506.527344 486.066406 504.726562 485.527344 502.949219 C 484.988281 501.175781 484.367188 499.429688 483.65625 497.714844 C 482.945312 496 482.152344 494.320312 481.277344 492.683594 C 480.40625 491.046875 479.453125 489.457031 478.421875 487.914062 C 477.390625 486.367188 476.289062 484.878906 475.113281 483.441406 C 473.9375 482.007812 472.691406 480.632812 471.382812 479.316406 C 470.070312 478.003906 468.699219 476.757812 467.265625 475.578125 C 465.832031 474.398438 464.34375 473.289062 462.800781 472.257812 C 461.257812 471.222656 459.671875 470.265625 458.035156 469.390625 C 456.398438 468.511719 454.726562 467.714844 453.011719 467.003906 C 451.296875 466.289062 449.554688 465.660156 447.777344 465.117188 C 446.003906 464.574219 444.207031 464.121094 442.386719 463.753906 C 440.566406 463.386719 438.734375 463.109375 436.886719 462.921875 C 435.039062 462.738281 433.1875 462.640625 431.332031 462.636719 L 379.035156 462.636719 C 377.175781 462.636719 375.320312 462.730469 373.472656 462.914062 C 371.625 463.097656 369.785156 463.371094 367.964844 463.738281 C 366.140625 464.101562 364.339844 464.554688 362.5625 465.09375 C 360.785156 465.632812 359.039062 466.261719 357.320312 466.972656 C 355.605469 467.6875 353.925781 468.480469 352.285156 469.355469 C 350.648438 470.234375 349.054688 471.1875 347.511719 472.222656 C 345.964844 473.253906 344.476562 474.359375 343.039062 475.539062 C 341.601562 476.71875 340.226562 477.964844 338.914062 479.28125 C 337.597656 480.59375 336.351562 481.96875 335.171875 483.40625 C 333.992188 484.84375 332.886719 486.335938 331.851562 487.878906 C 330.820312 489.425781 329.863281 491.015625 328.988281 492.65625 C 328.113281 494.292969 327.316406 495.972656 326.605469 497.6875 C 325.890625 499.40625 325.265625 501.152344 324.726562 502.929688 C 324.183594 504.710938 323.730469 506.511719 323.367188 508.332031 C 323.003906 510.15625 322.730469 511.992188 322.546875 513.839844 C 322.363281 515.691406 322.269531 517.546875 322.265625 519.402344 L 322.265625 623.125 L 268.730469 623.125 C 267.371094 623.125 266.015625 623.058594 264.660156 622.925781 C 263.308594 622.792969 261.96875 622.59375 260.632812 622.332031 C 259.300781 622.066406 257.984375 621.734375 256.683594 621.339844 C 255.382812 620.945312 254.105469 620.488281 252.851562 619.96875 C 251.59375 619.449219 250.367188 618.871094 249.167969 618.230469 C 247.972656 617.589844 246.808594 616.890625 245.675781 616.136719 C 244.546875 615.382812 243.457031 614.574219 242.40625 613.710938 C 241.355469 612.847656 240.351562 611.9375 239.390625 610.976562 C 238.429688 610.015625 237.515625 609.007812 236.65625 607.960938 C 235.792969 606.910156 234.984375 605.820312 234.230469 604.6875 C 233.476562 603.558594 232.777344 602.394531 232.136719 601.195312 C 231.496094 599.996094 230.917969 598.769531 230.394531 597.515625 C 229.875 596.261719 229.417969 594.980469 229.023438 593.679688 C 228.628906 592.382812 228.300781 591.066406 228.035156 589.730469 C 227.769531 588.398438 227.570312 587.054688 227.4375 585.703125 C 227.304688 584.351562 227.238281 582.996094 227.238281 581.636719 L 227.238281 345.125 C 227.238281 344.261719 227.152344 343.410156 226.980469 342.566406 C 226.8125 341.722656 226.5625 340.902344 226.226562 340.109375 C 225.894531 339.3125 225.488281 338.558594 225.007812 337.84375 C 224.527344 337.132812 223.980469 336.472656 223.367188 335.863281 C 222.757812 335.257812 222.089844 334.71875 221.371094 334.246094 C 220.652344 333.769531 219.894531 333.371094 219.097656 333.046875 C 218.300781 332.722656 217.480469 332.476562 216.632812 332.316406 C 215.789062 332.152344 214.933594 332.074219 214.074219 332.082031 L 191.214844 332.082031 L 381.023438 196.558594 C 382.769531 195.308594 384.601562 194.203125 386.519531 193.238281 C 388.441406 192.273438 390.421875 191.464844 392.464844 190.808594 C 394.511719 190.152344 396.59375 189.65625 398.714844 189.324219 C 400.839844 188.992188 402.972656 188.828125 405.121094 188.828125 C 407.269531 188.828125 409.402344 188.992188 411.523438 189.324219 C 413.648438 189.65625 415.730469 190.152344 417.773438 190.808594 C 419.820312 191.464844 421.800781 192.273438 423.722656 193.238281 C 425.640625 194.203125 427.472656 195.308594 429.21875 196.558594 Z M 429.21875 196.558594 "/><g clip-rule="nonzero" clip-path="url(#2e1075f0a7)"><path style=" stroke:none;fill-rule:nonzero;fill:#000000;fill-opacity:1;" d="M 405.121094 8.492188 C 398.617188 8.492188 392.113281 8.652344 385.617188 8.972656 C 379.117188 9.289062 372.632812 9.769531 366.160156 10.40625 C 359.683594 11.042969 353.230469 11.839844 346.796875 12.792969 C 340.359375 13.75 333.953125 14.859375 327.574219 16.128906 C 321.191406 17.398438 314.847656 18.824219 308.535156 20.40625 C 302.226562 21.984375 295.957031 23.71875 289.734375 25.609375 C 283.507812 27.496094 277.332031 29.535156 271.207031 31.726562 C 265.082031 33.917969 259.015625 36.261719 253.003906 38.75 C 246.992188 41.238281 241.046875 43.875 235.167969 46.65625 C 229.285156 49.4375 223.476562 52.363281 217.742188 55.429688 C 212.003906 58.496094 206.34375 61.699219 200.765625 65.042969 C 195.183594 68.390625 189.691406 71.867188 184.28125 75.484375 C 178.871094 79.097656 173.554688 82.839844 168.332031 86.71875 C 163.105469 90.59375 157.976562 94.59375 152.949219 98.71875 C 147.921875 102.847656 142.996094 107.09375 138.175781 111.464844 C 133.355469 115.832031 128.644531 120.316406 124.046875 124.917969 C 119.445312 129.515625 114.960938 134.226562 110.59375 139.046875 C 106.222656 143.867188 101.976562 148.792969 97.847656 153.820312 C 93.722656 158.847656 89.722656 163.976562 85.847656 169.203125 C 81.96875 174.425781 78.226562 179.742188 74.613281 185.152344 C 70.996094 190.5625 67.519531 196.054688 64.175781 201.636719 C 60.828125 207.214844 57.625 212.875 54.558594 218.613281 C 51.492188 224.347656 48.566406 230.15625 45.785156 236.039062 C 43.003906 241.917969 40.367188 247.863281 37.878906 253.875 C 35.390625 259.886719 33.046875 265.953125 30.855469 272.078125 C 28.664062 278.203125 26.625 284.378906 24.738281 290.605469 C 22.847656 296.828125 21.113281 303.097656 19.535156 309.40625 C 17.953125 315.71875 16.527344 322.0625 15.257812 328.445312 C 13.988281 334.824219 12.878906 341.230469 11.921875 347.667969 C 10.96875 354.101562 10.171875 360.554688 9.535156 367.03125 C 8.898438 373.503906 8.417969 379.988281 8.101562 386.488281 C 7.78125 392.984375 7.621094 399.488281 7.621094 405.992188 C 7.621094 412.496094 7.78125 419 8.101562 425.496094 C 8.417969 431.992188 8.898438 438.480469 9.535156 444.953125 C 10.171875 451.429688 10.96875 457.882812 11.921875 464.316406 C 12.878906 470.753906 13.988281 477.160156 15.257812 483.539062 C 16.527344 489.921875 17.953125 496.265625 19.535156 502.578125 C 21.113281 508.886719 22.847656 515.15625 24.738281 521.378906 C 26.625 527.605469 28.664062 533.78125 30.855469 539.90625 C 33.046875 546.03125 35.390625 552.097656 37.878906 558.109375 C 40.367188 564.117188 43.003906 570.0625 45.785156 575.945312 C 48.566406 581.824219 51.492188 587.636719 54.558594 593.371094 C 57.625 599.109375 60.828125 604.769531 64.175781 610.347656 C 67.519531 615.925781 70.996094 621.421875 74.613281 626.832031 C 78.226562 632.238281 81.972656 637.558594 85.847656 642.78125 C 89.722656 648.007812 93.722656 653.132812 97.847656 658.164062 C 101.976562 663.191406 106.222656 668.117188 110.59375 672.9375 C 114.960938 677.757812 119.445312 682.46875 124.046875 687.066406 C 128.644531 691.667969 133.355469 696.152344 138.175781 700.519531 C 142.996094 704.886719 147.921875 709.136719 152.949219 713.261719 C 157.976562 717.390625 163.105469 721.390625 168.332031 725.265625 C 173.554688 729.140625 178.871094 732.886719 184.28125 736.5 C 189.691406 740.113281 195.183594 743.59375 200.765625 746.9375 C 206.34375 750.285156 212.003906 753.488281 217.742188 756.554688 C 223.476562 759.621094 229.285156 762.546875 235.167969 765.328125 C 241.046875 768.109375 246.992188 770.746094 253.003906 773.234375 C 259.015625 775.722656 265.082031 778.0625 271.207031 780.253906 C 277.332031 782.445312 283.507812 784.488281 289.734375 786.375 C 295.957031 788.265625 302.226562 790 308.535156 791.578125 C 314.847656 793.160156 321.191406 794.585938 327.574219 795.855469 C 333.953125 797.125 340.359375 798.234375 346.796875 799.191406 C 353.230469 800.144531 359.683594 800.941406 366.160156 801.578125 C 372.632812 802.214844 379.117188 802.695312 385.617188 803.011719 C 392.113281 803.332031 398.617188 803.492188 405.121094 803.492188 C 411.625 803.492188 418.128906 803.332031 424.625 803.011719 C 431.121094 802.695312 437.609375 802.214844 444.082031 801.578125 C 450.558594 800.941406 457.011719 800.144531 463.445312 799.1875 C 469.882812 798.234375 476.289062 797.121094 482.667969 795.855469 C 489.050781 794.585938 495.394531 793.160156 501.707031 791.578125 C 508.015625 790 514.285156 788.265625 520.507812 786.375 C 526.734375 784.488281 532.910156 782.445312 539.035156 780.253906 C 545.160156 778.0625 551.226562 775.722656 557.238281 773.234375 C 563.246094 770.746094 569.191406 768.109375 575.074219 765.328125 C 580.953125 762.546875 586.765625 759.621094 592.5 756.554688 C 598.238281 753.488281 603.898438 750.285156 609.476562 746.9375 C 615.054688 743.59375 620.550781 740.113281 625.960938 736.5 C 631.367188 732.886719 636.6875 729.140625 641.910156 725.265625 C 647.136719 721.390625 652.261719 717.390625 657.292969 713.261719 C 662.320312 709.136719 667.246094 704.886719 672.066406 700.519531 C 676.886719 696.152344 681.597656 691.667969 686.195312 687.066406 C 690.796875 682.46875 695.28125 677.757812 699.648438 672.9375 C 704.019531 668.117188 708.265625 663.191406 712.390625 658.164062 C 716.519531 653.132812 720.519531 648.007812 724.394531 642.78125 C 728.269531 637.558594 732.015625 632.238281 735.628906 626.832031 C 739.246094 621.421875 742.722656 615.925781 746.066406 610.347656 C 749.414062 604.769531 752.617188 599.109375 755.683594 593.371094 C 758.75 587.636719 761.675781 581.824219 764.457031 575.945312 C 767.238281 570.0625 769.875 564.117188 772.363281 558.109375 C 774.851562 552.097656 777.191406 546.03125 779.382812 539.90625 C 781.578125 533.78125 783.617188 527.605469 785.503906 521.378906 C 787.394531 515.15625 789.128906 508.886719 790.707031 502.578125 C 792.289062 496.265625 793.714844 489.921875 794.984375 483.539062 C 796.253906 477.160156 797.363281 470.753906 798.320312 464.316406 C 799.273438 457.882812 800.070312 451.429688 800.707031 444.953125 C 801.34375 438.480469 801.824219 431.992188 802.140625 425.496094 C 802.460938 419 802.621094 412.496094 802.621094 405.992188 C 802.621094 399.488281 802.460938 392.984375 802.140625 386.488281 C 801.820312 379.992188 801.339844 373.503906 800.703125 367.03125 C 800.0625 360.558594 799.265625 354.105469 798.3125 347.667969 C 797.355469 341.234375 796.246094 334.828125 794.976562 328.445312 C 793.703125 322.066406 792.28125 315.722656 790.699219 309.410156 C 789.117188 303.101562 787.382812 296.835938 785.492188 290.609375 C 783.605469 284.382812 781.5625 278.210938 779.371094 272.085938 C 777.179688 265.960938 774.839844 259.894531 772.347656 253.882812 C 769.859375 247.875 767.222656 241.929688 764.441406 236.046875 C 761.660156 230.167969 758.738281 224.359375 755.667969 218.621094 C 752.601562 212.882812 749.398438 207.226562 746.054688 201.648438 C 742.707031 196.066406 739.230469 190.574219 735.613281 185.164062 C 732 179.753906 728.253906 174.4375 724.378906 169.214844 C 720.503906 163.988281 716.503906 158.863281 712.378906 153.835938 C 708.25 148.804688 704.003906 143.882812 699.632812 139.0625 C 695.265625 134.242188 690.78125 129.53125 686.179688 124.929688 C 681.582031 120.332031 676.871094 115.847656 672.050781 111.480469 C 667.230469 107.109375 662.308594 102.863281 657.277344 98.734375 C 652.25 94.609375 647.125 90.609375 641.898438 86.730469 C 636.671875 82.855469 631.355469 79.113281 625.949219 75.5 C 620.539062 71.882812 615.046875 68.40625 609.464844 65.058594 C 603.886719 61.714844 598.226562 58.507812 592.492188 55.441406 C 586.753906 52.375 580.945312 49.453125 575.066406 46.671875 C 569.183594 43.886719 563.238281 41.253906 557.230469 38.761719 C 551.21875 36.273438 545.152344 33.933594 539.027344 31.742188 C 532.902344 29.546875 526.726562 27.507812 520.503906 25.621094 C 514.277344 23.730469 508.011719 21.996094 501.699219 20.414062 C 495.390625 18.832031 489.046875 17.40625 482.664062 16.136719 C 476.285156 14.867188 469.878906 13.757812 463.445312 12.800781 C 457.007812 11.84375 450.554688 11.050781 444.082031 10.410156 C 437.605469 9.773438 431.121094 9.292969 424.625 8.972656 C 418.128906 8.652344 411.625 8.492188 405.121094 8.492188 Z M 652.566406 342.890625 C 652.210938 344 651.769531 345.078125 651.242188 346.121094 C 650.71875 347.164062 650.113281 348.15625 649.429688 349.101562 C 648.746094 350.050781 647.992188 350.9375 647.171875 351.765625 C 646.347656 352.59375 645.464844 353.351562 644.519531 354.039062 C 643.578125 354.726562 642.585938 355.335938 641.546875 355.867188 C 640.507812 356.398438 639.433594 356.84375 638.324219 357.207031 C 637.210938 357.566406 636.082031 357.839844 634.929688 358.019531 C 633.773438 358.203125 632.613281 358.292969 631.449219 358.292969 L 609.210938 358.292969 L 609.210938 581.636719 C 609.210938 582.742188 609.1875 583.851562 609.132812 584.957031 C 609.078125 586.0625 608.996094 587.164062 608.890625 588.265625 C 608.78125 589.367188 608.648438 590.464844 608.484375 591.5625 C 608.324219 592.65625 608.132812 593.746094 607.917969 594.832031 C 607.703125 595.917969 607.460938 596.996094 607.195312 598.070312 C 606.925781 599.144531 606.628906 600.210938 606.308594 601.269531 C 605.988281 602.328125 605.644531 603.378906 605.269531 604.421875 C 604.898438 605.464844 604.5 606.496094 604.078125 607.519531 C 603.65625 608.542969 603.207031 609.554688 602.734375 610.554688 C 602.261719 611.554688 601.765625 612.546875 601.246094 613.523438 C 600.722656 614.5 600.179688 615.460938 599.609375 616.410156 C 599.042969 617.359375 598.453125 618.296875 597.835938 619.214844 C 597.222656 620.136719 596.585938 621.042969 595.929688 621.933594 C 595.269531 622.820312 594.589844 623.695312 593.886719 624.550781 C 593.1875 625.40625 592.464844 626.246094 591.722656 627.066406 C 590.980469 627.886719 590.21875 628.6875 589.4375 629.472656 C 588.652344 630.253906 587.851562 631.019531 587.035156 631.761719 C 586.214844 632.507812 585.378906 633.230469 584.523438 633.933594 C 583.667969 634.636719 582.796875 635.316406 581.90625 635.976562 C 581.019531 636.636719 580.117188 637.277344 579.195312 637.890625 C 578.277344 638.507812 577.34375 639.101562 576.394531 639.671875 C 575.445312 640.242188 574.484375 640.789062 573.507812 641.308594 C 572.53125 641.832031 571.542969 642.332031 570.542969 642.804688 C 569.542969 643.28125 568.53125 643.730469 567.511719 644.15625 C 566.488281 644.578125 565.457031 644.980469 564.414062 645.351562 C 563.375 645.726562 562.324219 646.074219 561.265625 646.398438 C 560.207031 646.722656 559.140625 647.015625 558.066406 647.289062 C 556.992188 647.558594 555.914062 647.800781 554.828125 648.019531 C 553.742188 648.234375 552.652344 648.425781 551.558594 648.589844 C 550.464844 648.753906 549.367188 648.890625 548.265625 649 C 547.164062 649.113281 546.0625 649.195312 544.957031 649.25 C 543.851562 649.304688 542.742188 649.335938 541.636719 649.335938 L 268.730469 649.335938 C 267.621094 649.335938 266.511719 649.308594 265.40625 649.253906 C 264.300781 649.199219 263.195312 649.121094 262.09375 649.011719 C 260.992188 648.902344 259.890625 648.765625 258.796875 648.605469 C 257.699219 648.441406 256.609375 648.253906 255.519531 648.035156 C 254.433594 647.820312 253.355469 647.578125 252.28125 647.308594 C 251.203125 647.039062 250.136719 646.742188 249.078125 646.421875 C 248.015625 646.101562 246.964844 645.753906 245.921875 645.378906 C 244.878906 645.007812 243.84375 644.609375 242.820312 644.183594 C 241.796875 643.757812 240.785156 643.3125 239.785156 642.835938 C 238.78125 642.363281 237.792969 641.867188 236.816406 641.34375 C 235.839844 640.820312 234.875 640.273438 233.925781 639.707031 C 232.972656 639.136719 232.039062 638.542969 231.117188 637.925781 C 230.195312 637.3125 229.289062 636.675781 228.402344 636.015625 C 227.511719 635.355469 226.636719 634.671875 225.78125 633.96875 C 224.925781 633.265625 224.085938 632.542969 223.265625 631.800781 C 222.445312 631.054688 221.640625 630.292969 220.859375 629.507812 C 220.074219 628.726562 219.3125 627.921875 218.566406 627.101562 C 217.824219 626.28125 217.097656 625.441406 216.398438 624.585938 C 215.695312 623.730469 215.011719 622.855469 214.351562 621.964844 C 213.691406 621.078125 213.054688 620.171875 212.4375 619.25 C 211.824219 618.328125 211.230469 617.390625 210.660156 616.441406 C 210.089844 615.492188 209.546875 614.527344 209.023438 613.550781 C 208.5 612.574219 208.003906 611.585938 207.53125 610.582031 C 207.054688 609.582031 206.605469 608.570312 206.183594 607.546875 C 205.757812 606.519531 205.359375 605.488281 204.988281 604.445312 C 204.613281 603.402344 204.265625 602.351562 203.945312 601.289062 C 203.625 600.230469 203.328125 599.160156 203.058594 598.085938 C 202.789062 597.011719 202.546875 595.929688 202.332031 594.84375 C 202.113281 593.757812 201.925781 592.667969 201.761719 591.570312 C 201.601562 590.476562 201.464844 589.375 201.355469 588.273438 C 201.246094 587.171875 201.164062 586.066406 201.109375 584.960938 C 201.058594 583.851562 201.03125 582.746094 201.03125 581.636719 L 201.03125 358.292969 L 178.792969 358.292969 C 177.636719 358.269531 176.484375 358.160156 175.34375 357.960938 C 174.203125 357.761719 173.085938 357.472656 171.988281 357.101562 C 170.890625 356.726562 169.832031 356.269531 168.804688 355.726562 C 167.78125 355.1875 166.800781 354.574219 165.875 353.878906 C 164.945312 353.1875 164.074219 352.425781 163.265625 351.601562 C 162.453125 350.773438 161.710938 349.886719 161.039062 348.941406 C 160.367188 348 159.773438 347.007812 159.253906 345.972656 C 158.734375 344.9375 158.300781 343.867188 157.949219 342.761719 C 157.597656 341.65625 157.335938 340.53125 157.160156 339.386719 C 156.984375 338.242188 156.898438 337.089844 156.902344 335.929688 C 156.90625 334.773438 157 333.621094 157.183594 332.476562 C 157.367188 331.332031 157.640625 330.210938 158 329.109375 C 158.355469 328.007812 158.800781 326.9375 159.324219 325.90625 C 159.851562 324.875 160.453125 323.886719 161.132812 322.949219 C 161.808594 322.011719 162.558594 321.128906 163.375 320.308594 C 164.191406 319.484375 165.066406 318.730469 166 318.046875 L 365.867188 175.195312 C 367.292969 174.179688 368.753906 173.21875 370.25 172.320312 C 371.75 171.417969 373.28125 170.574219 374.84375 169.792969 C 376.40625 169.007812 377.996094 168.285156 379.617188 167.625 C 381.234375 166.964844 382.878906 166.371094 384.542969 165.835938 C 386.210938 165.304688 387.894531 164.835938 389.59375 164.433594 C 391.296875 164.03125 393.011719 163.695312 394.738281 163.425781 C 396.464844 163.15625 398.203125 162.953125 399.945312 162.820312 C 401.6875 162.683594 403.433594 162.617188 405.183594 162.617188 C 406.929688 162.617188 408.675781 162.683594 410.421875 162.820312 C 412.164062 162.953125 413.898438 163.15625 415.628906 163.425781 C 417.355469 163.695312 419.070312 164.03125 420.769531 164.433594 C 422.472656 164.835938 424.15625 165.304688 425.820312 165.835938 C 427.488281 166.371094 429.128906 166.964844 430.75 167.625 C 432.367188 168.285156 433.960938 169.007812 435.523438 169.792969 C 437.085938 170.574219 438.617188 171.417969 440.117188 172.320312 C 441.613281 173.21875 443.074219 174.179688 444.5 175.195312 L 644.367188 318.046875 C 645.320312 318.722656 646.210938 319.472656 647.042969 320.292969 C 647.878906 321.109375 648.640625 321.992188 649.335938 322.933594 C 650.03125 323.871094 650.644531 324.863281 651.179688 325.902344 C 651.71875 326.9375 652.167969 328.011719 652.535156 329.125 C 652.902344 330.234375 653.179688 331.367188 653.367188 332.519531 C 653.550781 333.671875 653.648438 334.835938 653.648438 336.003906 C 653.652344 337.171875 653.5625 338.335938 653.378906 339.488281 C 653.199219 340.644531 652.925781 341.777344 652.566406 342.890625 Z M 652.566406 342.890625 "/></g><path style=" stroke:none;fill-rule:nonzero;fill:#000000;fill-opacity:1;" d="M 451.144531 520.152344 L 451.144531 623.875 L 337.855469 623.875 L 337.855469 520.152344 C 337.855469 519.152344 337.90625 518.152344 338.003906 517.15625 C 338.101562 516.160156 338.246094 515.171875 338.441406 514.191406 C 338.636719 513.207031 338.878906 512.238281 339.167969 511.28125 C 339.457031 510.324219 339.792969 509.382812 340.175781 508.457031 C 340.558594 507.53125 340.988281 506.628906 341.457031 505.746094 C 341.929688 504.863281 342.445312 504.003906 343 503.171875 C 343.554688 502.339844 344.152344 501.535156 344.785156 500.761719 C 345.421875 499.988281 346.09375 499.246094 346.800781 498.539062 C 347.507812 497.832031 348.25 497.160156 349.023438 496.523438 C 349.796875 495.890625 350.601562 495.292969 351.433594 494.738281 C 352.265625 494.183594 353.121094 493.667969 354.007812 493.199219 C 354.890625 492.726562 355.792969 492.296875 356.71875 491.917969 C 357.644531 491.535156 358.585938 491.195312 359.542969 490.90625 C 360.5 490.617188 361.46875 490.375 362.453125 490.179688 C 363.433594 489.984375 364.421875 489.839844 365.417969 489.742188 C 366.414062 489.644531 367.414062 489.59375 368.414062 489.597656 L 420.710938 489.597656 C 421.710938 489.597656 422.707031 489.648438 423.699219 489.75 C 424.691406 489.851562 425.679688 490 426.660156 490.195312 C 427.636719 490.394531 428.605469 490.636719 429.558594 490.929688 C 430.515625 491.222656 431.453125 491.558594 432.375 491.945312 C 433.296875 492.328125 434.195312 492.757812 435.078125 493.230469 C 435.957031 493.703125 436.8125 494.21875 437.640625 494.773438 C 438.46875 495.332031 439.269531 495.925781 440.039062 496.5625 C 440.808594 497.195312 441.546875 497.867188 442.253906 498.574219 C 442.957031 499.285156 443.625 500.023438 444.257812 500.796875 C 444.890625 501.570312 445.480469 502.371094 446.035156 503.203125 C 446.589844 504.035156 447.101562 504.890625 447.570312 505.773438 C 448.039062 506.65625 448.464844 507.558594 448.84375 508.480469 C 449.222656 509.402344 449.558594 510.34375 449.847656 511.300781 C 450.136719 512.257812 450.375 513.222656 450.570312 514.203125 C 450.761719 515.183594 450.90625 516.171875 451.003906 517.164062 C 451.097656 518.160156 451.144531 519.15625 451.144531 520.152344 Z M 451.144531 520.152344 "/><path style=" stroke:none;fill-rule:nonzero;fill:#000000;fill-opacity:1;" d="M 418.597656 197.308594 L 608.40625 332.832031 L 585.550781 332.832031 C 584.691406 332.832031 583.84375 332.914062 583.003906 333.082031 C 582.164062 333.25 581.347656 333.496094 580.558594 333.824219 C 579.765625 334.152344 579.015625 334.554688 578.300781 335.027344 C 577.589844 335.503906 576.933594 336.046875 576.324219 336.652344 C 575.71875 337.257812 575.179688 337.914062 574.703125 338.628906 C 574.226562 339.339844 573.828125 340.09375 573.5 340.882812 C 573.171875 341.675781 572.921875 342.488281 572.757812 343.328125 C 572.589844 344.171875 572.507812 345.019531 572.507812 345.875 L 572.507812 582.386719 C 572.507812 583.746094 572.441406 585.101562 572.308594 586.453125 C 572.175781 587.804688 571.976562 589.148438 571.710938 590.480469 C 571.445312 591.816406 571.117188 593.132812 570.722656 594.429688 C 570.328125 595.730469 569.871094 597.011719 569.351562 598.265625 C 568.828125 599.519531 568.25 600.746094 567.609375 601.945312 C 566.96875 603.144531 566.269531 604.308594 565.515625 605.4375 C 564.761719 606.570312 563.953125 607.660156 563.089844 608.710938 C 562.230469 609.757812 561.316406 610.765625 560.355469 611.726562 C 559.394531 612.6875 558.390625 613.597656 557.339844 614.460938 C 556.289062 615.324219 555.199219 616.132812 554.070312 616.886719 C 552.9375 617.640625 551.773438 618.339844 550.578125 618.980469 C 549.378906 619.621094 548.152344 620.199219 546.894531 620.71875 C 545.640625 621.238281 544.363281 621.695312 543.0625 622.089844 C 541.761719 622.484375 540.445312 622.816406 539.113281 623.078125 C 537.777344 623.34375 536.4375 623.542969 535.085938 623.675781 C 533.730469 623.808594 532.375 623.875 531.015625 623.875 L 477.355469 623.875 L 477.355469 520.152344 C 477.355469 518.296875 477.261719 516.445312 477.078125 514.597656 C 476.894531 512.75 476.625 510.917969 476.261719 509.097656 C 475.898438 507.277344 475.449219 505.476562 474.910156 503.699219 C 474.371094 501.925781 473.746094 500.179688 473.035156 498.464844 C 472.324219 496.75 471.535156 495.070312 470.660156 493.433594 C 469.785156 491.796875 468.832031 490.207031 467.800781 488.664062 C 466.773438 487.117188 465.667969 485.628906 464.492188 484.191406 C 463.316406 482.757812 462.074219 481.382812 460.761719 480.066406 C 459.449219 478.753906 458.078125 477.507812 456.644531 476.328125 C 455.210938 475.148438 453.722656 474.039062 452.179688 473.007812 C 450.640625 471.972656 449.050781 471.015625 447.414062 470.140625 C 445.78125 469.261719 444.105469 468.464844 442.390625 467.753906 C 440.679688 467.039062 438.933594 466.410156 437.160156 465.867188 C 435.382812 465.324219 433.585938 464.871094 431.765625 464.503906 C 429.945312 464.136719 428.113281 463.859375 426.265625 463.671875 C 424.417969 463.488281 422.566406 463.390625 420.710938 463.386719 L 368.414062 463.386719 C 366.554688 463.386719 364.703125 463.480469 362.851562 463.664062 C 361.003906 463.847656 359.167969 464.121094 357.34375 464.488281 C 355.523438 464.851562 353.722656 465.304688 351.941406 465.84375 C 350.164062 466.382812 348.417969 467.011719 346.699219 467.722656 C 344.984375 468.4375 343.304688 469.230469 341.667969 470.105469 C 340.027344 470.984375 338.4375 471.9375 336.890625 472.972656 C 335.347656 474.003906 333.855469 475.109375 332.417969 476.289062 C 330.980469 477.46875 329.605469 478.714844 328.292969 480.03125 C 326.976562 481.34375 325.730469 482.71875 324.550781 484.15625 C 323.371094 485.59375 322.265625 487.085938 321.234375 488.628906 C 320.199219 490.175781 319.246094 491.765625 318.367188 493.40625 C 317.492188 495.042969 316.695312 496.722656 315.984375 498.4375 C 315.273438 500.15625 314.644531 501.902344 314.105469 503.679688 C 313.566406 505.460938 313.113281 507.261719 312.75 509.082031 C 312.382812 510.90625 312.109375 512.742188 311.925781 514.589844 C 311.742188 516.441406 311.648438 518.296875 311.648438 520.152344 L 311.648438 623.875 L 258.109375 623.875 C 256.75 623.875 255.394531 623.808594 254.042969 623.675781 C 252.691406 623.542969 251.347656 623.34375 250.015625 623.082031 C 248.679688 622.816406 247.363281 622.484375 246.0625 622.089844 C 244.765625 621.695312 243.484375 621.238281 242.230469 620.71875 C 240.976562 620.199219 239.75 619.621094 238.550781 618.980469 C 237.351562 618.339844 236.1875 617.640625 235.058594 616.886719 C 233.925781 616.132812 232.835938 615.324219 231.785156 614.460938 C 230.734375 613.597656 229.730469 612.6875 228.769531 611.726562 C 227.808594 610.765625 226.898438 609.757812 226.035156 608.710938 C 225.171875 607.660156 224.363281 606.570312 223.609375 605.4375 C 222.855469 604.308594 222.15625 603.144531 221.515625 601.945312 C 220.875 600.746094 220.296875 599.519531 219.777344 598.265625 C 219.257812 597.011719 218.800781 595.730469 218.40625 594.429688 C 218.011719 593.132812 217.679688 591.816406 217.414062 590.480469 C 217.152344 589.148438 216.953125 587.804688 216.820312 586.453125 C 216.6875 585.101562 216.621094 583.746094 216.621094 582.386719 L 216.621094 345.875 C 216.617188 345.011719 216.53125 344.160156 216.363281 343.316406 C 216.191406 342.472656 215.941406 341.652344 215.609375 340.859375 C 215.277344 340.0625 214.871094 339.308594 214.386719 338.59375 C 213.90625 337.882812 213.359375 337.222656 212.75 336.613281 C 212.136719 336.007812 211.472656 335.46875 210.753906 334.996094 C 210.035156 334.519531 209.277344 334.121094 208.476562 333.796875 C 207.679688 333.472656 206.859375 333.226562 206.011719 333.066406 C 205.167969 332.902344 204.3125 332.824219 203.453125 332.832031 L 180.597656 332.832031 L 370.402344 197.308594 C 372.148438 196.058594 373.980469 194.953125 375.902344 193.988281 C 377.820312 193.023438 379.800781 192.214844 381.847656 191.558594 C 383.890625 190.902344 385.976562 190.40625 388.097656 190.074219 C 390.21875 189.742188 392.351562 189.578125 394.5 189.578125 C 396.648438 189.578125 398.785156 189.742188 400.90625 190.074219 C 403.027344 190.40625 405.109375 190.902344 407.15625 191.558594 C 409.199219 192.214844 411.183594 193.023438 413.101562 193.988281 C 415.019531 194.953125 416.851562 196.058594 418.597656 197.308594 Z M 418.597656 197.308594 "/><g clip-rule="nonzero" clip-path="url(#900c4a8911)"><path style=" stroke:none;fill-rule:nonzero;fill:#000000;fill-opacity:1;" d="M 394.5 9.242188 C 387.996094 9.242188 381.492188 9.402344 374.996094 9.722656 C 368.5 10.039062 362.011719 10.519531 355.539062 11.15625 C 349.066406 11.792969 342.609375 12.589844 336.175781 13.542969 C 329.742188 14.5 323.332031 15.609375 316.953125 16.878906 C 310.570312 18.148438 304.226562 19.574219 297.917969 21.15625 C 291.605469 22.734375 285.339844 24.46875 279.113281 26.359375 C 272.886719 28.246094 266.710938 30.285156 260.585938 32.476562 C 254.460938 34.667969 248.394531 37.011719 242.382812 39.5 C 236.375 41.988281 230.429688 44.625 224.546875 47.40625 C 218.667969 50.1875 212.859375 53.113281 207.121094 56.179688 C 201.382812 59.246094 195.726562 62.449219 190.144531 65.792969 C 184.566406 69.140625 179.070312 72.617188 173.660156 76.234375 C 168.253906 79.847656 162.9375 83.589844 157.710938 87.46875 C 152.484375 91.34375 147.359375 95.34375 142.328125 99.46875 C 137.300781 103.597656 132.375 107.84375 127.554688 112.214844 C 122.734375 116.582031 118.027344 121.066406 113.425781 125.667969 C 108.824219 130.265625 104.339844 134.976562 99.972656 139.796875 C 95.605469 144.617188 91.355469 149.542969 87.230469 154.570312 C 83.101562 159.597656 79.101562 164.726562 75.226562 169.953125 C 71.351562 175.175781 67.605469 180.492188 63.992188 185.902344 C 60.378906 191.3125 56.898438 196.804688 53.554688 202.386719 C 50.210938 207.964844 47.003906 213.625 43.9375 219.363281 C 40.871094 225.097656 37.945312 230.90625 35.164062 236.789062 C 32.382812 242.667969 29.75 248.613281 27.257812 254.625 C 24.769531 260.636719 22.429688 266.703125 20.238281 272.828125 C 18.046875 278.953125 16.003906 285.128906 14.117188 291.355469 C 12.230469 297.578125 10.496094 303.847656 8.914062 310.15625 C 7.332031 316.46875 5.90625 322.8125 4.640625 329.195312 C 3.371094 335.574219 2.257812 341.980469 1.304688 348.417969 C 0.347656 354.851562 -0.449219 361.304688 -1.085938 367.78125 C -1.722656 374.253906 -2.199219 380.738281 -2.519531 387.238281 C -2.839844 393.734375 -3 400.238281 -3 406.742188 C -3 413.246094 -2.839844 419.75 -2.519531 426.246094 C -2.199219 432.742188 -1.722656 439.230469 -1.085938 445.703125 C -0.449219 452.179688 0.347656 458.632812 1.304688 465.066406 C 2.257812 471.503906 3.371094 477.910156 4.640625 484.289062 C 5.90625 490.671875 7.332031 497.015625 8.914062 503.328125 C 10.496094 509.636719 12.230469 515.90625 14.117188 522.128906 C 16.003906 528.355469 18.046875 534.53125 20.238281 540.65625 C 22.429688 546.78125 24.769531 552.847656 27.257812 558.859375 C 29.75 564.867188 32.382812 570.8125 35.164062 576.695312 C 37.945312 582.574219 40.871094 588.386719 43.9375 594.121094 C 47.003906 599.859375 50.210938 605.519531 53.554688 611.097656 C 56.898438 616.675781 60.378906 622.171875 63.992188 627.582031 C 67.605469 632.988281 71.351562 638.308594 75.226562 643.53125 C 79.101562 648.757812 83.101562 653.882812 87.230469 658.914062 C 91.355469 663.941406 95.605469 668.867188 99.972656 673.6875 C 104.339844 678.507812 108.824219 683.21875 113.425781 687.816406 C 118.027344 692.417969 122.734375 696.902344 127.554688 701.269531 C 132.375 705.636719 137.300781 709.886719 142.328125 714.011719 C 147.359375 718.140625 152.484375 722.140625 157.710938 726.015625 C 162.9375 729.890625 168.253906 733.636719 173.660156 737.25 C 179.070312 740.863281 184.566406 744.34375 190.144531 747.6875 C 195.726562 751.035156 201.382812 754.238281 207.121094 757.304688 C 212.859375 760.371094 218.667969 763.296875 224.546875 766.078125 C 230.429688 768.859375 236.375 771.496094 242.382812 773.984375 C 248.394531 776.472656 254.460938 778.8125 260.585938 781.003906 C 266.710938 783.195312 272.886719 785.238281 279.113281 787.125 C 285.339844 789.015625 291.605469 790.75 297.917969 792.328125 C 304.226562 793.910156 310.570312 795.335938 316.953125 796.605469 C 323.332031 797.875 329.742188 798.984375 336.175781 799.941406 C 342.609375 800.894531 349.066406 801.691406 355.539062 802.328125 C 362.011719 802.964844 368.5 803.445312 374.996094 803.761719 C 381.492188 804.082031 387.996094 804.242188 394.5 804.242188 C 401.007812 804.242188 407.507812 804.082031 414.003906 803.761719 C 420.503906 803.445312 426.988281 802.964844 433.460938 802.328125 C 439.9375 801.691406 446.390625 800.894531 452.828125 799.9375 C 459.261719 798.984375 465.667969 797.871094 472.050781 796.605469 C 478.429688 795.335938 484.773438 793.910156 491.085938 792.328125 C 497.394531 790.75 503.664062 789.015625 509.890625 787.125 C 516.113281 785.238281 522.289062 783.195312 528.414062 781.003906 C 534.539062 778.8125 540.609375 776.472656 546.617188 773.984375 C 552.628906 771.496094 558.574219 768.859375 564.453125 766.078125 C 570.335938 763.296875 576.144531 760.371094 581.882812 757.304688 C 587.617188 754.238281 593.277344 751.035156 598.855469 747.6875 C 604.4375 744.34375 609.929688 740.863281 615.339844 737.25 C 620.75 733.636719 626.066406 729.890625 631.292969 726.015625 C 636.515625 722.140625 641.644531 718.140625 646.671875 714.011719 C 651.699219 709.886719 656.625 705.636719 661.445312 701.269531 C 666.265625 696.902344 670.976562 692.417969 675.574219 687.816406 C 680.175781 683.21875 684.660156 678.507812 689.027344 673.6875 C 693.398438 668.867188 697.644531 663.941406 701.773438 658.914062 C 705.898438 653.882812 709.902344 648.757812 713.777344 643.53125 C 717.652344 638.308594 721.394531 632.988281 725.011719 627.582031 C 728.625 622.171875 732.105469 616.675781 735.449219 611.097656 C 738.792969 605.519531 742 599.859375 745.066406 594.121094 C 748.132812 588.386719 751.054688 582.574219 753.835938 576.695312 C 756.617188 570.8125 759.253906 564.867188 761.742188 558.859375 C 764.234375 552.847656 766.574219 546.78125 768.765625 540.65625 C 770.957031 534.53125 772.996094 528.355469 774.886719 522.128906 C 776.773438 515.90625 778.507812 509.636719 780.089844 503.328125 C 781.667969 497.015625 783.09375 490.671875 784.363281 484.289062 C 785.632812 477.910156 786.742188 471.503906 787.699219 465.066406 C 788.652344 458.632812 789.449219 452.179688 790.085938 445.703125 C 790.722656 439.230469 791.203125 432.742188 791.523438 426.246094 C 791.839844 419.75 792 413.246094 792 406.742188 C 792 400.238281 791.839844 393.734375 791.519531 387.238281 C 791.199219 380.742188 790.722656 374.253906 790.082031 367.78125 C 789.445312 361.308594 788.648438 354.855469 787.691406 348.417969 C 786.738281 341.984375 785.625 335.578125 784.355469 329.195312 C 783.085938 322.816406 781.660156 316.472656 780.078125 310.160156 C 778.496094 303.851562 776.761719 297.585938 774.875 291.359375 C 772.984375 285.132812 770.945312 278.960938 768.753906 272.835938 C 766.558594 266.710938 764.21875 260.644531 761.730469 254.632812 C 759.238281 248.625 756.605469 242.679688 753.824219 236.796875 C 751.039062 230.917969 748.117188 225.109375 745.050781 219.371094 C 741.984375 213.632812 738.777344 207.976562 735.433594 202.398438 C 732.089844 196.816406 728.609375 191.324219 724.996094 185.914062 C 721.378906 180.503906 717.636719 175.1875 713.761719 169.964844 C 709.886719 164.738281 705.882812 159.613281 701.757812 154.585938 C 697.628906 149.554688 693.382812 144.632812 689.015625 139.8125 C 684.644531 134.992188 680.160156 130.28125 675.5625 125.679688 C 670.960938 121.082031 666.25 116.597656 661.433594 112.230469 C 656.613281 107.859375 651.6875 103.613281 646.660156 99.484375 C 641.628906 95.359375 636.503906 91.359375 631.277344 87.480469 C 626.054688 83.605469 620.738281 79.863281 615.328125 76.25 C 609.917969 72.632812 604.425781 69.15625 598.847656 65.808594 C 593.265625 62.464844 587.609375 59.257812 581.871094 56.191406 C 576.132812 53.125 570.324219 50.203125 564.445312 47.421875 C 558.566406 44.636719 552.621094 42.003906 546.609375 39.511719 C 540.601562 37.023438 534.53125 34.683594 528.40625 32.492188 C 522.285156 30.296875 516.109375 28.257812 509.882812 26.371094 C 503.660156 24.480469 497.390625 22.746094 491.082031 21.164062 C 484.769531 19.582031 478.425781 18.15625 472.046875 16.886719 C 465.664062 15.617188 459.257812 14.507812 452.824219 13.550781 C 446.390625 12.59375 439.933594 11.800781 433.460938 11.160156 C 426.988281 10.523438 420.503906 10.042969 414.003906 9.722656 C 407.507812 9.402344 401.007812 9.242188 394.5 9.242188 Z M 641.945312 343.640625 C 641.589844 344.75 641.148438 345.828125 640.621094 346.871094 C 640.097656 347.914062 639.492188 348.90625 638.808594 349.851562 C 638.125 350.800781 637.375 351.6875 636.550781 352.515625 C 635.726562 353.34375 634.84375 354.101562 633.902344 354.789062 C 632.957031 355.476562 631.964844 356.085938 630.925781 356.617188 C 629.886719 357.148438 628.8125 357.59375 627.703125 357.957031 C 626.59375 358.316406 625.460938 358.589844 624.308594 358.769531 C 623.15625 358.953125 621.996094 359.042969 620.828125 359.042969 L 598.59375 359.042969 L 598.59375 582.386719 C 598.59375 583.492188 598.566406 584.601562 598.511719 585.707031 C 598.457031 586.8125 598.378906 587.914062 598.269531 589.015625 C 598.160156 590.117188 598.027344 591.214844 597.863281 592.3125 C 597.703125 593.40625 597.515625 594.496094 597.300781 595.582031 C 597.082031 596.667969 596.84375 597.746094 596.574219 598.820312 C 596.304688 599.894531 596.011719 600.960938 595.691406 602.019531 C 595.371094 603.078125 595.023438 604.128906 594.652344 605.171875 C 594.277344 606.214844 593.882812 607.246094 593.457031 608.269531 C 593.035156 609.292969 592.585938 610.304688 592.117188 611.304688 C 591.644531 612.304688 591.144531 613.296875 590.625 614.273438 C 590.105469 615.25 589.558594 616.210938 588.992188 617.160156 C 588.421875 618.109375 587.832031 619.046875 587.21875 619.964844 C 586.601562 620.886719 585.96875 621.792969 585.308594 622.683594 C 584.648438 623.570312 583.96875 624.445312 583.269531 625.300781 C 582.566406 626.15625 581.84375 626.996094 581.101562 627.816406 C 580.359375 628.636719 579.597656 629.4375 578.816406 630.222656 C 578.035156 631.003906 577.234375 631.769531 576.414062 632.511719 C 575.59375 633.257812 574.757812 633.980469 573.902344 634.683594 C 573.046875 635.386719 572.175781 636.066406 571.289062 636.726562 C 570.398438 637.386719 569.496094 638.027344 568.574219 638.640625 C 567.65625 639.257812 566.722656 639.851562 565.773438 640.421875 C 564.824219 640.992188 563.863281 641.539062 562.886719 642.058594 C 561.910156 642.582031 560.925781 643.082031 559.925781 643.554688 C 558.925781 644.03125 557.914062 644.480469 556.890625 644.90625 C 555.867188 645.328125 554.835938 645.730469 553.796875 646.101562 C 552.753906 646.476562 551.703125 646.824219 550.644531 647.148438 C 549.585938 647.472656 548.519531 647.765625 547.445312 648.039062 C 546.375 648.308594 545.292969 648.550781 544.210938 648.769531 C 543.125 648.984375 542.035156 649.175781 540.941406 649.339844 C 539.84375 649.503906 538.746094 649.640625 537.644531 649.75 C 536.542969 649.863281 535.441406 649.945312 534.335938 650 C 533.230469 650.054688 532.125 650.085938 531.015625 650.085938 L 258.109375 650.085938 C 257 650.085938 255.894531 650.058594 254.785156 650.003906 C 253.679688 649.949219 252.574219 649.871094 251.472656 649.761719 C 250.371094 649.652344 249.269531 649.515625 248.175781 649.355469 C 247.078125 649.191406 245.988281 649.003906 244.902344 648.785156 C 243.816406 648.570312 242.734375 648.328125 241.660156 648.058594 C 240.585938 647.789062 239.515625 647.492188 238.457031 647.171875 C 237.398438 646.851562 236.34375 646.503906 235.300781 646.128906 C 234.257812 645.757812 233.226562 645.359375 232.203125 644.933594 C 231.179688 644.507812 230.164062 644.0625 229.164062 643.585938 C 228.164062 643.113281 227.171875 642.617188 226.195312 642.09375 C 225.21875 641.570312 224.253906 641.023438 223.304688 640.457031 C 222.355469 639.886719 221.417969 639.292969 220.496094 638.675781 C 219.574219 638.0625 218.671875 637.425781 217.78125 636.765625 C 216.890625 636.105469 216.015625 635.421875 215.160156 634.71875 C 214.304688 634.015625 213.464844 633.292969 212.644531 632.550781 C 211.824219 631.804688 211.023438 631.042969 210.238281 630.257812 C 209.453125 629.476562 208.691406 628.671875 207.945312 627.851562 C 207.203125 627.03125 206.480469 626.191406 205.777344 625.335938 C 205.074219 624.480469 204.390625 623.605469 203.730469 622.714844 C 203.074219 621.828125 202.433594 620.921875 201.820312 620 C 201.203125 619.078125 200.609375 618.140625 200.042969 617.191406 C 199.472656 616.242188 198.925781 615.277344 198.402344 614.300781 C 197.882812 613.324219 197.382812 612.335938 196.910156 611.332031 C 196.4375 610.332031 195.988281 609.320312 195.5625 608.296875 C 195.140625 607.269531 194.742188 606.238281 194.367188 605.195312 C 193.992188 604.152344 193.644531 603.101562 193.324219 602.039062 C 193.003906 600.980469 192.707031 599.910156 192.4375 598.835938 C 192.167969 597.761719 191.925781 596.679688 191.710938 595.59375 C 191.496094 594.507812 191.304688 593.417969 191.140625 592.320312 C 190.980469 591.226562 190.84375 590.125 190.734375 589.023438 C 190.625 587.921875 190.546875 586.816406 190.492188 585.710938 C 190.4375 584.601562 190.410156 583.496094 190.410156 582.386719 L 190.410156 359.042969 L 168.175781 359.042969 C 167.015625 359.019531 165.867188 358.910156 164.722656 358.710938 C 163.582031 358.511719 162.464844 358.222656 161.367188 357.851562 C 160.269531 357.476562 159.210938 357.019531 158.183594 356.476562 C 157.160156 355.9375 156.183594 355.324219 155.253906 354.628906 C 154.324219 353.9375 153.453125 353.175781 152.644531 352.351562 C 151.832031 351.523438 151.09375 350.636719 150.417969 349.691406 C 149.746094 348.75 149.152344 347.757812 148.632812 346.722656 C 148.117188 345.6875 147.679688 344.617188 147.332031 343.511719 C 146.980469 342.40625 146.714844 341.28125 146.539062 340.136719 C 146.363281 338.992188 146.277344 337.839844 146.28125 336.679688 C 146.289062 335.523438 146.382812 334.371094 146.566406 333.226562 C 146.75 332.082031 147.019531 330.960938 147.378906 329.859375 C 147.738281 328.757812 148.179688 327.6875 148.703125 326.65625 C 149.230469 325.625 149.832031 324.636719 150.511719 323.699219 C 151.191406 322.761719 151.9375 321.878906 152.753906 321.058594 C 153.570312 320.234375 154.445312 319.480469 155.378906 318.796875 L 355.246094 175.945312 C 356.671875 174.929688 358.132812 173.96875 359.632812 173.070312 C 361.128906 172.167969 362.660156 171.324219 364.222656 170.542969 C 365.785156 169.757812 367.378906 169.035156 368.996094 168.375 C 370.617188 167.714844 372.257812 167.121094 373.925781 166.585938 C 375.589844 166.054688 377.273438 165.585938 378.976562 165.183594 C 380.675781 164.78125 382.390625 164.445312 384.117188 164.175781 C 385.847656 163.90625 387.582031 163.703125 389.324219 163.570312 C 391.070312 163.433594 392.816406 163.367188 394.5625 163.367188 C 396.3125 163.367188 398.058594 163.433594 399.800781 163.570312 C 401.542969 163.703125 403.28125 163.90625 405.007812 164.175781 C 406.734375 164.445312 408.449219 164.78125 410.152344 165.183594 C 411.851562 165.585938 413.535156 166.054688 415.203125 166.585938 C 416.867188 167.121094 418.511719 167.714844 420.128906 168.375 C 421.75 169.035156 423.339844 169.757812 424.902344 170.542969 C 426.464844 171.324219 427.996094 172.167969 429.496094 173.070312 C 430.992188 173.96875 432.453125 174.929688 433.878906 175.945312 L 633.746094 318.796875 C 634.699219 319.472656 635.589844 320.222656 636.425781 321.042969 C 637.257812 321.859375 638.023438 322.742188 638.714844 323.683594 C 639.410156 324.621094 640.023438 325.613281 640.5625 326.652344 C 641.097656 327.6875 641.550781 328.761719 641.917969 329.875 C 642.28125 330.984375 642.558594 332.117188 642.746094 333.269531 C 642.933594 334.421875 643.027344 335.585938 643.03125 336.753906 C 643.03125 337.921875 642.941406 339.085938 642.761719 340.238281 C 642.578125 341.394531 642.304688 342.527344 641.945312 343.640625 Z M 641.945312 343.640625 "/></g></g></svg>