<svg xmlns="http://www.w3.org/2000/svg" xmlns:xlink="http://www.w3.org/1999/xlink" width="1080" zoomAndPan="magnify" viewBox="0 0 810 809.999993" height="1080" preserveAspectRatio="xMidYMid meet" version="1.2"><defs><clipPath id="9f3bc5ddb6"><path d="M 6.75 8.382812 L 800.25 8.382812 L 800.25 801.882812 L 6.75 801.882812 Z M 6.75 8.382812 "/></clipPath><clipPath id="5b026fb18d"><path d="M 6.75 8.382812 L 800 8.382812 L 800 801.882812 L 6.75 801.882812 Z M 6.75 8.382812 "/></clipPath></defs><g id="51c881293e"><path style=" stroke:none;fill-rule:nonzero;fill:#000000;fill-opacity:1;" d="M 460.035156 518.332031 L 460.035156 621.859375 L 346.964844 621.859375 L 346.964844 518.332031 C 346.960938 517.332031 347.011719 516.335938 347.109375 515.339844 C 347.207031 514.347656 347.351562 513.359375 347.546875 512.378906 C 347.738281 511.398438 347.980469 510.429688 348.273438 509.476562 C 348.5625 508.519531 348.898438 507.578125 349.277344 506.65625 C 349.660156 505.730469 350.085938 504.832031 350.558594 503.949219 C 351.027344 503.066406 351.542969 502.210938 352.097656 501.378906 C 352.652344 500.550781 353.246094 499.75 353.878906 498.976562 C 354.511719 498.203125 355.183594 497.464844 355.890625 496.757812 C 356.597656 496.050781 357.335938 495.382812 358.109375 494.746094 C 358.878906 494.113281 359.683594 493.519531 360.511719 492.964844 C 361.34375 492.410156 362.199219 491.894531 363.082031 491.425781 C 363.960938 490.953125 364.863281 490.527344 365.789062 490.144531 C 366.710938 489.765625 367.652344 489.429688 368.605469 489.140625 C 369.5625 488.847656 370.53125 488.609375 371.511719 488.414062 C 372.492188 488.21875 373.480469 488.074219 374.472656 487.976562 C 375.46875 487.878906 376.464844 487.828125 377.464844 487.832031 L 429.660156 487.832031 C 430.65625 487.832031 431.652344 487.882812 432.644531 487.984375 C 433.636719 488.085938 434.621094 488.234375 435.597656 488.429688 C 436.574219 488.625 437.539062 488.871094 438.492188 489.164062 C 439.445312 489.453125 440.382812 489.792969 441.300781 490.175781 C 442.222656 490.558594 443.121094 490.984375 444 491.457031 C 444.878906 491.929688 445.730469 492.445312 446.558594 493 C 447.386719 493.554688 448.183594 494.148438 448.953125 494.785156 C 449.722656 495.417969 450.457031 496.085938 451.160156 496.792969 C 451.863281 497.5 452.53125 498.238281 453.164062 499.011719 C 453.792969 499.78125 454.386719 500.582031 454.9375 501.414062 C 455.488281 502.242188 456 503.097656 456.46875 503.976562 C 456.9375 504.859375 457.359375 505.757812 457.738281 506.679688 C 458.121094 507.601562 458.453125 508.539062 458.742188 509.492188 C 459.027344 510.449219 459.269531 511.414062 459.460938 512.390625 C 459.65625 513.371094 459.800781 514.355469 459.894531 515.347656 C 459.992188 516.339844 460.039062 517.335938 460.035156 518.332031 Z M 460.035156 518.332031 "/><path style=" stroke:none;fill-rule:nonzero;fill:#000000;fill-opacity:1;" d="M 427.554688 196.09375 L 617 331.363281 L 594.1875 331.363281 C 593.332031 331.363281 592.488281 331.445312 591.648438 331.613281 C 590.808594 331.777344 589.996094 332.027344 589.207031 332.351562 C 588.414062 332.679688 587.664062 333.082031 586.953125 333.554688 C 586.242188 334.03125 585.585938 334.570312 584.980469 335.175781 C 584.378906 335.777344 583.835938 336.4375 583.363281 337.148438 C 582.886719 337.859375 582.488281 338.609375 582.160156 339.398438 C 581.832031 340.1875 581.585938 341.003906 581.417969 341.839844 C 581.253906 342.679688 581.167969 343.527344 581.167969 344.378906 L 581.167969 580.445312 C 581.167969 581.804688 581.105469 583.15625 580.972656 584.507812 C 580.839844 585.855469 580.640625 587.195312 580.375 588.527344 C 580.109375 589.855469 579.78125 591.171875 579.386719 592.46875 C 578.996094 593.765625 578.539062 595.042969 578.019531 596.296875 C 577.5 597.546875 576.921875 598.773438 576.28125 599.96875 C 575.640625 601.164062 574.945312 602.328125 574.191406 603.453125 C 573.4375 604.582031 572.632812 605.671875 571.773438 606.71875 C 570.910156 607.769531 570 608.773438 569.042969 609.730469 C 568.082031 610.691406 567.078125 611.597656 566.03125 612.460938 C 564.984375 613.320312 563.894531 614.128906 562.765625 614.878906 C 561.640625 615.632812 560.476562 616.332031 559.28125 616.96875 C 558.085938 617.609375 556.859375 618.1875 555.605469 618.707031 C 554.355469 619.226562 553.078125 619.683594 551.78125 620.074219 C 550.484375 620.46875 549.167969 620.796875 547.839844 621.0625 C 546.507812 621.328125 545.167969 621.527344 543.816406 621.660156 C 542.46875 621.792969 541.113281 621.859375 539.757812 621.859375 L 486.199219 621.859375 L 486.199219 518.332031 C 486.195312 516.476562 486.105469 514.628906 485.921875 512.785156 C 485.738281 510.941406 485.46875 509.113281 485.105469 507.292969 C 484.742188 505.476562 484.292969 503.683594 483.757812 501.910156 C 483.21875 500.136719 482.59375 498.394531 481.886719 496.683594 C 481.179688 494.96875 480.386719 493.296875 479.515625 491.664062 C 478.640625 490.027344 477.691406 488.441406 476.664062 486.898438 C 475.636719 485.359375 474.535156 483.871094 473.359375 482.4375 C 472.183594 481.003906 470.945312 479.632812 469.636719 478.320312 C 468.328125 477.007812 466.957031 475.765625 465.527344 474.585938 C 464.09375 473.410156 462.609375 472.304688 461.070312 471.273438 C 459.53125 470.242188 457.945312 469.289062 456.3125 468.410156 C 454.683594 467.535156 453.011719 466.742188 451.300781 466.027344 C 449.589844 465.316406 447.847656 464.6875 446.078125 464.148438 C 444.304688 463.605469 442.511719 463.152344 440.695312 462.785156 C 438.878906 462.421875 437.046875 462.144531 435.203125 461.957031 C 433.363281 461.769531 431.511719 461.675781 429.660156 461.671875 L 377.464844 461.671875 C 375.609375 461.671875 373.757812 461.765625 371.910156 461.949219 C 370.066406 462.132812 368.234375 462.40625 366.414062 462.769531 C 364.59375 463.132812 362.796875 463.582031 361.023438 464.125 C 359.246094 464.664062 357.503906 465.289062 355.789062 466 C 354.074219 466.710938 352.402344 467.503906 350.765625 468.378906 C 349.128906 469.253906 347.539062 470.207031 346 471.238281 C 344.457031 472.269531 342.96875 473.375 341.535156 474.550781 C 340.101562 475.726562 338.726562 476.972656 337.417969 478.285156 C 336.105469 479.59375 334.859375 480.96875 333.683594 482.402344 C 332.503906 483.835938 331.402344 485.324219 330.371094 486.867188 C 329.339844 488.410156 328.386719 489.996094 327.511719 491.632812 C 326.636719 493.269531 325.84375 494.945312 325.132812 496.65625 C 324.421875 498.371094 323.796875 500.113281 323.257812 501.890625 C 322.714844 503.664062 322.265625 505.460938 321.902344 507.28125 C 321.539062 509.101562 321.265625 510.933594 321.082031 512.777344 C 320.898438 514.625 320.804688 516.476562 320.800781 518.332031 L 320.800781 621.859375 L 267.363281 621.859375 C 266.007812 621.859375 264.65625 621.792969 263.304688 621.660156 C 261.957031 621.527344 260.617188 621.328125 259.285156 621.0625 C 257.957031 620.796875 256.640625 620.46875 255.34375 620.074219 C 254.046875 619.683594 252.769531 619.226562 251.515625 618.707031 C 250.265625 618.1875 249.039062 617.609375 247.84375 616.96875 C 246.648438 616.332031 245.484375 615.632812 244.355469 614.878906 C 243.230469 614.128906 242.140625 613.320312 241.09375 612.460938 C 240.042969 611.597656 239.039062 610.691406 238.082031 609.730469 C 237.121094 608.773438 236.210938 607.769531 235.351562 606.71875 C 234.492188 605.671875 233.683594 604.582031 232.929688 603.453125 C 232.179688 602.328125 231.480469 601.164062 230.84375 599.96875 C 230.203125 598.773438 229.625 597.546875 229.105469 596.296875 C 228.585938 595.042969 228.128906 593.765625 227.734375 592.46875 C 227.34375 591.171875 227.011719 589.855469 226.75 588.527344 C 226.484375 587.195312 226.285156 585.855469 226.152344 584.507812 C 226.019531 583.15625 225.953125 581.804688 225.953125 580.445312 L 225.953125 344.378906 C 225.953125 343.519531 225.867188 342.671875 225.695312 341.828125 C 225.527344 340.984375 225.277344 340.167969 224.945312 339.375 C 224.613281 338.582031 224.207031 337.828125 223.726562 337.113281 C 223.246094 336.402344 222.699219 335.742188 222.089844 335.140625 C 221.480469 334.535156 220.816406 333.996094 220.097656 333.519531 C 219.382812 333.046875 218.625 332.648438 217.828125 332.324219 C 217.03125 332 216.210938 331.757812 215.367188 331.59375 C 214.523438 331.433594 213.671875 331.355469 212.8125 331.363281 L 190 331.363281 L 379.445312 196.09375 C 381.191406 194.847656 383.019531 193.742188 384.933594 192.78125 C 386.851562 191.816406 388.828125 191.007812 390.871094 190.355469 C 392.910156 189.699219 394.988281 189.207031 397.109375 188.875 C 399.226562 188.542969 401.355469 188.378906 403.5 188.378906 C 405.644531 188.378906 407.773438 188.542969 409.890625 188.875 C 412.011719 189.207031 414.089844 189.699219 416.128906 190.355469 C 418.171875 191.007812 420.148438 191.816406 422.066406 192.78125 C 423.980469 193.742188 425.808594 194.847656 427.554688 196.09375 Z M 427.554688 196.09375 "/><g clip-rule="nonzero" clip-path="url(#9f3bc5ddb6)"><path style=" stroke:none;fill-rule:nonzero;fill:#000000;fill-opacity:1;" d="M 403.5 8.382812 C 397.007812 8.382812 390.519531 8.542969 384.03125 8.859375 C 377.546875 9.179688 371.074219 9.65625 364.613281 10.292969 C 358.148438 10.929688 351.707031 11.722656 345.285156 12.675781 C 338.863281 13.628906 332.464844 14.738281 326.097656 16.007812 C 319.730469 17.273438 313.394531 18.695312 307.097656 20.273438 C 300.800781 21.851562 294.542969 23.582031 288.328125 25.46875 C 282.117188 27.351562 275.953125 29.386719 269.839844 31.574219 C 263.726562 33.761719 257.667969 36.097656 251.671875 38.582031 C 245.671875 41.070312 239.738281 43.699219 233.867188 46.476562 C 227.996094 49.25 222.199219 52.171875 216.472656 55.230469 C 210.746094 58.292969 205.097656 61.492188 199.53125 64.828125 C 193.960938 68.167969 188.476562 71.640625 183.078125 75.246094 C 177.679688 78.855469 172.371094 82.59375 167.15625 86.460938 C 161.941406 90.328125 156.824219 94.320312 151.804688 98.441406 C 146.785156 102.558594 141.871094 106.800781 137.058594 111.160156 C 132.246094 115.519531 127.546875 119.996094 122.957031 124.589844 C 118.363281 129.179688 113.886719 133.882812 109.527344 138.691406 C 105.167969 143.503906 100.925781 148.417969 96.808594 153.4375 C 92.6875 158.457031 88.695312 163.574219 84.828125 168.789062 C 80.960938 174.003906 77.222656 179.3125 73.613281 184.710938 C 70.007812 190.109375 66.535156 195.59375 63.195312 201.164062 C 59.859375 206.730469 56.660156 212.378906 53.597656 218.105469 C 50.535156 223.832031 47.617188 229.632812 44.84375 235.5 C 42.066406 241.371094 39.4375 247.304688 36.949219 253.304688 C 34.464844 259.300781 32.128906 265.359375 29.941406 271.472656 C 27.753906 277.585938 25.71875 283.75 23.832031 289.960938 C 21.949219 296.175781 20.21875 302.433594 18.640625 308.730469 C 17.0625 315.027344 15.640625 321.363281 14.375 327.730469 C 13.105469 334.097656 11.996094 340.496094 11.042969 346.917969 C 10.089844 353.339844 9.296875 359.78125 8.660156 366.246094 C 8.023438 372.707031 7.546875 379.179688 7.226562 385.664062 C 6.910156 392.152344 6.75 398.640625 6.75 405.132812 C 6.75 411.625 6.910156 418.117188 7.226562 424.601562 C 7.546875 431.085938 8.023438 437.558594 8.660156 444.019531 C 9.296875 450.484375 10.089844 456.925781 11.042969 463.347656 C 11.996094 469.769531 13.105469 476.167969 14.375 482.535156 C 15.640625 488.902344 17.0625 495.238281 18.640625 501.535156 C 20.21875 507.832031 21.949219 514.089844 23.832031 520.304688 C 25.71875 526.515625 27.753906 532.679688 29.941406 538.792969 C 32.128906 544.90625 34.464844 550.964844 36.949219 556.960938 C 39.4375 562.960938 42.066406 568.894531 44.84375 574.765625 C 47.617188 580.636719 50.535156 586.433594 53.597656 592.160156 C 56.660156 597.886719 59.859375 603.535156 63.195312 609.101562 C 66.535156 614.671875 70.007812 620.15625 73.613281 625.554688 C 77.222656 630.953125 80.960938 636.261719 84.828125 641.476562 C 88.695312 646.691406 92.6875 651.808594 96.808594 656.828125 C 100.925781 661.847656 105.167969 666.761719 109.527344 671.574219 C 113.886719 676.386719 118.363281 681.085938 122.957031 685.675781 C 127.546875 690.269531 132.246094 694.746094 137.058594 699.105469 C 141.871094 703.464844 146.785156 707.707031 151.804688 711.824219 C 156.824219 715.945312 161.941406 719.9375 167.15625 723.804688 C 172.371094 727.671875 177.679688 731.410156 183.078125 735.019531 C 188.476562 738.625 193.960938 742.097656 199.53125 745.4375 C 205.097656 748.773438 210.746094 751.972656 216.472656 755.035156 C 222.199219 758.097656 227.996094 761.015625 233.867188 763.789062 C 239.738281 766.566406 245.671875 769.199219 251.671875 771.683594 C 257.667969 774.167969 263.726562 776.503906 269.839844 778.691406 C 275.953125 780.878906 282.117188 782.914062 288.328125 784.800781 C 294.542969 786.683594 300.800781 788.414062 307.097656 789.992188 C 313.394531 791.570312 319.730469 792.992188 326.097656 794.257812 C 332.464844 795.527344 338.863281 796.636719 345.285156 797.589844 C 351.707031 798.542969 358.148438 799.335938 364.613281 799.972656 C 371.074219 800.609375 377.546875 801.085938 384.03125 801.40625 C 390.519531 801.722656 397.007812 801.882812 403.5 801.882812 C 409.992188 801.882812 416.480469 801.722656 422.96875 801.40625 C 429.453125 801.085938 435.925781 800.609375 442.386719 799.972656 C 448.851562 799.335938 455.292969 798.542969 461.714844 797.589844 C 468.136719 796.636719 474.535156 795.527344 480.902344 794.257812 C 487.269531 792.992188 493.605469 791.570312 499.902344 789.992188 C 506.199219 788.414062 512.457031 786.683594 518.671875 784.800781 C 524.882812 782.914062 531.046875 780.878906 537.160156 778.691406 C 543.273438 776.503906 549.332031 774.167969 555.328125 771.683594 C 561.328125 769.199219 567.261719 766.566406 573.132812 763.789062 C 579.003906 761.015625 584.800781 758.097656 590.527344 755.035156 C 596.253906 751.972656 601.902344 748.773438 607.46875 745.4375 C 613.039062 742.097656 618.523438 738.625 623.921875 735.019531 C 629.320312 731.410156 634.628906 727.671875 639.84375 723.804688 C 645.058594 719.9375 650.175781 715.945312 655.195312 711.824219 C 660.214844 707.707031 665.128906 703.464844 669.941406 699.105469 C 674.753906 694.746094 679.453125 690.269531 684.042969 685.675781 C 688.636719 681.085938 693.113281 676.386719 697.472656 671.574219 C 701.832031 666.761719 706.074219 661.847656 710.191406 656.828125 C 714.3125 651.808594 718.304688 646.691406 722.171875 641.476562 C 726.039062 636.261719 729.777344 630.953125 733.386719 625.554688 C 736.992188 620.15625 740.464844 614.671875 743.804688 609.101562 C 747.140625 603.535156 750.339844 597.886719 753.402344 592.160156 C 756.464844 586.433594 759.382812 580.636719 762.15625 574.765625 C 764.933594 568.894531 767.5625 562.960938 770.050781 556.960938 C 772.535156 550.964844 774.871094 544.90625 777.058594 538.792969 C 779.246094 532.679688 781.28125 526.515625 783.167969 520.304688 C 785.050781 514.089844 786.78125 507.832031 788.359375 501.535156 C 789.9375 495.238281 791.359375 488.902344 792.625 482.535156 C 793.894531 476.167969 795.003906 469.769531 795.957031 463.347656 C 796.910156 456.925781 797.703125 450.484375 798.339844 444.019531 C 798.976562 437.558594 799.453125 431.085938 799.773438 424.601562 C 800.089844 418.117188 800.25 411.625 800.25 405.132812 C 800.25 398.640625 800.089844 392.152344 799.769531 385.667969 C 799.449219 379.179688 798.972656 372.707031 798.335938 366.246094 C 797.699219 359.785156 796.902344 353.34375 795.949219 346.921875 C 794.996094 340.496094 793.886719 334.101562 792.617188 327.734375 C 791.351562 321.367188 789.929688 315.035156 788.351562 308.734375 C 786.773438 302.4375 785.039062 296.179688 783.15625 289.96875 C 781.269531 283.753906 779.234375 277.59375 777.046875 271.480469 C 774.855469 265.367188 772.519531 259.308594 770.035156 253.3125 C 767.550781 247.3125 764.921875 241.378906 762.144531 235.507812 C 759.367188 229.640625 756.449219 223.84375 753.386719 218.117188 C 750.328125 212.390625 747.125 206.742188 743.789062 201.171875 C 740.449219 195.605469 736.976562 190.121094 733.371094 184.722656 C 729.761719 179.324219 726.023438 174.015625 722.15625 168.800781 C 718.289062 163.585938 714.296875 158.46875 710.175781 153.449219 C 706.058594 148.433594 701.816406 143.515625 697.457031 138.707031 C 693.097656 133.894531 688.621094 129.195312 684.03125 124.601562 C 679.4375 120.011719 674.738281 115.535156 669.925781 111.175781 C 665.117188 106.816406 660.199219 102.574219 655.183594 98.457031 C 650.164062 94.335938 645.046875 90.34375 639.832031 86.476562 C 634.617188 82.609375 629.308594 78.871094 623.910156 75.261719 C 618.511719 71.65625 613.027344 68.183594 607.460938 64.84375 C 601.890625 61.507812 596.242188 58.304688 590.515625 55.246094 C 584.789062 52.183594 578.992188 49.265625 573.125 46.488281 C 567.253906 43.714844 561.320312 41.082031 555.320312 38.597656 C 549.324219 36.113281 543.265625 33.777344 537.15625 31.585938 C 531.042969 29.398438 524.878906 27.363281 518.664062 25.476562 C 512.453125 23.59375 506.195312 21.859375 499.898438 20.28125 C 493.601562 18.703125 487.265625 17.28125 480.898438 16.015625 C 474.53125 14.746094 468.136719 13.636719 461.710938 12.683594 C 455.289062 11.730469 448.847656 10.933594 442.386719 10.296875 C 435.925781 9.660156 429.453125 9.183594 422.96875 8.863281 C 416.480469 8.542969 409.992188 8.382812 403.5 8.382812 Z M 650.476562 342.148438 C 650.121094 343.257812 649.683594 344.332031 649.15625 345.375 C 648.632812 346.414062 648.03125 347.40625 647.347656 348.351562 C 646.667969 349.296875 645.914062 350.183594 645.09375 351.007812 C 644.269531 351.835938 643.390625 352.589844 642.449219 353.277344 C 641.507812 353.964844 640.515625 354.570312 639.480469 355.101562 C 638.441406 355.632812 637.371094 356.078125 636.261719 356.4375 C 635.152344 356.800781 634.023438 357.070312 632.875 357.253906 C 631.722656 357.433594 630.566406 357.523438 629.398438 357.523438 L 607.207031 357.523438 L 607.207031 580.445312 C 607.207031 581.550781 607.179688 582.65625 607.125 583.757812 C 607.074219 584.863281 606.992188 585.964844 606.882812 587.0625 C 606.777344 588.164062 606.640625 589.257812 606.480469 590.351562 C 606.320312 591.445312 606.128906 592.53125 605.914062 593.617188 C 605.699219 594.699219 605.460938 595.777344 605.191406 596.847656 C 604.921875 597.921875 604.628906 598.984375 604.308594 600.042969 C 603.988281 601.101562 603.644531 602.148438 603.273438 603.1875 C 602.902344 604.230469 602.503906 605.261719 602.082031 606.28125 C 601.660156 607.300781 601.214844 608.3125 600.742188 609.3125 C 600.269531 610.308594 599.773438 611.296875 599.253906 612.269531 C 598.734375 613.246094 598.191406 614.207031 597.621094 615.15625 C 597.054688 616.101562 596.464844 617.035156 595.851562 617.957031 C 595.238281 618.875 594.605469 619.777344 593.945312 620.664062 C 593.289062 621.554688 592.609375 622.425781 591.910156 623.28125 C 591.210938 624.132812 590.492188 624.972656 589.75 625.789062 C 589.007812 626.609375 588.246094 627.410156 587.46875 628.191406 C 586.6875 628.972656 585.886719 629.734375 585.070312 630.476562 C 584.25 631.222656 583.417969 631.941406 582.5625 632.644531 C 581.710938 633.347656 580.839844 634.027344 579.953125 634.683594 C 579.066406 635.34375 578.164062 635.980469 577.246094 636.597656 C 576.328125 637.210938 575.394531 637.800781 574.449219 638.371094 C 573.503906 638.941406 572.542969 639.484375 571.570312 640.007812 C 570.59375 640.53125 569.609375 641.027344 568.609375 641.5 C 567.613281 641.972656 566.605469 642.421875 565.582031 642.847656 C 564.5625 643.269531 563.535156 643.667969 562.492188 644.042969 C 561.453125 644.417969 560.40625 644.765625 559.347656 645.085938 C 558.292969 645.40625 557.230469 645.703125 556.15625 645.972656 C 555.085938 646.242188 554.007812 646.488281 552.925781 646.703125 C 551.84375 646.921875 550.753906 647.109375 549.664062 647.273438 C 548.570312 647.4375 547.472656 647.574219 546.375 647.683594 C 545.273438 647.792969 544.175781 647.875 543.070312 647.933594 C 541.96875 647.988281 540.863281 648.015625 539.757812 648.019531 L 267.363281 648.019531 C 266.257812 648.019531 265.152344 647.992188 264.050781 647.9375 C 262.945312 647.882812 261.84375 647.800781 260.742188 647.691406 C 259.640625 647.585938 258.542969 647.449219 257.449219 647.289062 C 256.355469 647.125 255.265625 646.9375 254.183594 646.71875 C 253.097656 646.503906 252.019531 646.261719 250.945312 645.992188 C 249.875 645.726562 248.808594 645.429688 247.75 645.109375 C 246.691406 644.789062 245.640625 644.441406 244.601562 644.070312 C 243.558594 643.695312 242.527344 643.296875 241.507812 642.875 C 240.484375 642.453125 239.472656 642.003906 238.476562 641.53125 C 237.476562 641.058594 236.488281 640.5625 235.511719 640.039062 C 234.535156 639.519531 233.574219 638.972656 232.625 638.40625 C 231.679688 637.835938 230.742188 637.246094 229.824219 636.632812 C 228.90625 636.015625 228 635.378906 227.113281 634.722656 C 226.226562 634.0625 225.351562 633.382812 224.5 632.679688 C 223.644531 631.980469 222.804688 631.257812 221.988281 630.515625 C 221.167969 629.773438 220.367188 629.007812 219.585938 628.226562 C 218.804688 627.445312 218.039062 626.644531 217.296875 625.824219 C 216.554688 625.007812 215.832031 624.167969 215.132812 623.3125 C 214.429688 622.460938 213.75 621.589844 213.089844 620.699219 C 212.433594 619.8125 211.796875 618.90625 211.179688 617.988281 C 210.566406 617.070312 209.976562 616.132812 209.40625 615.1875 C 208.839844 614.238281 208.292969 613.277344 207.773438 612.300781 C 207.25 611.324219 206.753906 610.335938 206.28125 609.335938 C 205.808594 608.339844 205.359375 607.328125 204.9375 606.304688 C 204.515625 605.285156 204.117188 604.253906 203.742188 603.210938 C 203.371094 602.171875 203.023438 601.121094 202.703125 600.0625 C 202.382812 599.003906 202.085938 597.9375 201.820312 596.867188 C 201.550781 595.792969 201.308594 594.714844 201.09375 593.628906 C 200.875 592.546875 200.6875 591.457031 200.523438 590.363281 C 200.363281 589.269531 200.226562 588.171875 200.117188 587.070312 C 200.011719 585.96875 199.929688 584.867188 199.875 583.761719 C 199.820312 582.65625 199.792969 581.554688 199.792969 580.445312 L 199.792969 357.523438 L 177.601562 357.523438 C 176.445312 357.503906 175.296875 357.390625 174.15625 357.191406 C 173.019531 356.992188 171.902344 356.707031 170.808594 356.332031 C 169.710938 355.960938 168.652344 355.503906 167.628906 354.964844 C 166.605469 354.425781 165.632812 353.8125 164.703125 353.121094 C 163.777344 352.429688 162.910156 351.671875 162.097656 350.84375 C 161.289062 350.015625 160.550781 349.132812 159.878906 348.191406 C 159.207031 347.25 158.613281 346.261719 158.097656 345.226562 C 157.578125 344.191406 157.144531 343.125 156.796875 342.023438 C 156.445312 340.917969 156.183594 339.796875 156.007812 338.652344 C 155.832031 337.511719 155.746094 336.359375 155.75 335.203125 C 155.753906 334.046875 155.847656 332.898438 156.03125 331.757812 C 156.214844 330.613281 156.484375 329.492188 156.84375 328.394531 C 157.203125 327.292969 157.644531 326.230469 158.167969 325.199219 C 158.691406 324.167969 159.292969 323.183594 159.96875 322.246094 C 160.648438 321.308594 161.394531 320.429688 162.210938 319.609375 C 163.023438 318.789062 163.898438 318.035156 164.828125 317.351562 L 364.320312 174.769531 C 365.742188 173.757812 367.199219 172.800781 368.695312 171.902344 C 370.191406 171 371.71875 170.160156 373.277344 169.378906 C 374.839844 168.597656 376.429688 167.875 378.042969 167.21875 C 379.660156 166.558594 381.300781 165.964844 382.960938 165.429688 C 384.625 164.898438 386.304688 164.433594 388.003906 164.03125 C 389.703125 163.628906 391.414062 163.292969 393.136719 163.023438 C 394.863281 162.757812 396.59375 162.554688 398.332031 162.417969 C 400.074219 162.285156 401.816406 162.214844 403.5625 162.214844 C 405.308594 162.214844 407.050781 162.285156 408.789062 162.417969 C 410.53125 162.554688 412.261719 162.757812 413.988281 163.023438 C 415.710938 163.292969 417.421875 163.628906 419.121094 164.03125 C 420.820312 164.433594 422.5 164.898438 424.160156 165.429688 C 425.824219 165.964844 427.464844 166.558594 429.078125 167.21875 C 430.695312 167.875 432.285156 168.597656 433.84375 169.378906 C 435.40625 170.160156 436.933594 171 438.429688 171.902344 C 439.921875 172.800781 441.382812 173.757812 442.804688 174.769531 L 642.292969 317.351562 C 643.246094 318.027344 644.136719 318.777344 644.96875 319.59375 C 645.800781 320.414062 646.5625 321.289062 647.253906 322.230469 C 647.945312 323.167969 648.558594 324.15625 649.097656 325.191406 C 649.632812 326.230469 650.082031 327.300781 650.449219 328.410156 C 650.8125 329.519531 651.089844 330.648438 651.277344 331.800781 C 651.460938 332.949219 651.558594 334.109375 651.558594 335.277344 C 651.5625 336.445312 651.472656 337.601562 651.289062 338.757812 C 651.109375 339.910156 650.835938 341.039062 650.476562 342.148438 Z M 650.476562 342.148438 "/></g><path style=" stroke:none;fill-rule:nonzero;fill:#ffffff;fill-opacity:1;" d="M 459.882812 518.15625 L 459.882812 621.648438 L 346.847656 621.648438 L 346.847656 518.15625 C 346.847656 517.160156 346.894531 516.164062 346.992188 515.167969 C 347.089844 514.175781 347.234375 513.1875 347.429688 512.207031 C 347.625 511.226562 347.867188 510.261719 348.15625 509.304688 C 348.445312 508.347656 348.78125 507.410156 349.164062 506.484375 C 349.542969 505.5625 349.96875 504.660156 350.441406 503.78125 C 350.910156 502.898438 351.425781 502.042969 351.980469 501.214844 C 352.535156 500.382812 353.128906 499.582031 353.761719 498.808594 C 354.394531 498.035156 355.066406 497.296875 355.769531 496.589844 C 356.476562 495.886719 357.21875 495.214844 357.988281 494.582031 C 358.761719 493.949219 359.5625 493.355469 360.394531 492.800781 C 361.222656 492.246094 362.078125 491.730469 362.960938 491.261719 C 363.839844 490.789062 364.742188 490.363281 365.667969 489.984375 C 366.589844 489.601562 367.527344 489.265625 368.484375 488.976562 C 369.441406 488.6875 370.40625 488.445312 371.386719 488.25 C 372.367188 488.054688 373.355469 487.910156 374.347656 487.8125 C 375.34375 487.714844 376.339844 487.667969 377.335938 487.667969 L 429.515625 487.667969 C 430.511719 487.671875 431.507812 487.722656 432.5 487.820312 C 433.488281 487.921875 434.472656 488.070312 435.449219 488.265625 C 436.429688 488.464844 437.394531 488.707031 438.34375 489 C 439.296875 489.289062 440.234375 489.628906 441.15625 490.011719 C 442.074219 490.394531 442.972656 490.824219 443.851562 491.292969 C 444.726562 491.765625 445.582031 492.277344 446.40625 492.835938 C 447.234375 493.390625 448.035156 493.984375 448.800781 494.617188 C 449.570312 495.25 450.308594 495.921875 451.011719 496.628906 C 451.714844 497.332031 452.378906 498.074219 453.011719 498.84375 C 453.640625 499.617188 454.234375 500.417969 454.785156 501.246094 C 455.335938 502.074219 455.847656 502.929688 456.316406 503.808594 C 456.785156 504.6875 457.207031 505.589844 457.585938 506.511719 C 457.964844 507.433594 458.300781 508.371094 458.585938 509.324219 C 458.875 510.277344 459.117188 511.242188 459.308594 512.222656 C 459.5 513.199219 459.644531 514.183594 459.742188 515.175781 C 459.835938 516.167969 459.882812 517.160156 459.882812 518.15625 Z M 459.882812 518.15625 "/><path style=" stroke:none;fill-rule:nonzero;fill:#ffffff;fill-opacity:1;" d="M 427.410156 196.03125 L 616.792969 331.253906 L 593.988281 331.253906 C 593.132812 331.253906 592.289062 331.335938 591.449219 331.503906 C 590.609375 331.667969 589.796875 331.914062 589.007812 332.242188 C 588.21875 332.570312 587.46875 332.96875 586.757812 333.445312 C 586.046875 333.921875 585.390625 334.460938 584.785156 335.0625 C 584.179688 335.667969 583.640625 336.324219 583.167969 337.035156 C 582.691406 337.746094 582.292969 338.496094 581.964844 339.285156 C 581.636719 340.074219 581.390625 340.890625 581.222656 341.726562 C 581.058594 342.566406 580.972656 343.410156 580.972656 344.265625 L 580.972656 580.253906 C 580.976562 581.609375 580.910156 582.960938 580.777344 584.308594 C 580.644531 585.660156 580.445312 587 580.179688 588.328125 C 579.914062 589.660156 579.585938 590.972656 579.195312 592.269531 C 578.800781 593.566406 578.34375 594.84375 577.824219 596.09375 C 577.304688 597.347656 576.726562 598.574219 576.089844 599.769531 C 575.449219 600.964844 574.753906 602.125 574 603.253906 C 573.246094 604.378906 572.441406 605.46875 571.578125 606.515625 C 570.71875 607.5625 569.808594 608.566406 568.851562 609.527344 C 567.894531 610.484375 566.890625 611.394531 565.839844 612.253906 C 564.792969 613.113281 563.707031 613.921875 562.578125 614.675781 C 561.449219 615.429688 560.289062 616.125 559.09375 616.761719 C 557.898438 617.402344 556.671875 617.980469 555.421875 618.5 C 554.167969 619.019531 552.894531 619.476562 551.59375 619.867188 C 550.296875 620.261719 548.984375 620.589844 547.65625 620.855469 C 546.324219 621.121094 544.984375 621.316406 543.636719 621.449219 C 542.285156 621.582031 540.933594 621.648438 539.578125 621.648438 L 486.035156 621.648438 L 486.035156 518.15625 C 486.035156 516.304688 485.941406 514.457031 485.757812 512.613281 C 485.578125 510.769531 485.304688 508.941406 484.945312 507.125 C 484.582031 505.308594 484.132812 503.515625 483.59375 501.742188 C 483.058594 499.96875 482.433594 498.226562 481.726562 496.515625 C 481.015625 494.804688 480.226562 493.132812 479.355469 491.5 C 478.480469 489.863281 477.53125 488.277344 476.503906 486.734375 C 475.476562 485.195312 474.375 483.707031 473.199219 482.277344 C 472.027344 480.84375 470.785156 479.472656 469.476562 478.160156 C 468.167969 476.847656 466.800781 475.605469 465.371094 474.429688 C 463.941406 473.25 462.457031 472.148438 460.917969 471.117188 C 459.378906 470.085938 457.792969 469.128906 456.160156 468.253906 C 454.53125 467.378906 452.859375 466.585938 451.148438 465.871094 C 449.4375 465.160156 447.699219 464.535156 445.925781 463.992188 C 444.15625 463.449219 442.363281 462.996094 440.546875 462.632812 C 438.730469 462.265625 436.902344 461.988281 435.058594 461.804688 C 433.214844 461.617188 431.371094 461.519531 429.515625 461.515625 L 377.335938 461.515625 C 375.484375 461.519531 373.632812 461.609375 371.789062 461.792969 C 369.941406 461.976562 368.109375 462.25 366.292969 462.613281 C 364.472656 462.976562 362.675781 463.429688 360.902344 463.96875 C 359.128906 464.507812 357.382812 465.132812 355.671875 465.84375 C 353.957031 466.554688 352.285156 467.347656 350.648438 468.222656 C 349.015625 469.097656 347.425781 470.050781 345.882812 471.082031 C 344.34375 472.113281 342.855469 473.214844 341.421875 474.390625 C 339.988281 475.570312 338.613281 476.8125 337.304688 478.125 C 335.992188 479.433594 334.75 480.808594 333.570312 482.242188 C 332.394531 483.675781 331.292969 485.160156 330.261719 486.703125 C 329.230469 488.246094 328.277344 489.832031 327.402344 491.46875 C 326.527344 493.105469 325.734375 494.777344 325.023438 496.492188 C 324.3125 498.203125 323.6875 499.949219 323.148438 501.722656 C 322.609375 503.496094 322.15625 505.292969 321.792969 507.113281 C 321.429688 508.929688 321.15625 510.761719 320.972656 512.609375 C 320.789062 514.453125 320.699219 516.304688 320.695312 518.15625 L 320.695312 621.648438 L 267.277344 621.648438 C 265.921875 621.648438 264.566406 621.582031 263.21875 621.449219 C 261.871094 621.316406 260.53125 621.121094 259.199219 620.855469 C 257.871094 620.589844 256.554688 620.261719 255.257812 619.867188 C 253.960938 619.476562 252.6875 619.019531 251.433594 618.5 C 250.179688 617.980469 248.957031 617.402344 247.761719 616.761719 C 246.566406 616.125 245.402344 615.429688 244.277344 614.675781 C 243.148438 613.921875 242.0625 613.113281 241.011719 612.253906 C 239.964844 611.394531 238.960938 610.484375 238.003906 609.527344 C 237.042969 608.566406 236.136719 607.5625 235.273438 606.515625 C 234.414062 605.46875 233.609375 604.378906 232.855469 603.253906 C 232.101562 602.125 231.40625 600.964844 230.765625 599.769531 C 230.128906 598.574219 229.546875 597.347656 229.03125 596.09375 C 228.511719 594.84375 228.054688 593.566406 227.660156 592.269531 C 227.269531 590.972656 226.9375 589.660156 226.675781 588.328125 C 226.410156 587 226.210938 585.660156 226.078125 584.308594 C 225.945312 582.960938 225.878906 581.609375 225.878906 580.253906 L 225.878906 344.265625 C 225.878906 343.40625 225.792969 342.554688 225.621094 341.714844 C 225.453125 340.871094 225.203125 340.054688 224.871094 339.261719 C 224.539062 338.46875 224.132812 337.714844 223.652344 337.003906 C 223.171875 336.292969 222.628906 335.632812 222.015625 335.027344 C 221.40625 334.421875 220.742188 333.882812 220.027344 333.410156 C 219.308594 332.9375 218.550781 332.539062 217.757812 332.214844 C 216.960938 331.890625 216.140625 331.648438 215.296875 331.484375 C 214.453125 331.324219 213.601562 331.246094 212.742188 331.253906 L 189.9375 331.253906 L 379.320312 196.03125 C 381.0625 194.785156 382.890625 193.679688 384.804688 192.71875 C 386.722656 191.753906 388.699219 190.945312 390.738281 190.292969 C 392.78125 189.636719 394.859375 189.144531 396.976562 188.8125 C 399.09375 188.480469 401.222656 188.316406 403.363281 188.316406 C 405.507812 188.316406 407.636719 188.480469 409.753906 188.8125 C 411.871094 189.144531 413.949219 189.636719 415.992188 190.292969 C 418.03125 190.945312 420.007812 191.753906 421.925781 192.71875 C 423.839844 193.679688 425.667969 194.785156 427.410156 196.03125 Z M 427.410156 196.03125 "/><g clip-rule="nonzero" clip-path="url(#5b026fb18d)"><path style=" stroke:none;fill-rule:nonzero;fill:#ffffff;fill-opacity:1;" d="M 403.363281 8.382812 C 396.875 8.382812 390.386719 8.542969 383.902344 8.859375 C 377.421875 9.179688 370.949219 9.65625 364.488281 10.292969 C 358.03125 10.929688 351.589844 11.722656 345.167969 12.675781 C 338.75 13.628906 332.355469 14.738281 325.988281 16.003906 C 319.625 17.269531 313.292969 18.691406 306.996094 20.269531 C 300.699219 21.847656 294.445312 23.578125 288.234375 25.460938 C 282.023438 27.34375 275.859375 29.382812 269.75 31.566406 C 263.636719 33.753906 257.582031 36.089844 251.585938 38.574219 C 245.589844 41.058594 239.65625 43.6875 233.789062 46.460938 C 227.921875 49.238281 222.125 52.15625 216.402344 55.214844 C 210.675781 58.273438 205.03125 61.472656 199.464844 64.808594 C 193.898438 68.148438 188.414062 71.617188 183.019531 75.226562 C 177.621094 78.832031 172.316406 82.566406 167.101562 86.433594 C 161.886719 90.300781 156.773438 94.292969 151.753906 98.410156 C 146.738281 102.527344 141.824219 106.765625 137.015625 111.125 C 132.207031 115.484375 127.503906 119.960938 122.914062 124.550781 C 118.324219 129.140625 113.851562 133.839844 109.492188 138.648438 C 105.132812 143.457031 100.894531 148.371094 96.777344 153.386719 C 92.660156 158.40625 88.667969 163.519531 84.800781 168.734375 C 80.933594 173.949219 77.199219 179.253906 73.589844 184.652344 C 69.984375 190.046875 66.515625 195.53125 63.175781 201.097656 C 59.839844 206.664062 56.640625 212.3125 53.582031 218.035156 C 50.523438 223.757812 47.605469 229.554688 44.828125 235.421875 C 42.054688 241.292969 39.425781 247.222656 36.941406 253.21875 C 34.457031 259.21875 32.121094 265.269531 29.933594 271.382812 C 27.746094 277.492188 25.710938 283.65625 23.828125 289.867188 C 21.945312 296.078125 20.214844 302.332031 18.636719 308.628906 C 17.058594 314.925781 15.636719 321.257812 14.371094 327.621094 C 13.105469 333.988281 11.996094 340.382812 11.042969 346.804688 C 10.089844 353.222656 9.296875 359.664062 8.660156 366.125 C 8.023438 372.582031 7.546875 379.054688 7.226562 385.539062 C 6.910156 392.019531 6.75 398.507812 6.75 405 C 6.75 411.488281 6.910156 417.976562 7.226562 424.460938 C 7.546875 430.941406 8.023438 437.414062 8.660156 443.875 C 9.296875 450.332031 10.089844 456.773438 11.042969 463.195312 C 11.996094 469.613281 13.105469 476.007812 14.371094 482.375 C 15.636719 488.738281 17.058594 495.070312 18.636719 501.367188 C 20.214844 507.664062 21.945312 513.917969 23.828125 520.128906 C 25.710938 526.339844 27.746094 532.503906 29.933594 538.613281 C 32.121094 544.726562 34.457031 550.78125 36.941406 556.777344 C 39.425781 562.773438 42.054688 568.707031 44.828125 574.574219 C 47.605469 580.441406 50.523438 586.238281 53.582031 591.960938 C 56.640625 597.6875 59.839844 603.332031 63.175781 608.898438 C 66.515625 614.464844 69.984375 619.949219 73.589844 625.347656 C 77.199219 630.742188 80.933594 636.046875 84.800781 641.261719 C 88.667969 646.476562 92.660156 651.589844 96.777344 656.609375 C 100.894531 661.625 105.132812 666.539062 109.492188 671.347656 C 113.851562 676.160156 118.324219 680.859375 122.914062 685.449219 C 127.503906 690.039062 132.207031 694.511719 137.015625 698.871094 C 141.824219 703.230469 146.738281 707.46875 151.753906 711.585938 C 156.773438 715.703125 161.886719 719.695312 167.101562 723.5625 C 172.316406 727.429688 177.621094 731.164062 183.019531 734.773438 C 188.414062 738.378906 193.898438 741.847656 199.464844 745.1875 C 205.03125 748.523438 210.675781 751.722656 216.402344 754.78125 C 222.125 757.839844 227.921875 760.757812 233.789062 763.535156 C 239.65625 766.308594 245.589844 768.9375 251.585938 771.421875 C 257.582031 773.90625 263.636719 776.242188 269.75 778.429688 C 275.859375 780.617188 282.023438 782.652344 288.234375 784.535156 C 294.445312 786.417969 300.699219 788.148438 306.996094 789.726562 C 313.292969 791.304688 319.625 792.726562 325.988281 793.992188 C 332.355469 795.257812 338.75 796.367188 345.167969 797.320312 C 351.589844 798.273438 358.03125 799.066406 364.488281 799.703125 C 370.949219 800.339844 377.421875 800.816406 383.902344 801.136719 C 390.386719 801.453125 396.875 801.613281 403.363281 801.613281 C 409.855469 801.613281 416.34375 801.453125 422.828125 801.136719 C 429.308594 800.816406 435.78125 800.339844 442.242188 799.703125 C 448.699219 799.066406 455.140625 798.273438 461.5625 797.320312 C 467.980469 796.367188 474.375 795.257812 480.742188 793.992188 C 487.105469 792.726562 493.4375 791.304688 499.734375 789.726562 C 506.03125 788.148438 512.285156 786.417969 518.496094 784.535156 C 524.707031 782.652344 530.871094 780.617188 536.980469 778.429688 C 543.09375 776.242188 549.148438 773.90625 555.144531 771.421875 C 561.140625 768.9375 567.074219 766.308594 572.941406 763.535156 C 578.808594 760.757812 584.605469 757.839844 590.328125 754.78125 C 596.054688 751.722656 601.699219 748.523438 607.265625 745.1875 C 612.832031 741.847656 618.316406 738.378906 623.710938 734.773438 C 629.109375 731.164062 634.414062 727.429688 639.628906 723.5625 C 644.84375 719.695312 649.957031 715.703125 654.976562 711.585938 C 659.992188 707.46875 664.90625 703.230469 669.714844 698.871094 C 674.523438 694.511719 679.226562 690.039062 683.816406 685.449219 C 688.402344 680.859375 692.878906 676.160156 697.238281 671.347656 C 701.597656 666.539062 705.835938 661.625 709.953125 656.609375 C 714.070312 651.589844 718.0625 646.476562 721.929688 641.261719 C 725.796875 636.046875 729.53125 630.742188 733.136719 625.347656 C 736.746094 619.949219 740.214844 614.464844 743.554688 608.898438 C 746.890625 603.332031 750.089844 597.6875 753.148438 591.960938 C 756.207031 586.238281 759.125 580.441406 761.902344 574.574219 C 764.675781 568.707031 767.304688 562.773438 769.789062 556.777344 C 772.273438 550.78125 774.609375 544.726562 776.796875 538.613281 C 778.984375 532.503906 781.019531 526.339844 782.902344 520.128906 C 784.785156 513.917969 786.515625 507.664062 788.09375 501.367188 C 789.671875 495.070312 791.09375 488.738281 792.359375 482.375 C 793.625 476.007812 794.734375 469.613281 795.6875 463.195312 C 796.640625 456.773438 797.433594 450.332031 798.070312 443.875 C 798.707031 437.414062 799.183594 430.941406 799.503906 424.460938 C 799.820312 417.976562 799.980469 411.488281 799.980469 405 C 799.980469 398.507812 799.820312 392.019531 799.5 385.539062 C 799.179688 379.054688 798.703125 372.585938 798.066406 366.125 C 797.429688 359.664062 796.632812 353.226562 795.679688 346.804688 C 794.726562 340.386719 793.617188 333.992188 792.351562 327.625 C 791.085938 321.261719 789.664062 314.929688 788.085938 308.632812 C 786.507812 302.335938 784.777344 296.082031 782.890625 289.871094 C 781.007812 283.660156 778.96875 277.5 776.785156 271.390625 C 774.597656 265.277344 772.261719 259.222656 769.777344 253.226562 C 767.292969 247.230469 764.664062 241.300781 761.886719 235.433594 C 759.113281 229.566406 756.195312 223.769531 753.132812 218.046875 C 750.074219 212.320312 746.875 206.675781 743.539062 201.109375 C 740.203125 195.542969 736.730469 190.058594 733.125 184.664062 C 729.515625 179.265625 725.78125 173.960938 721.914062 168.746094 C 718.046875 163.535156 714.054688 158.417969 709.9375 153.402344 C 705.820312 148.382812 701.582031 143.472656 697.222656 138.660156 C 692.863281 133.851562 688.390625 129.152344 683.800781 124.5625 C 679.210938 119.972656 674.511719 115.5 669.703125 111.140625 C 664.890625 106.78125 659.980469 102.542969 654.960938 98.425781 C 649.945312 94.308594 644.828125 90.316406 639.617188 86.449219 C 634.402344 82.582031 629.097656 78.847656 623.699219 75.238281 C 618.304688 71.632812 612.824219 68.164062 607.253906 64.824219 C 601.6875 61.488281 596.042969 58.289062 590.320312 55.230469 C 584.59375 52.167969 578.796875 49.25 572.929688 46.476562 C 567.0625 43.699219 561.132812 41.070312 555.136719 38.585938 C 549.140625 36.101562 543.085938 33.765625 536.972656 31.578125 C 530.863281 29.394531 524.703125 27.355469 518.492188 25.472656 C 512.28125 23.585938 506.027344 21.855469 499.730469 20.277344 C 493.433594 18.703125 487.101562 17.277344 480.738281 16.011719 C 474.371094 14.746094 467.980469 13.636719 461.558594 12.683594 C 455.136719 11.730469 448.699219 10.933594 442.238281 10.296875 C 435.78125 9.660156 429.308594 9.183594 422.824219 8.863281 C 416.34375 8.542969 409.855469 8.382812 403.363281 8.382812 Z M 650.257812 342.035156 C 649.902344 343.144531 649.464844 344.21875 648.9375 345.257812 C 648.414062 346.300781 647.8125 347.292969 647.128906 348.238281 C 646.449219 349.179688 645.699219 350.066406 644.875 350.890625 C 644.054688 351.71875 643.171875 352.472656 642.230469 353.160156 C 641.292969 353.847656 640.300781 354.453125 639.265625 354.984375 C 638.226562 355.515625 637.15625 355.960938 636.046875 356.320312 C 634.941406 356.679688 633.8125 356.953125 632.660156 357.132812 C 631.511719 357.316406 630.351562 357.40625 629.1875 357.40625 L 607.003906 357.40625 L 607.003906 580.253906 C 607.003906 581.355469 606.976562 582.460938 606.921875 583.5625 C 606.867188 584.667969 606.789062 585.769531 606.679688 586.867188 C 606.574219 587.964844 606.4375 589.0625 606.277344 590.152344 C 606.113281 591.246094 605.925781 592.335938 605.710938 593.417969 C 605.496094 594.5 605.257812 595.578125 604.988281 596.648438 C 604.71875 597.71875 604.425781 598.785156 604.105469 599.839844 C 603.785156 600.898438 603.441406 601.949219 603.070312 602.988281 C 602.699219 604.027344 602.300781 605.058594 601.878906 606.078125 C 601.457031 607.097656 601.011719 608.109375 600.539062 609.105469 C 600.066406 610.105469 599.574219 611.09375 599.050781 612.066406 C 598.53125 613.039062 597.988281 614 597.421875 614.949219 C 596.855469 615.898438 596.265625 616.828125 595.652344 617.75 C 595.039062 618.667969 594.40625 619.570312 593.746094 620.457031 C 593.089844 621.34375 592.414062 622.214844 591.710938 623.070312 C 591.011719 623.925781 590.292969 624.761719 589.550781 625.582031 C 588.808594 626.398438 588.050781 627.199219 587.269531 627.980469 C 586.488281 628.761719 585.691406 629.523438 584.875 630.265625 C 584.054688 631.007812 583.21875 631.730469 582.367188 632.433594 C 581.515625 633.132812 580.644531 633.8125 579.757812 634.472656 C 578.871094 635.132812 577.96875 635.769531 577.050781 636.382812 C 576.136719 636.996094 575.203125 637.589844 574.257812 638.15625 C 573.308594 638.726562 572.351562 639.269531 571.375 639.792969 C 570.402344 640.316406 569.417969 640.8125 568.421875 641.285156 C 567.421875 641.757812 566.414062 642.207031 565.394531 642.632812 C 564.375 643.054688 563.34375 643.453125 562.304688 643.828125 C 561.265625 644.199219 560.21875 644.546875 559.160156 644.871094 C 558.105469 645.191406 557.042969 645.488281 555.972656 645.757812 C 554.898438 646.027344 553.824219 646.269531 552.738281 646.488281 C 551.65625 646.703125 550.570312 646.894531 549.476562 647.058594 C 548.386719 647.222656 547.289062 647.355469 546.191406 647.46875 C 545.09375 647.578125 543.992188 647.660156 542.886719 647.714844 C 541.785156 647.769531 540.683594 647.800781 539.578125 647.800781 L 267.277344 647.800781 C 266.171875 647.800781 265.066406 647.773438 263.960938 647.71875 C 262.859375 647.664062 261.757812 647.585938 260.65625 647.476562 C 259.554688 647.367188 258.457031 647.234375 257.367188 647.070312 C 256.273438 646.910156 255.183594 646.71875 254.097656 646.503906 C 253.015625 646.289062 251.9375 646.046875 250.863281 645.777344 C 249.792969 645.507812 248.726562 645.214844 247.667969 644.894531 C 246.609375 644.570312 245.5625 644.226562 244.519531 643.851562 C 243.480469 643.480469 242.449219 643.082031 241.425781 642.660156 C 240.40625 642.238281 239.394531 641.789062 238.394531 641.316406 C 237.398438 640.84375 236.410156 640.347656 235.433594 639.824219 C 234.460938 639.304688 233.5 638.761719 232.550781 638.191406 C 231.601562 637.625 230.667969 637.03125 229.75 636.417969 C 228.828125 635.804688 227.925781 635.167969 227.039062 634.507812 C 226.148438 633.851562 225.277344 633.171875 224.425781 632.46875 C 223.570312 631.769531 222.734375 631.046875 221.914062 630.304688 C 221.09375 629.5625 220.292969 628.800781 219.511719 628.015625 C 218.730469 627.234375 217.96875 626.433594 217.226562 625.617188 C 216.484375 624.796875 215.761719 623.960938 215.0625 623.105469 C 214.359375 622.25 213.679688 621.378906 213.019531 620.492188 C 212.363281 619.605469 211.726562 618.699219 211.113281 617.78125 C 210.496094 616.863281 209.90625 615.929688 209.339844 614.980469 C 208.769531 614.03125 208.226562 613.070312 207.703125 612.09375 C 207.183594 611.121094 206.6875 610.132812 206.214844 609.132812 C 205.742188 608.132812 205.292969 607.125 204.871094 606.101562 C 204.445312 605.082031 204.050781 604.050781 203.675781 603.007812 C 203.304688 601.96875 202.957031 600.917969 202.636719 599.859375 C 202.316406 598.804688 202.019531 597.738281 201.753906 596.664062 C 201.484375 595.59375 201.242188 594.515625 201.027344 593.429688 C 200.808594 592.347656 200.621094 591.257812 200.460938 590.164062 C 200.296875 589.070312 200.160156 587.972656 200.054688 586.875 C 199.945312 585.773438 199.863281 584.671875 199.808594 583.566406 C 199.753906 582.464844 199.726562 581.359375 199.726562 580.253906 L 199.726562 357.40625 L 177.542969 357.40625 C 176.386719 357.382812 175.238281 357.273438 174.101562 357.074219 C 172.960938 356.875 171.84375 356.589844 170.75 356.214844 C 169.65625 355.839844 168.597656 355.386719 167.574219 354.847656 C 166.550781 354.308594 165.578125 353.691406 164.648438 353.003906 C 163.722656 352.3125 162.855469 351.554688 162.046875 350.726562 C 161.238281 349.902344 160.496094 349.015625 159.828125 348.074219 C 159.15625 347.132812 158.5625 346.144531 158.046875 345.113281 C 157.527344 344.078125 157.09375 343.011719 156.746094 341.910156 C 156.394531 340.804688 156.132812 339.683594 155.957031 338.542969 C 155.78125 337.398438 155.695312 336.25 155.699219 335.09375 C 155.703125 333.9375 155.796875 332.789062 155.980469 331.648438 C 156.164062 330.503906 156.433594 329.386719 156.792969 328.285156 C 157.152344 327.1875 157.59375 326.121094 158.117188 325.089844 C 158.640625 324.058594 159.242188 323.078125 159.917969 322.140625 C 160.597656 321.203125 161.34375 320.324219 162.15625 319.503906 C 162.972656 318.683594 163.84375 317.929688 164.777344 317.246094 L 364.199219 174.714844 C 365.621094 173.699219 367.078125 172.746094 368.574219 171.84375 C 370.066406 170.945312 371.59375 170.105469 373.15625 169.324219 C 374.714844 168.542969 376.300781 167.820312 377.917969 167.164062 C 379.535156 166.503906 381.171875 165.910156 382.835938 165.378906 C 384.496094 164.847656 386.175781 164.378906 387.875 163.976562 C 389.570312 163.578125 391.28125 163.242188 393.007812 162.972656 C 394.730469 162.703125 396.460938 162.5 398.199219 162.367188 C 399.941406 162.230469 401.683594 162.164062 403.425781 162.164062 C 405.171875 162.164062 406.914062 162.230469 408.652344 162.367188 C 410.394531 162.5 412.125 162.703125 413.847656 162.972656 C 415.570312 163.242188 417.28125 163.578125 418.980469 163.976562 C 420.679688 164.378906 422.359375 164.847656 424.019531 165.378906 C 425.683594 165.910156 427.320312 166.503906 428.9375 167.164062 C 430.550781 167.820312 432.140625 168.542969 433.699219 169.324219 C 435.257812 170.105469 436.785156 170.945312 438.28125 171.84375 C 439.777344 172.746094 441.234375 173.699219 442.65625 174.714844 L 642.078125 317.246094 C 643.027344 317.921875 643.917969 318.671875 644.75 319.488281 C 645.582031 320.304688 646.34375 321.183594 647.035156 322.125 C 647.726562 323.0625 648.34375 324.050781 648.878906 325.085938 C 649.414062 326.121094 649.863281 327.195312 650.230469 328.300781 C 650.59375 329.410156 650.871094 330.539062 651.058594 331.691406 C 651.242188 332.839844 651.339844 334 651.339844 335.167969 C 651.34375 336.332031 651.253906 337.492188 651.070312 338.644531 C 650.890625 339.796875 650.617188 340.925781 650.257812 342.035156 Z M 650.257812 342.035156 "/></g></g></svg>