<svg xmlns="http://www.w3.org/2000/svg" xmlns:xlink="http://www.w3.org/1999/xlink" width="1080" zoomAndPan="magnify" viewBox="0 0 810 809.999993" height="1080" preserveAspectRatio="xMidYMid meet" version="1.2"><defs><clipPath id="4bbff8196c"><path d="M 12 3 L 797.886719 3 L 797.886719 800.25 L 12 800.25 Z M 12 3 "/></clipPath><clipPath id="2b37e379a9"><path d="M 12 0.75 L 797.886719 0.75 L 797.886719 798 L 12 798 Z M 12 0.75 "/></clipPath></defs><g id="89bb3b99fd"><g clip-rule="nonzero" clip-path="url(#4bbff8196c)"><path style=" stroke:none;fill-rule:nonzero;fill:#000000;fill-opacity:1;" d="M 726.296875 83.226562 L 666.296875 83.226562 L 671.621094 71.242188 C 673.777344 66.378906 672.722656 60.691406 668.960938 56.929688 L 644.261719 32.222656 C 640.503906 28.460938 634.816406 27.40625 629.957031 29.5625 L 614.976562 36.21875 C 607.53125 32.1875 599.714844 28.945312 591.617188 26.53125 L 585.734375 11.242188 C 583.824219 6.273438 579.054688 3 573.738281 3 L 538.808594 3 C 533.492188 3 528.726562 6.277344 526.8125 11.238281 L 520.933594 26.527344 C 512.832031 28.945312 505.015625 32.1875 497.574219 36.21875 L 482.59375 29.5625 C 477.734375 27.398438 472.046875 28.457031 468.285156 32.21875 L 443.589844 56.925781 C 439.828125 60.691406 438.773438 66.378906 440.929688 71.238281 L 446.25 83.226562 L 406.308594 83.226562 L 406.308594 56.847656 C 406.308594 33.996094 387.722656 15.40625 364.882812 15.40625 L 353.453125 15.40625 C 330.609375 15.40625 312.027344 33.996094 312.027344 56.847656 L 312.027344 83.226562 L 83.3125 83.226562 C 44.019531 83.226562 12.050781 115.207031 12.050781 154.519531 L 12.050781 556.5 C 12.050781 595.808594 44.019531 627.789062 83.3125 627.789062 L 272.554688 627.789062 L 272.554688 694.90625 L 196.5 694.90625 C 161.945312 694.90625 133.832031 718.535156 133.832031 747.578125 L 133.832031 787.390625 C 133.832031 794.492188 139.589844 800.25 146.6875 800.25 L 662.925781 800.25 C 670.023438 800.25 675.78125 794.492188 675.78125 787.390625 L 675.78125 747.578125 C 675.78125 718.535156 647.667969 694.902344 613.113281 694.902344 L 537.058594 694.902344 L 537.058594 627.785156 L 726.296875 627.785156 C 765.59375 627.785156 797.5625 595.808594 797.5625 556.496094 L 797.5625 154.519531 C 797.5625 115.207031 765.589844 83.226562 726.296875 83.226562 Z M 461.113281 122.222656 C 463.511719 112.148438 467.484375 102.5625 472.925781 93.722656 C 475.148438 90.113281 475.449219 85.636719 473.730469 81.761719 L 468.007812 68.871094 L 480.222656 56.652344 L 493.113281 62.375 C 496.988281 64.097656 501.460938 63.796875 505.066406 61.574219 C 513.90625 56.128906 523.488281 52.15625 533.554688 49.757812 C 537.675781 48.777344 541.050781 45.828125 542.574219 41.871094 L 547.636719 28.71875 L 564.914062 28.71875 L 569.972656 41.871094 C 571.496094 45.828125 574.871094 48.777344 578.996094 49.757812 C 589.054688 52.15625 598.640625 56.132812 607.480469 61.574219 C 611.089844 63.800781 615.5625 64.101562 619.4375 62.378906 L 632.324219 56.652344 L 644.542969 68.871094 L 638.820312 81.765625 C 637.097656 85.640625 637.398438 90.117188 639.621094 93.726562 C 645.0625 102.566406 649.039062 112.152344 651.433594 122.222656 C 652.414062 126.34375 655.363281 129.722656 659.320312 131.246094 L 672.464844 136.304688 L 672.464844 153.589844 L 659.324219 158.648438 C 655.367188 160.171875 652.417969 163.546875 651.4375 167.671875 C 649.039062 177.746094 645.066406 187.335938 639.625 196.175781 C 637.402344 199.785156 637.101562 204.261719 638.820312 208.136719 L 644.542969 221.023438 L 632.328125 233.246094 L 619.4375 227.519531 C 615.5625 225.796875 611.089844 226.097656 607.480469 228.320312 C 598.640625 233.765625 589.058594 237.742188 578.996094 240.136719 C 574.875 241.117188 571.496094 244.070312 569.976562 248.027344 L 564.917969 261.179688 L 547.640625 261.179688 L 542.582031 248.03125 C 541.058594 244.074219 537.683594 241.121094 533.5625 240.140625 C 523.492188 237.746094 513.90625 233.769531 505.070312 228.324219 C 501.460938 226.097656 496.984375 225.804688 493.109375 227.519531 L 480.230469 233.246094 L 468.011719 221.023438 L 473.738281 208.132812 C 475.457031 204.253906 475.15625 199.78125 472.933594 196.171875 C 467.492188 187.332031 463.519531 177.742188 461.125 167.675781 C 460.140625 163.550781 457.191406 160.175781 453.238281 158.652344 L 440.089844 153.589844 L 440.089844 136.308594 L 453.230469 131.246094 C 457.183594 129.722656 460.132812 126.347656 461.113281 122.222656 Z M 313.75 353.671875 L 348.035156 413.078125 C 350.332031 417.058594 354.574219 419.507812 359.167969 419.507812 C 363.757812 419.507812 368.003906 417.058594 370.296875 413.078125 L 404.585938 353.671875 C 405.710938 351.714844 406.308594 349.5 406.308594 347.242188 L 406.308594 157.808594 L 414.375 157.808594 L 414.375 162.417969 C 414.375 167.738281 417.652344 172.507812 422.613281 174.421875 L 437.894531 180.304688 C 440.308594 188.40625 443.550781 196.226562 447.582031 203.671875 L 440.929688 218.65625 C 438.769531 223.515625 439.824219 229.207031 443.585938 232.964844 L 468.285156 257.675781 C 472.046875 261.4375 477.734375 262.492188 482.59375 260.332031 L 497.5625 253.679688 C 505.007812 257.710938 512.828125 260.957031 520.933594 263.371094 L 526.8125 278.65625 C 528.722656 283.621094 533.492188 286.894531 538.808594 286.894531 L 573.734375 286.894531 C 579.054688 286.894531 583.820312 283.621094 585.730469 278.65625 L 591.613281 263.367188 C 599.710938 260.949219 607.53125 257.707031 614.976562 253.675781 L 629.953125 260.332031 C 634.8125 262.496094 640.5 261.4375 644.261719 257.675781 L 668.957031 232.96875 C 672.71875 229.207031 673.777344 223.515625 671.617188 218.65625 L 664.96875 203.679688 C 668.996094 196.230469 672.238281 188.410156 674.65625 180.304688 L 689.933594 174.421875 C 694.894531 172.511719 698.167969 167.738281 698.167969 162.417969 L 698.167969 157.808594 L 723.003906 157.808594 L 723.003906 503.644531 L 86.601562 503.644531 L 86.601562 157.808594 L 312.027344 157.808594 L 312.027344 347.242188 C 312.027344 349.5 312.621094 351.714844 313.75 353.671875 Z M 347.144531 360.101562 L 371.1875 360.101562 L 359.167969 380.929688 Z M 438.105469 108.945312 C 438.039062 109.164062 437.957031 109.375 437.890625 109.59375 L 422.613281 115.476562 C 417.652344 117.386719 414.378906 122.15625 414.378906 127.476562 L 414.378906 132.089844 L 406.308594 132.089844 L 406.308594 108.945312 Z M 353.453125 41.125 L 364.882812 41.125 C 373.550781 41.125 380.601562 48.179688 380.601562 56.847656 L 380.601562 334.382812 L 337.734375 334.382812 L 337.734375 144.953125 C 337.734375 144.949219 337.734375 144.949219 337.734375 144.949219 C 337.734375 144.945312 337.734375 144.945312 337.734375 144.941406 L 337.734375 56.847656 C 337.734375 48.179688 344.785156 41.125 353.453125 41.125 Z M 650.070312 747.578125 L 650.070312 774.53125 L 159.539062 774.53125 L 159.539062 747.578125 C 159.539062 732.964844 176.464844 720.621094 196.496094 720.621094 L 613.113281 720.621094 C 633.144531 720.625 650.070312 732.96875 650.070312 747.578125 Z M 511.347656 694.90625 L 298.261719 694.90625 L 298.261719 627.789062 L 511.347656 627.789062 Z M 771.851562 556.5 C 771.851562 581.628906 751.414062 602.074219 726.296875 602.074219 L 83.3125 602.074219 C 58.195312 602.074219 37.757812 581.628906 37.757812 556.5 L 37.757812 154.519531 C 37.757812 129.390625 58.195312 108.945312 83.3125 108.945312 L 312.027344 108.945312 L 312.027344 132.089844 L 81.847656 132.089844 C 70.292969 132.089844 60.894531 141.492188 60.894531 153.050781 L 60.894531 516.503906 C 60.894531 523.605469 66.648438 529.363281 73.746094 529.363281 L 735.859375 529.363281 C 742.960938 529.363281 748.714844 523.605469 748.714844 516.503906 L 748.714844 153.050781 C 748.714844 141.496094 739.3125 132.089844 727.757812 132.089844 L 698.171875 132.089844 L 698.171875 127.480469 C 698.171875 122.160156 694.898438 117.390625 689.933594 115.480469 L 674.652344 109.59375 C 674.585938 109.375 674.507812 109.164062 674.441406 108.945312 L 726.292969 108.945312 C 751.414062 108.945312 771.851562 129.390625 771.851562 154.519531 Z M 556.273438 218.742188 C 596.949219 218.742188 630.042969 185.636719 630.042969 144.949219 C 630.042969 104.261719 596.949219 71.15625 556.273438 71.15625 C 515.597656 71.15625 482.503906 104.261719 482.503906 144.949219 C 482.503906 185.636719 515.597656 218.742188 556.273438 218.742188 Z M 556.273438 96.871094 C 582.773438 96.871094 604.332031 118.4375 604.332031 144.949219 C 604.332031 171.457031 582.773438 193.023438 556.273438 193.023438 C 529.773438 193.023438 508.214844 171.457031 508.214844 144.949219 C 508.214844 118.4375 529.773438 96.871094 556.273438 96.871094 Z M 535.148438 458.355469 L 568.25 334.773438 C 570.089844 327.914062 577.140625 323.84375 583.992188 325.679688 C 590.851562 327.519531 594.921875 334.570312 593.082031 341.429688 L 559.980469 465.011719 C 558.441406 470.757812 553.246094 474.546875 547.570312 474.546875 C 546.46875 474.546875 545.351562 474.40625 544.238281 474.105469 C 537.378906 472.265625 533.308594 465.214844 535.148438 458.355469 Z M 448.371094 399.894531 C 448.371094 396.105469 450.042969 392.503906 452.941406 390.0625 L 506.878906 344.59375 C 512.304688 340.015625 520.414062 340.707031 524.992188 346.140625 C 529.566406 351.570312 528.871094 359.683594 523.445312 364.257812 L 481.171875 399.894531 L 523.445312 435.527344 C 528.871094 440.105469 529.566406 448.21875 524.992188 453.648438 C 522.445312 456.664062 518.8125 458.21875 515.152344 458.21875 C 512.230469 458.21875 509.289062 457.226562 506.878906 455.195312 L 452.941406 409.726562 C 450.042969 407.285156 448.371094 403.6875 448.371094 399.894531 Z M 604.785156 435.527344 L 647.054688 399.894531 L 604.785156 364.257812 C 599.355469 359.679688 598.660156 351.570312 603.238281 346.140625 C 607.8125 340.707031 615.921875 340.015625 621.351562 344.59375 L 675.289062 390.0625 C 678.1875 392.503906 679.859375 396.105469 679.859375 399.894531 C 679.859375 403.6875 678.1875 407.285156 675.289062 409.726562 L 621.351562 455.195312 C 618.9375 457.226562 616 458.21875 613.074219 458.21875 C 609.414062 458.21875 605.78125 456.664062 603.238281 453.648438 C 598.664062 448.214844 599.355469 440.105469 604.785156 435.527344 Z M 130.234375 446.070312 L 397.855469 446.070312 C 404.953125 446.070312 410.710938 451.824219 410.710938 458.925781 C 410.710938 466.027344 404.953125 471.785156 397.855469 471.785156 L 130.234375 471.785156 C 123.136719 471.785156 117.382812 466.027344 117.382812 458.925781 C 117.382812 451.824219 123.136719 446.070312 130.234375 446.070312 Z M 116.46875 355.214844 C 116.46875 348.113281 122.222656 342.355469 129.320312 342.355469 L 268.394531 342.355469 C 275.492188 342.355469 281.246094 348.113281 281.246094 355.214844 C 281.246094 362.316406 275.492188 368.074219 268.394531 368.074219 L 129.320312 368.074219 C 122.222656 368.074219 116.46875 362.316406 116.46875 355.214844 Z M 116.921875 407.074219 C 116.921875 399.972656 122.679688 394.214844 129.777344 394.214844 L 268.851562 394.214844 C 275.949219 394.214844 281.703125 399.972656 281.703125 407.074219 C 281.703125 414.171875 275.949219 419.929688 268.851562 419.929688 L 129.777344 419.929688 C 122.679688 419.929688 116.921875 414.171875 116.921875 407.074219 Z M 117.382812 199.648438 C 117.382812 192.546875 123.136719 186.789062 130.234375 186.789062 L 269.308594 186.789062 C 276.40625 186.789062 282.160156 192.546875 282.160156 199.648438 C 282.160156 206.75 276.40625 212.507812 269.308594 212.507812 L 130.234375 212.507812 C 123.136719 212.507812 117.382812 206.75 117.382812 199.648438 Z M 116.921875 251.503906 C 116.921875 244.40625 122.679688 238.648438 129.777344 238.648438 L 268.851562 238.648438 C 275.949219 238.648438 281.703125 244.40625 281.703125 251.503906 C 281.703125 258.605469 275.949219 264.363281 268.851562 264.363281 L 129.777344 264.363281 C 122.679688 264.363281 116.921875 258.605469 116.921875 251.503906 Z M 116.46875 303.359375 C 116.46875 296.257812 122.222656 290.5 129.320312 290.5 L 268.394531 290.5 C 275.492188 290.5 281.246094 296.257812 281.246094 303.359375 C 281.246094 310.460938 275.492188 316.21875 268.394531 316.21875 L 129.320312 316.21875 C 122.222656 316.21875 116.46875 310.460938 116.46875 303.359375 Z M 116.46875 303.359375 "/></g><g clip-rule="nonzero" clip-path="url(#2b37e379a9)"><path style=" stroke:none;fill-rule:nonzero;fill:#000000;fill-opacity:1;" d="M 726.296875 80.976562 L 666.296875 80.976562 L 671.621094 68.992188 C 673.777344 64.128906 672.722656 58.441406 668.960938 54.679688 L 644.261719 29.972656 C 640.503906 26.210938 634.816406 25.15625 629.957031 27.3125 L 614.976562 33.96875 C 607.53125 29.9375 599.714844 26.695312 591.617188 24.28125 L 585.734375 8.992188 C 583.824219 4.023438 579.054688 0.75 573.738281 0.75 L 538.808594 0.75 C 533.492188 0.75 528.726562 4.027344 526.8125 8.988281 L 520.933594 24.277344 C 512.832031 26.695312 505.015625 29.9375 497.574219 33.96875 L 482.59375 27.3125 C 477.734375 25.148438 472.046875 26.207031 468.285156 29.96875 L 443.589844 54.675781 C 439.828125 58.441406 438.773438 64.128906 440.929688 68.988281 L 446.25 80.976562 L 406.308594 80.976562 L 406.308594 54.597656 C 406.308594 31.746094 387.722656 13.15625 364.882812 13.15625 L 353.453125 13.15625 C 330.609375 13.15625 312.027344 31.746094 312.027344 54.597656 L 312.027344 80.976562 L 83.3125 80.976562 C 44.019531 80.976562 12.050781 112.957031 12.050781 152.269531 L 12.050781 554.25 C 12.050781 593.558594 44.019531 625.539062 83.3125 625.539062 L 272.554688 625.539062 L 272.554688 692.65625 L 196.5 692.65625 C 161.945312 692.65625 133.832031 716.285156 133.832031 745.328125 L 133.832031 785.140625 C 133.832031 792.242188 139.589844 798 146.6875 798 L 662.925781 798 C 670.023438 798 675.78125 792.242188 675.78125 785.140625 L 675.78125 745.328125 C 675.78125 716.285156 647.667969 692.652344 613.113281 692.652344 L 537.058594 692.652344 L 537.058594 625.535156 L 726.296875 625.535156 C 765.59375 625.535156 797.5625 593.558594 797.5625 554.246094 L 797.5625 152.269531 C 797.5625 112.957031 765.589844 80.976562 726.296875 80.976562 Z M 461.113281 119.972656 C 463.511719 109.898438 467.484375 100.3125 472.925781 91.472656 C 475.148438 87.863281 475.449219 83.386719 473.730469 79.511719 L 468.007812 66.621094 L 480.222656 54.402344 L 493.113281 60.125 C 496.988281 61.847656 501.460938 61.546875 505.066406 59.324219 C 513.90625 53.878906 523.488281 49.90625 533.554688 47.507812 C 537.675781 46.527344 541.050781 43.578125 542.574219 39.621094 L 547.636719 26.46875 L 564.914062 26.46875 L 569.972656 39.621094 C 571.496094 43.578125 574.871094 46.527344 578.996094 47.507812 C 589.054688 49.90625 598.640625 53.882812 607.480469 59.324219 C 611.089844 61.550781 615.5625 61.851562 619.4375 60.128906 L 632.324219 54.402344 L 644.542969 66.621094 L 638.820312 79.515625 C 637.097656 83.390625 637.398438 87.867188 639.621094 91.476562 C 645.0625 100.316406 649.039062 109.902344 651.433594 119.972656 C 652.414062 124.09375 655.363281 127.472656 659.320312 128.996094 L 672.464844 134.054688 L 672.464844 151.339844 L 659.324219 156.398438 C 655.367188 157.921875 652.417969 161.296875 651.4375 165.421875 C 649.039062 175.496094 645.066406 185.085938 639.625 193.925781 C 637.402344 197.535156 637.101562 202.011719 638.820312 205.886719 L 644.542969 218.773438 L 632.328125 230.996094 L 619.4375 225.269531 C 615.5625 223.546875 611.089844 223.847656 607.480469 226.070312 C 598.640625 231.515625 589.058594 235.492188 578.996094 237.886719 C 574.875 238.867188 571.496094 241.820312 569.976562 245.777344 L 564.917969 258.929688 L 547.640625 258.929688 L 542.582031 245.78125 C 541.058594 241.824219 537.683594 238.871094 533.5625 237.890625 C 523.492188 235.496094 513.90625 231.519531 505.070312 226.074219 C 501.460938 223.847656 496.984375 223.554688 493.109375 225.269531 L 480.230469 230.996094 L 468.011719 218.773438 L 473.738281 205.882812 C 475.457031 202.003906 475.15625 197.53125 472.933594 193.921875 C 467.492188 185.082031 463.519531 175.492188 461.125 165.425781 C 460.140625 161.300781 457.191406 157.925781 453.238281 156.402344 L 440.089844 151.339844 L 440.089844 134.058594 L 453.230469 128.996094 C 457.183594 127.472656 460.132812 124.097656 461.113281 119.972656 Z M 313.75 351.421875 L 348.035156 410.828125 C 350.332031 414.808594 354.574219 417.257812 359.167969 417.257812 C 363.757812 417.257812 368.003906 414.808594 370.296875 410.828125 L 404.585938 351.421875 C 405.710938 349.464844 406.308594 347.25 406.308594 344.992188 L 406.308594 155.558594 L 414.375 155.558594 L 414.375 160.167969 C 414.375 165.488281 417.652344 170.257812 422.613281 172.171875 L 437.894531 178.054688 C 440.308594 186.15625 443.550781 193.976562 447.582031 201.421875 L 440.929688 216.40625 C 438.769531 221.265625 439.824219 226.957031 443.585938 230.714844 L 468.285156 255.425781 C 472.046875 259.1875 477.734375 260.242188 482.59375 258.082031 L 497.5625 251.429688 C 505.007812 255.460938 512.828125 258.707031 520.933594 261.121094 L 526.8125 276.40625 C 528.722656 281.371094 533.492188 284.644531 538.808594 284.644531 L 573.734375 284.644531 C 579.054688 284.644531 583.820312 281.371094 585.730469 276.40625 L 591.613281 261.117188 C 599.710938 258.699219 607.53125 255.457031 614.976562 251.425781 L 629.953125 258.082031 C 634.8125 260.246094 640.5 259.1875 644.261719 255.425781 L 668.957031 230.71875 C 672.71875 226.957031 673.777344 221.265625 671.617188 216.40625 L 664.96875 201.429688 C 668.996094 193.980469 672.238281 186.160156 674.65625 178.054688 L 689.933594 172.171875 C 694.894531 170.261719 698.167969 165.488281 698.167969 160.167969 L 698.167969 155.558594 L 723.003906 155.558594 L 723.003906 501.394531 L 86.601562 501.394531 L 86.601562 155.558594 L 312.027344 155.558594 L 312.027344 344.992188 C 312.027344 347.25 312.621094 349.464844 313.75 351.421875 Z M 347.144531 357.851562 L 371.1875 357.851562 L 359.167969 378.679688 Z M 438.105469 106.695312 C 438.039062 106.914062 437.957031 107.125 437.890625 107.34375 L 422.613281 113.226562 C 417.652344 115.136719 414.378906 119.90625 414.378906 125.226562 L 414.378906 129.839844 L 406.308594 129.839844 L 406.308594 106.695312 Z M 353.453125 38.875 L 364.882812 38.875 C 373.550781 38.875 380.601562 45.929688 380.601562 54.597656 L 380.601562 332.132812 L 337.734375 332.132812 L 337.734375 142.703125 C 337.734375 142.699219 337.734375 142.699219 337.734375 142.699219 C 337.734375 142.695312 337.734375 142.695312 337.734375 142.691406 L 337.734375 54.597656 C 337.734375 45.929688 344.785156 38.875 353.453125 38.875 Z M 650.070312 745.328125 L 650.070312 772.28125 L 159.539062 772.28125 L 159.539062 745.328125 C 159.539062 730.714844 176.464844 718.371094 196.496094 718.371094 L 613.113281 718.371094 C 633.144531 718.375 650.070312 730.71875 650.070312 745.328125 Z M 511.347656 692.65625 L 298.261719 692.65625 L 298.261719 625.539062 L 511.347656 625.539062 Z M 771.851562 554.25 C 771.851562 579.378906 751.414062 599.824219 726.296875 599.824219 L 83.3125 599.824219 C 58.195312 599.824219 37.757812 579.378906 37.757812 554.25 L 37.757812 152.269531 C 37.757812 127.140625 58.195312 106.695312 83.3125 106.695312 L 312.027344 106.695312 L 312.027344 129.839844 L 81.847656 129.839844 C 70.292969 129.839844 60.894531 139.242188 60.894531 150.800781 L 60.894531 514.253906 C 60.894531 521.355469 66.648438 527.113281 73.746094 527.113281 L 735.859375 527.113281 C 742.960938 527.113281 748.714844 521.355469 748.714844 514.253906 L 748.714844 150.800781 C 748.714844 139.246094 739.3125 129.839844 727.757812 129.839844 L 698.171875 129.839844 L 698.171875 125.230469 C 698.171875 119.910156 694.898438 115.140625 689.933594 113.230469 L 674.652344 107.34375 C 674.585938 107.125 674.507812 106.914062 674.441406 106.695312 L 726.292969 106.695312 C 751.414062 106.695312 771.851562 127.140625 771.851562 152.269531 Z M 556.273438 216.492188 C 596.949219 216.492188 630.042969 183.386719 630.042969 142.699219 C 630.042969 102.011719 596.949219 68.90625 556.273438 68.90625 C 515.597656 68.90625 482.503906 102.011719 482.503906 142.699219 C 482.503906 183.386719 515.597656 216.492188 556.273438 216.492188 Z M 556.273438 94.621094 C 582.773438 94.621094 604.332031 116.1875 604.332031 142.699219 C 604.332031 169.207031 582.773438 190.773438 556.273438 190.773438 C 529.773438 190.773438 508.214844 169.207031 508.214844 142.699219 C 508.214844 116.1875 529.773438 94.621094 556.273438 94.621094 Z M 535.148438 456.105469 L 568.25 332.523438 C 570.089844 325.664062 577.140625 321.59375 583.992188 323.429688 C 590.851562 325.269531 594.921875 332.320312 593.082031 339.179688 L 559.980469 462.761719 C 558.441406 468.507812 553.246094 472.296875 547.570312 472.296875 C 546.46875 472.296875 545.351562 472.15625 544.238281 471.855469 C 537.378906 470.015625 533.308594 462.964844 535.148438 456.105469 Z M 448.371094 397.644531 C 448.371094 393.855469 450.042969 390.253906 452.941406 387.8125 L 506.878906 342.34375 C 512.304688 337.765625 520.414062 338.457031 524.992188 343.890625 C 529.566406 349.320312 528.871094 357.433594 523.445312 362.007812 L 481.171875 397.644531 L 523.445312 433.277344 C 528.871094 437.855469 529.566406 445.96875 524.992188 451.398438 C 522.445312 454.414062 518.8125 455.96875 515.152344 455.96875 C 512.230469 455.96875 509.289062 454.976562 506.878906 452.945312 L 452.941406 407.476562 C 450.042969 405.035156 448.371094 401.4375 448.371094 397.644531 Z M 604.785156 433.277344 L 647.054688 397.644531 L 604.785156 362.007812 C 599.355469 357.429688 598.660156 349.320312 603.238281 343.890625 C 607.8125 338.457031 615.921875 337.765625 621.351562 342.34375 L 675.289062 387.8125 C 678.1875 390.253906 679.859375 393.855469 679.859375 397.644531 C 679.859375 401.4375 678.1875 405.035156 675.289062 407.476562 L 621.351562 452.945312 C 618.9375 454.976562 616 455.96875 613.074219 455.96875 C 609.414062 455.96875 605.78125 454.414062 603.238281 451.398438 C 598.664062 445.964844 599.355469 437.855469 604.785156 433.277344 Z M 130.234375 443.820312 L 397.855469 443.820312 C 404.953125 443.820312 410.710938 449.574219 410.710938 456.675781 C 410.710938 463.777344 404.953125 469.535156 397.855469 469.535156 L 130.234375 469.535156 C 123.136719 469.535156 117.382812 463.777344 117.382812 456.675781 C 117.382812 449.574219 123.136719 443.820312 130.234375 443.820312 Z M 116.46875 352.964844 C 116.46875 345.863281 122.222656 340.105469 129.320312 340.105469 L 268.394531 340.105469 C 275.492188 340.105469 281.246094 345.863281 281.246094 352.964844 C 281.246094 360.066406 275.492188 365.824219 268.394531 365.824219 L 129.320312 365.824219 C 122.222656 365.824219 116.46875 360.066406 116.46875 352.964844 Z M 116.921875 404.824219 C 116.921875 397.722656 122.679688 391.964844 129.777344 391.964844 L 268.851562 391.964844 C 275.949219 391.964844 281.703125 397.722656 281.703125 404.824219 C 281.703125 411.921875 275.949219 417.679688 268.851562 417.679688 L 129.777344 417.679688 C 122.679688 417.679688 116.921875 411.921875 116.921875 404.824219 Z M 117.382812 197.398438 C 117.382812 190.296875 123.136719 184.539062 130.234375 184.539062 L 269.308594 184.539062 C 276.40625 184.539062 282.160156 190.296875 282.160156 197.398438 C 282.160156 204.5 276.40625 210.257812 269.308594 210.257812 L 130.234375 210.257812 C 123.136719 210.257812 117.382812 204.5 117.382812 197.398438 Z M 116.921875 249.253906 C 116.921875 242.15625 122.679688 236.398438 129.777344 236.398438 L 268.851562 236.398438 C 275.949219 236.398438 281.703125 242.15625 281.703125 249.253906 C 281.703125 256.355469 275.949219 262.113281 268.851562 262.113281 L 129.777344 262.113281 C 122.679688 262.113281 116.921875 256.355469 116.921875 249.253906 Z M 116.46875 301.109375 C 116.46875 294.007812 122.222656 288.25 129.320312 288.25 L 268.394531 288.25 C 275.492188 288.25 281.246094 294.007812 281.246094 301.109375 C 281.246094 308.210938 275.492188 313.96875 268.394531 313.96875 L 129.320312 313.96875 C 122.222656 313.96875 116.46875 308.210938 116.46875 301.109375 Z M 116.46875 301.109375 "/></g></g></svg>