<svg xmlns="http://www.w3.org/2000/svg" xmlns:xlink="http://www.w3.org/1999/xlink" width="1080" zoomAndPan="magnify" viewBox="0 0 810 809.999993" height="1080" preserveAspectRatio="xMidYMid meet" version="1.0"><defs><clipPath id="4d2a53b934"><path d="M 20.550781 22.355469 L 792.449219 22.355469 L 792.449219 794.25 L 20.550781 794.25 Z M 20.550781 22.355469 " clip-rule="nonzero"/></clipPath><clipPath id="84d69f2e5e"><path d="M 406.5 22.355469 C 193.347656 22.355469 20.550781 195.148438 20.550781 408.300781 C 20.550781 621.457031 193.347656 794.25 406.5 794.25 C 619.652344 794.25 792.449219 621.457031 792.449219 408.300781 C 792.449219 195.148438 619.652344 22.355469 406.5 22.355469 Z M 406.5 22.355469 " clip-rule="nonzero"/></clipPath><clipPath id="beb7072cb9"><path d="M 0.550781 0.355469 L 772.449219 0.355469 L 772.449219 772.25 L 0.550781 772.25 Z M 0.550781 0.355469 " clip-rule="nonzero"/></clipPath><clipPath id="8fde4a9ed4"><path d="M 386.5 0.355469 C 173.347656 0.355469 0.550781 173.148438 0.550781 386.300781 C 0.550781 599.457031 173.347656 772.25 386.5 772.25 C 599.652344 772.25 772.449219 599.457031 772.449219 386.300781 C 772.449219 173.148438 599.652344 0.355469 386.5 0.355469 Z M 386.5 0.355469 " clip-rule="nonzero"/></clipPath><clipPath id="612643a23d"><rect x="0" width="773" y="0" height="773"/></clipPath><clipPath id="5430651485"><path d="M 172.304688 121.175781 L 695.804688 121.175781 L 695.804688 676 L 172.304688 676 Z M 172.304688 121.175781 " clip-rule="nonzero"/></clipPath></defs><g clip-path="url(#4d2a53b934)"><g clip-path="url(#84d69f2e5e)"><g transform="matrix(1, 0, 0, 1, 20, 22)"><g clip-path="url(#612643a23d)"><g clip-path="url(#beb7072cb9)"><g clip-path="url(#8fde4a9ed4)"><path fill="#000000" d="M 0.550781 0.355469 L 772.449219 0.355469 L 772.449219 772.25 L 0.550781 772.25 Z M 0.550781 0.355469 " fill-opacity="1" fill-rule="nonzero"/></g></g></g></g></g></g><g clip-path="url(#5430651485)"><path fill="#ffffff" d="M 695.332031 605.074219 L 695.332031 632.332031 C 695.332031 655.894531 676.109375 675.226562 652.433594 675.226562 L 251.285156 675.226562 C 263.558594 665.019531 271.160156 649.488281 271.160156 632.332031 L 271.160156 605.074219 C 271.160156 602.03125 273.65625 599.535156 276.699219 599.535156 L 689.683594 599.535156 C 692.832031 599.535156 695.332031 602.03125 695.332031 605.074219 Z M 563.386719 533.835938 C 571.207031 525.90625 589.882812 506.902344 597.488281 499.085938 L 557.632812 485.511719 Z M 686.316406 250.1875 C 695.875 215.4375 645.917969 203.273438 637.558594 238.675781 L 684.796875 254.746094 Z M 605.304688 487.898438 L 680.5625 267.128906 L 633.324219 251.054688 C 633.214844 251.164062 609.324219 321.640625 609.214844 321.640625 L 558.175781 471.828125 Z M 213.277344 410.472656 L 213.277344 321.316406 C 213.277344 316.101562 217.515625 311.867188 222.726562 311.867188 L 405.925781 311.867188 C 411.136719 311.867188 415.375 316.101562 415.375 321.316406 L 415.375 410.472656 C 415.375 415.683594 411.136719 419.917969 405.925781 419.917969 L 222.726562 419.917969 C 217.515625 419.8125 213.277344 415.574219 213.277344 410.472656 Z M 326.21875 391.902344 C 326.21875 395.484375 329.148438 398.527344 332.839844 398.527344 L 391.589844 398.527344 C 395.175781 398.527344 398.214844 395.59375 398.214844 391.902344 L 398.214844 358.671875 C 398.214844 355.089844 395.285156 352.046875 391.589844 352.046875 L 332.839844 352.046875 C 329.257812 352.046875 326.21875 354.980469 326.21875 358.671875 Z M 237.386719 391.902344 C 237.386719 395.484375 240.320312 398.527344 244.011719 398.527344 L 297.980469 398.527344 C 301.566406 398.527344 304.605469 395.59375 304.605469 391.902344 L 304.605469 341.296875 C 304.605469 337.714844 301.675781 334.671875 297.980469 334.671875 L 244.011719 334.671875 C 240.425781 334.671875 237.386719 337.605469 237.386719 341.296875 Z M 281.367188 193.175781 C 288.644531 192.847656 286.035156 183.507812 286.472656 178.949219 C 286.472656 176.125 284.191406 173.84375 281.367188 173.84375 L 267.140625 173.84375 L 267.140625 193.175781 C 267.140625 193.175781 276.699219 193.175781 276.699219 193.175781 Z M 232.609375 188.070312 L 232.609375 178.839844 C 232.609375 176.015625 230.328125 173.734375 227.503906 173.734375 L 213.277344 173.734375 L 213.277344 193.066406 L 227.503906 193.066406 C 230.328125 193.175781 232.609375 190.894531 232.609375 188.070312 Z M 384.964844 365.296875 L 339.355469 365.296875 L 339.355469 385.386719 L 384.964844 385.386719 Z M 326 208.703125 C 330.5625 208.269531 340.007812 210.875 340.226562 203.597656 L 340.226562 178.839844 C 340.226562 176.015625 337.945312 173.734375 335.121094 173.734375 C 330.5625 174.171875 321.113281 171.5625 320.894531 178.839844 L 320.894531 203.597656 C 320.894531 206.421875 323.175781 208.703125 326 208.703125 Z M 291.359375 347.8125 L 250.636719 347.8125 L 250.636719 385.277344 L 291.464844 385.277344 L 291.464844 347.8125 Z M 258.019531 630.375 C 258.238281 668.820312 212.300781 690.320312 184.828125 662.738281 C 176.789062 654.703125 172.339844 643.84375 172.339844 632.332031 L 172.339844 126.824219 C 172.339844 123.78125 174.835938 121.175781 177.875 121.175781 L 590.863281 121.175781 C 593.902344 121.175781 596.507812 123.78125 596.507812 126.824219 C 596.507812 126.824219 596.507812 318.492188 596.507812 318.492188 C 596.402344 318.710938 543.515625 474 543.515625 474.21875 C 543.296875 474.976562 543.296875 475.953125 543.296875 476.824219 L 551.984375 549.039062 C 552.417969 552.296875 555.242188 554.902344 558.5 554.792969 C 560.238281 554.792969 561.976562 554.035156 563.277344 552.839844 C 566.753906 549.257812 593.792969 521.5625 596.617188 518.847656 L 596.617188 586.394531 L 276.804688 586.394531 C 266.488281 586.394531 258.019531 594.757812 258.019531 605.183594 C 258.019531 605.074219 258.019531 630.375 258.019531 630.375 Z M 459.898438 445.765625 C 459.898438 449.347656 462.828125 452.390625 466.519531 452.390625 L 508.222656 452.390625 C 516.800781 452.390625 516.800781 439.25 508.222656 439.25 L 466.519531 439.25 C 462.828125 439.140625 459.898438 442.074219 459.898438 445.765625 Z M 466.519531 405.476562 L 508.222656 405.476562 C 516.800781 405.476562 516.800781 392.335938 508.222656 392.335938 L 466.519531 392.335938 C 462.9375 392.335938 459.898438 395.269531 459.898438 398.960938 C 459.898438 402.542969 462.828125 405.476562 466.519531 405.476562 Z M 206.761719 486.054688 C 198.074219 486.164062 198.183594 499.085938 206.761719 499.195312 L 508.222656 499.195312 C 516.910156 499.085938 516.800781 486.164062 508.222656 486.054688 Z M 545.796875 345.53125 L 466.519531 345.53125 C 457.941406 345.53125 457.941406 358.671875 466.519531 358.671875 L 545.796875 358.671875 C 554.375 358.5625 554.375 345.53125 545.796875 345.53125 Z M 561.976562 298.621094 L 466.519531 298.621094 C 457.941406 298.621094 457.941406 311.757812 466.519531 311.757812 L 561.976562 311.757812 C 570.664062 311.757812 570.554688 298.621094 561.976562 298.621094 Z M 561.976562 251.816406 L 206.761719 251.816406 C 197.964844 251.921875 198.292969 264.847656 206.761719 264.957031 L 561.976562 264.957031 C 570.773438 264.738281 570.554688 251.921875 561.976562 251.816406 Z M 529.507812 173.84375 L 539.171875 173.84375 L 539.171875 215.328125 C 539.171875 218.910156 542.101562 221.953125 545.796875 221.953125 C 549.378906 221.953125 552.417969 219.019531 552.417969 215.328125 L 552.417969 173.84375 L 562.085938 173.84375 C 570.664062 173.84375 570.664062 160.703125 562.085938 160.703125 L 529.613281 160.703125 C 520.925781 160.703125 520.925781 173.734375 529.507812 173.84375 Z M 469.128906 203.597656 C 469.128906 213.699219 477.273438 221.84375 487.371094 221.84375 L 508.222656 221.84375 C 511.804688 221.84375 514.847656 218.910156 514.847656 215.21875 C 514.847656 211.636719 511.914062 208.59375 508.222656 208.59375 L 487.371094 208.59375 C 484.546875 208.59375 482.265625 206.3125 482.265625 203.492188 L 482.265625 178.839844 C 482.265625 176.015625 484.546875 173.734375 487.371094 173.734375 L 508.222656 173.734375 C 516.800781 173.734375 516.800781 160.59375 508.222656 160.59375 L 487.371094 160.59375 C 477.273438 160.59375 469.128906 168.742188 469.128906 178.839844 Z M 415.375 203.597656 C 415.375 213.699219 423.519531 221.84375 433.617188 221.84375 L 454.46875 221.84375 C 458.050781 221.84375 461.089844 218.910156 461.089844 215.21875 C 461.089844 211.636719 458.160156 208.59375 454.46875 208.59375 C 454.46875 208.59375 433.617188 208.59375 433.617188 208.59375 C 427.535156 208.378906 428.511719 201.96875 428.511719 197.734375 L 454.46875 197.734375 C 458.050781 197.734375 461.089844 194.804688 461.089844 191.109375 C 461.089844 187.527344 458.160156 184.488281 454.46875 184.488281 L 428.511719 184.488281 L 428.511719 178.839844 C 428.511719 176.015625 430.792969 173.734375 433.617188 173.734375 L 454.46875 173.734375 C 463.046875 173.734375 463.046875 160.59375 454.46875 160.59375 L 433.617188 160.59375 C 423.519531 160.59375 415.375 168.742188 415.375 178.839844 Z M 379.753906 221.84375 L 388.875 221.84375 C 398.976562 221.84375 407.121094 213.699219 407.121094 203.597656 C 407.121094 203.597656 407.121094 167.21875 407.121094 167.21875 C 407.121094 158.640625 393.980469 158.640625 393.980469 167.21875 L 393.980469 203.597656 C 393.980469 206.421875 391.699219 208.703125 388.875 208.703125 C 384.207031 208.269531 374.867188 210.875 374.648438 203.597656 C 374.648438 203.597656 374.648438 199.691406 374.648438 199.691406 C 374.648438 191.109375 361.511719 191.109375 361.511719 199.691406 C 360.097656 210.984375 367.917969 221.953125 379.753906 221.84375 Z M 307.757812 203.597656 C 307.757812 213.699219 315.902344 221.84375 326 221.84375 L 335.121094 221.84375 C 345.222656 221.84375 353.367188 213.699219 353.367188 203.597656 L 353.367188 178.839844 C 353.367188 168.742188 345.222656 160.59375 335.121094 160.59375 L 326 160.59375 C 315.902344 160.59375 307.757812 168.742188 307.757812 178.839844 Z M 254 215.21875 C 254 223.796875 267.140625 223.796875 267.140625 215.21875 L 267.140625 206.207031 L 274.199219 206.207031 L 288.535156 219.886719 C 289.835938 221.082031 291.464844 221.734375 293.09375 221.734375 C 298.742188 221.953125 302 214.242188 297.65625 210.441406 L 290.597656 203.597656 C 296.027344 200.449219 299.71875 194.585938 299.71875 187.960938 L 299.71875 178.839844 C 299.71875 168.742188 291.574219 160.59375 281.476562 160.59375 L 260.515625 160.59375 C 256.933594 160.59375 253.894531 163.527344 253.894531 167.21875 C 254 167.21875 254 215.21875 254 215.21875 Z M 200.136719 215.21875 C 200.136719 223.796875 213.277344 223.796875 213.277344 215.21875 L 213.277344 206.207031 L 227.503906 206.207031 C 237.605469 206.207031 245.75 198.0625 245.75 187.960938 L 245.75 178.839844 C 245.75 168.742188 237.605469 160.59375 227.503906 160.59375 L 206.761719 160.59375 C 203.179688 160.59375 200.136719 163.527344 200.136719 167.21875 C 200.136719 167.21875 200.136719 215.21875 200.136719 215.21875 Z M 200.136719 410.472656 C 200.136719 422.960938 210.238281 433.058594 222.726562 433.058594 L 405.925781 433.058594 C 418.414062 433.058594 428.511719 422.960938 428.511719 410.472656 L 428.511719 321.316406 C 428.511719 308.828125 418.414062 298.726562 405.925781 298.726562 L 222.726562 298.726562 C 210.238281 298.726562 200.136719 308.828125 200.136719 321.316406 Z M 508.222656 546 C 516.910156 545.890625 516.800781 532.964844 508.222656 532.859375 L 206.761719 532.859375 C 198.074219 532.964844 198.183594 545.890625 206.761719 546 Z M 508.222656 546 " fill-opacity="1" fill-rule="nonzero"/></g></svg>