<svg xmlns="http://www.w3.org/2000/svg" xmlns:xlink="http://www.w3.org/1999/xlink" width="1080" zoomAndPan="magnify" viewBox="0 0 810 809.999993" height="1080" preserveAspectRatio="xMidYMid meet" version="1.2"><defs><clipPath id="b84212e084"><path d="M 8.703125 3.175781 L 801.453125 3.175781 L 801.453125 807.175781 L 8.703125 807.175781 Z M 8.703125 3.175781 "/></clipPath><clipPath id="742a201df7"><path d="M 9.152344 3.175781 L 801.902344 3.175781 L 801.902344 807 L 9.152344 807 Z M 9.152344 3.175781 "/></clipPath></defs><g id="0bc7d64db2"><g clip-rule="nonzero" clip-path="url(#b84212e084)"><path style=" stroke:none;fill-rule:nonzero;fill:#000000;fill-opacity:1;" d="M 729.242188 84.082031 L 668.730469 84.082031 L 674.097656 71.996094 C 676.277344 67.09375 675.210938 61.355469 671.417969 57.5625 L 646.507812 32.644531 C 642.714844 28.855469 636.980469 27.789062 632.078125 29.964844 L 616.972656 36.675781 C 609.460938 32.613281 601.578125 29.34375 593.410156 26.90625 L 587.476562 11.488281 C 585.550781 6.476562 580.738281 3.175781 575.378906 3.175781 L 540.152344 3.175781 C 534.785156 3.175781 529.980469 6.480469 528.050781 11.484375 L 522.117188 26.902344 C 513.949219 29.339844 506.066406 32.613281 498.558594 36.675781 L 483.453125 29.964844 C 478.550781 27.78125 472.816406 28.851562 469.023438 32.644531 L 444.113281 57.558594 C 440.320312 61.355469 439.253906 67.089844 441.429688 71.992188 L 446.796875 84.082031 L 406.511719 84.082031 L 406.511719 57.480469 C 406.511719 34.433594 387.769531 15.6875 364.730469 15.6875 L 353.203125 15.6875 C 330.164062 15.6875 311.421875 34.433594 311.421875 57.480469 L 311.421875 84.082031 L 80.746094 84.082031 C 41.113281 84.082031 8.871094 116.332031 8.871094 155.980469 L 8.871094 561.363281 C 8.871094 601.003906 41.113281 633.257812 80.746094 633.257812 L 271.609375 633.257812 L 271.609375 700.941406 L 194.902344 700.941406 C 160.050781 700.941406 131.699219 724.769531 131.699219 754.058594 L 131.699219 794.207031 C 131.699219 801.371094 137.503906 807.175781 144.664062 807.175781 L 665.332031 807.175781 C 672.488281 807.175781 678.292969 801.371094 678.292969 794.207031 L 678.292969 754.058594 C 678.292969 724.769531 649.941406 700.9375 615.089844 700.9375 L 538.382812 700.9375 L 538.382812 633.253906 L 729.246094 633.253906 C 768.878906 633.253906 801.121094 601.003906 801.121094 561.359375 L 801.121094 155.980469 C 801.121094 116.335938 768.875 84.082031 729.242188 84.082031 Z M 461.789062 123.410156 C 464.203125 113.25 468.210938 103.582031 473.699219 94.667969 C 475.945312 91.027344 476.246094 86.511719 474.511719 82.605469 L 468.742188 69.605469 L 481.0625 57.28125 L 494.058594 63.054688 C 497.96875 64.789062 502.480469 64.488281 506.117188 62.246094 C 515.03125 56.753906 524.699219 52.75 534.847656 50.332031 C 539.007812 49.339844 542.410156 46.367188 543.945312 42.375 L 549.054688 29.113281 L 566.476562 29.113281 L 571.582031 42.375 C 573.117188 46.367188 576.519531 49.34375 580.679688 50.332031 C 590.828125 52.75 600.496094 56.757812 609.410156 62.246094 C 613.050781 64.492188 617.5625 64.792969 621.46875 63.054688 L 634.46875 57.28125 L 646.789062 69.605469 L 641.015625 82.609375 C 639.28125 86.515625 639.585938 91.03125 641.828125 94.671875 C 647.316406 103.585938 651.324219 113.253906 653.738281 123.410156 C 654.730469 127.566406 657.707031 130.972656 661.695312 132.507812 L 674.953125 137.613281 L 674.953125 155.039062 L 661.699219 160.144531 C 657.707031 161.679688 654.734375 165.082031 653.742188 169.242188 C 651.324219 179.402344 647.316406 189.074219 641.828125 197.984375 C 639.585938 201.628906 639.285156 206.140625 641.019531 210.050781 L 646.792969 223.046875 L 634.46875 235.371094 L 621.46875 229.597656 C 617.5625 227.859375 613.050781 228.164062 609.410156 230.40625 C 600.496094 235.894531 590.832031 239.902344 580.679688 242.320312 C 576.523438 243.308594 573.117188 246.285156 571.582031 250.277344 L 566.480469 263.542969 L 549.054688 263.542969 L 543.953125 250.28125 C 542.417969 246.289062 539.015625 243.316406 534.855469 242.324219 C 524.699219 239.910156 515.03125 235.898438 506.121094 230.410156 C 502.480469 228.164062 497.96875 227.867188 494.058594 229.597656 L 481.066406 235.371094 L 468.746094 223.046875 L 474.519531 210.042969 C 476.253906 206.136719 475.953125 201.625 473.710938 197.984375 C 468.21875 189.066406 464.214844 179.398438 461.796875 169.246094 C 460.808594 165.085938 457.832031 161.679688 453.84375 160.144531 L 440.582031 155.042969 L 440.582031 137.613281 L 453.835938 132.511719 C 457.824219 130.972656 460.800781 127.566406 461.789062 123.410156 Z M 313.160156 356.816406 L 347.738281 416.726562 C 350.054688 420.738281 354.335938 423.210938 358.964844 423.210938 C 363.597656 423.210938 367.878906 420.738281 370.195312 416.726562 L 404.773438 356.816406 C 405.910156 354.84375 406.511719 352.609375 406.511719 350.332031 L 406.511719 159.296875 L 414.648438 159.296875 L 414.648438 163.945312 C 414.648438 169.3125 417.953125 174.121094 422.957031 176.046875 L 438.371094 181.980469 C 440.804688 190.152344 444.074219 198.039062 448.136719 205.546875 L 441.429688 220.660156 C 439.253906 225.558594 440.316406 231.296875 444.109375 235.089844 L 469.019531 260.007812 C 472.8125 263.800781 478.550781 264.867188 483.449219 262.6875 L 498.550781 255.980469 C 506.058594 260.042969 513.945312 263.316406 522.117188 265.753906 L 528.050781 281.164062 C 529.976562 286.171875 534.785156 289.476562 540.148438 289.476562 L 575.375 289.476562 C 580.738281 289.476562 585.546875 286.171875 587.476562 281.164062 L 593.40625 265.746094 C 601.574219 263.3125 609.460938 260.039062 616.96875 255.976562 L 632.074219 262.6875 C 636.976562 264.867188 642.714844 263.800781 646.503906 260.007812 L 671.414062 235.089844 C 675.207031 231.296875 676.273438 225.558594 674.097656 220.660156 L 667.390625 205.554688 C 671.453125 198.042969 674.726562 190.15625 677.160156 181.980469 L 692.570312 176.046875 C 697.574219 174.121094 700.875 169.3125 700.875 163.945312 L 700.875 159.296875 L 725.925781 159.296875 L 725.925781 508.058594 L 84.0625 508.058594 L 84.0625 159.296875 L 311.421875 159.296875 L 311.421875 350.332031 C 311.421875 352.609375 312.019531 354.84375 313.160156 356.816406 Z M 346.839844 363.300781 L 371.089844 363.300781 L 358.964844 384.304688 Z M 438.582031 110.019531 C 438.511719 110.238281 438.433594 110.453125 438.367188 110.671875 L 422.957031 116.605469 C 417.953125 118.53125 414.652344 123.34375 414.652344 128.707031 L 414.652344 133.359375 L 406.511719 133.359375 L 406.511719 110.019531 Z M 353.203125 41.625 L 364.730469 41.625 C 373.472656 41.625 380.582031 48.738281 380.582031 57.480469 L 380.582031 337.363281 L 337.351562 337.363281 L 337.351562 146.332031 C 337.351562 146.328125 337.351562 146.328125 337.351562 146.324219 C 337.351562 146.324219 337.351562 146.324219 337.351562 146.320312 L 337.351562 57.480469 C 337.351562 48.738281 344.460938 41.625 353.203125 41.625 Z M 652.363281 754.058594 L 652.363281 781.242188 L 157.625 781.242188 L 157.625 754.058594 C 157.625 739.324219 174.695312 726.875 194.902344 726.875 L 615.089844 726.875 C 635.292969 726.875 652.363281 739.324219 652.363281 754.058594 Z M 512.453125 700.941406 L 297.535156 700.941406 L 297.535156 633.253906 L 512.453125 633.253906 Z M 775.191406 561.363281 C 775.191406 586.703125 754.578125 607.320312 729.242188 607.320312 L 80.746094 607.320312 C 55.414062 607.320312 34.800781 586.703125 34.800781 561.363281 L 34.800781 155.980469 C 34.800781 130.636719 55.414062 110.019531 80.746094 110.019531 L 311.421875 110.019531 L 311.421875 133.359375 L 79.269531 133.359375 C 67.617188 133.359375 58.132812 142.84375 58.132812 154.496094 L 58.132812 521.027344 C 58.132812 528.1875 63.9375 533.996094 71.097656 533.996094 L 738.890625 533.996094 C 746.050781 533.996094 751.855469 528.1875 751.855469 521.027344 L 751.855469 154.5 C 751.855469 142.84375 742.375 133.359375 730.71875 133.359375 L 700.878906 133.359375 L 700.878906 128.710938 C 700.878906 123.34375 697.578125 118.535156 692.570312 116.609375 L 677.160156 110.675781 C 677.09375 110.453125 677.011719 110.238281 676.945312 110.019531 L 729.242188 110.019531 C 754.578125 110.019531 775.191406 130.636719 775.191406 155.980469 Z M 557.765625 220.746094 C 598.789062 220.746094 632.164062 187.359375 632.164062 146.328125 C 632.164062 105.292969 598.789062 71.910156 557.765625 71.910156 C 516.738281 71.910156 483.363281 105.292969 483.363281 146.328125 C 483.363281 187.359375 516.738281 220.746094 557.765625 220.746094 Z M 557.765625 97.84375 C 584.492188 97.84375 606.234375 119.59375 606.234375 146.324219 C 606.234375 173.058594 584.492188 194.808594 557.765625 194.808594 C 531.035156 194.808594 509.292969 173.058594 509.292969 146.324219 C 509.292969 119.59375 531.035156 97.84375 557.765625 97.84375 Z M 536.457031 462.386719 L 569.84375 337.757812 C 571.695312 330.839844 578.8125 326.738281 585.722656 328.589844 C 592.636719 330.441406 596.742188 337.554688 594.890625 344.472656 L 561.503906 469.101562 C 559.949219 474.894531 554.710938 478.714844 548.988281 478.714844 C 547.875 478.714844 546.746094 478.574219 545.625 478.273438 C 538.707031 476.417969 534.605469 469.304688 536.457031 462.386719 Z M 448.933594 403.429688 C 448.933594 399.609375 450.621094 395.976562 453.542969 393.515625 L 507.945312 347.660156 C 513.417969 343.042969 521.597656 343.742188 526.210938 349.21875 C 530.828125 354.699219 530.128906 362.878906 524.652344 367.492188 L 482.019531 403.429688 L 524.652344 439.367188 C 530.128906 443.980469 530.828125 452.164062 526.210938 457.640625 C 523.648438 460.683594 519.984375 462.25 516.292969 462.25 C 513.34375 462.25 510.375 461.25 507.945312 459.199219 L 453.542969 413.347656 C 450.621094 410.882812 448.933594 407.253906 448.933594 403.429688 Z M 606.691406 439.367188 L 649.324219 403.429688 L 606.691406 367.492188 C 601.214844 362.878906 600.515625 354.695312 605.132812 349.21875 C 609.746094 343.742188 617.925781 343.042969 623.398438 347.660156 L 677.800781 393.515625 C 680.722656 395.980469 682.410156 399.609375 682.410156 403.429688 C 682.410156 407.253906 680.722656 410.882812 677.800781 413.347656 L 623.398438 459.199219 C 620.96875 461.25 618 462.25 615.050781 462.25 C 611.363281 462.25 607.695312 460.683594 605.132812 457.640625 C 600.515625 452.160156 601.214844 443.980469 606.691406 439.367188 Z M 128.070312 449.996094 L 397.988281 449.996094 C 405.144531 449.996094 410.949219 455.800781 410.949219 462.964844 C 410.949219 470.125 405.144531 475.929688 397.988281 475.929688 L 128.070312 475.929688 C 120.910156 475.929688 115.105469 470.125 115.105469 462.964844 C 115.105469 455.800781 120.910156 449.996094 128.070312 449.996094 Z M 114.183594 358.375 C 114.183594 351.210938 119.988281 345.40625 127.148438 345.40625 L 267.414062 345.40625 C 274.574219 345.40625 280.378906 351.210938 280.378906 358.375 C 280.378906 365.535156 274.574219 371.34375 267.414062 371.34375 L 127.148438 371.34375 C 119.988281 371.34375 114.183594 365.535156 114.183594 358.375 Z M 114.644531 410.667969 C 114.644531 403.507812 120.449219 397.703125 127.609375 397.703125 L 267.875 397.703125 C 275.035156 397.703125 280.839844 403.507812 280.839844 410.667969 C 280.839844 417.832031 275.035156 423.636719 267.875 423.636719 L 127.609375 423.636719 C 120.449219 423.636719 114.644531 417.832031 114.644531 410.667969 Z M 115.105469 201.492188 C 115.105469 194.328125 120.910156 188.523438 128.070312 188.523438 L 268.335938 188.523438 C 275.496094 188.523438 281.300781 194.328125 281.300781 201.492188 C 281.300781 208.652344 275.496094 214.457031 268.335938 214.457031 L 128.070312 214.457031 C 120.910156 214.457031 115.105469 208.652344 115.105469 201.492188 Z M 114.644531 253.785156 C 114.644531 246.625 120.449219 240.820312 127.609375 240.820312 L 267.875 240.820312 C 275.035156 240.820312 280.839844 246.625 280.839844 253.785156 C 280.839844 260.949219 275.035156 266.753906 267.875 266.753906 L 127.609375 266.753906 C 120.449219 266.753906 114.644531 260.949219 114.644531 253.785156 Z M 114.183594 306.082031 C 114.183594 298.917969 119.988281 293.113281 127.148438 293.113281 L 267.414062 293.113281 C 274.574219 293.113281 280.378906 298.917969 280.378906 306.082031 C 280.378906 313.242188 274.574219 319.046875 267.414062 319.046875 L 127.148438 319.046875 C 119.988281 319.046875 114.183594 313.242188 114.183594 306.082031 Z M 114.183594 306.082031 "/></g><g clip-rule="nonzero" clip-path="url(#742a201df7)"><path style=" stroke:none;fill-rule:nonzero;fill:#ffffff;fill-opacity:1;" d="M 729.546875 84.046875 L 669.046875 84.046875 L 674.414062 71.964844 C 676.589844 67.0625 675.523438 61.328125 671.730469 57.539062 L 646.828125 32.632812 C 643.035156 28.84375 637.300781 27.78125 632.398438 29.953125 L 617.296875 36.660156 C 609.789062 32.597656 601.90625 29.332031 593.742188 26.894531 L 587.808594 11.484375 C 585.882812 6.476562 581.074219 3.175781 575.710938 3.175781 L 540.492188 3.175781 C 535.128906 3.175781 530.324219 6.476562 528.394531 11.480469 L 522.464844 26.894531 C 514.296875 29.328125 506.414062 32.597656 498.910156 36.660156 L 483.804688 29.949219 C 478.90625 27.773438 473.171875 28.839844 469.378906 32.628906 L 444.472656 57.535156 C 440.683594 61.328125 439.617188 67.0625 441.792969 71.960938 L 447.160156 84.042969 L 406.882812 84.042969 L 406.882812 57.457031 C 406.882812 34.421875 388.140625 15.683594 365.109375 15.683594 L 353.582031 15.683594 C 330.550781 15.683594 311.8125 34.421875 311.8125 57.457031 L 311.8125 84.046875 L 81.183594 84.046875 C 41.558594 84.046875 9.324219 116.28125 9.324219 155.910156 L 9.324219 561.109375 C 9.324219 600.734375 41.558594 632.972656 81.183594 632.972656 L 272.007812 632.972656 L 272.007812 700.625 L 195.316406 700.625 C 160.472656 700.625 132.125 724.445312 132.125 753.722656 L 132.125 793.851562 C 132.125 801.007812 137.929688 806.8125 145.085938 806.8125 L 665.644531 806.8125 C 672.804688 806.8125 678.609375 801.007812 678.609375 793.851562 L 678.609375 753.71875 C 678.609375 724.441406 650.261719 700.621094 615.417969 700.621094 L 538.726562 700.621094 L 538.726562 632.96875 L 729.546875 632.96875 C 769.171875 632.96875 801.410156 600.730469 801.410156 561.105469 L 801.410156 155.910156 C 801.410156 116.285156 769.171875 84.046875 729.546875 84.046875 Z M 462.144531 123.355469 C 464.5625 113.199219 468.570312 103.535156 474.054688 94.625 C 476.300781 90.988281 476.601562 86.472656 474.867188 82.566406 L 469.097656 69.574219 L 481.414062 57.257812 L 494.410156 63.027344 C 498.320312 64.761719 502.828125 64.460938 506.46875 62.21875 C 515.378906 56.730469 525.042969 52.726562 535.191406 50.308594 C 539.347656 49.320312 542.753906 46.347656 544.289062 42.355469 L 549.390625 29.101562 L 566.8125 29.101562 L 571.917969 42.359375 C 573.453125 46.347656 576.855469 49.324219 581.011719 50.3125 C 591.160156 52.726562 600.824219 56.734375 609.738281 62.222656 C 613.375 64.464844 617.886719 64.765625 621.792969 63.03125 L 634.789062 57.257812 L 647.109375 69.578125 L 641.335938 82.574219 C 639.601562 86.480469 639.90625 90.988281 642.148438 94.628906 C 647.636719 103.539062 651.640625 113.203125 654.058594 123.355469 C 655.046875 127.511719 658.023438 130.914062 662.011719 132.449219 L 675.265625 137.550781 L 675.265625 154.972656 L 662.015625 160.070312 C 658.027344 161.605469 655.050781 165.011719 654.0625 169.167969 C 651.644531 179.324219 647.636719 188.988281 642.148438 197.898438 C 639.910156 201.539062 639.605469 206.050781 641.339844 209.957031 L 647.109375 222.945312 L 634.792969 235.265625 L 621.792969 229.492188 C 617.886719 227.757812 613.375 228.0625 609.738281 230.300781 C 600.824219 235.789062 591.164062 239.796875 581.015625 242.214844 C 576.855469 243.203125 573.453125 246.175781 571.917969 250.164062 L 566.816406 263.421875 L 549.394531 263.421875 L 544.296875 250.171875 C 542.761719 246.179688 539.355469 243.207031 535.199219 242.21875 C 525.046875 239.800781 515.378906 235.792969 506.46875 230.304688 C 502.828125 228.0625 498.316406 227.765625 494.410156 229.496094 L 481.421875 235.265625 L 469.101562 222.949219 L 474.875 209.949219 C 476.609375 206.042969 476.308594 201.535156 474.066406 197.894531 C 468.578125 188.984375 464.570312 179.320312 462.15625 169.171875 C 461.164062 165.011719 458.191406 161.609375 454.203125 160.074219 L 440.945312 154.972656 L 440.945312 137.550781 L 454.195312 132.453125 C 458.179688 130.914062 461.15625 127.511719 462.144531 123.355469 Z M 313.546875 356.65625 L 348.121094 416.539062 C 350.4375 420.550781 354.714844 423.019531 359.34375 423.019531 C 363.976562 423.019531 368.253906 420.550781 370.570312 416.539062 L 405.144531 356.65625 C 406.28125 354.6875 406.878906 352.449219 406.878906 350.175781 L 406.878906 159.222656 L 415.015625 159.222656 L 415.015625 163.871094 C 415.015625 169.234375 418.320312 174.042969 423.320312 175.96875 L 438.734375 181.902344 C 441.167969 190.066406 444.4375 197.949219 448.5 205.457031 L 441.789062 220.558594 C 439.613281 225.460938 440.679688 231.195312 444.472656 234.984375 L 469.378906 259.890625 C 473.167969 263.683594 478.90625 264.746094 483.804688 262.570312 L 498.898438 255.863281 C 506.40625 259.929688 514.292969 263.199219 522.464844 265.632812 L 528.394531 281.039062 C 530.320312 286.042969 535.128906 289.34375 540.492188 289.34375 L 575.710938 289.34375 C 581.074219 289.34375 585.878906 286.042969 587.804688 281.039062 L 593.738281 265.628906 C 601.902344 263.195312 609.785156 259.921875 617.292969 255.863281 L 632.398438 262.570312 C 637.296875 264.75 643.035156 263.683594 646.824219 259.890625 L 671.730469 234.988281 C 675.519531 231.195312 676.585938 225.460938 674.410156 220.558594 L 667.707031 205.464844 C 671.769531 197.957031 675.039062 190.070312 677.472656 181.898438 L 692.878906 175.96875 C 697.882812 174.042969 701.183594 169.234375 701.183594 163.871094 L 701.183594 159.222656 L 726.226562 159.222656 L 726.226562 507.832031 L 84.5 507.832031 L 84.5 159.222656 L 311.8125 159.222656 L 311.8125 350.175781 C 311.8125 352.449219 312.410156 354.6875 313.546875 356.65625 Z M 347.222656 363.136719 L 371.46875 363.136719 L 359.34375 384.132812 Z M 438.941406 109.96875 C 438.875 110.191406 438.796875 110.402344 438.730469 110.625 L 423.324219 116.554688 C 418.320312 118.480469 415.019531 123.289062 415.019531 128.652344 L 415.019531 133.300781 L 406.882812 133.300781 L 406.882812 109.96875 Z M 353.582031 41.605469 L 365.109375 41.605469 C 373.847656 41.605469 380.957031 48.71875 380.957031 57.457031 L 380.957031 337.214844 L 337.734375 337.214844 L 337.734375 146.265625 C 337.734375 146.265625 337.734375 146.261719 337.734375 146.261719 C 337.734375 146.257812 337.734375 146.257812 337.734375 146.257812 L 337.734375 57.457031 C 337.734375 48.714844 344.84375 41.605469 353.582031 41.605469 Z M 652.683594 753.71875 L 652.683594 780.890625 L 158.046875 780.890625 L 158.046875 753.71875 C 158.046875 738.988281 175.113281 726.546875 195.3125 726.546875 L 615.414062 726.546875 C 635.617188 726.546875 652.683594 738.992188 652.683594 753.71875 Z M 512.800781 700.625 L 297.929688 700.625 L 297.929688 632.96875 L 512.800781 632.96875 Z M 775.484375 561.109375 C 775.484375 586.441406 754.878906 607.046875 729.546875 607.046875 L 81.183594 607.046875 C 55.855469 607.046875 35.246094 586.441406 35.246094 561.109375 L 35.246094 155.910156 C 35.246094 130.578125 55.855469 109.96875 81.183594 109.96875 L 311.8125 109.96875 L 311.8125 133.300781 L 79.707031 133.300781 C 68.054688 133.300781 58.574219 142.777344 58.574219 154.429688 L 58.574219 520.792969 C 58.574219 527.953125 64.378906 533.753906 71.535156 533.753906 L 739.191406 533.753906 C 746.351562 533.753906 752.152344 527.953125 752.152344 520.792969 L 752.152344 154.429688 C 752.152344 142.78125 742.671875 133.300781 731.023438 133.300781 L 701.1875 133.300781 L 701.1875 128.652344 C 701.1875 123.289062 697.886719 118.484375 692.882812 116.558594 L 677.472656 110.625 C 677.40625 110.40625 677.324219 110.191406 677.257812 109.972656 L 729.542969 109.972656 C 754.875 109.972656 775.484375 130.582031 775.484375 155.910156 Z M 558.101562 220.648438 C 599.117188 220.648438 632.488281 187.277344 632.488281 146.261719 C 632.488281 105.246094 599.117188 71.878906 558.101562 71.878906 C 517.085938 71.878906 483.714844 105.246094 483.714844 146.261719 C 483.714844 187.277344 517.085938 220.648438 558.101562 220.648438 Z M 558.101562 97.800781 C 584.824219 97.800781 606.5625 119.539062 606.5625 146.261719 C 606.5625 172.980469 584.824219 194.722656 558.101562 194.722656 C 531.378906 194.722656 509.640625 172.980469 509.640625 146.261719 C 509.640625 119.539062 531.378906 97.800781 558.101562 97.800781 Z M 536.796875 462.179688 L 570.179688 337.609375 C 572.03125 330.691406 579.144531 326.589844 586.054688 328.441406 C 592.96875 330.296875 597.074219 337.402344 595.21875 344.316406 L 561.839844 468.890625 C 560.285156 474.679688 555.050781 478.5 549.324219 478.5 C 548.214844 478.5 547.085938 478.359375 545.964844 478.058594 C 539.050781 476.203125 534.945312 469.09375 536.796875 462.179688 Z M 449.292969 403.25 C 449.292969 399.429688 450.980469 395.800781 453.902344 393.339844 L 508.292969 347.503906 C 513.765625 342.890625 521.941406 343.585938 526.558594 349.0625 C 531.167969 354.539062 530.472656 362.714844 525 367.328125 L 482.371094 403.25 L 525 439.171875 C 530.472656 443.78125 531.171875 451.960938 526.558594 457.433594 C 523.992188 460.476562 520.328125 462.042969 516.636719 462.042969 C 513.6875 462.042969 510.722656 461.042969 508.292969 458.992188 L 453.902344 413.160156 C 450.980469 410.699219 449.292969 407.070312 449.292969 403.25 Z M 607.019531 439.171875 L 649.644531 403.25 L 607.019531 367.328125 C 601.542969 362.714844 600.84375 354.539062 605.460938 349.0625 C 610.074219 343.589844 618.25 342.890625 623.722656 347.503906 L 678.113281 393.339844 C 681.035156 395.800781 682.722656 399.429688 682.722656 403.25 C 682.722656 407.070312 681.035156 410.699219 678.113281 413.160156 L 623.722656 458.992188 C 621.292969 461.042969 618.328125 462.042969 615.378906 462.042969 C 611.6875 462.042969 608.023438 460.476562 605.460938 457.433594 C 600.847656 451.957031 601.542969 443.78125 607.019531 439.171875 Z M 128.496094 449.792969 L 398.355469 449.792969 C 405.515625 449.792969 411.320312 455.597656 411.320312 462.757812 C 411.320312 469.914062 405.515625 475.71875 398.355469 475.71875 L 128.496094 475.71875 C 121.339844 475.71875 115.535156 469.914062 115.535156 462.757812 C 115.535156 455.597656 121.339844 449.792969 128.496094 449.792969 Z M 114.613281 358.214844 C 114.613281 351.054688 120.417969 345.25 127.574219 345.25 L 267.8125 345.25 C 274.96875 345.25 280.773438 351.054688 280.773438 358.214844 C 280.773438 365.371094 274.96875 371.175781 267.8125 371.175781 L 127.574219 371.175781 C 120.414062 371.175781 114.613281 365.371094 114.613281 358.214844 Z M 115.074219 410.484375 C 115.074219 403.328125 120.878906 397.523438 128.035156 397.523438 L 268.273438 397.523438 C 275.429688 397.523438 281.234375 403.328125 281.234375 410.484375 C 281.234375 417.644531 275.429688 423.449219 268.273438 423.449219 L 128.035156 423.449219 C 120.878906 423.449219 115.074219 417.644531 115.074219 410.484375 Z M 115.535156 201.402344 C 115.535156 194.242188 121.339844 188.4375 128.496094 188.4375 L 268.734375 188.4375 C 275.890625 188.4375 281.695312 194.242188 281.695312 201.402344 C 281.695312 208.558594 275.890625 214.363281 268.734375 214.363281 L 128.496094 214.363281 C 121.339844 214.363281 115.535156 208.558594 115.535156 201.402344 Z M 115.074219 253.671875 C 115.074219 246.515625 120.878906 240.710938 128.035156 240.710938 L 268.273438 240.710938 C 275.429688 240.710938 281.234375 246.515625 281.234375 253.671875 C 281.234375 260.832031 275.429688 266.636719 268.273438 266.636719 L 128.035156 266.636719 C 120.878906 266.636719 115.074219 260.832031 115.074219 253.671875 Z M 114.613281 305.941406 C 114.613281 298.785156 120.417969 292.980469 127.574219 292.980469 L 267.8125 292.980469 C 274.96875 292.980469 280.773438 298.785156 280.773438 305.941406 C 280.773438 313.101562 274.96875 318.90625 267.8125 318.90625 L 127.574219 318.90625 C 120.414062 318.90625 114.613281 313.101562 114.613281 305.941406 Z M 114.613281 305.941406 "/></g></g></svg>