<svg xmlns="http://www.w3.org/2000/svg" xmlns:xlink="http://www.w3.org/1999/xlink" width="1080" zoomAndPan="magnify" viewBox="0 0 810 809.999993" height="1080" preserveAspectRatio="xMidYMid meet" version="1.0"><defs><clipPath id="e23f009474"><path d="M 20.550781 22.355469 L 792.449219 22.355469 L 792.449219 794.25 L 20.550781 794.25 Z M 20.550781 22.355469 " clip-rule="nonzero"/></clipPath><clipPath id="663bdd7a54"><path d="M 406.5 22.355469 C 193.347656 22.355469 20.550781 195.148438 20.550781 408.300781 C 20.550781 621.457031 193.347656 794.25 406.5 794.25 C 619.652344 794.25 792.449219 621.457031 792.449219 408.300781 C 792.449219 195.148438 619.652344 22.355469 406.5 22.355469 Z M 406.5 22.355469 " clip-rule="nonzero"/></clipPath><clipPath id="1b8df8713c"><path d="M 0.550781 0.355469 L 772.449219 0.355469 L 772.449219 772.25 L 0.550781 772.25 Z M 0.550781 0.355469 " clip-rule="nonzero"/></clipPath><clipPath id="bb859142f7"><path d="M 386.5 0.355469 C 173.347656 0.355469 0.550781 173.148438 0.550781 386.300781 C 0.550781 599.457031 173.347656 772.25 386.5 772.25 C 599.652344 772.25 772.449219 599.457031 772.449219 386.300781 C 772.449219 173.148438 599.652344 0.355469 386.5 0.355469 Z M 386.5 0.355469 " clip-rule="nonzero"/></clipPath><clipPath id="5efd41be24"><rect x="0" width="773" y="0" height="773"/></clipPath><clipPath id="87f3ff421a"><path d="M 172.304688 121.175781 L 695.804688 121.175781 L 695.804688 676 L 172.304688 676 Z M 172.304688 121.175781 " clip-rule="nonzero"/></clipPath></defs><g clip-path="url(#e23f009474)"><g clip-path="url(#663bdd7a54)"><g transform="matrix(1, 0, 0, 1, 20, 22)"><g clip-path="url(#5efd41be24)"><g clip-path="url(#1b8df8713c)"><g clip-path="url(#bb859142f7)"><path fill="#ffffff" d="M 0.550781 0.355469 L 772.449219 0.355469 L 772.449219 772.25 L 0.550781 772.25 Z M 0.550781 0.355469 " fill-opacity="1" fill-rule="nonzero"/></g></g></g></g></g></g><g clip-path="url(#87f3ff421a)"><path fill="#000000" d="M 695.226562 605.164062 L 695.226562 632.425781 C 695.226562 655.996094 676.007812 675.328125 652.339844 675.328125 L 251.269531 675.328125 C 263.539062 665.117188 271.140625 649.585938 271.140625 632.425781 L 271.140625 605.164062 C 271.140625 602.121094 273.636719 599.625 276.675781 599.625 L 689.578125 599.625 C 692.726562 599.625 695.226562 602.121094 695.226562 605.164062 Z M 563.308594 533.910156 C 571.125 525.984375 589.800781 506.976562 597.402344 499.15625 L 557.554688 485.578125 Z M 686.214844 250.210938 C 695.769531 215.453125 645.824219 203.289062 637.464844 238.695312 L 684.691406 254.773438 Z M 605.21875 487.96875 L 680.457031 267.152344 L 633.230469 251.078125 C 633.121094 251.1875 609.234375 321.679688 609.125 321.679688 L 558.097656 471.894531 Z M 213.269531 410.527344 L 213.269531 321.351562 C 213.269531 316.140625 217.503906 311.902344 222.714844 311.902344 L 405.878906 311.902344 C 411.089844 311.902344 415.324219 316.140625 415.324219 321.351562 L 415.324219 410.527344 C 415.324219 415.738281 411.089844 419.976562 405.878906 419.976562 L 222.714844 419.976562 C 217.503906 419.867188 213.269531 415.628906 213.269531 410.527344 Z M 326.1875 391.953125 C 326.1875 395.535156 329.117188 398.578125 332.808594 398.578125 L 391.546875 398.578125 C 395.128906 398.578125 398.167969 395.644531 398.167969 391.953125 L 398.167969 358.714844 C 398.167969 355.132812 395.238281 352.089844 391.546875 352.089844 L 332.808594 352.089844 C 329.226562 352.089844 326.1875 355.023438 326.1875 358.714844 Z M 237.375 391.953125 C 237.375 395.535156 240.304688 398.578125 243.996094 398.578125 L 297.957031 398.578125 C 301.539062 398.578125 304.578125 395.644531 304.578125 391.953125 L 304.578125 341.339844 C 304.578125 337.753906 301.648438 334.710938 297.957031 334.710938 L 243.996094 334.710938 C 240.414062 334.710938 237.375 337.644531 237.375 341.339844 Z M 281.34375 193.1875 C 288.621094 192.863281 286.015625 183.519531 286.449219 178.957031 C 286.449219 176.136719 284.167969 173.855469 281.34375 173.855469 L 267.121094 173.855469 L 267.121094 193.1875 C 267.121094 193.1875 276.675781 193.1875 276.675781 193.1875 Z M 232.597656 188.082031 L 232.597656 178.851562 C 232.597656 176.027344 230.316406 173.746094 227.492188 173.746094 L 213.269531 173.746094 L 213.269531 193.078125 L 227.492188 193.078125 C 230.316406 193.1875 232.597656 190.90625 232.597656 188.082031 Z M 384.925781 365.34375 L 339.324219 365.34375 L 339.324219 385.433594 L 384.925781 385.433594 Z M 325.96875 208.71875 C 330.527344 208.285156 339.976562 210.890625 340.191406 203.613281 L 340.191406 178.851562 C 340.191406 176.027344 337.910156 173.746094 335.089844 173.746094 C 330.527344 174.179688 321.082031 171.574219 320.867188 178.851562 L 320.867188 203.613281 C 320.867188 206.4375 323.144531 208.71875 325.96875 208.71875 Z M 291.335938 347.855469 L 250.621094 347.855469 L 250.621094 385.328125 L 291.441406 385.328125 L 291.441406 347.855469 Z M 258.003906 630.46875 C 258.21875 668.921875 212.292969 690.425781 184.824219 662.835938 C 176.789062 654.800781 172.339844 643.9375 172.339844 632.425781 L 172.339844 126.824219 C 172.339844 123.78125 174.835938 121.175781 177.875 121.175781 L 590.777344 121.175781 C 593.816406 121.175781 596.421875 123.78125 596.421875 126.824219 C 596.421875 126.824219 596.421875 318.527344 596.421875 318.527344 C 596.316406 318.746094 543.441406 474.066406 543.441406 474.28125 C 543.222656 475.042969 543.222656 476.019531 543.222656 476.890625 L 551.910156 549.117188 C 552.34375 552.375 555.164062 554.984375 558.421875 554.875 C 560.160156 554.875 561.898438 554.113281 563.199219 552.917969 C 566.675781 549.335938 593.710938 521.636719 596.53125 518.921875 L 596.53125 586.480469 L 276.785156 586.480469 C 266.472656 586.480469 258.003906 594.84375 258.003906 605.273438 C 258.003906 605.164062 258.003906 630.46875 258.003906 630.46875 Z M 459.839844 445.824219 C 459.839844 449.410156 462.769531 452.449219 466.460938 452.449219 L 508.152344 452.449219 C 516.730469 452.449219 516.730469 439.308594 508.152344 439.308594 L 466.460938 439.308594 C 462.769531 439.199219 459.839844 442.132812 459.839844 445.824219 Z M 466.460938 405.527344 L 508.152344 405.527344 C 516.730469 405.527344 516.730469 392.386719 508.152344 392.386719 L 466.460938 392.386719 C 462.878906 392.386719 459.839844 395.320312 459.839844 399.011719 C 459.839844 402.597656 462.769531 405.527344 466.460938 405.527344 Z M 206.757812 486.121094 C 198.070312 486.230469 198.179688 499.15625 206.757812 499.265625 L 508.152344 499.265625 C 516.839844 499.15625 516.730469 486.230469 508.152344 486.121094 Z M 545.71875 345.574219 L 466.460938 345.574219 C 457.886719 345.574219 457.886719 358.714844 466.460938 358.714844 L 545.71875 358.714844 C 554.296875 358.609375 554.296875 345.574219 545.71875 345.574219 Z M 561.898438 298.652344 L 466.460938 298.652344 C 457.886719 298.652344 457.886719 311.792969 466.460938 311.792969 L 561.898438 311.792969 C 570.582031 311.792969 570.476562 298.652344 561.898438 298.652344 Z M 561.898438 251.839844 L 206.757812 251.839844 C 197.960938 251.949219 198.289062 264.875 206.757812 264.980469 L 561.898438 264.980469 C 570.691406 264.765625 570.476562 251.949219 561.898438 251.839844 Z M 529.433594 173.855469 L 539.097656 173.855469 L 539.097656 215.34375 C 539.097656 218.929688 542.027344 221.96875 545.71875 221.96875 C 549.304688 221.96875 552.34375 219.039062 552.34375 215.34375 L 552.34375 173.855469 L 562.007812 173.855469 C 570.582031 173.855469 570.582031 160.710938 562.007812 160.710938 L 529.542969 160.710938 C 520.855469 160.710938 520.855469 173.746094 529.433594 173.855469 Z M 469.066406 203.613281 C 469.066406 213.714844 477.210938 221.863281 487.308594 221.863281 L 508.152344 221.863281 C 511.738281 221.863281 514.777344 218.929688 514.777344 215.234375 C 514.777344 211.652344 511.84375 208.609375 508.152344 208.609375 L 487.308594 208.609375 C 484.484375 208.609375 482.203125 206.328125 482.203125 203.503906 L 482.203125 178.851562 C 482.203125 176.027344 484.484375 173.746094 487.308594 173.746094 L 508.152344 173.746094 C 516.730469 173.746094 516.730469 160.601562 508.152344 160.601562 L 487.308594 160.601562 C 477.210938 160.601562 469.066406 168.75 469.066406 178.851562 Z M 415.324219 203.613281 C 415.324219 213.714844 423.46875 221.863281 433.566406 221.863281 L 454.410156 221.863281 C 457.992188 221.863281 461.035156 218.929688 461.035156 215.234375 C 461.035156 211.652344 458.101562 208.609375 454.410156 208.609375 C 454.410156 208.609375 433.566406 208.609375 433.566406 208.609375 C 427.484375 208.394531 428.460938 201.984375 428.460938 197.75 L 454.410156 197.75 C 457.992188 197.75 461.035156 194.816406 461.035156 191.125 C 461.035156 187.539062 458.101562 184.5 454.410156 184.5 L 428.460938 184.5 L 428.460938 178.851562 C 428.460938 176.027344 430.742188 173.746094 433.566406 173.746094 L 454.410156 173.746094 C 462.988281 173.746094 462.988281 160.601562 454.410156 160.601562 L 433.566406 160.601562 C 423.46875 160.601562 415.324219 168.75 415.324219 178.851562 Z M 379.710938 221.863281 L 388.832031 221.863281 C 398.929688 221.863281 407.074219 213.714844 407.074219 203.613281 C 407.074219 203.613281 407.074219 167.226562 407.074219 167.226562 C 407.074219 158.648438 393.933594 158.648438 393.933594 167.226562 L 393.933594 203.613281 C 393.933594 206.4375 391.65625 208.71875 388.832031 208.71875 C 384.164062 208.285156 374.828125 210.890625 374.609375 203.613281 C 374.609375 203.613281 374.609375 199.703125 374.609375 199.703125 C 374.609375 191.125 361.472656 191.125 361.472656 199.703125 C 360.0625 211 367.878906 221.96875 379.710938 221.863281 Z M 307.730469 203.613281 C 307.730469 213.714844 315.871094 221.863281 325.96875 221.863281 L 335.089844 221.863281 C 345.1875 221.863281 353.328125 213.714844 353.328125 203.613281 L 353.328125 178.851562 C 353.328125 168.75 345.1875 160.601562 335.089844 160.601562 L 325.96875 160.601562 C 315.871094 160.601562 307.730469 168.75 307.730469 178.851562 Z M 253.984375 215.234375 C 253.984375 223.816406 267.121094 223.816406 267.121094 215.234375 L 267.121094 206.222656 L 274.179688 206.222656 L 288.511719 219.90625 C 289.8125 221.101562 291.441406 221.753906 293.070312 221.753906 C 298.71875 221.96875 301.972656 214.257812 297.632812 210.457031 L 290.574219 203.613281 C 296.003906 200.464844 299.695312 194.597656 299.695312 187.972656 L 299.695312 178.851562 C 299.695312 168.75 291.550781 160.601562 281.453125 160.601562 L 260.5 160.601562 C 256.917969 160.601562 253.875 163.535156 253.875 167.226562 C 253.984375 167.226562 253.984375 215.234375 253.984375 215.234375 Z M 200.132812 215.234375 C 200.132812 223.816406 213.269531 223.816406 213.269531 215.234375 L 213.269531 206.222656 L 227.492188 206.222656 C 237.589844 206.222656 245.734375 198.074219 245.734375 187.972656 L 245.734375 178.851562 C 245.734375 168.75 237.589844 160.601562 227.492188 160.601562 L 206.757812 160.601562 C 203.171875 160.601562 200.132812 163.535156 200.132812 167.226562 C 200.132812 167.226562 200.132812 215.234375 200.132812 215.234375 Z M 200.132812 410.527344 C 200.132812 423.015625 210.230469 433.117188 222.714844 433.117188 L 405.878906 433.117188 C 418.363281 433.117188 428.460938 423.015625 428.460938 410.527344 L 428.460938 321.351562 C 428.460938 308.863281 418.363281 298.761719 405.878906 298.761719 L 222.714844 298.761719 C 210.230469 298.761719 200.132812 308.863281 200.132812 321.351562 Z M 508.152344 546.078125 C 516.839844 545.96875 516.730469 533.042969 508.152344 532.933594 L 206.757812 532.933594 C 198.070312 533.042969 198.179688 545.96875 206.757812 546.078125 Z M 508.152344 546.078125 " fill-opacity="1" fill-rule="nonzero"/></g></svg>