<svg xmlns="http://www.w3.org/2000/svg" xmlns:xlink="http://www.w3.org/1999/xlink" width="1080" zoomAndPan="magnify" viewBox="0 0 810 809.999993" height="1080" preserveAspectRatio="xMidYMid meet" version="1.2"><defs><clipPath id="8261467d9b"><path d="M 1 20.25 L 810 20.25 L 810 772 L 1 772 Z M 1 20.25 "/></clipPath><clipPath id="6667acdc80"><path d="M 1 21.09375 L 810 21.09375 L 810 772 L 1 772 Z M 1 21.09375 "/></clipPath></defs><g id="e076bd5794"><g clip-rule="nonzero" clip-path="url(#8261467d9b)"><path style=" stroke:none;fill-rule:nonzero;fill:#000000;fill-opacity:1;" d="M 244.5 152.085938 C 238.519531 155.101562 231.199219 152.730469 228.148438 146.699219 C 225.132812 140.71875 227.554688 133.394531 233.535156 130.34375 C 331.269531 80.917969 447.285156 84.28125 542.003906 139.238281 C 547.792969 142.601562 549.8125 150.0625 546.398438 155.835938 C 543.03125 161.65625 535.574219 163.644531 529.804688 160.28125 C 442.386719 109.578125 334.582031 106.425781 244.5 152.085938 Z M 678.851562 419.257812 C 678.851562 412.527344 684.289062 407.054688 691.054688 407.054688 C 697.78125 407.054688 703.253906 412.546875 703.253906 419.257812 C 703.253906 454.007812 697.675781 488.40625 686.800781 521.164062 C 684.726562 527.546875 677.804688 531 671.480469 528.925781 C 665.097656 526.796875 661.648438 519.929688 663.722656 513.546875 C 673.816406 483.210938 678.851562 451.773438 678.851562 419.257812 Z M 516.292969 685.59375 C 522.273438 682.527344 529.628906 684.898438 532.695312 690.824219 C 535.765625 696.804688 533.445312 704.164062 527.46875 707.230469 C 463.53125 740.199219 390.253906 750.679688 319.257812 737.324219 C 312.636719 736.085938 308.296875 729.707031 309.53125 723.097656 C 310.769531 716.523438 317.148438 712.128906 323.722656 713.402344 C 389.3125 725.730469 457.152344 716.089844 516.292969 685.59375 Z M 81.15625 441.347656 C 81.644531 448.027344 76.554688 453.851562 69.898438 454.355469 C 63.1875 454.84375 57.347656 449.753906 56.859375 443.039062 C 53.894531 401.632812 58.585938 361.289062 70.890625 322.007812 C 72.859375 315.574219 79.726562 311.980469 86.160156 314.003906 C 92.589844 315.972656 96.148438 322.84375 94.160156 329.277344 C 82.726562 365.542969 78.386719 403.359375 81.15625 441.347656 Z M 263.21875 744.613281 L 276.554688 732.546875 C 279.8125 729.285156 279.707031 726.722656 276.660156 723.203125 L 231.652344 673.339844 L 231.601562 673.390625 C 228.339844 670.128906 225.8125 670.234375 222.308594 673.25 L 208.46875 685.75 C 206.203125 687.828125 205.996094 691.539062 208.070312 693.808594 L 253.824219 744.507812 L 253.875 744.507812 C 255.007812 745.640625 255.757812 746.6875 258.183594 746.828125 C 261.003906 746.984375 261.789062 745.691406 263.21875 744.613281 Z M 293.320312 750.191406 L 279.132812 763.039062 L 279.082031 762.988281 C 266.375 774.496094 248.59375 773.710938 236.636719 761.75 L 236.636719 761.714844 L 236.238281 761.261719 L 190.046875 710.109375 C 183.421875 702.785156 181 693.003906 182.933594 683.867188 L 170.332031 669.9375 C 124.628906 694.503906 67.210938 685.316406 31.445312 646.121094 L 31.390625 646.175781 C 30.9375 645.722656 30.554688 645.285156 30.207031 644.796875 C 9.5 621.417969 0.0703125 591.917969 1.550781 563.011719 C 3.03125 533.859375 15.53125 505.230469 38.75 484.03125 C 39.203125 483.578125 39.636719 483.191406 40.125 482.792969 C 63.5 462.132812 92.992188 452.699219 121.890625 454.128906 C 151.246094 455.664062 180.003906 468.320312 201.234375 491.839844 C 222.484375 515.359375 232.15625 545.261719 230.675781 574.515625 C 229.628906 595.074219 223.113281 615.332031 211.207031 632.941406 L 223.808594 646.871094 C 233.203125 645.929688 241.902344 649.191406 248.855469 656.164062 L 248.804688 656.164062 L 249.207031 656.617188 L 294.664062 706.933594 L 295.066406 707.335938 L 295.011719 707.335938 C 306.515625 720.082031 305.734375 737.828125 293.773438 749.84375 L 293.722656 749.789062 Z M 197.070312 663.261719 L 201.96875 658.867188 L 195.449219 651.648438 L 190.550781 656.042969 Z M 61.738281 506.644531 C 95.640625 476.898438 147.113281 479.898438 177.410156 513.40625 C 207.84375 547.109375 205.367188 598.960938 171.917969 629.59375 L 171.96875 629.644531 C 171.515625 630.097656 171.027344 630.484375 170.539062 630.832031 C 153.738281 645.5625 132.699219 652.277344 111.992188 651.246094 C 91.09375 650.167969 70.542969 641.222656 55.324219 624.554688 L 55.253906 624.554688 C 54.820312 624.101562 54.417969 623.664062 54.015625 623.179688 C 39.339844 606.371094 32.628906 585.273438 33.660156 564.613281 C 34.738281 543.65625 43.679688 523.152344 60.34375 507.933594 L 60.292969 507.878906 C 60.746094 507.425781 61.234375 507.042969 61.738281 506.644531 Z M 119.136719 510.601562 C 104.515625 509.851562 89.644531 514.558594 77.828125 524.828125 L 77.53125 525.125 C 65.328125 536.003906 58.757812 550.578125 57.957031 565.746094 C 57.226562 580.375 61.914062 595.246094 72.230469 607.066406 L 72.476562 607.3125 L 72.476562 607.363281 C 83.386719 619.570312 97.925781 626.140625 113.089844 626.945312 C 127.714844 627.695312 142.582031 622.984375 154.398438 612.664062 L 154.695312 612.367188 L 154.695312 612.421875 C 178.855469 590.871094 181.085938 553.804688 159.332031 529.742188 C 148.597656 517.765625 134.023438 511.332031 119.136719 510.601562 Z M 120.777344 478.414062 C 97.941406 477.28125 74.671875 484.691406 56.300781 500.957031 L 56.003906 501.253906 L 55.953125 501.203125 C 37.179688 518.011719 27.050781 540.796875 25.867188 564.109375 C 24.683594 586.949219 32.089844 610.222656 48.351562 628.601562 L 48.648438 628.898438 C 65.347656 647.726562 88.234375 657.855469 111.503906 659.042969 C 134.667969 660.226562 158.253906 652.574219 176.78125 635.871094 C 195.308594 619.117188 205.296875 596.484375 206.429688 573.347656 C 207.617188 550.210938 200 526.640625 183.265625 508.105469 C 166.53125 489.589844 143.855469 479.601562 120.777344 478.414062 Z M 583.785156 612.351562 C 577.023438 612.351562 571.585938 606.859375 571.585938 600.144531 C 571.585938 593.417969 577.023438 587.941406 583.785156 587.941406 L 648.070312 587.941406 C 654.78125 587.941406 660.269531 593.433594 660.269531 600.144531 C 660.269531 606.859375 654.78125 612.351562 648.070312 612.351562 Z M 583.785156 655.207031 C 577.023438 655.207031 571.585938 649.765625 571.585938 643.054688 C 571.585938 636.289062 577.023438 630.847656 583.785156 630.847656 L 691.839844 630.847656 C 698.601562 630.847656 704.039062 636.289062 704.039062 643.054688 C 704.039062 649.785156 698.601562 655.207031 691.839844 655.207031 Z M 591.855469 678.289062 L 696.054688 678.289062 C 727.238281 678.289062 752.722656 652.730469 752.722656 621.609375 C 752.722656 590.417969 727.222656 564.875 696.054688 564.875 L 591.855469 564.875 C 582.722656 564.875 578.015625 567.785156 572.332031 563.742188 L 555.738281 551.972656 L 559.886719 564.371094 C 561.5625 569.304688 559.886719 574.550781 556.089844 577.671875 L 556.089844 577.726562 C 530.097656 598.976562 527.921875 637.71875 551.835938 661.640625 C 562.101562 671.910156 576.289062 678.289062 591.855469 678.289062 Z M 696.054688 702.699219 L 591.855469 702.699219 C 532.660156 702.699219 493.042969 640.578125 518.578125 586.894531 C 522.585938 578.597656 527.921875 571.03125 534.28125 564.5625 L 520.894531 524.582031 C 516.886719 513.109375 529.839844 503.730469 539.425781 510.496094 L 582.460938 541.042969 C 583.105469 540.988281 583.804688 540.902344 584.484375 540.851562 C 587.253906 540.605469 589.710938 540.449219 591.839844 540.449219 L 696.039062 540.449219 C 740.660156 540.449219 777.125 576.921875 777.125 621.589844 C 777.125 666.226562 740.660156 702.699219 696.054688 702.699219 Z M 663.6875 61.894531 C 663.6875 68.660156 658.195312 74.097656 651.484375 74.097656 C 644.722656 74.097656 639.285156 68.660156 639.285156 61.894531 L 639.285156 32.832031 C 639.285156 26.117188 644.722656 20.625 651.484375 20.625 C 658.195312 20.625 663.6875 26.117188 663.6875 32.832031 Z M 768.882812 191.523438 C 762.117188 191.523438 756.679688 186.03125 756.679688 179.320312 C 756.679688 172.589844 762.117188 167.113281 768.882812 167.113281 L 797.9375 167.113281 C 804.667969 167.113281 810.140625 172.605469 810.140625 179.320312 C 810.140625 186.03125 804.648438 191.523438 797.9375 191.523438 Z M 743.082031 104.941406 C 738.34375 109.683594 730.636719 109.683594 725.84375 104.941406 C 721.105469 100.148438 721.105469 92.441406 725.84375 87.644531 L 746.394531 67.089844 C 751.1875 62.347656 758.894531 62.347656 763.632812 67.089844 C 768.429688 71.886719 768.429688 79.589844 763.632812 84.386719 Z M 534.089844 167.113281 C 540.820312 167.113281 546.292969 172.605469 546.292969 179.320312 C 546.292969 186.03125 540.800781 191.523438 534.089844 191.523438 L 505.035156 191.523438 C 498.269531 191.523438 492.832031 186.03125 492.832031 179.320312 C 492.832031 172.589844 498.269531 167.113281 505.035156 167.113281 Z M 577.074219 87.644531 C 581.867188 92.441406 581.867188 100.148438 577.074219 104.941406 C 572.332031 109.683594 564.628906 109.683594 559.835938 104.941406 L 539.285156 84.386719 C 534.542969 79.589844 534.542969 71.886719 539.285156 67.089844 C 544.078125 62.347656 551.78125 62.347656 556.523438 67.089844 Z M 650.648438 179.023438 C 678.3125 179.023438 692.257812 212.585938 672.683594 232.199219 C 669.859375 234.972656 666.546875 237.238281 662.851562 238.824219 L 662.851562 278.15625 L 677.335938 278.15625 C 687.917969 232.546875 723.632812 232.738281 723.632812 175.710938 C 723.632812 135.820312 691.316406 103.511719 651.484375 103.511719 C 611.605469 103.511719 579.339844 135.835938 579.339844 175.710938 C 579.339844 232.738281 615.054688 232.546875 625.585938 278.15625 L 638.429688 278.15625 L 638.429688 238.824219 C 618.28125 230.230469 612.980469 203.78125 628.652344 188.125 C 634.28125 182.476562 642.039062 179.023438 650.648438 179.023438 Z M 655.441406 205.417969 C 649.167969 199.144531 639.632812 208.628906 645.910156 214.902344 C 652.183594 221.179688 661.71875 211.695312 655.441406 205.417969 Z M 701.09375 283.753906 C 713.503906 293.832031 713.453125 312.714844 701.042969 322.757812 C 703.953125 334.175781 698.425781 345.925781 688.195312 351.226562 C 688.195312 359.632812 687.253906 365.855469 680.839844 372.289062 C 676.289062 376.839844 670.015625 379.648438 663.148438 379.648438 L 639.824219 379.648438 C 626.039062 379.648438 614.777344 368.382812 614.777344 354.59375 L 614.777344 351.226562 C 604.492188 345.945312 599.019531 334.175781 601.929688 322.757812 C 589.484375 312.730469 589.433594 293.847656 601.828125 283.753906 C 592.78125 246.199219 554.9375 242.433594 554.9375 175.710938 C 554.9375 122.34375 598.164062 79.136719 651.484375 79.136719 C 704.804688 79.136719 748.035156 122.324219 748.035156 175.710938 C 748.035156 242.433594 710.175781 246.183594 701.09375 283.753906 Z M 676.777344 328.285156 L 626.175781 328.285156 C 625.742188 328.285156 624.589844 329.519531 626.960938 329.519531 L 676.761719 329.519531 C 677.578125 329.519531 677.578125 328.285156 676.777344 328.285156 Z M 685.335938 302.585938 L 617.601562 302.585938 C 616.765625 302.585938 616.765625 303.875 617.601562 303.875 L 685.335938 303.875 C 686.171875 303.855469 686.171875 302.585938 685.335938 302.585938 Z M 663.792969 353.929688 L 639.179688 353.929688 C 639.179688 354.277344 639.074219 355.21875 639.824219 355.21875 L 663.582031 355.027344 Z M 121.664062 124.554688 C 158.828125 124.554688 188.914062 154.699219 188.914062 191.820312 C 188.914062 228.992188 158.828125 259.085938 121.664062 259.085938 C 84.554688 259.085938 54.417969 228.992188 54.417969 191.820312 C 54.417969 154.699219 84.554688 124.554688 121.664062 124.554688 Z M 151.960938 161.535156 C 125.082031 134.652344 78.839844 153.777344 78.839844 191.835938 C 78.839844 229.949219 125.082031 249.078125 151.960938 222.140625 C 168.710938 205.417969 168.710938 178.289062 151.960938 161.535156 Z M 212.722656 270.90625 L 200.714844 282.917969 C 192.90625 290.675781 180.25 290.675781 172.492188 282.917969 L 169.964844 280.390625 C 163.636719 283.808594 157.015625 286.5625 150.09375 288.601562 C 150.09375 295.523438 149.746094 300.753906 144.273438 306.296875 C 140.613281 309.90625 135.628906 312.121094 130.136719 312.121094 L 113.195312 312.121094 C 102.230469 312.121094 93.234375 303.125 93.234375 292.15625 L 93.234375 288.601562 L 83.109375 284.992188 L 83.109375 285.042969 C 79.746094 283.667969 76.539062 282.082031 73.382812 280.40625 C 68.484375 285.304688 64.546875 288.757812 56.738281 288.757812 C 51.75 288.757812 46.453125 286.789062 42.652344 282.882812 L 42.652344 282.933594 L 30.644531 270.921875 C 22.835938 263.113281 22.835938 250.453125 30.644531 242.695312 L 33.171875 240.132812 C 29.71875 233.804688 27 227.28125 24.960938 220.308594 C 18.039062 220.308594 12.757812 219.960938 7.269531 214.433594 C 3.660156 210.773438 1.394531 205.835938 1.394531 200.347656 L 1.394531 183.398438 C 1.394531 172.433594 10.441406 163.4375 21.40625 163.4375 L 24.960938 163.4375 C 26.984375 156.515625 29.753906 149.890625 33.171875 143.558594 C 28.238281 138.625 24.820312 134.722656 24.820312 126.910156 C 24.820312 121.921875 26.789062 116.625 30.695312 112.824219 L 30.644531 112.824219 L 42.652344 100.808594 C 50.410156 93.050781 63.011719 93 70.871094 100.863281 L 70.871094 100.808594 L 73.398438 103.335938 C 79.726562 99.886719 86.300781 97.164062 93.269531 95.125 C 93.269531 88.203125 93.621094 82.921875 99.144531 77.429688 C 102.753906 73.820312 107.738281 71.554688 113.230469 71.554688 L 130.171875 71.554688 C 141.082031 71.554688 150.128906 80.601562 150.128906 91.570312 L 150.128906 95.125 C 157.050781 97.148438 163.671875 99.867188 170 103.335938 C 174.898438 98.4375 178.804688 94.988281 186.59375 94.988281 C 191.632812 94.988281 196.878906 96.957031 200.730469 100.863281 L 200.730469 100.808594 L 212.742188 112.824219 C 220.496094 120.582031 220.496094 133.292969 212.742188 141.050781 L 210.179688 143.578125 C 213.683594 149.957031 216.402344 156.480469 218.421875 163.453125 C 225.34375 163.453125 230.570312 163.800781 236.113281 169.328125 C 239.722656 172.9375 241.953125 177.925781 241.953125 183.417969 L 241.953125 200.363281 C 241.953125 211.382812 233.011719 220.328125 221.996094 220.328125 L 218.441406 220.328125 C 216.417969 227.246094 213.648438 233.875 210.230469 240.203125 C 215.128906 245.101562 218.578125 249.007812 218.578125 256.800781 C 218.578125 261.839844 216.609375 267.085938 212.707031 270.941406 L 212.722656 270.941406 Z M 186.59375 262.5 L 192.328125 256.765625 L 186.160156 250.644531 L 186.210938 250.59375 C 182.113281 246.546875 181.367188 240.0625 184.730469 235.128906 C 189.957031 227.507812 195.34375 215.84375 196.738281 206.761719 C 197.382812 200.675781 202.5625 195.882812 208.835938 195.882812 L 217.535156 195.882812 L 217.535156 187.828125 L 208.835938 187.828125 L 208.835938 187.773438 C 203.050781 187.773438 197.960938 183.679688 196.878906 177.785156 C 195.238281 169.03125 190.550781 156.390625 185.410156 149.523438 C 181.398438 144.726562 181.660156 137.5625 186.160156 133.0625 L 192.328125 126.890625 L 186.59375 121.207031 L 180.425781 127.328125 C 176.378906 131.375 169.84375 132.121094 164.964844 128.757812 C 157.347656 123.5625 145.683594 118.175781 136.605469 116.796875 C 130.519531 116.152344 125.726562 110.972656 125.726562 104.699219 L 125.726562 95.945312 L 117.65625 95.945312 L 117.65625 104.699219 L 117.605469 104.699219 C 117.605469 110.433594 113.507812 115.578125 107.617188 116.65625 C 98.867188 118.246094 86.230469 122.933594 79.363281 128.078125 C 74.566406 132.121094 67.402344 131.878906 62.90625 127.328125 L 56.738281 121.207031 L 51.054688 126.890625 L 57.171875 133.0625 L 57.171875 133.117188 C 61.214844 137.160156 61.964844 143.648438 58.601562 148.582031 C 53.371094 156.289062 48.019531 167.707031 46.644531 176.894531 C 46 183.03125 40.824219 187.808594 34.546875 187.808594 L 25.796875 187.808594 L 25.796875 195.863281 L 34.546875 195.863281 L 34.546875 195.917969 C 40.28125 195.917969 45.425781 200.015625 46.503906 205.90625 C 48.089844 214.609375 52.78125 227.300781 57.921875 234.167969 C 61.964844 238.964844 61.722656 246.078125 57.171875 250.628906 L 51.054688 256.746094 L 56.738281 262.484375 L 62.90625 256.3125 L 62.90625 256.363281 C 67.003906 252.265625 73.488281 251.515625 78.421875 254.882812 C 82.761719 257.898438 87.464844 260.460938 92.453125 262.535156 L 92.398438 262.535156 C 97 264.417969 101.792969 265.902344 106.726562 266.878906 C 112.863281 267.523438 117.640625 272.699219 117.640625 278.996094 L 117.640625 287.695312 L 125.691406 287.695312 L 125.691406 278.996094 L 125.746094 278.996094 C 125.746094 273.207031 129.839844 268.117188 135.730469 267.035156 C 145.023438 265.308594 156.734375 260.808594 164.285156 255.316406 C 169.078125 251.570312 175.996094 251.902344 180.390625 256.3125 Z M 305.609375 579.644531 L 396.773438 579.644531 L 396.773438 567.734375 C 381.746094 567.734375 369.652344 569.460938 357.988281 557.796875 C 351.871094 551.660156 348.054688 543.222656 348.054688 533.875 C 348.054688 527.144531 353.542969 521.722656 360.253906 521.722656 C 366.964844 521.722656 372.457031 527.164062 372.457031 533.875 C 372.457031 539.070312 376.710938 543.308594 381.886719 543.308594 L 456.4375 543.308594 C 467.558594 543.308594 476.746094 534.171875 476.746094 522.996094 L 476.746094 500.261719 C 476.746094 496.410156 478.574219 492.640625 481.972656 490.269531 L 513.890625 468.078125 L 485.179688 448.164062 C 481.46875 445.550781 479.359375 440.949219 480.144531 436.207031 L 487.898438 388.519531 C 499.457031 317.648438 430.589844 258.945312 361.910156 258.945312 C 291.054688 258.945312 236.113281 319.183594 236.113281 390.507812 C 236.113281 414.621094 242.285156 437.214844 253.058594 456.585938 C 264.074219 476.359375 279.882812 492.867188 298.8125 504.375 C 302.820312 506.347656 305.574219 510.496094 305.574219 515.289062 L 305.574219 579.644531 Z M 421.191406 579.9375 C 433.933594 581.960938 443.574219 593.03125 443.574219 606.179688 L 443.574219 625.707031 C 443.574219 640.332031 431.617188 652.242188 417.042969 652.242188 L 285.375 652.242188 C 270.75 652.242188 258.84375 640.332031 258.84375 625.707031 L 258.84375 606.179688 C 258.84375 593.03125 268.484375 581.960938 281.226562 579.9375 L 281.226562 521.96875 C 200.296875 468.339844 187.882812 350.914062 255.585938 280.390625 C 289.140625 245.449219 336.671875 228.449219 386.070312 236.503906 C 459.835938 248.570312 524.714844 314.386719 511.972656 392.425781 L 505.453125 432.507812 L 542.265625 458.105469 C 549.480469 463.089844 549.027344 473.515625 542.074219 478.277344 L 501.21875 506.644531 L 501.21875 522.996094 C 501.21875 547.613281 481.101562 567.71875 456.507812 567.71875 L 421.226562 567.71875 L 421.226562 579.9375 Z M 417.042969 604 L 285.375 604 C 284.242188 604 283.246094 604.992188 283.246094 606.179688 L 283.246094 625.707031 C 283.246094 626.839844 284.242188 627.832031 285.375 627.832031 L 417.042969 627.832031 C 418.175781 627.832031 419.171875 626.839844 419.171875 625.707031 L 419.171875 606.179688 C 419.152344 604.992188 418.175781 604 417.042969 604 Z M 417.042969 604 "/></g><g clip-rule="nonzero" clip-path="url(#6667acdc80)"><path style=" stroke:none;fill-rule:nonzero;fill:#ffffff;fill-opacity:1;" d="M 244.5 152.898438 C 238.519531 155.914062 231.199219 153.542969 228.148438 147.511719 C 225.132812 141.53125 227.554688 134.210938 233.535156 131.160156 C 331.269531 81.746094 447.285156 85.109375 542.003906 140.050781 C 547.792969 143.414062 549.8125 150.875 546.398438 156.644531 C 543.03125 162.464844 535.574219 164.453125 529.804688 161.089844 C 442.386719 110.402344 334.582031 107.246094 244.5 152.898438 Z M 678.851562 420.003906 C 678.851562 413.273438 684.289062 407.800781 691.054688 407.800781 C 697.78125 407.800781 703.253906 413.292969 703.253906 420.003906 C 703.253906 454.742188 697.675781 489.132812 686.800781 521.886719 C 684.726562 528.265625 677.804688 531.714844 671.480469 529.640625 C 665.097656 527.515625 661.648438 520.648438 663.722656 514.269531 C 673.816406 483.9375 678.851562 452.511719 678.851562 420.003906 Z M 516.292969 686.273438 C 522.273438 683.207031 529.628906 685.574219 532.695312 691.503906 C 535.765625 697.480469 533.445312 704.835938 527.46875 707.90625 C 463.53125 740.867188 390.253906 751.339844 319.257812 737.988281 C 312.636719 736.753906 308.296875 730.371094 309.53125 723.765625 C 310.769531 717.195312 317.148438 712.800781 323.722656 714.074219 C 389.3125 726.398438 457.152344 716.757812 516.292969 686.273438 Z M 81.15625 442.089844 C 81.644531 448.765625 76.554688 454.585938 69.898438 455.089844 C 63.1875 455.578125 57.347656 450.488281 56.859375 443.777344 C 53.894531 402.382812 58.585938 362.046875 70.890625 322.777344 C 72.859375 316.34375 79.726562 312.753906 86.160156 314.773438 C 92.589844 316.746094 96.148438 323.613281 94.160156 330.042969 C 82.726562 366.300781 78.386719 404.105469 81.15625 442.089844 Z M 263.21875 745.277344 L 276.554688 733.214844 C 279.8125 729.953125 279.707031 727.390625 276.660156 723.871094 L 231.652344 674.019531 L 231.601562 674.070312 C 228.339844 670.8125 225.8125 670.917969 222.308594 673.933594 L 208.46875 686.429688 C 206.203125 688.503906 205.996094 692.21875 208.070312 694.484375 L 253.824219 745.171875 L 253.875 745.171875 C 255.007812 746.304688 255.757812 747.351562 258.183594 747.488281 C 261.003906 747.644531 261.789062 746.355469 263.21875 745.277344 Z M 293.320312 750.855469 L 279.132812 763.699219 L 279.082031 763.648438 C 266.375 775.152344 248.59375 774.367188 236.636719 762.410156 L 236.636719 762.375 L 236.238281 761.921875 L 190.046875 710.78125 C 183.421875 703.460938 181 693.679688 182.933594 684.546875 L 170.332031 670.621094 C 124.628906 695.179688 67.210938 685.996094 31.445312 646.808594 L 31.390625 646.863281 C 30.9375 646.410156 30.554688 645.972656 30.207031 645.484375 C 9.5 622.109375 0.0703125 592.617188 1.550781 563.71875 C 3.03125 534.574219 15.53125 505.953125 38.75 484.757812 C 39.203125 484.304688 39.636719 483.921875 40.125 483.519531 C 63.5 462.867188 92.992188 453.433594 121.890625 454.863281 C 151.246094 456.398438 180.003906 469.054688 201.234375 492.566406 C 222.484375 516.082031 232.15625 545.972656 230.675781 575.222656 C 229.628906 595.773438 223.113281 616.027344 211.207031 633.632812 L 223.808594 647.558594 C 233.203125 646.617188 241.902344 649.878906 248.855469 656.851562 L 248.804688 656.851562 L 249.207031 657.304688 L 294.664062 707.609375 L 295.066406 708.007812 L 295.011719 708.007812 C 306.515625 720.75 305.734375 738.496094 293.773438 750.503906 L 293.722656 750.453125 Z M 197.070312 663.945312 L 201.96875 659.550781 L 195.449219 652.335938 L 190.550781 656.726562 Z M 61.738281 507.367188 C 95.640625 477.628906 147.113281 480.628906 177.410156 514.128906 C 207.84375 547.820312 205.367188 599.660156 171.917969 630.285156 L 171.96875 630.339844 C 171.515625 630.792969 171.027344 631.175781 170.539062 631.523438 C 153.738281 646.253906 132.699219 652.964844 111.992188 651.933594 C 91.09375 650.855469 70.542969 641.914062 55.324219 625.25 L 55.253906 625.25 C 54.820312 624.796875 54.417969 624.359375 54.015625 623.871094 C 39.339844 607.070312 32.628906 585.976562 33.660156 565.324219 C 34.738281 544.371094 43.679688 523.871094 60.34375 508.65625 L 60.292969 508.601562 C 60.746094 508.148438 61.234375 507.765625 61.738281 507.367188 Z M 119.136719 511.324219 C 104.515625 510.574219 89.644531 515.277344 77.828125 525.546875 L 77.53125 525.84375 C 65.328125 536.71875 58.757812 551.289062 57.957031 566.457031 C 57.226562 581.078125 61.914062 595.949219 72.230469 607.765625 L 72.476562 608.011719 L 72.476562 608.0625 C 83.386719 620.261719 97.925781 626.835938 113.089844 627.636719 C 127.714844 628.386719 142.582031 623.679688 154.398438 613.359375 L 154.695312 613.066406 L 154.695312 613.117188 C 178.855469 591.574219 181.085938 554.515625 159.332031 530.460938 C 148.597656 518.484375 134.023438 512.054688 119.136719 511.324219 Z M 120.777344 479.144531 C 97.941406 478.011719 74.671875 485.421875 56.300781 501.683594 L 56.003906 501.980469 L 55.953125 501.925781 C 37.179688 518.730469 27.050781 541.511719 25.867188 564.816406 C 24.683594 587.652344 32.089844 610.921875 48.351562 629.292969 L 48.648438 629.589844 C 65.347656 648.414062 88.234375 658.542969 111.503906 659.726562 C 134.667969 660.910156 158.253906 653.257812 176.78125 636.5625 C 195.308594 619.808594 205.296875 597.183594 206.429688 574.054688 C 207.617188 550.925781 200 527.359375 183.265625 508.828125 C 166.53125 490.320312 143.855469 480.332031 120.777344 479.144531 Z M 583.785156 613.046875 C 577.023438 613.046875 571.585938 607.554688 571.585938 600.847656 C 571.585938 594.117188 577.023438 588.644531 583.785156 588.644531 L 648.070312 588.644531 C 654.78125 588.644531 660.269531 594.136719 660.269531 600.847656 C 660.269531 607.554688 654.78125 613.046875 648.070312 613.046875 Z M 583.785156 655.890625 C 577.023438 655.890625 571.585938 650.453125 571.585938 643.742188 C 571.585938 636.980469 577.023438 631.542969 583.785156 631.542969 L 691.839844 631.542969 C 698.601562 631.542969 704.039062 636.980469 704.039062 643.742188 C 704.039062 650.472656 698.601562 655.890625 691.839844 655.890625 Z M 591.855469 678.96875 L 696.054688 678.96875 C 727.238281 678.96875 752.722656 653.417969 752.722656 622.304688 C 752.722656 591.121094 727.222656 565.582031 696.054688 565.582031 L 591.855469 565.582031 C 582.722656 565.582031 578.015625 568.496094 572.332031 564.449219 L 555.738281 552.683594 L 559.886719 565.078125 C 561.5625 570.011719 559.886719 575.257812 556.089844 578.378906 L 556.089844 578.429688 C 530.097656 599.679688 527.921875 638.410156 551.835938 662.324219 C 562.101562 672.589844 576.289062 678.96875 591.855469 678.96875 Z M 696.054688 703.371094 L 591.855469 703.371094 C 532.660156 703.371094 493.042969 641.265625 518.578125 587.597656 C 522.585938 579.300781 527.921875 571.738281 534.28125 565.269531 L 520.894531 525.300781 C 516.886719 513.832031 529.839844 504.453125 539.425781 511.21875 L 582.460938 541.757812 C 583.105469 541.703125 583.804688 541.617188 584.484375 541.5625 C 587.253906 541.320312 589.710938 541.164062 591.839844 541.164062 L 696.039062 541.164062 C 740.660156 541.164062 777.125 577.628906 777.125 622.285156 C 777.125 666.90625 740.660156 703.371094 696.054688 703.371094 Z M 663.6875 62.726562 C 663.6875 69.492188 658.195312 74.929688 651.484375 74.929688 C 644.722656 74.929688 639.285156 69.492188 639.285156 62.726562 L 639.285156 33.671875 C 639.285156 26.960938 644.722656 21.46875 651.484375 21.46875 C 658.195312 21.46875 663.6875 26.960938 663.6875 33.671875 Z M 768.882812 192.324219 C 762.117188 192.324219 756.679688 186.835938 756.679688 180.125 C 756.679688 173.394531 762.117188 167.921875 768.882812 167.921875 L 797.9375 167.921875 C 804.667969 167.921875 810.140625 173.414062 810.140625 180.125 C 810.140625 186.835938 804.648438 192.324219 797.9375 192.324219 Z M 743.082031 105.765625 C 738.34375 110.503906 730.636719 110.503906 725.84375 105.765625 C 721.105469 100.972656 721.105469 93.265625 725.84375 88.472656 L 746.394531 67.921875 C 751.1875 63.179688 758.894531 63.179688 763.632812 67.921875 C 768.429688 72.714844 768.429688 80.421875 763.632812 85.214844 Z M 534.089844 167.921875 C 540.820312 167.921875 546.292969 173.414062 546.292969 180.125 C 546.292969 186.835938 540.800781 192.324219 534.089844 192.324219 L 505.035156 192.324219 C 498.269531 192.324219 492.832031 186.835938 492.832031 180.125 C 492.832031 173.394531 498.269531 167.921875 505.035156 167.921875 Z M 577.074219 88.472656 C 581.867188 93.265625 581.867188 100.972656 577.074219 105.765625 C 572.332031 110.503906 564.628906 110.503906 559.835938 105.765625 L 539.285156 85.214844 C 534.542969 80.421875 534.542969 72.714844 539.285156 67.921875 C 544.078125 63.179688 551.78125 63.179688 556.523438 67.921875 Z M 650.648438 179.828125 C 678.3125 179.828125 692.257812 213.382812 672.683594 232.992188 C 669.859375 235.761719 666.546875 238.027344 662.851562 239.613281 L 662.851562 278.9375 L 677.335938 278.9375 C 687.917969 233.339844 723.632812 233.53125 723.632812 176.515625 C 723.632812 136.632812 691.316406 104.335938 651.484375 104.335938 C 611.605469 104.335938 579.339844 136.652344 579.339844 176.515625 C 579.339844 233.53125 615.054688 233.339844 625.585938 278.9375 L 638.429688 278.9375 L 638.429688 239.613281 C 618.28125 231.019531 612.980469 204.578125 628.652344 188.925781 C 634.28125 183.277344 642.039062 179.828125 650.648438 179.828125 Z M 655.441406 206.21875 C 649.167969 199.941406 639.632812 209.425781 645.910156 215.699219 C 652.183594 221.972656 661.71875 212.492188 655.441406 206.21875 Z M 701.09375 284.53125 C 713.503906 294.609375 713.453125 313.484375 701.042969 323.523438 C 703.953125 334.941406 698.425781 346.691406 688.195312 351.988281 C 688.195312 360.390625 687.253906 366.613281 680.839844 373.046875 C 676.289062 377.59375 670.015625 380.402344 663.148438 380.402344 L 639.824219 380.402344 C 626.039062 380.402344 614.777344 369.140625 614.777344 355.351562 L 614.777344 351.988281 C 604.492188 346.707031 599.019531 334.941406 601.929688 323.523438 C 589.484375 313.503906 589.433594 294.625 601.828125 284.53125 C 592.78125 246.988281 554.9375 243.222656 554.9375 176.515625 C 554.9375 123.160156 598.164062 79.96875 651.484375 79.96875 C 704.804688 79.96875 748.035156 123.144531 748.035156 176.515625 C 748.035156 243.222656 710.175781 246.96875 701.09375 284.53125 Z M 676.777344 329.050781 L 626.175781 329.050781 C 625.742188 329.050781 624.589844 330.289062 626.960938 330.289062 L 676.761719 330.289062 C 677.578125 330.289062 677.578125 329.050781 676.777344 329.050781 Z M 685.335938 303.359375 L 617.601562 303.359375 C 616.765625 303.359375 616.765625 304.648438 617.601562 304.648438 L 685.335938 304.648438 C 686.171875 304.628906 686.171875 303.359375 685.335938 303.359375 Z M 663.792969 354.691406 L 639.179688 354.691406 C 639.179688 355.039062 639.074219 355.980469 639.824219 355.980469 L 663.582031 355.789062 Z M 121.664062 125.375 C 158.828125 125.375 188.914062 155.511719 188.914062 192.621094 C 188.914062 229.785156 158.828125 259.867188 121.664062 259.867188 C 84.554688 259.867188 54.417969 229.785156 54.417969 192.621094 C 54.417969 155.511719 84.554688 125.375 121.664062 125.375 Z M 151.960938 162.34375 C 125.082031 135.464844 78.839844 154.585938 78.839844 192.636719 C 78.839844 230.742188 125.082031 249.863281 151.960938 222.933594 C 168.710938 206.21875 168.710938 179.09375 151.960938 162.34375 Z M 212.722656 271.6875 L 200.714844 283.695312 C 192.90625 291.453125 180.25 291.453125 172.492188 283.695312 L 169.964844 281.167969 C 163.636719 284.585938 157.015625 287.339844 150.09375 289.378906 C 150.09375 296.296875 149.746094 301.527344 144.273438 307.070312 C 140.613281 310.679688 135.628906 312.890625 130.136719 312.890625 L 113.195312 312.890625 C 102.230469 312.890625 93.234375 303.898438 93.234375 292.933594 L 93.234375 289.378906 L 83.109375 285.769531 L 83.109375 285.824219 C 79.746094 284.445312 76.539062 282.859375 73.382812 281.1875 C 68.484375 286.085938 64.546875 289.535156 56.738281 289.535156 C 51.75 289.535156 46.453125 287.566406 42.652344 283.660156 L 42.652344 283.714844 L 30.644531 271.703125 C 22.835938 263.894531 22.835938 251.242188 30.644531 243.484375 L 33.171875 240.921875 C 29.71875 234.59375 27 228.074219 24.960938 221.101562 C 18.039062 221.101562 12.757812 220.753906 7.269531 215.230469 C 3.660156 211.566406 1.394531 206.636719 1.394531 201.144531 L 1.394531 184.203125 C 1.394531 173.238281 10.441406 164.246094 21.40625 164.246094 L 24.960938 164.246094 C 26.984375 157.324219 29.753906 150.699219 33.171875 144.375 C 28.238281 139.441406 24.820312 135.535156 24.820312 127.726562 C 24.820312 122.742188 26.789062 117.441406 30.695312 113.644531 L 30.644531 113.644531 L 42.652344 101.632812 C 50.410156 93.875 63.011719 93.824219 70.871094 101.6875 L 70.871094 101.632812 L 73.398438 104.160156 C 79.726562 100.710938 86.300781 97.992188 93.269531 95.949219 C 93.269531 89.03125 93.621094 83.75 99.144531 78.257812 C 102.753906 74.652344 107.738281 72.386719 113.230469 72.386719 L 130.171875 72.386719 C 141.082031 72.386719 150.128906 81.429688 150.128906 92.394531 L 150.128906 95.949219 C 157.050781 97.972656 163.671875 100.691406 170 104.160156 C 174.898438 99.261719 178.804688 95.8125 186.59375 95.8125 C 191.632812 95.8125 196.878906 97.78125 200.730469 101.6875 L 200.730469 101.632812 L 212.742188 113.644531 C 220.496094 121.398438 220.496094 134.105469 212.742188 141.863281 L 210.179688 144.390625 C 213.683594 150.769531 216.402344 157.289062 218.421875 164.261719 C 225.34375 164.261719 230.570312 164.609375 236.113281 170.136719 C 239.722656 173.742188 241.953125 178.730469 241.953125 184.21875 L 241.953125 201.164062 C 241.953125 212.179688 233.011719 221.121094 221.996094 221.121094 L 218.441406 221.121094 C 216.417969 228.039062 213.648438 234.664062 210.230469 240.992188 C 215.128906 245.890625 218.578125 249.792969 218.578125 257.585938 C 218.578125 262.621094 216.609375 267.867188 212.707031 271.722656 L 212.722656 271.722656 Z M 186.59375 263.285156 L 192.328125 257.550781 L 186.160156 251.433594 L 186.210938 251.378906 C 182.113281 247.335938 181.367188 240.851562 184.730469 235.917969 C 189.957031 228.300781 195.34375 216.640625 196.738281 207.558594 C 197.382812 201.476562 202.5625 196.683594 208.835938 196.683594 L 217.535156 196.683594 L 217.535156 188.628906 L 208.835938 188.628906 L 208.835938 188.578125 C 203.050781 188.578125 197.960938 184.480469 196.878906 178.589844 C 195.238281 169.839844 190.550781 157.203125 185.410156 150.335938 C 181.398438 145.542969 181.660156 138.378906 186.160156 133.878906 L 192.328125 127.710938 L 186.59375 122.027344 L 180.425781 128.144531 C 176.378906 132.1875 169.84375 132.9375 164.964844 129.574219 C 157.347656 124.378906 145.683594 118.996094 136.605469 117.617188 C 130.519531 116.972656 125.726562 111.796875 125.726562 105.519531 L 125.726562 96.769531 L 117.65625 96.769531 L 117.65625 105.519531 L 117.605469 105.519531 C 117.605469 111.253906 113.507812 116.398438 107.617188 117.476562 C 98.867188 119.0625 86.230469 123.753906 79.363281 128.894531 C 74.566406 132.9375 67.402344 132.695312 62.90625 128.144531 L 56.738281 122.027344 L 51.054688 127.710938 L 57.171875 133.878906 L 57.171875 133.933594 C 61.214844 137.976562 61.964844 144.460938 58.601562 149.394531 C 53.371094 157.097656 48.019531 168.515625 46.644531 177.699219 C 46 183.835938 40.824219 188.613281 34.546875 188.613281 L 25.796875 188.613281 L 25.796875 196.664062 L 34.546875 196.664062 L 34.546875 196.71875 C 40.28125 196.71875 45.425781 200.8125 46.503906 206.707031 C 48.089844 215.402344 52.78125 228.09375 57.921875 234.960938 C 61.964844 239.753906 61.722656 246.867188 57.171875 251.414062 L 51.054688 257.53125 L 56.738281 263.265625 L 62.90625 257.097656 L 62.90625 257.148438 C 67.003906 253.054688 73.488281 252.304688 78.421875 255.667969 C 82.761719 258.683594 87.464844 261.246094 92.453125 263.320312 L 92.398438 263.320312 C 97 265.203125 101.792969 266.683594 106.726562 267.660156 C 112.863281 268.304688 117.640625 273.480469 117.640625 279.773438 L 117.640625 288.472656 L 125.691406 288.472656 L 125.691406 279.773438 L 125.746094 279.773438 C 125.746094 273.988281 129.839844 268.898438 135.730469 267.816406 C 145.023438 266.089844 156.734375 261.59375 164.285156 256.101562 C 169.078125 252.355469 175.996094 252.6875 180.390625 257.097656 Z M 305.609375 580.347656 L 396.773438 580.347656 L 396.773438 568.441406 C 381.746094 568.441406 369.652344 570.167969 357.988281 558.507812 C 351.871094 552.371094 348.054688 543.933594 348.054688 534.59375 C 348.054688 527.863281 353.542969 522.441406 360.253906 522.441406 C 366.964844 522.441406 372.457031 527.882812 372.457031 534.59375 C 372.457031 539.785156 376.710938 544.023438 381.886719 544.023438 L 456.4375 544.023438 C 467.558594 544.023438 476.746094 534.886719 476.746094 523.714844 L 476.746094 500.984375 C 476.746094 497.132812 478.574219 493.367188 481.972656 491 L 513.890625 468.808594 L 485.179688 448.902344 C 481.46875 446.289062 479.359375 441.6875 480.144531 436.945312 L 487.898438 389.273438 C 499.457031 318.417969 430.589844 259.730469 361.910156 259.730469 C 291.054688 259.730469 236.113281 319.953125 236.113281 391.261719 C 236.113281 415.367188 242.285156 437.957031 253.058594 457.320312 C 264.074219 477.089844 279.882812 493.59375 298.8125 505.097656 C 302.820312 507.070312 305.574219 511.21875 305.574219 516.011719 L 305.574219 580.347656 Z M 421.191406 580.644531 C 433.933594 582.664062 443.574219 593.734375 443.574219 606.875 L 443.574219 626.398438 C 443.574219 641.023438 431.617188 652.929688 417.042969 652.929688 L 285.375 652.929688 C 270.75 652.929688 258.84375 641.023438 258.84375 626.398438 L 258.84375 606.875 C 258.84375 593.734375 268.484375 582.664062 281.226562 580.644531 L 281.226562 522.6875 C 200.296875 469.070312 187.882812 351.675781 255.585938 281.167969 C 289.140625 246.238281 336.671875 229.242188 386.070312 237.296875 C 459.835938 249.359375 524.714844 315.160156 511.972656 393.175781 L 505.453125 433.25 L 542.265625 458.839844 C 549.480469 463.824219 549.027344 474.246094 542.074219 479.007812 L 501.21875 507.367188 L 501.21875 523.714844 C 501.21875 548.328125 481.101562 568.425781 456.507812 568.425781 L 421.226562 568.425781 L 421.226562 580.644531 Z M 417.042969 604.699219 L 285.375 604.699219 C 284.242188 604.699219 283.246094 605.691406 283.246094 606.875 L 283.246094 626.398438 C 283.246094 627.53125 284.242188 628.527344 285.375 628.527344 L 417.042969 628.527344 C 418.175781 628.527344 419.171875 627.53125 419.171875 626.398438 L 419.171875 606.875 C 419.152344 605.691406 418.175781 604.699219 417.042969 604.699219 Z M 417.042969 604.699219 "/></g></g></svg>