<svg xmlns="http://www.w3.org/2000/svg" xmlns:xlink="http://www.w3.org/1999/xlink" width="1080" zoomAndPan="magnify" viewBox="0 0 810 809.999993" height="1080" preserveAspectRatio="xMidYMid meet" version="1.2"><g id="1ccbc4d4e0"><path style=" stroke:none;fill-rule:nonzero;fill:#000000;fill-opacity:1;" d="M 244.5 159.679688 C 238.519531 162.695312 231.199219 160.324219 228.148438 154.292969 C 225.132812 148.3125 227.554688 140.988281 233.535156 137.9375 C 331.269531 88.511719 447.285156 91.875 542.003906 146.832031 C 547.792969 150.195312 549.8125 157.65625 546.398438 163.429688 C 543.03125 169.25 535.574219 171.238281 529.804688 167.875 C 442.386719 117.171875 334.582031 114.019531 244.5 159.679688 Z M 678.851562 426.851562 C 678.851562 420.121094 684.289062 414.648438 691.054688 414.648438 C 697.78125 414.648438 703.253906 420.140625 703.253906 426.851562 C 703.253906 461.601562 697.675781 496 686.800781 528.757812 C 684.726562 535.140625 677.804688 538.59375 671.480469 536.519531 C 665.097656 534.390625 661.648438 527.523438 663.722656 521.140625 C 673.816406 490.804688 678.851562 459.367188 678.851562 426.851562 Z M 516.292969 693.1875 C 522.273438 690.121094 529.628906 692.492188 532.695312 698.417969 C 535.765625 704.398438 533.445312 711.757812 527.46875 714.824219 C 463.53125 747.792969 390.253906 758.273438 319.257812 744.917969 C 312.636719 743.679688 308.296875 737.300781 309.53125 730.691406 C 310.769531 724.117188 317.148438 719.722656 323.722656 720.996094 C 389.3125 733.324219 457.152344 723.683594 516.292969 693.1875 Z M 81.15625 448.941406 C 81.644531 455.621094 76.554688 461.445312 69.898438 461.949219 C 63.1875 462.4375 57.347656 457.347656 56.859375 450.632812 C 53.894531 409.226562 58.585938 368.882812 70.890625 329.601562 C 72.859375 323.167969 79.726562 319.574219 86.160156 321.597656 C 92.589844 323.566406 96.148438 330.4375 94.160156 336.871094 C 82.726562 373.136719 78.386719 410.953125 81.15625 448.941406 Z M 263.21875 752.207031 L 276.554688 740.140625 C 279.8125 736.878906 279.707031 734.316406 276.660156 730.796875 L 231.652344 680.933594 L 231.601562 680.984375 C 228.339844 677.722656 225.8125 677.828125 222.308594 680.84375 L 208.46875 693.34375 C 206.203125 695.421875 205.996094 699.132812 208.070312 701.402344 L 253.824219 752.101562 L 253.875 752.101562 C 255.007812 753.234375 255.757812 754.28125 258.183594 754.421875 C 261.003906 754.578125 261.789062 753.285156 263.21875 752.207031 Z M 293.320312 757.785156 L 279.132812 770.632812 L 279.082031 770.582031 C 266.375 782.089844 248.59375 781.304688 236.636719 769.34375 L 236.636719 769.308594 L 236.238281 768.855469 L 190.046875 717.703125 C 183.421875 710.378906 181 700.597656 182.933594 691.460938 L 170.332031 677.53125 C 124.628906 702.097656 67.210938 692.910156 31.445312 653.714844 L 31.390625 653.769531 C 30.9375 653.316406 30.554688 652.878906 30.207031 652.390625 C 9.5 629.011719 0.0703125 599.511719 1.550781 570.605469 C 3.03125 541.453125 15.53125 512.824219 38.75 491.625 C 39.203125 491.171875 39.636719 490.785156 40.125 490.386719 C 63.5 469.726562 92.992188 460.292969 121.890625 461.722656 C 151.246094 463.257812 180.003906 475.914062 201.234375 499.433594 C 222.484375 522.953125 232.15625 552.855469 230.675781 582.109375 C 229.628906 602.667969 223.113281 622.925781 211.207031 640.535156 L 223.808594 654.464844 C 233.203125 653.523438 241.902344 656.785156 248.855469 663.757812 L 248.804688 663.757812 L 249.207031 664.210938 L 294.664062 714.527344 L 295.066406 714.929688 L 295.011719 714.929688 C 306.515625 727.675781 305.734375 745.421875 293.773438 757.4375 L 293.722656 757.382812 Z M 197.070312 670.855469 L 201.96875 666.460938 L 195.449219 659.242188 L 190.550781 663.636719 Z M 61.738281 514.238281 C 95.640625 484.492188 147.113281 487.492188 177.410156 521 C 207.84375 554.703125 205.367188 606.554688 171.917969 637.1875 L 171.96875 637.238281 C 171.515625 637.691406 171.027344 638.078125 170.539062 638.425781 C 153.738281 653.15625 132.699219 659.871094 111.992188 658.839844 C 91.09375 657.761719 70.542969 648.816406 55.324219 632.148438 L 55.253906 632.148438 C 54.820312 631.695312 54.417969 631.257812 54.015625 630.773438 C 39.339844 613.964844 32.628906 592.867188 33.660156 572.207031 C 34.738281 551.25 43.679688 530.746094 60.34375 515.527344 L 60.292969 515.472656 C 60.746094 515.019531 61.234375 514.636719 61.738281 514.238281 Z M 119.136719 518.195312 C 104.515625 517.445312 89.644531 522.152344 77.828125 532.421875 L 77.53125 532.71875 C 65.328125 543.597656 58.757812 558.171875 57.957031 573.339844 C 57.226562 587.96875 61.914062 602.839844 72.230469 614.660156 L 72.476562 614.90625 L 72.476562 614.957031 C 83.386719 627.164062 97.925781 633.734375 113.089844 634.539062 C 127.714844 635.289062 142.582031 630.578125 154.398438 620.257812 L 154.695312 619.960938 L 154.695312 620.015625 C 178.855469 598.464844 181.085938 561.398438 159.332031 537.335938 C 148.597656 525.359375 134.023438 518.925781 119.136719 518.195312 Z M 120.777344 486.007812 C 97.941406 484.875 74.671875 492.285156 56.300781 508.550781 L 56.003906 508.847656 L 55.953125 508.796875 C 37.179688 525.605469 27.050781 548.390625 25.867188 571.703125 C 24.683594 594.542969 32.089844 617.816406 48.351562 636.195312 L 48.648438 636.492188 C 65.347656 655.320312 88.234375 665.449219 111.503906 666.636719 C 134.667969 667.820312 158.253906 660.167969 176.78125 643.464844 C 195.308594 626.710938 205.296875 604.078125 206.429688 580.941406 C 207.617188 557.804688 200 534.234375 183.265625 515.699219 C 166.53125 497.183594 143.855469 487.195312 120.777344 486.007812 Z M 583.785156 619.945312 C 577.023438 619.945312 571.585938 614.453125 571.585938 607.738281 C 571.585938 601.011719 577.023438 595.535156 583.785156 595.535156 L 648.070312 595.535156 C 654.78125 595.535156 660.269531 601.027344 660.269531 607.738281 C 660.269531 614.453125 654.78125 619.945312 648.070312 619.945312 Z M 583.785156 662.800781 C 577.023438 662.800781 571.585938 657.359375 571.585938 650.648438 C 571.585938 643.882812 577.023438 638.441406 583.785156 638.441406 L 691.839844 638.441406 C 698.601562 638.441406 704.039062 643.882812 704.039062 650.648438 C 704.039062 657.378906 698.601562 662.800781 691.839844 662.800781 Z M 591.855469 685.882812 L 696.054688 685.882812 C 727.238281 685.882812 752.722656 660.324219 752.722656 629.203125 C 752.722656 598.011719 727.222656 572.46875 696.054688 572.46875 L 591.855469 572.46875 C 582.722656 572.46875 578.015625 575.378906 572.332031 571.335938 L 555.738281 559.566406 L 559.886719 571.964844 C 561.5625 576.898438 559.886719 582.144531 556.089844 585.265625 L 556.089844 585.320312 C 530.097656 606.570312 527.921875 645.3125 551.835938 669.234375 C 562.101562 679.503906 576.289062 685.882812 591.855469 685.882812 Z M 696.054688 710.292969 L 591.855469 710.292969 C 532.660156 710.292969 493.042969 648.171875 518.578125 594.488281 C 522.585938 586.191406 527.921875 578.625 534.28125 572.15625 L 520.894531 532.175781 C 516.886719 520.703125 529.839844 511.324219 539.425781 518.089844 L 582.460938 548.636719 C 583.105469 548.582031 583.804688 548.496094 584.484375 548.445312 C 587.253906 548.199219 589.710938 548.042969 591.839844 548.042969 L 696.039062 548.042969 C 740.660156 548.042969 777.125 584.515625 777.125 629.183594 C 777.125 673.820312 740.660156 710.292969 696.054688 710.292969 Z M 663.6875 69.488281 C 663.6875 76.253906 658.195312 81.691406 651.484375 81.691406 C 644.722656 81.691406 639.285156 76.253906 639.285156 69.488281 L 639.285156 40.425781 C 639.285156 33.710938 644.722656 28.21875 651.484375 28.21875 C 658.195312 28.21875 663.6875 33.710938 663.6875 40.425781 Z M 768.882812 199.117188 C 762.117188 199.117188 756.679688 193.625 756.679688 186.914062 C 756.679688 180.183594 762.117188 174.707031 768.882812 174.707031 L 797.9375 174.707031 C 804.667969 174.707031 810.140625 180.199219 810.140625 186.914062 C 810.140625 193.625 804.648438 199.117188 797.9375 199.117188 Z M 743.082031 112.535156 C 738.34375 117.277344 730.636719 117.277344 725.84375 112.535156 C 721.105469 107.742188 721.105469 100.035156 725.84375 95.238281 L 746.394531 74.683594 C 751.1875 69.941406 758.894531 69.941406 763.632812 74.683594 C 768.429688 79.480469 768.429688 87.183594 763.632812 91.980469 Z M 534.089844 174.707031 C 540.820312 174.707031 546.292969 180.199219 546.292969 186.914062 C 546.292969 193.625 540.800781 199.117188 534.089844 199.117188 L 505.035156 199.117188 C 498.269531 199.117188 492.832031 193.625 492.832031 186.914062 C 492.832031 180.183594 498.269531 174.707031 505.035156 174.707031 Z M 577.074219 95.238281 C 581.867188 100.035156 581.867188 107.742188 577.074219 112.535156 C 572.332031 117.277344 564.628906 117.277344 559.835938 112.535156 L 539.285156 91.980469 C 534.542969 87.183594 534.542969 79.480469 539.285156 74.683594 C 544.078125 69.941406 551.78125 69.941406 556.523438 74.683594 Z M 650.648438 186.617188 C 678.3125 186.617188 692.257812 220.179688 672.683594 239.792969 C 669.859375 242.566406 666.546875 244.832031 662.851562 246.417969 L 662.851562 285.75 L 677.335938 285.75 C 687.917969 240.140625 723.632812 240.332031 723.632812 183.304688 C 723.632812 143.414062 691.316406 111.105469 651.484375 111.105469 C 611.605469 111.105469 579.339844 143.429688 579.339844 183.304688 C 579.339844 240.332031 615.054688 240.140625 625.585938 285.75 L 638.429688 285.75 L 638.429688 246.417969 C 618.28125 237.824219 612.980469 211.375 628.652344 195.71875 C 634.28125 190.070312 642.039062 186.617188 650.648438 186.617188 Z M 655.441406 213.011719 C 649.167969 206.738281 639.632812 216.222656 645.910156 222.496094 C 652.183594 228.773438 661.71875 219.289062 655.441406 213.011719 Z M 701.09375 291.347656 C 713.503906 301.425781 713.453125 320.308594 701.042969 330.351562 C 703.953125 341.769531 698.425781 353.519531 688.195312 358.820312 C 688.195312 367.226562 687.253906 373.449219 680.839844 379.882812 C 676.289062 384.433594 670.015625 387.242188 663.148438 387.242188 L 639.824219 387.242188 C 626.039062 387.242188 614.777344 375.976562 614.777344 362.1875 L 614.777344 358.820312 C 604.492188 353.539062 599.019531 341.769531 601.929688 330.351562 C 589.484375 320.324219 589.433594 301.441406 601.828125 291.347656 C 592.78125 253.792969 554.9375 250.027344 554.9375 183.304688 C 554.9375 129.9375 598.164062 86.730469 651.484375 86.730469 C 704.804688 86.730469 748.035156 129.917969 748.035156 183.304688 C 748.035156 250.027344 710.175781 253.777344 701.09375 291.347656 Z M 676.777344 335.878906 L 626.175781 335.878906 C 625.742188 335.878906 624.589844 337.113281 626.960938 337.113281 L 676.761719 337.113281 C 677.578125 337.113281 677.578125 335.878906 676.777344 335.878906 Z M 685.335938 310.179688 L 617.601562 310.179688 C 616.765625 310.179688 616.765625 311.46875 617.601562 311.46875 L 685.335938 311.46875 C 686.171875 311.449219 686.171875 310.179688 685.335938 310.179688 Z M 663.792969 361.523438 L 639.179688 361.523438 C 639.179688 361.871094 639.074219 362.8125 639.824219 362.8125 L 663.582031 362.621094 Z M 121.664062 132.148438 C 158.828125 132.148438 188.914062 162.292969 188.914062 199.414062 C 188.914062 236.585938 158.828125 266.679688 121.664062 266.679688 C 84.554688 266.679688 54.417969 236.585938 54.417969 199.414062 C 54.417969 162.292969 84.554688 132.148438 121.664062 132.148438 Z M 151.960938 169.128906 C 125.082031 142.246094 78.839844 161.371094 78.839844 199.429688 C 78.839844 237.542969 125.082031 256.671875 151.960938 229.734375 C 168.710938 213.011719 168.710938 185.882812 151.960938 169.128906 Z M 212.722656 278.5 L 200.714844 290.511719 C 192.90625 298.269531 180.25 298.269531 172.492188 290.511719 L 169.964844 287.984375 C 163.636719 291.402344 157.015625 294.15625 150.09375 296.195312 C 150.09375 303.117188 149.746094 308.347656 144.273438 313.890625 C 140.613281 317.5 135.628906 319.714844 130.136719 319.714844 L 113.195312 319.714844 C 102.230469 319.714844 93.234375 310.71875 93.234375 299.75 L 93.234375 296.195312 L 83.109375 292.585938 L 83.109375 292.636719 C 79.746094 291.261719 76.539062 289.675781 73.382812 288 C 68.484375 292.898438 64.546875 296.351562 56.738281 296.351562 C 51.75 296.351562 46.453125 294.382812 42.652344 290.476562 L 42.652344 290.527344 L 30.644531 278.515625 C 22.835938 270.707031 22.835938 258.046875 30.644531 250.289062 L 33.171875 247.726562 C 29.71875 241.398438 27 234.875 24.960938 227.902344 C 18.039062 227.902344 12.757812 227.554688 7.269531 222.027344 C 3.660156 218.367188 1.394531 213.429688 1.394531 207.941406 L 1.394531 190.992188 C 1.394531 180.027344 10.441406 171.03125 21.40625 171.03125 L 24.960938 171.03125 C 26.984375 164.109375 29.753906 157.484375 33.171875 151.152344 C 28.238281 146.21875 24.820312 142.316406 24.820312 134.503906 C 24.820312 129.515625 26.789062 124.21875 30.695312 120.417969 L 30.644531 120.417969 L 42.652344 108.402344 C 50.410156 100.644531 63.011719 100.59375 70.871094 108.457031 L 70.871094 108.402344 L 73.398438 110.929688 C 79.726562 107.480469 86.300781 104.757812 93.269531 102.71875 C 93.269531 95.796875 93.621094 90.515625 99.144531 85.023438 C 102.753906 81.414062 107.738281 79.148438 113.230469 79.148438 L 130.171875 79.148438 C 141.082031 79.148438 150.128906 88.195312 150.128906 99.164062 L 150.128906 102.71875 C 157.050781 104.742188 163.671875 107.460938 170 110.929688 C 174.898438 106.03125 178.804688 102.582031 186.59375 102.582031 C 191.632812 102.582031 196.878906 104.550781 200.730469 108.457031 L 200.730469 108.402344 L 212.742188 120.417969 C 220.496094 128.175781 220.496094 140.886719 212.742188 148.644531 L 210.179688 151.171875 C 213.683594 157.550781 216.402344 164.074219 218.421875 171.046875 C 225.34375 171.046875 230.570312 171.394531 236.113281 176.921875 C 239.722656 180.53125 241.953125 185.519531 241.953125 191.011719 L 241.953125 207.957031 C 241.953125 218.976562 233.011719 227.921875 221.996094 227.921875 L 218.441406 227.921875 C 216.417969 234.839844 213.648438 241.46875 210.230469 247.796875 C 215.128906 252.695312 218.578125 256.601562 218.578125 264.394531 C 218.578125 269.433594 216.609375 274.679688 212.707031 278.535156 L 212.722656 278.535156 Z M 186.59375 270.09375 L 192.328125 264.359375 L 186.160156 258.238281 L 186.210938 258.1875 C 182.113281 254.140625 181.367188 247.65625 184.730469 242.722656 C 189.957031 235.101562 195.34375 223.4375 196.738281 214.355469 C 197.382812 208.269531 202.5625 203.476562 208.835938 203.476562 L 217.535156 203.476562 L 217.535156 195.421875 L 208.835938 195.421875 L 208.835938 195.367188 C 203.050781 195.367188 197.960938 191.273438 196.878906 185.378906 C 195.238281 176.625 190.550781 163.984375 185.410156 157.117188 C 181.398438 152.320312 181.660156 145.15625 186.160156 140.65625 L 192.328125 134.484375 L 186.59375 128.800781 L 180.425781 134.921875 C 176.378906 138.96875 169.84375 139.714844 164.964844 136.351562 C 157.347656 131.15625 145.683594 125.769531 136.605469 124.390625 C 130.519531 123.746094 125.726562 118.566406 125.726562 112.292969 L 125.726562 103.539062 L 117.65625 103.539062 L 117.65625 112.292969 L 117.605469 112.292969 C 117.605469 118.027344 113.507812 123.171875 107.617188 124.25 C 98.867188 125.839844 86.230469 130.527344 79.363281 135.671875 C 74.566406 139.714844 67.402344 139.472656 62.90625 134.921875 L 56.738281 128.800781 L 51.054688 134.484375 L 57.171875 140.65625 L 57.171875 140.710938 C 61.214844 144.753906 61.964844 151.242188 58.601562 156.175781 C 53.371094 163.882812 48.019531 175.300781 46.644531 184.488281 C 46 190.625 40.824219 195.402344 34.546875 195.402344 L 25.796875 195.402344 L 25.796875 203.457031 L 34.546875 203.457031 L 34.546875 203.511719 C 40.28125 203.511719 45.425781 207.609375 46.503906 213.5 C 48.089844 222.203125 52.78125 234.894531 57.921875 241.761719 C 61.964844 246.558594 61.722656 253.671875 57.171875 258.222656 L 51.054688 264.339844 L 56.738281 270.078125 L 62.90625 263.90625 L 62.90625 263.957031 C 67.003906 259.859375 73.488281 259.109375 78.421875 262.476562 C 82.761719 265.492188 87.464844 268.054688 92.453125 270.128906 L 92.398438 270.128906 C 97 272.011719 101.792969 273.496094 106.726562 274.472656 C 112.863281 275.117188 117.640625 280.292969 117.640625 286.589844 L 117.640625 295.289062 L 125.691406 295.289062 L 125.691406 286.589844 L 125.746094 286.589844 C 125.746094 280.800781 129.839844 275.710938 135.730469 274.628906 C 145.023438 272.902344 156.734375 268.402344 164.285156 262.910156 C 169.078125 259.164062 175.996094 259.496094 180.390625 263.90625 Z M 305.609375 587.238281 L 396.773438 587.238281 L 396.773438 575.328125 C 381.746094 575.328125 369.652344 577.054688 357.988281 565.390625 C 351.871094 559.253906 348.054688 550.816406 348.054688 541.46875 C 348.054688 534.738281 353.542969 529.316406 360.253906 529.316406 C 366.964844 529.316406 372.457031 534.757812 372.457031 541.46875 C 372.457031 546.664062 376.710938 550.902344 381.886719 550.902344 L 456.4375 550.902344 C 467.558594 550.902344 476.746094 541.765625 476.746094 530.589844 L 476.746094 507.855469 C 476.746094 504.003906 478.574219 500.234375 481.972656 497.863281 L 513.890625 475.671875 L 485.179688 455.757812 C 481.46875 453.144531 479.359375 448.542969 480.144531 443.800781 L 487.898438 396.113281 C 499.457031 325.242188 430.589844 266.539062 361.910156 266.539062 C 291.054688 266.539062 236.113281 326.777344 236.113281 398.101562 C 236.113281 422.214844 242.285156 444.808594 253.058594 464.179688 C 264.074219 483.953125 279.882812 500.460938 298.8125 511.96875 C 302.820312 513.941406 305.574219 518.089844 305.574219 522.882812 L 305.574219 587.238281 Z M 421.191406 587.53125 C 433.933594 589.554688 443.574219 600.625 443.574219 613.773438 L 443.574219 633.300781 C 443.574219 647.925781 431.617188 659.835938 417.042969 659.835938 L 285.375 659.835938 C 270.75 659.835938 258.84375 647.925781 258.84375 633.300781 L 258.84375 613.773438 C 258.84375 600.625 268.484375 589.554688 281.226562 587.53125 L 281.226562 529.5625 C 200.296875 475.933594 187.882812 358.507812 255.585938 287.984375 C 289.140625 253.042969 336.671875 236.042969 386.070312 244.097656 C 459.835938 256.164062 524.714844 321.980469 511.972656 400.019531 L 505.453125 440.101562 L 542.265625 465.699219 C 549.480469 470.683594 549.027344 481.109375 542.074219 485.871094 L 501.21875 514.238281 L 501.21875 530.589844 C 501.21875 555.207031 481.101562 575.3125 456.507812 575.3125 L 421.226562 575.3125 L 421.226562 587.53125 Z M 417.042969 611.59375 L 285.375 611.59375 C 284.242188 611.59375 283.246094 612.585938 283.246094 613.773438 L 283.246094 633.300781 C 283.246094 634.433594 284.242188 635.425781 285.375 635.425781 L 417.042969 635.425781 C 418.175781 635.425781 419.171875 634.433594 419.171875 633.300781 L 419.171875 613.773438 C 419.152344 612.585938 418.175781 611.59375 417.042969 611.59375 Z M 417.042969 611.59375 "/><path style=" stroke:none;fill-rule:nonzero;fill:#000000;fill-opacity:1;" d="M 244.5 159.679688 C 238.519531 162.695312 231.199219 160.324219 228.148438 154.292969 C 225.132812 148.3125 227.554688 140.988281 233.535156 137.9375 C 331.269531 88.511719 447.285156 91.875 542.003906 146.832031 C 547.792969 150.195312 549.8125 157.65625 546.398438 163.429688 C 543.03125 169.25 535.574219 171.238281 529.804688 167.875 C 442.386719 117.171875 334.582031 114.019531 244.5 159.679688 Z M 678.851562 426.851562 C 678.851562 420.121094 684.289062 414.648438 691.054688 414.648438 C 697.78125 414.648438 703.253906 420.140625 703.253906 426.851562 C 703.253906 461.601562 697.675781 496 686.800781 528.757812 C 684.726562 535.140625 677.804688 538.59375 671.480469 536.519531 C 665.097656 534.390625 661.648438 527.523438 663.722656 521.140625 C 673.816406 490.804688 678.851562 459.367188 678.851562 426.851562 Z M 516.292969 693.1875 C 522.273438 690.121094 529.628906 692.492188 532.695312 698.417969 C 535.765625 704.398438 533.445312 711.757812 527.46875 714.824219 C 463.53125 747.792969 390.253906 758.273438 319.257812 744.917969 C 312.636719 743.679688 308.296875 737.300781 309.53125 730.691406 C 310.769531 724.117188 317.148438 719.722656 323.722656 720.996094 C 389.3125 733.324219 457.152344 723.683594 516.292969 693.1875 Z M 81.15625 448.941406 C 81.644531 455.621094 76.554688 461.445312 69.898438 461.949219 C 63.1875 462.4375 57.347656 457.347656 56.859375 450.632812 C 53.894531 409.226562 58.585938 368.882812 70.890625 329.601562 C 72.859375 323.167969 79.726562 319.574219 86.160156 321.597656 C 92.589844 323.566406 96.148438 330.4375 94.160156 336.871094 C 82.726562 373.136719 78.386719 410.953125 81.15625 448.941406 Z M 263.21875 752.207031 L 276.554688 740.140625 C 279.8125 736.878906 279.707031 734.316406 276.660156 730.796875 L 231.652344 680.933594 L 231.601562 680.984375 C 228.339844 677.722656 225.8125 677.828125 222.308594 680.84375 L 208.46875 693.34375 C 206.203125 695.421875 205.996094 699.132812 208.070312 701.402344 L 253.824219 752.101562 L 253.875 752.101562 C 255.007812 753.234375 255.757812 754.28125 258.183594 754.421875 C 261.003906 754.578125 261.789062 753.285156 263.21875 752.207031 Z M 293.320312 757.785156 L 279.132812 770.632812 L 279.082031 770.582031 C 266.375 782.089844 248.59375 781.304688 236.636719 769.34375 L 236.636719 769.308594 L 236.238281 768.855469 L 190.046875 717.703125 C 183.421875 710.378906 181 700.597656 182.933594 691.460938 L 170.332031 677.53125 C 124.628906 702.097656 67.210938 692.910156 31.445312 653.714844 L 31.390625 653.769531 C 30.9375 653.316406 30.554688 652.878906 30.207031 652.390625 C 9.5 629.011719 0.0703125 599.511719 1.550781 570.605469 C 3.03125 541.453125 15.53125 512.824219 38.75 491.625 C 39.203125 491.171875 39.636719 490.785156 40.125 490.386719 C 63.5 469.726562 92.992188 460.292969 121.890625 461.722656 C 151.246094 463.257812 180.003906 475.914062 201.234375 499.433594 C 222.484375 522.953125 232.15625 552.855469 230.675781 582.109375 C 229.628906 602.667969 223.113281 622.925781 211.207031 640.535156 L 223.808594 654.464844 C 233.203125 653.523438 241.902344 656.785156 248.855469 663.757812 L 248.804688 663.757812 L 249.207031 664.210938 L 294.664062 714.527344 L 295.066406 714.929688 L 295.011719 714.929688 C 306.515625 727.675781 305.734375 745.421875 293.773438 757.4375 L 293.722656 757.382812 Z M 197.070312 670.855469 L 201.96875 666.460938 L 195.449219 659.242188 L 190.550781 663.636719 Z M 61.738281 514.238281 C 95.640625 484.492188 147.113281 487.492188 177.410156 521 C 207.84375 554.703125 205.367188 606.554688 171.917969 637.1875 L 171.96875 637.238281 C 171.515625 637.691406 171.027344 638.078125 170.539062 638.425781 C 153.738281 653.15625 132.699219 659.871094 111.992188 658.839844 C 91.09375 657.761719 70.542969 648.816406 55.324219 632.148438 L 55.253906 632.148438 C 54.820312 631.695312 54.417969 631.257812 54.015625 630.773438 C 39.339844 613.964844 32.628906 592.867188 33.660156 572.207031 C 34.738281 551.25 43.679688 530.746094 60.34375 515.527344 L 60.292969 515.472656 C 60.746094 515.019531 61.234375 514.636719 61.738281 514.238281 Z M 119.136719 518.195312 C 104.515625 517.445312 89.644531 522.152344 77.828125 532.421875 L 77.53125 532.71875 C 65.328125 543.597656 58.757812 558.171875 57.957031 573.339844 C 57.226562 587.96875 61.914062 602.839844 72.230469 614.660156 L 72.476562 614.90625 L 72.476562 614.957031 C 83.386719 627.164062 97.925781 633.734375 113.089844 634.539062 C 127.714844 635.289062 142.582031 630.578125 154.398438 620.257812 L 154.695312 619.960938 L 154.695312 620.015625 C 178.855469 598.464844 181.085938 561.398438 159.332031 537.335938 C 148.597656 525.359375 134.023438 518.925781 119.136719 518.195312 Z M 120.777344 486.007812 C 97.941406 484.875 74.671875 492.285156 56.300781 508.550781 L 56.003906 508.847656 L 55.953125 508.796875 C 37.179688 525.605469 27.050781 548.390625 25.867188 571.703125 C 24.683594 594.542969 32.089844 617.816406 48.351562 636.195312 L 48.648438 636.492188 C 65.347656 655.320312 88.234375 665.449219 111.503906 666.636719 C 134.667969 667.820312 158.253906 660.167969 176.78125 643.464844 C 195.308594 626.710938 205.296875 604.078125 206.429688 580.941406 C 207.617188 557.804688 200 534.234375 183.265625 515.699219 C 166.53125 497.183594 143.855469 487.195312 120.777344 486.007812 Z M 583.785156 619.945312 C 577.023438 619.945312 571.585938 614.453125 571.585938 607.738281 C 571.585938 601.011719 577.023438 595.535156 583.785156 595.535156 L 648.070312 595.535156 C 654.78125 595.535156 660.269531 601.027344 660.269531 607.738281 C 660.269531 614.453125 654.78125 619.945312 648.070312 619.945312 Z M 583.785156 662.800781 C 577.023438 662.800781 571.585938 657.359375 571.585938 650.648438 C 571.585938 643.882812 577.023438 638.441406 583.785156 638.441406 L 691.839844 638.441406 C 698.601562 638.441406 704.039062 643.882812 704.039062 650.648438 C 704.039062 657.378906 698.601562 662.800781 691.839844 662.800781 Z M 591.855469 685.882812 L 696.054688 685.882812 C 727.238281 685.882812 752.722656 660.324219 752.722656 629.203125 C 752.722656 598.011719 727.222656 572.46875 696.054688 572.46875 L 591.855469 572.46875 C 582.722656 572.46875 578.015625 575.378906 572.332031 571.335938 L 555.738281 559.566406 L 559.886719 571.964844 C 561.5625 576.898438 559.886719 582.144531 556.089844 585.265625 L 556.089844 585.320312 C 530.097656 606.570312 527.921875 645.3125 551.835938 669.234375 C 562.101562 679.503906 576.289062 685.882812 591.855469 685.882812 Z M 696.054688 710.292969 L 591.855469 710.292969 C 532.660156 710.292969 493.042969 648.171875 518.578125 594.488281 C 522.585938 586.191406 527.921875 578.625 534.28125 572.15625 L 520.894531 532.175781 C 516.886719 520.703125 529.839844 511.324219 539.425781 518.089844 L 582.460938 548.636719 C 583.105469 548.582031 583.804688 548.496094 584.484375 548.445312 C 587.253906 548.199219 589.710938 548.042969 591.839844 548.042969 L 696.039062 548.042969 C 740.660156 548.042969 777.125 584.515625 777.125 629.183594 C 777.125 673.820312 740.660156 710.292969 696.054688 710.292969 Z M 663.6875 69.488281 C 663.6875 76.253906 658.195312 81.691406 651.484375 81.691406 C 644.722656 81.691406 639.285156 76.253906 639.285156 69.488281 L 639.285156 40.425781 C 639.285156 33.710938 644.722656 28.21875 651.484375 28.21875 C 658.195312 28.21875 663.6875 33.710938 663.6875 40.425781 Z M 768.882812 199.117188 C 762.117188 199.117188 756.679688 193.625 756.679688 186.914062 C 756.679688 180.183594 762.117188 174.707031 768.882812 174.707031 L 797.9375 174.707031 C 804.667969 174.707031 810.140625 180.199219 810.140625 186.914062 C 810.140625 193.625 804.648438 199.117188 797.9375 199.117188 Z M 743.082031 112.535156 C 738.34375 117.277344 730.636719 117.277344 725.84375 112.535156 C 721.105469 107.742188 721.105469 100.035156 725.84375 95.238281 L 746.394531 74.683594 C 751.1875 69.941406 758.894531 69.941406 763.632812 74.683594 C 768.429688 79.480469 768.429688 87.183594 763.632812 91.980469 Z M 534.089844 174.707031 C 540.820312 174.707031 546.292969 180.199219 546.292969 186.914062 C 546.292969 193.625 540.800781 199.117188 534.089844 199.117188 L 505.035156 199.117188 C 498.269531 199.117188 492.832031 193.625 492.832031 186.914062 C 492.832031 180.183594 498.269531 174.707031 505.035156 174.707031 Z M 577.074219 95.238281 C 581.867188 100.035156 581.867188 107.742188 577.074219 112.535156 C 572.332031 117.277344 564.628906 117.277344 559.835938 112.535156 L 539.285156 91.980469 C 534.542969 87.183594 534.542969 79.480469 539.285156 74.683594 C 544.078125 69.941406 551.78125 69.941406 556.523438 74.683594 Z M 650.648438 186.617188 C 678.3125 186.617188 692.257812 220.179688 672.683594 239.792969 C 669.859375 242.566406 666.546875 244.832031 662.851562 246.417969 L 662.851562 285.75 L 677.335938 285.75 C 687.917969 240.140625 723.632812 240.332031 723.632812 183.304688 C 723.632812 143.414062 691.316406 111.105469 651.484375 111.105469 C 611.605469 111.105469 579.339844 143.429688 579.339844 183.304688 C 579.339844 240.332031 615.054688 240.140625 625.585938 285.75 L 638.429688 285.75 L 638.429688 246.417969 C 618.28125 237.824219 612.980469 211.375 628.652344 195.71875 C 634.28125 190.070312 642.039062 186.617188 650.648438 186.617188 Z M 655.441406 213.011719 C 649.167969 206.738281 639.632812 216.222656 645.910156 222.496094 C 652.183594 228.773438 661.71875 219.289062 655.441406 213.011719 Z M 701.09375 291.347656 C 713.503906 301.425781 713.453125 320.308594 701.042969 330.351562 C 703.953125 341.769531 698.425781 353.519531 688.195312 358.820312 C 688.195312 367.226562 687.253906 373.449219 680.839844 379.882812 C 676.289062 384.433594 670.015625 387.242188 663.148438 387.242188 L 639.824219 387.242188 C 626.039062 387.242188 614.777344 375.976562 614.777344 362.1875 L 614.777344 358.820312 C 604.492188 353.539062 599.019531 341.769531 601.929688 330.351562 C 589.484375 320.324219 589.433594 301.441406 601.828125 291.347656 C 592.78125 253.792969 554.9375 250.027344 554.9375 183.304688 C 554.9375 129.9375 598.164062 86.730469 651.484375 86.730469 C 704.804688 86.730469 748.035156 129.917969 748.035156 183.304688 C 748.035156 250.027344 710.175781 253.777344 701.09375 291.347656 Z M 676.777344 335.878906 L 626.175781 335.878906 C 625.742188 335.878906 624.589844 337.113281 626.960938 337.113281 L 676.761719 337.113281 C 677.578125 337.113281 677.578125 335.878906 676.777344 335.878906 Z M 685.335938 310.179688 L 617.601562 310.179688 C 616.765625 310.179688 616.765625 311.46875 617.601562 311.46875 L 685.335938 311.46875 C 686.171875 311.449219 686.171875 310.179688 685.335938 310.179688 Z M 663.792969 361.523438 L 639.179688 361.523438 C 639.179688 361.871094 639.074219 362.8125 639.824219 362.8125 L 663.582031 362.621094 Z M 121.664062 132.148438 C 158.828125 132.148438 188.914062 162.292969 188.914062 199.414062 C 188.914062 236.585938 158.828125 266.679688 121.664062 266.679688 C 84.554688 266.679688 54.417969 236.585938 54.417969 199.414062 C 54.417969 162.292969 84.554688 132.148438 121.664062 132.148438 Z M 151.960938 169.128906 C 125.082031 142.246094 78.839844 161.371094 78.839844 199.429688 C 78.839844 237.542969 125.082031 256.671875 151.960938 229.734375 C 168.710938 213.011719 168.710938 185.882812 151.960938 169.128906 Z M 212.722656 278.5 L 200.714844 290.511719 C 192.90625 298.269531 180.25 298.269531 172.492188 290.511719 L 169.964844 287.984375 C 163.636719 291.402344 157.015625 294.15625 150.09375 296.195312 C 150.09375 303.117188 149.746094 308.347656 144.273438 313.890625 C 140.613281 317.5 135.628906 319.714844 130.136719 319.714844 L 113.195312 319.714844 C 102.230469 319.714844 93.234375 310.71875 93.234375 299.75 L 93.234375 296.195312 L 83.109375 292.585938 L 83.109375 292.636719 C 79.746094 291.261719 76.539062 289.675781 73.382812 288 C 68.484375 292.898438 64.546875 296.351562 56.738281 296.351562 C 51.75 296.351562 46.453125 294.382812 42.652344 290.476562 L 42.652344 290.527344 L 30.644531 278.515625 C 22.835938 270.707031 22.835938 258.046875 30.644531 250.289062 L 33.171875 247.726562 C 29.71875 241.398438 27 234.875 24.960938 227.902344 C 18.039062 227.902344 12.757812 227.554688 7.269531 222.027344 C 3.660156 218.367188 1.394531 213.429688 1.394531 207.941406 L 1.394531 190.992188 C 1.394531 180.027344 10.441406 171.03125 21.40625 171.03125 L 24.960938 171.03125 C 26.984375 164.109375 29.753906 157.484375 33.171875 151.152344 C 28.238281 146.21875 24.820312 142.316406 24.820312 134.503906 C 24.820312 129.515625 26.789062 124.21875 30.695312 120.417969 L 30.644531 120.417969 L 42.652344 108.402344 C 50.410156 100.644531 63.011719 100.59375 70.871094 108.457031 L 70.871094 108.402344 L 73.398438 110.929688 C 79.726562 107.480469 86.300781 104.757812 93.269531 102.71875 C 93.269531 95.796875 93.621094 90.515625 99.144531 85.023438 C 102.753906 81.414062 107.738281 79.148438 113.230469 79.148438 L 130.171875 79.148438 C 141.082031 79.148438 150.128906 88.195312 150.128906 99.164062 L 150.128906 102.71875 C 157.050781 104.742188 163.671875 107.460938 170 110.929688 C 174.898438 106.03125 178.804688 102.582031 186.59375 102.582031 C 191.632812 102.582031 196.878906 104.550781 200.730469 108.457031 L 200.730469 108.402344 L 212.742188 120.417969 C 220.496094 128.175781 220.496094 140.886719 212.742188 148.644531 L 210.179688 151.171875 C 213.683594 157.550781 216.402344 164.074219 218.421875 171.046875 C 225.34375 171.046875 230.570312 171.394531 236.113281 176.921875 C 239.722656 180.53125 241.953125 185.519531 241.953125 191.011719 L 241.953125 207.957031 C 241.953125 218.976562 233.011719 227.921875 221.996094 227.921875 L 218.441406 227.921875 C 216.417969 234.839844 213.648438 241.46875 210.230469 247.796875 C 215.128906 252.695312 218.578125 256.601562 218.578125 264.394531 C 218.578125 269.433594 216.609375 274.679688 212.707031 278.535156 L 212.722656 278.535156 Z M 186.59375 270.09375 L 192.328125 264.359375 L 186.160156 258.238281 L 186.210938 258.1875 C 182.113281 254.140625 181.367188 247.65625 184.730469 242.722656 C 189.957031 235.101562 195.34375 223.4375 196.738281 214.355469 C 197.382812 208.269531 202.5625 203.476562 208.835938 203.476562 L 217.535156 203.476562 L 217.535156 195.421875 L 208.835938 195.421875 L 208.835938 195.367188 C 203.050781 195.367188 197.960938 191.273438 196.878906 185.378906 C 195.238281 176.625 190.550781 163.984375 185.410156 157.117188 C 181.398438 152.320312 181.660156 145.15625 186.160156 140.65625 L 192.328125 134.484375 L 186.59375 128.800781 L 180.425781 134.921875 C 176.378906 138.96875 169.84375 139.714844 164.964844 136.351562 C 157.347656 131.15625 145.683594 125.769531 136.605469 124.390625 C 130.519531 123.746094 125.726562 118.566406 125.726562 112.292969 L 125.726562 103.539062 L 117.65625 103.539062 L 117.65625 112.292969 L 117.605469 112.292969 C 117.605469 118.027344 113.507812 123.171875 107.617188 124.25 C 98.867188 125.839844 86.230469 130.527344 79.363281 135.671875 C 74.566406 139.714844 67.402344 139.472656 62.90625 134.921875 L 56.738281 128.800781 L 51.054688 134.484375 L 57.171875 140.65625 L 57.171875 140.710938 C 61.214844 144.753906 61.964844 151.242188 58.601562 156.175781 C 53.371094 163.882812 48.019531 175.300781 46.644531 184.488281 C 46 190.625 40.824219 195.402344 34.546875 195.402344 L 25.796875 195.402344 L 25.796875 203.457031 L 34.546875 203.457031 L 34.546875 203.511719 C 40.28125 203.511719 45.425781 207.609375 46.503906 213.5 C 48.089844 222.203125 52.78125 234.894531 57.921875 241.761719 C 61.964844 246.558594 61.722656 253.671875 57.171875 258.222656 L 51.054688 264.339844 L 56.738281 270.078125 L 62.90625 263.90625 L 62.90625 263.957031 C 67.003906 259.859375 73.488281 259.109375 78.421875 262.476562 C 82.761719 265.492188 87.464844 268.054688 92.453125 270.128906 L 92.398438 270.128906 C 97 272.011719 101.792969 273.496094 106.726562 274.472656 C 112.863281 275.117188 117.640625 280.292969 117.640625 286.589844 L 117.640625 295.289062 L 125.691406 295.289062 L 125.691406 286.589844 L 125.746094 286.589844 C 125.746094 280.800781 129.839844 275.710938 135.730469 274.628906 C 145.023438 272.902344 156.734375 268.402344 164.285156 262.910156 C 169.078125 259.164062 175.996094 259.496094 180.390625 263.90625 Z M 305.609375 587.238281 L 396.773438 587.238281 L 396.773438 575.328125 C 381.746094 575.328125 369.652344 577.054688 357.988281 565.390625 C 351.871094 559.253906 348.054688 550.816406 348.054688 541.46875 C 348.054688 534.738281 353.542969 529.316406 360.253906 529.316406 C 366.964844 529.316406 372.457031 534.757812 372.457031 541.46875 C 372.457031 546.664062 376.710938 550.902344 381.886719 550.902344 L 456.4375 550.902344 C 467.558594 550.902344 476.746094 541.765625 476.746094 530.589844 L 476.746094 507.855469 C 476.746094 504.003906 478.574219 500.234375 481.972656 497.863281 L 513.890625 475.671875 L 485.179688 455.757812 C 481.46875 453.144531 479.359375 448.542969 480.144531 443.800781 L 487.898438 396.113281 C 499.457031 325.242188 430.589844 266.539062 361.910156 266.539062 C 291.054688 266.539062 236.113281 326.777344 236.113281 398.101562 C 236.113281 422.214844 242.285156 444.808594 253.058594 464.179688 C 264.074219 483.953125 279.882812 500.460938 298.8125 511.96875 C 302.820312 513.941406 305.574219 518.089844 305.574219 522.882812 L 305.574219 587.238281 Z M 421.191406 587.53125 C 433.933594 589.554688 443.574219 600.625 443.574219 613.773438 L 443.574219 633.300781 C 443.574219 647.925781 431.617188 659.835938 417.042969 659.835938 L 285.375 659.835938 C 270.75 659.835938 258.84375 647.925781 258.84375 633.300781 L 258.84375 613.773438 C 258.84375 600.625 268.484375 589.554688 281.226562 587.53125 L 281.226562 529.5625 C 200.296875 475.933594 187.882812 358.507812 255.585938 287.984375 C 289.140625 253.042969 336.671875 236.042969 386.070312 244.097656 C 459.835938 256.164062 524.714844 321.980469 511.972656 400.019531 L 505.453125 440.101562 L 542.265625 465.699219 C 549.480469 470.683594 549.027344 481.109375 542.074219 485.871094 L 501.21875 514.238281 L 501.21875 530.589844 C 501.21875 555.207031 481.101562 575.3125 456.507812 575.3125 L 421.226562 575.3125 L 421.226562 587.53125 Z M 417.042969 611.59375 L 285.375 611.59375 C 284.242188 611.59375 283.246094 612.585938 283.246094 613.773438 L 283.246094 633.300781 C 283.246094 634.433594 284.242188 635.425781 285.375 635.425781 L 417.042969 635.425781 C 418.175781 635.425781 419.171875 634.433594 419.171875 633.300781 L 419.171875 613.773438 C 419.152344 612.585938 418.175781 611.59375 417.042969 611.59375 Z M 417.042969 611.59375 "/></g></svg>