<svg xmlns="http://www.w3.org/2000/svg" xmlns:xlink="http://www.w3.org/1999/xlink" width="1080" zoomAndPan="magnify" viewBox="0 0 810 809.999993" height="1080" preserveAspectRatio="xMidYMid meet" version="1.0"><defs><clipPath id="0f23c9806d"><path d="M 20.550781 22.355469 L 792.449219 22.355469 L 792.449219 794.25 L 20.550781 794.25 Z M 20.550781 22.355469 " clip-rule="nonzero"/></clipPath><clipPath id="a7325b2755"><path d="M 406.5 22.355469 C 193.347656 22.355469 20.550781 195.148438 20.550781 408.300781 C 20.550781 621.457031 193.347656 794.25 406.5 794.25 C 619.652344 794.25 792.449219 621.457031 792.449219 408.300781 C 792.449219 195.148438 619.652344 22.355469 406.5 22.355469 Z M 406.5 22.355469 " clip-rule="nonzero"/></clipPath><clipPath id="ad71f5a3d6"><path d="M 0.550781 0.355469 L 772.449219 0.355469 L 772.449219 772.25 L 0.550781 772.25 Z M 0.550781 0.355469 " clip-rule="nonzero"/></clipPath><clipPath id="794931def6"><path d="M 386.5 0.355469 C 173.347656 0.355469 0.550781 173.148438 0.550781 386.300781 C 0.550781 599.457031 173.347656 772.25 386.5 772.25 C 599.652344 772.25 772.449219 599.457031 772.449219 386.300781 C 772.449219 173.148438 599.652344 0.355469 386.5 0.355469 Z M 386.5 0.355469 " clip-rule="nonzero"/></clipPath><clipPath id="0e38221d5f"><rect x="0" width="773" y="0" height="773"/></clipPath><clipPath id="7718780663"><path d="M 172 45.941406 L 732 45.941406 L 732 763.691406 L 172 763.691406 Z M 172 45.941406 " clip-rule="nonzero"/></clipPath></defs><g clip-path="url(#0f23c9806d)"><g clip-path="url(#a7325b2755)"><g transform="matrix(1, 0, 0, 1, 20, 22)"><g clip-path="url(#0e38221d5f)"><g clip-path="url(#ad71f5a3d6)"><g clip-path="url(#794931def6)"><path fill="#000000" d="M 0.550781 0.355469 L 772.449219 0.355469 L 772.449219 772.25 L 0.550781 772.25 Z M 0.550781 0.355469 " fill-opacity="1" fill-rule="nonzero"/></g></g></g></g></g></g><g clip-path="url(#7718780663)"><path fill="#ffffff" d="M 536.1875 626.761719 C 536.1875 634.085938 533.511719 640.84375 528.863281 645.910156 L 279.925781 645.910156 C 263.453125 628.171875 277.109375 597.195312 301.609375 597.757812 C 301.609375 597.757812 507.179688 597.757812 507.179688 597.757812 C 523.230469 597.757812 536.1875 610.710938 536.1875 626.761719 Z M 279.925781 665.484375 C 263.453125 683.222656 277.109375 714.199219 301.609375 713.636719 L 507.179688 713.636719 C 531.679688 714.199219 545.335938 683.082031 528.722656 665.484375 Z M 361.730469 764.042969 L 447.199219 764.042969 C 465.503906 764.042969 480.570312 750.667969 483.527344 733.207031 L 325.40625 733.207031 C 328.363281 750.667969 343.429688 764.042969 361.730469 764.042969 Z M 546.605469 475.683594 C 516.472656 501.871094 498.027344 538.761719 494.226562 578.1875 L 431.851562 578.1875 L 431.851562 183.941406 C 431.851562 175.632812 438.890625 169.015625 447.199219 169.71875 C 601.234375 183.378906 661.359375 376.699219 546.605469 475.683594 Z M 573.921875 343.890625 C 574.34375 284.753906 535.480469 229.28125 479.441406 209.988281 C 473.667969 207.878906 467.050781 210.976562 465.082031 216.890625 C 462.96875 222.800781 465.925781 229.136719 471.839844 231.25 C 518.867188 247.441406 551.671875 294.046875 551.25 343.890625 C 551.53125 358.675781 573.78125 358.675781 573.921875 343.890625 Z M 287.390625 511.164062 C 294.710938 503.5625 311.324219 493.703125 317.519531 507.644531 C 319.773438 513.417969 316.816406 520.035156 310.902344 522.289062 C 285.558594 533.832031 298.652344 568.046875 314.421875 578.1875 L 364.972656 578.1875 C 375.8125 570.300781 382.851562 557.628906 382.851562 543.265625 L 382.851562 224.070312 C 382.570312 178.027344 319.492188 164.511719 300.625 206.328125 C 315.832031 209.285156 360.746094 247.582031 328.503906 254.765625 C 317.800781 254.34375 315.410156 240.121094 306.960938 235.332031 C 264.578125 201.824219 204.316406 247.722656 222.621094 296.582031 C 241.769531 293.0625 266.972656 302.496094 279.785156 318.6875 C 286.121094 325.585938 280.347656 337.554688 271.195312 337.273438 C 267.957031 337.273438 264.859375 335.867188 262.609375 333.191406 C 259.652344 329.671875 253.035156 323.195312 242.613281 320.238281 C 235.292969 317.84375 225.15625 318.40625 219.242188 320.378906 C 160.808594 337.414062 156.019531 420.488281 211.777344 444.285156 C 219.382812 432.035156 263.875 398.101562 271.902344 421.894531 C 273.449219 427.949219 269.648438 434.144531 263.734375 435.554688 C 199.527344 451.464844 208.398438 541.578125 274.574219 543.40625 C 274.71875 532.425781 278.238281 520.316406 287.390625 511.164062 Z M 583.496094 205.203125 C 586.453125 205.203125 589.269531 204.074219 591.519531 201.964844 L 643.757812 149.726562 C 654.035156 139.027344 638.40625 123.398438 627.847656 133.816406 C 627.847656 133.816406 575.609375 186.054688 575.609375 186.054688 C 568.289062 192.671875 573.78125 205.484375 583.496094 205.203125 Z M 720.074219 334.175781 L 646.292969 334.175781 C 631.367188 334.457031 631.507812 356.5625 646.292969 356.703125 L 720.074219 356.703125 C 734.996094 356.5625 734.855469 334.457031 720.074219 334.175781 Z M 591.378906 489.199219 C 580.679688 478.921875 565.050781 494.550781 575.46875 505.109375 L 627.707031 557.347656 C 638.265625 567.765625 654.035156 551.855469 643.617188 541.4375 C 643.617188 541.296875 591.378906 489.199219 591.378906 489.199219 Z M 431.851562 142.40625 C 438.046875 142.40625 443.117188 137.335938 443.117188 131.140625 L 443.117188 57.21875 C 443.117188 51.023438 438.046875 45.957031 431.851562 45.957031 C 425.65625 45.957031 420.585938 51.023438 420.585938 57.21875 L 420.585938 131 C 420.585938 137.335938 425.65625 142.40625 431.851562 142.40625 Z M 431.851562 142.40625 " fill-opacity="1" fill-rule="nonzero"/></g></svg>