<svg xmlns="http://www.w3.org/2000/svg" xmlns:xlink="http://www.w3.org/1999/xlink" width="1080" zoomAndPan="magnify" viewBox="0 0 810 809.999993" height="1080" preserveAspectRatio="xMidYMid meet" version="1.0"><defs><clipPath id="73e93d569c"><path d="M 20.550781 22.355469 L 792.449219 22.355469 L 792.449219 794.25 L 20.550781 794.25 Z M 20.550781 22.355469 " clip-rule="nonzero"/></clipPath><clipPath id="e2c2f7709b"><path d="M 406.5 22.355469 C 193.347656 22.355469 20.550781 195.148438 20.550781 408.300781 C 20.550781 621.457031 193.347656 794.25 406.5 794.25 C 619.652344 794.25 792.449219 621.457031 792.449219 408.300781 C 792.449219 195.148438 619.652344 22.355469 406.5 22.355469 Z M 406.5 22.355469 " clip-rule="nonzero"/></clipPath><clipPath id="91ba4384f3"><path d="M 0.550781 0.355469 L 772.449219 0.355469 L 772.449219 772.25 L 0.550781 772.25 Z M 0.550781 0.355469 " clip-rule="nonzero"/></clipPath><clipPath id="3baab02a70"><path d="M 386.5 0.355469 C 173.347656 0.355469 0.550781 173.148438 0.550781 386.300781 C 0.550781 599.457031 173.347656 772.25 386.5 772.25 C 599.652344 772.25 772.449219 599.457031 772.449219 386.300781 C 772.449219 173.148438 599.652344 0.355469 386.5 0.355469 Z M 386.5 0.355469 " clip-rule="nonzero"/></clipPath><clipPath id="2d1b3cccd6"><rect x="0" width="773" y="0" height="773"/></clipPath><clipPath id="b8061cd7d8"><path d="M 172 45.941406 L 732 45.941406 L 732 763.691406 L 172 763.691406 Z M 172 45.941406 " clip-rule="nonzero"/></clipPath></defs><g clip-path="url(#73e93d569c)"><g clip-path="url(#e2c2f7709b)"><g transform="matrix(1, 0, 0, 1, 20, 22)"><g clip-path="url(#2d1b3cccd6)"><g clip-path="url(#91ba4384f3)"><g clip-path="url(#3baab02a70)"><path fill="#ffffff" d="M 0.550781 0.355469 L 772.449219 0.355469 L 772.449219 772.25 L 0.550781 772.25 Z M 0.550781 0.355469 " fill-opacity="1" fill-rule="nonzero"/></g></g></g></g></g></g><g clip-path="url(#b8061cd7d8)"><path fill="#000000" d="M 536.199219 626.46875 C 536.199219 633.785156 533.527344 640.542969 528.878906 645.609375 L 279.929688 645.609375 C 263.457031 627.875 277.117188 596.914062 301.617188 597.476562 C 301.617188 597.476562 507.195312 597.476562 507.195312 597.476562 C 523.246094 597.476562 536.199219 610.425781 536.199219 626.46875 Z M 279.929688 665.167969 C 263.457031 682.902344 277.117188 713.863281 301.617188 713.300781 L 507.195312 713.300781 C 531.695312 713.863281 545.351562 682.761719 528.738281 665.167969 Z M 361.742188 763.679688 L 447.210938 763.679688 C 465.515625 763.679688 480.582031 750.3125 483.539062 732.859375 L 325.414062 732.859375 C 328.371094 750.3125 343.4375 763.679688 361.742188 763.679688 Z M 546.621094 475.464844 C 516.488281 501.640625 498.042969 538.511719 494.242188 577.917969 L 431.863281 577.917969 L 431.863281 183.871094 C 431.863281 175.570312 438.902344 168.953125 447.210938 169.65625 C 601.253906 183.308594 661.378906 376.53125 546.621094 475.464844 Z M 573.9375 343.742188 C 574.359375 284.632812 535.496094 229.1875 479.457031 209.90625 C 473.683594 207.796875 467.066406 210.890625 465.09375 216.800781 C 462.980469 222.714844 465.9375 229.046875 471.851562 231.15625 C 518.882812 247.339844 551.691406 293.921875 551.265625 343.742188 C 551.550781 358.519531 573.796875 358.519531 573.9375 343.742188 Z M 287.394531 510.929688 C 294.714844 503.328125 311.332031 493.480469 317.527344 507.410156 C 319.78125 513.179688 316.824219 519.796875 310.910156 522.046875 C 285.5625 533.585938 298.660156 567.785156 314.429688 577.917969 L 364.980469 577.917969 C 375.820312 570.035156 382.863281 557.371094 382.863281 543.015625 L 382.863281 223.980469 C 382.582031 177.960938 319.5 164.449219 300.628906 206.246094 C 315.835938 209.203125 360.753906 247.480469 328.511719 254.660156 C 317.808594 254.238281 315.414062 240.023438 306.964844 235.238281 C 264.582031 201.746094 204.316406 247.621094 222.621094 296.457031 C 241.773438 292.9375 266.976562 302.367188 279.789062 318.550781 C 286.128906 325.445312 280.355469 337.410156 271.203125 337.128906 C 267.964844 337.128906 264.863281 335.71875 262.613281 333.046875 C 259.65625 329.527344 253.039062 323.054688 242.617188 320.097656 C 235.296875 317.707031 225.15625 318.269531 219.242188 320.238281 C 160.808594 337.269531 156.019531 420.296875 211.78125 444.082031 C 219.382812 431.839844 263.878906 397.921875 271.90625 421.707031 C 273.453125 427.757812 269.652344 433.949219 263.738281 435.355469 C 199.53125 451.257812 208.402344 541.328125 274.582031 543.15625 C 274.722656 532.179688 278.242188 520.078125 287.394531 510.929688 Z M 583.511719 205.121094 C 586.46875 205.121094 589.285156 203.996094 591.539062 201.886719 L 643.777344 149.675781 C 654.058594 138.976562 638.425781 123.355469 627.867188 133.769531 C 627.867188 133.769531 575.628906 185.984375 575.628906 185.984375 C 568.304688 192.597656 573.796875 205.402344 583.511719 205.121094 Z M 720.09375 334.03125 L 646.3125 334.03125 C 631.386719 334.3125 631.527344 356.40625 646.3125 356.546875 L 720.09375 356.546875 C 735.019531 356.40625 734.878906 334.3125 720.09375 334.03125 Z M 591.398438 488.976562 C 580.695312 478.703125 565.066406 494.324219 575.484375 504.878906 L 627.726562 557.089844 C 638.285156 567.503906 654.058594 551.601562 643.636719 541.1875 C 643.636719 541.046875 591.398438 488.976562 591.398438 488.976562 Z M 431.863281 142.355469 C 438.058594 142.355469 443.128906 137.289062 443.128906 131.097656 L 443.128906 57.214844 C 443.128906 51.023438 438.058594 45.957031 431.863281 45.957031 C 425.667969 45.957031 420.597656 51.023438 420.597656 57.214844 L 420.597656 130.957031 C 420.597656 137.289062 425.667969 142.355469 431.863281 142.355469 Z M 431.863281 142.355469 " fill-opacity="1" fill-rule="nonzero"/></g></svg>