<svg xmlns="http://www.w3.org/2000/svg" xmlns:xlink="http://www.w3.org/1999/xlink" width="1080" zoomAndPan="magnify" viewBox="0 0 810 809.999993" height="1080" preserveAspectRatio="xMidYMid meet" version="1.2"><defs><clipPath id="ca9981d8ca"><path d="M 6.207031 6.207031 L 803.457031 6.207031 L 803.457031 803.457031 L 6.207031 803.457031 Z M 6.207031 6.207031 "/></clipPath></defs><g id="6a73177e43"><g clip-rule="nonzero" clip-path="url(#ca9981d8ca)"><path style=" stroke:none;fill-rule:evenodd;fill:#000000;fill-opacity:1;" d="M 404.90625 6.207031 C 625.09375 6.207031 803.566406 184.714844 803.566406 404.867188 C 803.566406 625.058594 625.058594 803.53125 404.90625 803.53125 C 184.714844 803.53125 6.242188 625.019531 6.242188 404.867188 C 6.242188 184.679688 184.753906 6.207031 404.90625 6.207031 Z M 435.3125 153.1875 C 472.796875 153.1875 503.167969 183.554688 503.167969 221.039062 C 503.167969 258.523438 472.796875 288.894531 435.3125 288.894531 C 397.828125 288.894531 367.457031 258.523438 367.457031 221.039062 C 367.457031 183.554688 397.828125 153.1875 435.3125 153.1875 Z M 320.199219 326.753906 C 320.199219 326.753906 439.542969 326.753906 461.976562 326.753906 C 484.441406 326.753906 490.773438 345.925781 486.539062 360.679688 C 482.308594 375.433594 442.316406 587.160156 456.359375 611.015625 C 470.402344 634.867188 502.90625 595.324219 514.140625 594.648438 C 525.371094 593.9375 533.796875 604.238281 527.695312 620.601562 C 521.628906 636.964844 485.792969 673.027344 410.484375 673.027344 C 335.140625 673.027344 309.414062 610.339844 322.074219 545.746094 C 334.691406 481.183594 351.769531 401.160156 352.703125 390.152344 C 353.640625 379.140625 352.140625 364.875 334.128906 364.988281 C 327.613281 365.023438 321.285156 364.835938 315.855469 363.863281 C 289.832031 359.03125 296.644531 326.042969 320.199219 326.753906 Z M 320.199219 326.753906 "/><path style=" stroke:none;fill-rule:evenodd;fill:#ffffff;fill-opacity:1;" d="M 404.90625 6.207031 C 625.09375 6.207031 803.566406 184.714844 803.566406 404.867188 C 803.566406 625.058594 625.058594 803.53125 404.90625 803.53125 C 184.714844 803.53125 6.242188 625.019531 6.242188 404.867188 C 6.242188 184.679688 184.753906 6.207031 404.90625 6.207031 Z M 435.3125 153.1875 C 472.796875 153.1875 503.167969 183.554688 503.167969 221.039062 C 503.167969 258.523438 472.796875 288.894531 435.3125 288.894531 C 397.828125 288.894531 367.457031 258.523438 367.457031 221.039062 C 367.457031 183.554688 397.828125 153.1875 435.3125 153.1875 Z M 320.199219 326.753906 C 320.199219 326.753906 439.542969 326.753906 461.976562 326.753906 C 484.441406 326.753906 490.773438 345.925781 486.539062 360.679688 C 482.308594 375.433594 442.316406 587.160156 456.359375 611.015625 C 470.402344 634.867188 502.90625 595.324219 514.140625 594.648438 C 525.371094 593.9375 533.796875 604.238281 527.695312 620.601562 C 521.628906 636.964844 485.792969 673.027344 410.484375 673.027344 C 335.140625 673.027344 309.414062 610.339844 322.074219 545.746094 C 334.691406 481.183594 351.769531 401.160156 352.703125 390.152344 C 353.640625 379.140625 352.140625 364.875 334.128906 364.988281 C 327.613281 365.023438 321.285156 364.835938 315.855469 363.863281 C 289.832031 359.03125 296.644531 326.042969 320.199219 326.753906 Z M 320.199219 326.753906 "/></g></g></svg>