<svg xmlns="http://www.w3.org/2000/svg" xmlns:xlink="http://www.w3.org/1999/xlink" width="1080" zoomAndPan="magnify" viewBox="0 0 810 809.999993" height="1080" preserveAspectRatio="xMidYMid meet" version="1.2"><defs><clipPath id="85f713d708"><path d="M 4.898438 6.046875 L 805.148438 6.046875 L 805.148438 806.296875 L 4.898438 806.296875 Z M 4.898438 6.046875 "/></clipPath><clipPath id="1e882b67cd"><path d="M 4.898438 6.796875 L 805.148438 6.796875 L 805.148438 807.046875 L 4.898438 807.046875 Z M 4.898438 6.796875 "/></clipPath></defs><g id="0fb41a41a1"><g clip-rule="nonzero" clip-path="url(#85f713d708)"><path style=" stroke:none;fill-rule:evenodd;fill:#000000;fill-opacity:1;" d="M 405.097656 6.046875 C 626.117188 6.046875 805.261719 185.230469 805.261719 406.210938 C 805.261719 627.230469 626.078125 806.375 405.097656 806.375 C 184.082031 806.375 4.9375 627.191406 4.9375 406.210938 C 4.9375 185.191406 184.117188 6.046875 405.097656 6.046875 Z M 435.621094 153.582031 C 473.246094 153.582031 503.730469 184.066406 503.730469 221.691406 C 503.730469 259.316406 473.246094 289.800781 435.621094 289.800781 C 397.996094 289.800781 367.511719 259.316406 367.511719 221.691406 C 367.511719 184.066406 397.996094 153.582031 435.621094 153.582031 Z M 320.074219 327.800781 C 320.074219 327.800781 439.867188 327.800781 462.382812 327.800781 C 484.9375 327.800781 491.289062 347.046875 487.042969 361.855469 C 482.792969 376.667969 442.648438 589.191406 456.746094 613.132812 C 470.839844 637.078125 503.46875 597.382812 514.742188 596.707031 C 526.019531 595.992188 534.476562 606.328125 528.351562 622.753906 C 522.261719 639.183594 486.289062 675.378906 410.699219 675.378906 C 335.074219 675.378906 309.25 612.457031 321.953125 547.617188 C 334.621094 482.816406 351.761719 402.488281 352.703125 391.4375 C 353.640625 380.386719 352.136719 366.066406 334.058594 366.179688 C 327.515625 366.21875 321.164062 366.027344 315.714844 365.050781 C 289.589844 360.203125 296.433594 327.089844 320.074219 327.800781 Z M 320.074219 327.800781 "/></g><g clip-rule="nonzero" clip-path="url(#1e882b67cd)"><path style=" stroke:none;fill-rule:evenodd;fill:#000000;fill-opacity:1;" d="M 405.097656 6.796875 C 626.117188 6.796875 805.261719 185.980469 805.261719 406.960938 C 805.261719 627.980469 626.078125 807.125 405.097656 807.125 C 184.082031 807.125 4.9375 627.941406 4.9375 406.960938 C 4.9375 185.941406 184.117188 6.796875 405.097656 6.796875 Z M 435.621094 154.332031 C 473.246094 154.332031 503.730469 184.816406 503.730469 222.441406 C 503.730469 260.066406 473.246094 290.550781 435.621094 290.550781 C 397.996094 290.550781 367.511719 260.066406 367.511719 222.441406 C 367.511719 184.816406 397.996094 154.332031 435.621094 154.332031 Z M 320.074219 328.550781 C 320.074219 328.550781 439.867188 328.550781 462.382812 328.550781 C 484.9375 328.550781 491.289062 347.796875 487.042969 362.605469 C 482.792969 377.417969 442.648438 589.941406 456.746094 613.882812 C 470.839844 637.828125 503.46875 598.132812 514.742188 597.457031 C 526.019531 596.742188 534.476562 607.078125 528.351562 623.503906 C 522.261719 639.933594 486.289062 676.128906 410.699219 676.128906 C 335.074219 676.128906 309.25 613.207031 321.953125 548.367188 C 334.621094 483.566406 351.761719 403.238281 352.703125 392.1875 C 353.640625 381.136719 352.136719 366.816406 334.058594 366.929688 C 327.515625 366.96875 321.164062 366.777344 315.714844 365.800781 C 289.589844 360.953125 296.433594 327.839844 320.074219 328.550781 Z M 320.074219 328.550781 "/></g></g></svg>