<svg xmlns="http://www.w3.org/2000/svg" xmlns:xlink="http://www.w3.org/1999/xlink" width="500" zoomAndPan="magnify" viewBox="0 0 375 374.999991" height="500" preserveAspectRatio="xMidYMid meet" version="1.2"><defs><clipPath id="5ba4913db7"><path d="M 0 72.46875 L 217 72.46875 L 217 292.21875 L 0 292.21875 Z M 0 72.46875 "/></clipPath><clipPath id="7ca8b369bc"><path d="M 211 72.46875 L 375 72.46875 L 375 292.21875 L 211 292.21875 Z M 211 72.46875 "/></clipPath><clipPath id="c81e54918c"><path d="M 0 72.46875 L 217 72.46875 L 217 292.21875 L 0 292.21875 Z M 0 72.46875 "/></clipPath><clipPath id="d5cc4440ef"><path d="M 211 72.46875 L 375 72.46875 L 375 292.21875 L 211 292.21875 Z M 211 72.46875 "/></clipPath></defs><g id="d1f0afcafc"><rect x="0" width="375" y="0" height="374.999991" style="fill:#ffffff;fill-opacity:1;stroke:none;"/><rect x="0" width="375" y="0" height="374.999991" style="fill:#ffffff;fill-opacity:1;stroke:none;"/><g clip-rule="nonzero" clip-path="url(#5ba4913db7)"><path style=" stroke:none;fill-rule:nonzero;fill:#000000;fill-opacity:1;" d="M 119.316406 194.941406 L 216.355469 292.242188 L 25.347656 292.242188 L 25.347656 267.074219 L 0.171875 267.074219 L 0.171875 72.46875 L 191.171875 72.46875 L 165.992188 97.636719 L 216.65625 97.636719 Z M 38.246094 110.527344 L 38.246094 279.660156 L 185.949219 279.660156 L 101.507812 194.941406 L 186.257812 110.527344 Z M 123.304688 270.144531 L 123.304688 263.699219 L 147.875 263.699219 L 119.925781 235.761719 L 129.136719 235.761719 L 162.917969 270.144531 Z M 123.304688 270.144531 "/></g><g clip-rule="nonzero" clip-path="url(#7ca8b369bc)"><path style=" stroke:none;fill-rule:nonzero;fill:#000000;fill-opacity:1;" d="M 374.808594 223.488281 C 374.808594 232.695312 373.007812 241.5 369.429688 249.886719 C 365.84375 258.285156 360.929688 265.59375 354.6875 271.832031 C 348.441406 278.078125 341.128906 283.035156 332.734375 286.722656 C 324.335938 290.40625 315.332031 292.25 305.714844 292.25 C 284.425781 292.25 264.976562 282.527344 247.367188 263.089844 L 250.746094 259.710938 C 240.308594 254.800781 230.78125 247.4375 222.1875 237.613281 L 251.363281 208.453125 C 249.519531 206.410156 247.777344 203.847656 246.140625 200.78125 C 235.496094 194.441406 227.046875 186 220.808594 175.457031 C 214.558594 164.917969 211.445312 153.515625 211.445312 141.230469 C 211.445312 131.617188 213.289062 122.609375 216.972656 114.222656 C 220.660156 105.832031 225.621094 98.570312 231.871094 92.429688 C 238.109375 86.292969 245.382812 81.4375 253.667969 77.851562 C 261.953125 74.265625 270.800781 72.46875 280.21875 72.46875 C 299.667969 72.46875 319.113281 82.191406 338.566406 101.628906 L 335.1875 105.007812 C 344.199219 109.511719 353.816406 116.875 364.054688 127.105469 L 335.1875 156.265625 C 336.824219 158.519531 338.460938 161.078125 340.101562 163.9375 C 351.15625 170.078125 359.703125 178.417969 365.742188 188.953125 C 371.78125 199.5 374.808594 211.003906 374.808594 223.488281 Z M 362.210938 223.488281 C 362.210938 215.714844 360.722656 208.398438 357.757812 201.542969 C 354.789062 194.6875 350.746094 188.757812 345.632812 183.738281 C 340.511719 178.726562 334.523438 174.734375 327.667969 171.765625 C 320.808594 168.804688 313.488281 167.316406 305.714844 167.316406 L 345.941406 127.105469 C 335.089844 116.054688 321.683594 110.527344 305.714844 110.527344 C 297.929688 110.527344 290.664062 111.960938 283.914062 114.824219 C 277.15625 117.691406 271.21875 121.632812 266.105469 126.644531 C 260.980469 131.664062 256.941406 137.59375 253.976562 144.445312 C 251.007812 151.300781 249.527344 158.617188 249.527344 166.390625 C 249.527344 174.171875 251.007812 181.488281 253.976562 188.335938 C 256.941406 195.191406 260.933594 201.125 265.957031 206.136719 C 270.972656 211.15625 276.902344 215.144531 283.769531 218.113281 C 290.625 221.082031 297.9375 222.5625 305.722656 222.5625 L 264.878906 263.390625 C 274.703125 274.238281 288.3125 279.660156 305.722656 279.660156 C 313.707031 279.660156 321.125 278.179688 327.984375 275.210938 C 334.839844 272.25 340.773438 268.199219 345.796875 263.089844 C 350.808594 257.976562 354.796875 252.039062 357.773438 245.285156 C 360.730469 238.53125 362.210938 231.265625 362.210938 223.488281 Z M 301.71875 162.40625 L 297.113281 157.800781 L 325.667969 126.796875 L 330.273438 131.09375 Z M 355.152344 222.5625 C 355.152344 229.523438 353.871094 236.070312 351.3125 242.207031 C 348.75 248.347656 345.214844 253.71875 340.71875 258.324219 C 336.214844 262.925781 330.9375 266.566406 324.90625 269.21875 C 318.867188 271.878906 312.472656 273.203125 305.714844 273.203125 L 305.714844 267.066406 C 311.445312 267.066406 316.921875 265.742188 322.144531 263.082031 C 327.367188 260.421875 331.917969 256.996094 335.8125 252.792969 C 339.703125 248.601562 342.824219 243.84375 345.179688 238.523438 C 347.53125 233.203125 348.710938 227.882812 348.710938 222.5625 Z M 355.152344 222.5625 "/></g><g clip-rule="nonzero" clip-path="url(#c81e54918c)"><path style=" stroke:none;fill-rule:nonzero;fill:#000000;fill-opacity:1;" d="M 119.316406 194.941406 L 216.355469 292.242188 L 25.347656 292.242188 L 25.347656 267.074219 L 0.171875 267.074219 L 0.171875 72.46875 L 191.171875 72.46875 L 165.992188 97.636719 L 216.65625 97.636719 Z M 38.246094 110.527344 L 38.246094 279.660156 L 185.949219 279.660156 L 101.507812 194.941406 L 186.257812 110.527344 Z M 123.304688 270.144531 L 123.304688 263.699219 L 147.875 263.699219 L 119.925781 235.761719 L 129.136719 235.761719 L 162.917969 270.144531 Z M 123.304688 270.144531 "/></g><g clip-rule="nonzero" clip-path="url(#d5cc4440ef)"><path style=" stroke:none;fill-rule:nonzero;fill:#000000;fill-opacity:1;" d="M 374.808594 223.488281 C 374.808594 232.695312 373.007812 241.5 369.429688 249.886719 C 365.84375 258.285156 360.929688 265.59375 354.6875 271.832031 C 348.441406 278.078125 341.128906 283.035156 332.734375 286.722656 C 324.335938 290.40625 315.332031 292.25 305.714844 292.25 C 284.425781 292.25 264.976562 282.527344 247.367188 263.089844 L 250.746094 259.710938 C 240.308594 254.800781 230.78125 247.4375 222.1875 237.613281 L 251.363281 208.453125 C 249.519531 206.410156 247.777344 203.847656 246.140625 200.78125 C 235.496094 194.441406 227.046875 186 220.808594 175.457031 C 214.558594 164.917969 211.445312 153.515625 211.445312 141.230469 C 211.445312 131.617188 213.289062 122.609375 216.972656 114.222656 C 220.660156 105.832031 225.621094 98.570312 231.871094 92.429688 C 238.109375 86.292969 245.382812 81.4375 253.667969 77.851562 C 261.953125 74.265625 270.800781 72.46875 280.21875 72.46875 C 299.667969 72.46875 319.113281 82.191406 338.566406 101.628906 L 335.1875 105.007812 C 344.199219 109.511719 353.816406 116.875 364.054688 127.105469 L 335.1875 156.265625 C 336.824219 158.519531 338.460938 161.078125 340.101562 163.9375 C 351.15625 170.078125 359.703125 178.417969 365.742188 188.953125 C 371.78125 199.5 374.808594 211.003906 374.808594 223.488281 Z M 362.210938 223.488281 C 362.210938 215.714844 360.722656 208.398438 357.757812 201.542969 C 354.789062 194.6875 350.746094 188.757812 345.632812 183.738281 C 340.511719 178.726562 334.523438 174.734375 327.667969 171.765625 C 320.808594 168.804688 313.488281 167.316406 305.714844 167.316406 L 345.941406 127.105469 C 335.089844 116.054688 321.683594 110.527344 305.714844 110.527344 C 297.929688 110.527344 290.664062 111.960938 283.914062 114.824219 C 277.15625 117.691406 271.21875 121.632812 266.105469 126.644531 C 260.980469 131.664062 256.941406 137.59375 253.976562 144.445312 C 251.007812 151.300781 249.527344 158.617188 249.527344 166.390625 C 249.527344 174.171875 251.007812 181.488281 253.976562 188.335938 C 256.941406 195.191406 260.933594 201.125 265.957031 206.136719 C 270.972656 211.15625 276.902344 215.144531 283.769531 218.113281 C 290.625 221.082031 297.9375 222.5625 305.722656 222.5625 L 264.878906 263.390625 C 274.703125 274.238281 288.3125 279.660156 305.722656 279.660156 C 313.707031 279.660156 321.125 278.179688 327.984375 275.210938 C 334.839844 272.25 340.773438 268.199219 345.796875 263.089844 C 350.808594 257.976562 354.796875 252.039062 357.773438 245.285156 C 360.730469 238.53125 362.210938 231.265625 362.210938 223.488281 Z M 301.71875 162.40625 L 297.113281 157.800781 L 325.667969 126.796875 L 330.273438 131.09375 Z M 355.152344 222.5625 C 355.152344 229.523438 353.871094 236.070312 351.3125 242.207031 C 348.75 248.347656 345.214844 253.71875 340.71875 258.324219 C 336.214844 262.925781 330.9375 266.566406 324.90625 269.21875 C 318.867188 271.878906 312.472656 273.203125 305.714844 273.203125 L 305.714844 267.066406 C 311.445312 267.066406 316.921875 265.742188 322.144531 263.082031 C 327.367188 260.421875 331.917969 256.996094 335.8125 252.792969 C 339.703125 248.601562 342.824219 243.84375 345.179688 238.523438 C 347.53125 233.203125 348.710938 227.882812 348.710938 222.5625 Z M 355.152344 222.5625 "/></g></g></svg>