<svg xmlns="http://www.w3.org/2000/svg" xmlns:xlink="http://www.w3.org/1999/xlink" width="500" zoomAndPan="magnify" viewBox="0 0 375 374.999991" height="500" preserveAspectRatio="xMidYMid meet" version="1.2"><defs><clipPath id="877b13ed19"><path d="M 37.5 0 L 345.75 0 L 345.75 375 L 37.5 375 Z M 37.5 0 "/></clipPath></defs><g id="820c5db57e"><g clip-rule="nonzero" clip-path="url(#877b13ed19)"><path style=" stroke:none;fill-rule:nonzero;fill:#000000;fill-opacity:1;" d="M 345.710938 374.757812 L 175 374.757812 L 217.675781 300.878906 L 178.625 233.386719 L 96.902344 374.757812 L 37.5 374.757812 L 37.5 0.25 L 111.277344 0.25 L 111.277344 201.464844 L 228.046875 0.25 L 313.40625 0.25 L 221.308594 159.570312 Z M 345.710938 374.757812 "/><path style=" stroke:none;fill-rule:nonzero;fill:#000000;fill-opacity:1;" d="M 345.710938 374.757812 L 175 374.757812 L 217.675781 300.878906 L 178.625 233.386719 L 96.902344 374.757812 L 37.5 374.757812 L 37.5 0.25 L 111.277344 0.25 L 111.277344 201.464844 L 228.046875 0.25 L 313.40625 0.25 L 221.308594 159.570312 Z M 345.710938 374.757812 "/></g></g></svg>